<svg width="20" height="20" viewBox="0 0 20 20" fill="none" xmlns="http://www.w3.org/2000/svg">
<g id="adoption 1" clip-path="url(#clip0_8_4315)">
<g id="XMLID_675_">
<g id="XMLID_1072_">
<path id="XMLID_1133_" d="M10.4104 6.38287C10.5589 6.2344 10.5589 5.99365 10.4104 5.84518C10.262 5.69671 10.0212 5.69671 9.87272 5.84518C9.82576 5.89217 9.77086 5.89917 9.74234 5.89917C9.71383 5.89917 9.65896 5.89213 9.61197 5.84518C9.46354 5.69671 9.22283 5.69671 9.07428 5.84518C8.92577 5.99365 8.92577 6.2344 9.07424 6.38287C9.25267 6.56134 9.48996 6.65962 9.74231 6.65962C9.99465 6.65962 10.232 6.56134 10.4104 6.38287Z" fill="white"/>
<path id="XMLID_1134_" d="M9.46633 17.1852H5.95226C5.85142 17.1852 5.75474 17.2253 5.68341 17.2966L4.1625 18.8174C4.01403 18.9659 4.01403 19.2067 4.1625 19.3551C4.23676 19.4294 4.33405 19.4665 4.43135 19.4665C4.52864 19.4665 4.62594 19.4294 4.70019 19.3551L6.10978 17.9456H9.46633C9.67628 17.9456 9.84654 17.7754 9.84654 17.5654C9.84654 17.3554 9.67628 17.1852 9.46633 17.1852Z" fill="white"/>
<path id="XMLID_1142_" d="M19.4521 11.8157C19.4136 11.4022 19.1998 11.0238 18.8654 10.7775C18.2647 10.335 17.4314 10.4159 16.9272 10.9658L15.4368 12.5909V12.3027C15.4368 10.5989 14.2239 9.12138 12.5527 8.7895L11.7592 8.63186C11.495 8.57939 11.2659 8.43172 11.1096 8.22379C12.093 7.83362 12.873 7.03807 13.2424 6.04451C13.3053 6.12557 13.3733 6.20347 13.447 6.27719C13.9142 6.74436 14.5391 7.00088 15.1923 7.00088C15.2779 7.00088 15.364 6.99647 15.4503 6.98754C15.5611 6.97609 15.6613 6.91667 15.7244 6.825C15.7876 6.73329 15.8073 6.61851 15.7785 6.51095L15.7082 6.24883L15.9704 6.31906C16.0779 6.34788 16.1928 6.32814 16.2845 6.26495C16.3762 6.2018 16.4356 6.10165 16.447 5.9909C16.524 5.24614 16.2651 4.51599 15.7366 3.98758C15.1345 3.38548 14.2687 3.1415 13.4521 3.32241C13.2428 1.45589 11.6552 3.05176e-05 9.73369 3.05176e-05C7.81219 3.05176e-05 6.22459 1.45589 6.01533 3.32241C5.19864 3.1415 4.33283 3.38544 3.73073 3.98758C3.20232 4.51603 2.9434 5.24622 3.02039 5.9909C3.03187 6.10165 3.09126 6.2018 3.18297 6.26495C3.27463 6.3281 3.38942 6.34784 3.49698 6.31906L3.75913 6.24883L3.68887 6.51095C3.66005 6.61851 3.67982 6.73329 3.74297 6.825C3.80613 6.9167 3.90627 6.97613 4.01703 6.98754C4.10337 6.99647 4.18945 7.00088 4.27515 7.00088C4.92831 7.00084 5.55322 6.74432 6.02035 6.27719C6.09407 6.20347 6.16209 6.12557 6.22494 6.04451C6.59446 7.03807 7.37442 7.83362 8.35783 8.22379C8.20149 8.43172 7.97245 8.57939 7.70828 8.63186L6.91471 8.7895C5.25042 9.12001 4.04102 10.5868 4.03106 12.2817C3.53424 12.5208 3.07597 12.8445 2.67459 13.2459L0.120387 15.8001C-0.0280846 15.9486 -0.0280846 16.1893 0.120387 16.3378C0.194641 16.412 0.291937 16.4491 0.389232 16.4491C0.486527 16.4491 0.583823 16.412 0.658077 16.3378L3.21224 13.7836C4.0038 12.992 5.05629 12.5561 6.17577 12.5561C6.92908 12.5561 7.63722 12.8494 8.16985 13.3821C8.24118 13.4534 8.33787 13.4934 8.4387 13.4934H10.932C11.3011 13.4934 11.6013 13.7936 11.6013 14.1627C11.6013 14.5317 11.3011 14.8319 10.932 14.8319H8.04172C7.83177 14.8319 7.66151 15.0021 7.66151 15.2121C7.66151 15.4221 7.83177 15.5923 8.04172 15.5923H11.0092C12.7294 15.5923 14.3828 14.8652 15.5455 13.5975L17.4875 11.4798C17.7287 11.2169 18.1271 11.1782 18.4144 11.3897C18.5766 11.5092 18.6763 11.6855 18.6949 11.8862C18.7136 12.0869 18.6482 12.2785 18.5107 12.4259L16.0479 15.0674C15.1666 16.0127 14.0378 16.6771 12.7836 16.9889C12.5799 17.0396 12.4557 17.2458 12.5064 17.4496C12.5494 17.6226 12.7045 17.7382 12.875 17.7382C12.9054 17.7382 12.9363 17.7345 12.9671 17.7268C14.3645 17.3794 15.6221 16.6392 16.6041 15.586L19.0669 12.9445C19.3502 12.6407 19.4906 12.2293 19.4521 11.8157ZM13.5425 4.08297C14.1294 3.92515 14.7638 4.09005 15.199 4.52527C15.4547 4.78096 15.6192 5.10501 15.6768 5.45313L15.269 5.34386C15.1377 5.30861 14.9977 5.34625 14.9017 5.44226C14.8057 5.5383 14.7681 5.67829 14.8033 5.80954L14.9126 6.21739C14.5645 6.15971 14.2404 5.99519 13.9847 5.73954C13.5495 5.30428 13.3846 4.66994 13.5425 4.08297ZM12.7038 3.48844C11.7866 3.40305 10.9181 3.00584 10.2535 2.36413C10.543 1.95765 10.7677 1.4995 10.9112 1.00332C11.8974 1.42893 12.6092 2.37196 12.7038 3.48844ZM9.73369 0.760447C9.88528 0.760447 10.0342 0.772006 10.1798 0.793944C9.7365 2.32238 8.36672 3.41597 6.7627 3.50034C6.88627 1.96902 8.17111 0.760447 9.73369 0.760447ZM5.48266 5.7395C5.22696 5.99519 4.90295 6.15971 4.55479 6.21735L4.66407 5.8095C4.69924 5.67829 4.66171 5.5383 4.56567 5.44222C4.49343 5.36998 4.39632 5.33086 4.29679 5.33086C4.26401 5.33086 4.23097 5.33508 4.19843 5.34382L3.79058 5.45309C3.84822 5.10497 4.01273 4.78092 4.26842 4.52523C4.70365 4.08997 5.33818 3.92511 5.92495 4.08294C6.08285 4.66994 5.91788 5.30428 5.48266 5.7395ZM6.75206 4.74385V4.26251C7.91447 4.21441 8.9778 3.72505 9.76103 2.9449C10.5651 3.70535 11.6129 4.16901 12.7153 4.2527V4.74385C12.7153 6.38791 11.3777 7.72548 9.73369 7.72548C8.08963 7.72548 6.75206 6.38791 6.75206 4.74385ZM9.73369 8.48586C9.94235 8.48586 10.147 8.46841 10.3464 8.43541C10.4611 8.65262 10.6172 8.84254 10.8042 8.99599C10.5434 9.31107 10.1559 9.49794 9.73373 9.49794C9.31158 9.49794 8.92407 9.31107 8.66325 8.99599C8.85027 8.84254 9.00639 8.65262 9.12106 8.43541C9.32044 8.46845 9.52507 8.48586 9.73369 8.48586ZM10.9321 12.733H8.59128C7.9299 12.1273 7.07835 11.7957 6.17585 11.7957C5.70705 11.7957 5.24829 11.8607 4.80957 11.9859C4.94622 10.7811 5.85134 9.77599 7.06288 9.53539L7.85645 9.37776C7.8969 9.36973 7.93686 9.36027 7.97633 9.34966C8.37608 9.91704 9.0235 10.2584 9.73373 10.2584C10.444 10.2584 11.0914 9.91704 11.4912 9.34966C11.5306 9.36027 11.5706 9.36973 11.611 9.37776L12.4046 9.53539C13.721 9.79678 14.6764 10.9606 14.6764 12.3027V13.3934C13.9942 14.0251 13.1602 14.4681 12.2632 14.6833C12.3266 14.5219 12.3618 14.3464 12.3618 14.1627C12.3618 13.3744 11.7204 12.733 10.9321 12.733Z" fill="white"/>
<path id="XMLID_1527_" d="M11.1768 17.1852C11.0768 17.1852 10.9788 17.2259 10.908 17.2966C10.8373 17.3673 10.7966 17.4654 10.7966 17.5654C10.7966 17.6654 10.8373 17.7635 10.908 17.8342C10.9788 17.9049 11.0768 17.9456 11.1768 17.9456C11.2768 17.9456 11.3749 17.9049 11.4456 17.8342C11.5163 17.7635 11.557 17.6654 11.557 17.5654C11.557 17.4654 11.5164 17.3673 11.4456 17.2966C11.3749 17.2259 11.2768 17.1852 11.1768 17.1852Z" fill="white"/>
</g>
</g>
</g>
<defs>
<clipPath id="clip0_8_4315">
<rect width="19.4667" height="19.4667" fill="white"/>
</clipPath>
</defs>
</svg>
