<svg width="20" height="20" viewBox="0 0 20 20" fill="none" xmlns="http://www.w3.org/2000/svg">
<g id="manager 1" clip-path="url(#clip0_8_4326)">
<g id="Group">
<g id="Group_2">
<path id="Vector" d="M9.17141 14.4054C9.02499 14.2979 8.81895 14.3293 8.71135 14.4758L8.67071 14.5311C8.56322 14.6775 8.59451 14.8832 8.74074 14.9909C8.79948 15.0342 8.86792 15.0552 8.93571 15.0552C9.03658 15.0552 9.13616 15.0089 9.20065 14.9215L9.2419 14.8655C9.34946 14.719 9.3179 14.513 9.17141 14.4054Z" fill="white"/>
</g>
</g>
<g id="Group_3">
<g id="Group_4">
<path id="Vector_2" d="M9.25715 17.5365L8.41069 15.9974L9.20099 14.921C9.30863 14.7745 9.27703 14.5685 9.1305 14.4609C8.98401 14.3533 8.77801 14.3848 8.67045 14.5314L7.75574 15.7772C7.67989 15.8804 7.67091 16.0183 7.73262 16.1306L8.68041 17.8537V17.8537C8.74037 17.9626 8.85295 18.0242 8.9691 18.0242C9.02275 18.0242 9.07712 18.0111 9.12742 17.9835C9.28665 17.8959 9.34475 17.6958 9.25715 17.5365Z" fill="white"/>
</g>
</g>
<g id="Group_5">
<g id="Group_6">
<path id="Vector_3" d="M11.7101 15.7772L10.7991 14.5365C10.7236 14.4336 10.5956 14.3836 10.4703 14.4084C10.3451 14.433 10.2455 14.5278 10.2145 14.6516C10.1908 14.7466 10.2106 14.8472 10.2686 14.9262L11.055 15.9973L10.2143 17.526C10.1876 17.5746 10.1736 17.6293 10.1736 17.6848C10.1736 17.835 10.2753 17.9662 10.4208 18.0036C10.4481 18.0106 10.4756 18.014 10.5027 18.014C10.6206 18.014 10.7322 17.9504 10.7911 17.8435L11.7332 16.1306C11.795 16.0183 11.7859 15.8804 11.7101 15.7772Z" fill="white"/>
</g>
</g>
<g id="Group_7">
<g id="Group_8">
<path id="Vector_4" d="M12.2317 10.605C12.1235 10.5481 11.9926 10.5559 11.8919 10.6253C11.6961 10.7602 11.5145 10.903 11.352 11.0499C10.4662 11.8506 9.62471 11.7423 9.59175 11.7376C9.5719 11.7345 9.55171 11.733 9.53175 11.7337C9.18169 11.7426 8.55055 11.4228 7.88286 10.8984C7.78074 10.8182 7.67603 10.7418 7.57147 10.6712C7.47064 10.6031 7.34034 10.5962 7.2329 10.6533C7.12541 10.7104 7.05823 10.8222 7.05823 10.944V12.073C7.05823 12.1729 7.10366 12.2672 7.18153 12.3297C7.19073 12.3372 7.20031 12.344 7.2102 12.3503L9.54396 13.9098C9.54434 13.91 9.54468 13.9103 9.54506 13.9106L9.55122 13.9147C9.60616 13.951 9.66947 13.9694 9.733 13.9694C9.78646 13.9694 9.83991 13.9564 9.88877 13.9303C9.89907 13.9248 9.90896 13.9188 9.91846 13.9123C9.91957 13.9116 9.92067 13.9109 9.92181 13.9101C9.9231 13.9093 9.9244 13.9084 9.92569 13.9075L12.2539 12.3517C12.2633 12.3458 12.2724 12.3394 12.2812 12.3326C12.3611 12.2702 12.4078 12.1745 12.4078 12.0731V10.8964C12.4078 10.774 12.34 10.6619 12.2317 10.605ZM11.7495 11.897L9.73296 13.2445L7.71648 11.897V11.5976C8.20749 11.9544 8.92977 12.3921 9.51852 12.3921C9.51974 12.3921 9.52111 12.3921 9.52236 12.3921C9.72003 12.4139 10.7281 12.4734 11.7496 11.5773V11.897H11.7495Z" fill="white"/>
</g>
</g>
<g id="Group_9">
<g id="Group_10">
<path id="Vector_5" d="M10.0575 13.5864C10.0358 13.4559 9.93798 13.3511 9.80924 13.3204C9.68043 13.2898 9.54591 13.3391 9.46759 13.4458L8.71109 14.4762C8.60349 14.6227 8.63504 14.8287 8.78161 14.9362C8.84028 14.9794 8.90849 15.0001 8.97613 15.0001C9.07734 15.0001 9.17718 14.9535 9.24174 14.8657L9.99429 13.8407C10.0371 13.7847 10.062 13.7151 10.062 13.6406C10.062 13.6225 10.0605 13.6043 10.0575 13.5864Z" fill="white"/>
</g>
</g>
<g id="Group_11">
<g id="Group_12">
<path id="Vector_6" d="M14.7476 2.9758C14.741 2.92424 14.5869 1.81152 13.5395 1.37257C13.5699 1.17714 13.5667 0.925977 13.4426 0.681617C13.2759 0.353192 12.9468 0.139173 12.4645 0.045413C12.4438 0.0413828 12.4228 0.0393677 12.4017 0.0393677H7.98419C6.19044 0.0393677 4.73108 1.49869 4.73108 3.29251V5.02592C4.73108 5.47754 4.88503 5.91793 5.16448 6.2659C5.30303 6.43844 5.47367 6.73976 5.49941 7.19532C5.50944 7.37318 5.65833 7.51063 5.8373 7.50569C6.01539 7.50067 6.15713 7.35482 6.15713 7.17669V4.91673C6.38062 3.99248 7.14335 3.8126 7.27449 3.78831H8.70339C8.87148 3.78831 9.03676 3.76264 9.19473 3.712C9.46643 3.62485 9.89747 3.46448 10.2113 3.34529C10.4213 3.26548 10.6537 3.26255 10.8658 3.33707L12.3955 3.87408C13.1602 4.1562 13.2967 4.82757 13.3137 4.93304V7.64534C13.3137 7.81761 13.4465 7.96053 13.6182 7.97334C13.6266 7.97395 13.6348 7.97429 13.643 7.97429C13.8045 7.97426 13.9438 7.85597 13.9683 7.69389C13.9696 7.68541 14.101 6.83652 14.5248 6.15686C14.6722 5.92025 14.7502 5.65049 14.7502 5.37674V3.01736C14.7502 3.00348 14.7493 2.9896 14.7476 2.9758ZM14.0919 5.37659C14.0919 5.52362 14.0504 5.66947 13.9719 5.79916V4.91053C13.9719 4.89863 13.9712 4.88681 13.9699 4.87498C13.9648 4.82719 13.8288 3.69926 12.6203 3.25533C12.6188 3.2548 12.6173 3.25426 12.6158 3.25373L11.0838 2.71589C10.911 2.65524 10.7303 2.62498 10.5497 2.62498C10.3555 2.62498 10.1614 2.66 9.97751 2.72996C9.53814 2.89687 9.19789 3.01971 8.99368 3.08518C8.90079 3.11496 8.80312 3.13009 8.70335 3.13009H7.24787C7.23377 3.13009 7.21962 3.131 7.20559 3.13279C7.14989 3.14001 5.83715 3.32669 5.50678 4.80742C5.50153 4.83095 5.49887 4.85498 5.49887 4.87909V5.55647C5.4272 5.39085 5.38926 5.20995 5.38926 5.02596V3.29259C5.38926 1.86179 6.55334 0.6977 7.98411 0.6977H12.3685C12.55 0.736367 12.7706 0.815717 12.8543 0.977153C12.9567 1.17475 12.84 1.44683 12.8399 1.44705C12.7978 1.53659 12.7983 1.64028 12.8411 1.72944C12.8839 1.81859 12.9646 1.88376 13.0608 1.90692C13.8987 2.10862 14.0696 2.91227 14.0919 3.04226V5.37659H14.0919Z" fill="white"/>
</g>
</g>
<g id="Group_13">
<g id="Group_14">
<path id="Vector_7" d="M13.9696 4.87477C13.9645 4.82697 13.8285 3.69905 12.62 3.25511C12.6185 3.25458 12.617 3.25405 12.6155 3.25352L11.0835 2.71567C10.7249 2.58982 10.3321 2.59484 9.97717 2.72966C9.5378 2.89658 9.19755 3.01942 8.99334 3.08493C8.90046 3.1147 8.80278 3.1298 8.70302 3.1298H7.24754C7.23343 3.1298 7.21929 3.13071 7.20526 3.1325C7.14956 3.13972 5.83681 3.3264 5.50644 4.80713C5.5012 4.83066 5.49854 4.85469 5.49854 4.8788V7.70816C5.49854 7.71059 5.49857 7.71303 5.49861 7.71546C5.50078 7.81374 5.57032 10.1348 7.17404 11.1963L7.18233 11.2022C7.18921 11.207 7.19609 11.2119 7.20328 11.2167C7.29472 11.2785 7.38654 11.3455 7.47635 11.416C7.94355 11.7829 8.824 12.392 9.51856 12.392C9.51986 12.392 9.52107 12.392 9.5224 12.392C9.56012 12.3961 9.62746 12.4017 9.71878 12.4017C10.1124 12.4017 10.9522 12.2985 11.7934 11.5381C11.9346 11.4106 12.0933 11.2858 12.2654 11.1672L12.29 11.15C12.298 11.1443 12.306 11.1386 12.3143 11.1331C12.8493 10.7738 13.7758 9.84668 13.9703 7.6744C13.9712 7.66466 13.9716 7.65482 13.9716 7.64501V4.91032C13.9716 4.89845 13.9709 4.88663 13.9696 4.87477ZM13.3133 7.63014C13.1339 9.59057 12.2987 10.3506 11.9473 10.5866C11.9348 10.595 11.9225 10.6036 11.9102 10.6123L11.8919 10.6252C11.6961 10.76 11.5145 10.9029 11.352 11.0498C10.4695 11.8475 9.63076 11.7429 9.58963 11.7371C9.5705 11.7343 9.55111 11.7331 9.53176 11.7336C9.1817 11.7426 8.55055 11.4227 7.88287 10.8983C7.78074 10.8181 7.67603 10.7417 7.57163 10.6712L7.56353 10.6655C7.55562 10.6599 7.54775 10.6543 7.53847 10.6481C6.24432 9.79155 6.15964 7.78705 6.15679 7.70341V4.91647C6.38108 3.98884 7.14853 3.81102 7.27362 3.78805H8.70305C8.87114 3.78805 9.03642 3.76239 9.1944 3.71174C9.4661 3.6246 9.89718 3.46423 10.211 3.34503C10.4209 3.26523 10.6534 3.2623 10.8654 3.33682L12.3952 3.87383C13.1599 4.15594 13.2964 4.82732 13.3133 4.93279V7.63014H13.3133Z" fill="white"/>
</g>
</g>
<g id="Group_15">
<g id="Group_16">
<path id="Vector_8" d="M10.0274 13.4933C9.97614 13.3908 9.87516 13.3223 9.76091 13.3126C9.64684 13.3031 9.5356 13.3533 9.46773 13.4457L8.67933 14.5195C8.57184 14.666 8.60325 14.8718 8.74959 14.9795C8.80829 15.0227 8.87662 15.0435 8.94433 15.0435C9.04532 15.0435 9.14501 14.9972 9.20953 14.9096L9.99797 13.8398C10.0397 13.7832 10.0622 13.7109 10.0622 13.6406C10.0622 13.5896 10.0502 13.5391 10.0274 13.4933Z" fill="white"/>
</g>
</g>
<g id="Group_17">
<g id="Group_18">
<path id="Vector_9" d="M10.0482 18.7927C9.92456 18.6633 9.72028 18.6565 9.58827 18.7773L9.51303 18.8461C9.40037 18.9491 9.37334 19.1161 9.44778 19.2494L9.4501 19.2535C9.50037 19.3436 9.59002 19.4049 9.69218 19.4191C9.70731 19.4211 9.72244 19.4222 9.7375 19.4222C9.82415 19.4222 9.90806 19.3879 9.97023 19.3257L10.0431 19.2528C10.1696 19.1263 10.1719 18.9219 10.0482 18.7927Z" fill="white"/>
</g>
</g>
<g id="Group_19">
<g id="Group_20">
<path id="Vector_10" d="M9.95329 18.846L9.87805 18.7772C9.74604 18.6565 9.54171 18.6634 9.41807 18.7926C9.29438 18.922 9.29667 19.1264 9.4232 19.2529L9.4962 19.3258C9.55837 19.388 9.64224 19.4222 9.72889 19.4222C9.74436 19.4222 9.75991 19.4211 9.77547 19.4189C9.87797 19.4043 9.96762 19.3422 10.0175 19.2514L10.0198 19.2472C10.0927 19.1142 10.0653 18.9484 9.95329 18.846Z" fill="white"/>
</g>
</g>
<g id="Group_21">
<g id="Group_22">
<path id="Vector_11" d="M9.95839 18.851L9.95797 18.8506C9.90714 18.8031 9.8414 18.7718 9.76897 18.7638C9.67198 18.7533 9.5775 18.7861 9.5088 18.8501L9.50781 18.851C9.44127 18.9117 9.40253 18.997 9.40059 19.0871C9.39865 19.1772 9.43371 19.2641 9.49754 19.3276L9.501 19.331C9.56522 19.3949 9.64913 19.4268 9.73308 19.4268C9.81733 19.4268 9.90155 19.3946 9.96576 19.3304L9.96922 19.3269C10.0328 19.2633 10.0676 19.1765 10.0655 19.0867C10.0636 18.9967 10.0248 18.9116 9.95839 18.851Z" fill="white"/>
</g>
</g>
<g id="Group_23">
<g id="Group_24">
<path id="Vector_12" d="M9.84026 13.3218C9.70396 13.2782 9.55438 13.3288 9.47138 13.4455C9.37854 13.5762 9.39386 13.7543 9.50697 13.868C9.57062 13.9319 9.6551 13.9647 9.74023 13.9647C9.80635 13.9647 9.87281 13.9449 9.93014 13.9046C10.0177 13.8429 10.0699 13.7425 10.0699 13.6354V13.6346C10.0699 13.4914 9.97672 13.3653 9.84026 13.3218Z" fill="white"/>
</g>
</g>
<g id="Group_25">
<g id="Group_26">
<path id="Vector_13" d="M10.001 13.4428L9.99819 13.439C9.91375 13.3247 9.76547 13.2776 9.63053 13.322C9.49559 13.3665 9.40442 13.4926 9.40442 13.6346V13.6402C9.40442 13.7614 9.47244 13.8719 9.5792 13.9292C9.62756 13.9552 9.68095 13.968 9.73425 13.968C9.79855 13.968 9.86276 13.9493 9.91797 13.9128C9.99321 13.863 10.0447 13.7844 10.0604 13.6956C10.0761 13.6067 10.0547 13.5153 10.001 13.4428Z" fill="white"/>
</g>
</g>
<g id="Group_27">
<g id="Group_28">
<path id="Vector_14" d="M19.45 18.0277L19.0254 15.4638C18.8916 14.6559 18.3301 13.9808 17.5599 13.7023L13.4524 12.2162C13.3257 12.1704 13.1842 12.2063 13.0947 12.3067C13.0052 12.4072 12.9858 12.5521 13.0459 12.6726L13.9035 14.3924L13.062 14.4054C12.9477 14.4072 12.8425 14.468 12.7841 14.5662C12.7257 14.6645 12.7225 14.7859 12.7755 14.8872L13.1206 15.5462L9.58837 18.7775C9.58476 18.7808 9.58122 18.7841 9.57776 18.7876L9.50484 18.8605C9.40153 18.9639 9.37868 19.1229 9.44883 19.2511L9.45142 19.2558C9.50917 19.3613 9.61989 19.427 9.74019 19.427H18.2634C18.6175 19.427 18.9518 19.2721 19.1807 19.0021C19.4097 18.7321 19.5078 18.3769 19.45 18.0277ZM18.6788 18.5764C18.5751 18.6987 18.4237 18.7688 18.2634 18.7688H10.5731L13.752 15.8608C13.8623 15.76 13.8908 15.5976 13.8215 15.4652L13.6067 15.0553L14.4366 15.0425C14.5497 15.0408 14.6539 14.9811 14.7127 14.8844C14.7715 14.7878 14.7765 14.6678 14.7261 14.5665L14.0023 13.115L17.3362 14.3212C17.8827 14.5189 18.2812 14.9979 18.3761 15.5713L18.8007 18.1352C18.8007 18.1352 18.8007 18.1352 18.8007 18.1352C18.8269 18.2934 18.7825 18.4541 18.6788 18.5764Z" fill="white"/>
</g>
</g>
<g id="Group_29">
<g id="Group_30">
<path id="Vector_15" d="M9.96094 18.854L9.9571 18.8506C9.82684 18.7326 9.62677 18.7379 9.50283 18.8625L9.49941 18.866C9.40568 18.9602 9.37789 19.1017 9.42892 19.2244C9.47998 19.3472 9.59989 19.4271 9.73281 19.4271H9.74004C9.87611 19.4271 9.9982 19.3433 10.0471 19.2164C10.0961 19.0894 10.0618 18.9453 9.96094 18.854Z" fill="white"/>
</g>
</g>
<g id="Group_31">
<g id="Group_32">
<path id="Vector_16" d="M9.95126 18.8444C9.87655 18.7771 9.77522 18.7477 9.67599 18.7646C9.57687 18.7813 9.49087 18.8426 9.4425 18.9307L9.44022 18.9349C9.37083 19.0614 9.39194 19.2183 9.49227 19.322L9.49345 19.3233C9.55793 19.3899 9.64386 19.4235 9.73002 19.4235C9.80929 19.4235 9.88879 19.395 9.95175 19.3375L9.95521 19.3344C9.9851 19.3071 10.0097 19.2745 10.0278 19.2383C10.0941 19.1059 10.0613 18.9434 9.95126 18.8444Z" fill="white"/>
</g>
</g>
<g id="Group_33">
<g id="Group_34">
<path id="Vector_17" d="M9.96524 18.8645L9.96387 18.8631C9.963 18.8623 9.96209 18.8614 9.96125 18.8605L9.88825 18.7876C9.88483 18.7841 9.88129 18.7807 9.87772 18.7775L6.34546 15.5462L6.69065 14.8872C6.74369 14.786 6.74038 14.6645 6.68202 14.5663C6.62362 14.4681 6.51846 14.4072 6.4042 14.4054L5.56261 14.3925L6.42021 12.6726C6.48028 12.5522 6.46089 12.4073 6.37143 12.3068C6.28197 12.2063 6.14022 12.1704 6.01373 12.2162L1.90622 13.7023C1.13606 13.9808 0.574496 14.6559 0.4407 15.4639L0.0161205 18.0277C-0.0417093 18.3771 0.0564607 18.7322 0.285423 19.0022C0.514423 19.2722 0.848816 19.427 1.20279 19.427H9.73324C9.86654 19.427 9.98665 19.3466 10.0374 19.2234C10.0883 19.1002 10.0598 18.9585 9.96524 18.8645ZM1.20283 18.7688C1.04253 18.7688 0.891134 18.6987 0.787489 18.5764C0.683844 18.4542 0.639435 18.2934 0.665594 18.1352L1.09017 15.5714C1.18511 14.9979 1.58361 14.5189 2.13016 14.3212L5.46402 13.1151L4.74026 14.5665C4.68976 14.6677 4.69478 14.7877 4.7536 14.8844C4.81234 14.9811 4.91664 15.0407 5.02975 15.0425L5.85959 15.0553L5.64485 15.4653C5.57554 15.5976 5.60405 15.76 5.71424 15.8608L8.89321 18.7688H1.20283Z" fill="white"/>
</g>
</g>
</g>
<defs>
<clipPath id="clip0_8_4326">
<rect width="19.4667" height="19.4667" fill="white"/>
</clipPath>
</defs>
</svg>
