<svg width="44" height="44" viewBox="0 0 44 44" fill="none" xmlns="http://www.w3.org/2000/svg">
<g id="fork" clip-path="url(#clip0_5_93)">
<path id="Vector" d="M32.707 17.6206L35.2922 17.4568C35.2966 17.4564 35.3013 17.4561 35.306 17.4558C37.1482 17.3003 38.8019 16.3352 39.8432 14.8071L41.8869 11.8087C43.6657 9.19835 44.3549 6.04551 43.8269 2.93128C43.7231 2.31964 43.4103 1.75601 42.9464 1.34479C42.4821 0.933227 41.8852 0.690184 41.2655 0.660643C38.1093 0.509581 35.0629 1.57205 32.6849 3.65101L29.953 6.03947C28.5609 7.25636 27.8008 9.01372 27.8673 10.8617C27.8676 10.8661 27.8676 10.8708 27.868 10.8755L28.0153 13.4613C28.0728 14.4694 27.7032 15.4641 27.0032 16.1885L5.66047 38.114C5.08911 38.7099 4.79404 39.5273 4.82996 40.4159C4.86957 41.3941 5.31839 42.3549 6.03074 42.9863C6.67426 43.5566 7.55882 43.8816 8.44304 43.8816C8.5377 43.8816 8.63237 43.8779 8.7267 43.8702C9.61327 43.7994 10.3897 43.4086 10.9154 42.7661L30.1195 18.954C30.7563 18.1705 31.6996 17.6844 32.707 17.6206ZM29.0943 18.1241L9.89189 41.9342C9.59849 42.2928 9.14732 42.5136 8.62162 42.5556C7.99623 42.6056 7.35505 42.3975 6.90589 41.9994C6.45673 41.6009 6.17341 40.9893 6.14823 40.3625C6.12675 39.8358 6.29157 39.3615 6.60914 39.0305L27.9502 17.1066C28.907 16.1167 29.4105 14.7608 29.3326 13.3865L29.1852 10.8073C29.1352 9.36083 29.7311 7.98549 30.8211 7.03245L33.553 4.64399C35.6732 2.79062 38.3903 1.8443 41.2028 1.97791C41.523 1.99335 41.8312 2.1189 42.0712 2.33173C42.3112 2.54422 42.4727 2.83561 42.5264 3.15149C42.997 5.92802 42.3827 8.73845 40.7969 11.0655L38.7532 14.0642C37.9378 15.2607 36.6437 16.017 35.2016 16.1408L32.6234 16.304C31.2498 16.3913 29.9641 17.0539 29.0943 18.1241Z" fill="#BF380E"/>
<path id="Vector_2" d="M42.7816 37.9475L28.4713 24.9135C28.202 24.6681 27.7851 24.6876 27.5394 24.9568C27.2943 25.2261 27.3138 25.6433 27.583 25.8887L41.8896 38.9197C42.23 39.2343 42.423 39.6979 42.4334 40.2249C42.4459 40.852 42.1998 41.4794 41.7751 41.904C41.3508 42.3284 40.7244 42.5751 40.096 42.5623C39.569 42.5519 39.1054 42.3589 38.7942 42.0222L26.0425 28.0224C25.7971 27.7528 25.3798 27.7337 25.1106 27.9788C24.8414 28.2242 24.8219 28.6414 25.0673 28.9107L37.822 42.9138C38.3826 43.5201 39.1809 43.8638 40.0702 43.8813C40.0933 43.8816 40.1161 43.8819 40.1393 43.8819C41.095 43.8819 42.0508 43.4942 42.7077 42.8369C43.3811 42.1635 43.7715 41.1776 43.7521 40.199C43.7346 39.3098 43.3912 38.5115 42.7816 37.9475Z" fill="#BF380E"/>
<path id="Vector_3" d="M7.95865 17.4957C9.05033 18.5014 10.4686 19.0748 11.9524 19.1104C11.9571 19.1107 11.9618 19.1107 11.9662 19.1107L14.5564 19.1188C15.5662 19.1218 16.5366 19.5505 17.2178 20.2927L18.3588 21.5452C18.489 21.6882 18.6673 21.7607 18.8466 21.7607C19.005 21.7607 19.1641 21.704 19.2903 21.5888C19.5599 21.3434 19.5794 20.9262 19.334 20.6569L18.1913 19.4028C17.2607 18.3883 15.9374 17.8042 14.5607 17.7995L11.9776 17.7914C10.8298 17.7622 9.73246 17.3228 8.88214 16.5531L1.37568 7.62965C1.29915 7.53834 1.30485 7.40607 1.38911 7.32181C1.44685 7.26374 1.51466 7.25535 1.54991 7.25535C1.58516 7.25535 1.65297 7.26374 1.71104 7.32181L8.54376 14.1549C9.21918 14.8303 10.3182 14.8303 10.9937 14.1545L11.7966 13.3519V13.3516L13.2223 11.9259C13.2223 11.9259 13.2227 11.9259 13.2227 11.9255L13.223 11.9252L14.0257 11.1225C14.7011 10.4471 14.7011 9.34806 14.0257 8.67265L7.19293 1.83993C7.10431 1.7513 7.10431 1.60662 7.19293 1.518C7.27719 1.43374 7.40945 1.42803 7.50076 1.50457L16.4242 9.01136C17.1943 9.86134 17.6337 10.9591 17.6629 12.1065L17.6706 14.69C17.6753 16.0663 18.2598 17.3896 19.2756 18.3222L20.4982 19.4357C20.7677 19.6811 21.1847 19.6616 21.4301 19.3924C21.6751 19.1228 21.6556 18.7059 21.3864 18.4605L20.1658 17.3487C19.4216 16.6659 18.9933 15.695 18.9899 14.6856L18.9818 12.0954C18.9818 12.0907 18.9818 12.086 18.9815 12.0813C18.9459 10.5975 18.3726 9.17921 17.3668 8.08753C17.348 8.06706 17.3279 8.04759 17.3064 8.02946L8.34973 0.495137C7.73071 -0.0258604 6.83239 0.0130801 6.26037 0.585103C5.65713 1.18835 5.65713 2.16958 6.26037 2.77249L13.0931 9.60554C13.2542 9.76667 13.2542 10.0289 13.0931 10.19L12.7564 10.5264L5.14117 2.91146C4.88369 2.65365 4.46609 2.65365 4.20861 2.91146C3.95113 3.16894 3.95113 3.58654 4.20861 3.84402L11.8238 11.4592L11.3304 11.9524L3.71514 4.33749C3.45766 4.08002 3.04006 4.08002 2.78258 4.33749C2.52477 4.59497 2.52477 5.01257 2.78258 5.27005L10.3975 12.8853L10.0611 13.222C9.89997 13.3831 9.63779 13.3831 9.47666 13.222L2.6436 6.38926C2.35155 6.0972 1.96315 5.93607 1.54991 5.93607C1.13667 5.93607 0.748272 6.0972 0.456218 6.38926C-0.115804 6.96128 -0.154409 7.8596 0.366252 8.47895L7.90091 17.4353C7.9187 17.4568 7.93817 17.4769 7.95865 17.4957Z" fill="#BF380E"/>
</g>
<defs>
<clipPath id="clip0_5_93">
<rect width="44" height="43.9142" fill="white"/>
</clipPath>
</defs>
</svg>
