<svg width="44" height="44" viewBox="0 0 44 44" fill="none" xmlns="http://www.w3.org/2000/svg">
<g id="suitcase 1">
<g id="XMLID 491">
<g id="XMLID 138">
<path id="XMLID 141" d="M39.0156 9.97588H33.5156V6.70312C33.5156 3.95476 31.2796 1.71875 28.5312 1.71875H15.4688C12.7204 1.71875 10.4844 3.95476 10.4844 6.70312V9.97588H4.98438C2.23601 9.97588 0 12.2119 0 14.9603V37.2969C0 40.0452 2.23601 42.2812 4.98438 42.2812H39.0156C41.764 42.2812 44 40.0452 44 37.2969V14.9603C44 12.2119 41.764 9.97588 39.0156 9.97588ZM15.4688 3.4375H28.5312C30.0345 3.4375 31.303 4.45878 31.6813 5.84375H12.3187C12.697 4.45878 13.9655 3.4375 15.4688 3.4375ZM1.71875 14.9603C1.71875 13.1596 3.18373 11.6946 4.98438 11.6946H18.1437C18.6183 11.6946 19.0031 11.3099 19.0031 10.8353C19.0031 10.3606 18.6183 9.97588 18.1437 9.97588H12.2031V7.5625H31.7969V9.97588H25.8781C25.4035 9.97588 25.0187 10.3607 25.0187 10.8353C25.0187 11.3098 25.4035 11.6946 25.8781 11.6946H39.0156C40.8163 11.6946 42.2812 13.1596 42.2812 14.9603V17.7008C42.2812 21.7628 38.9765 25.0675 34.9144 25.0675H26.1359V23.2407C26.1359 22.1617 25.2581 21.284 24.1791 21.284H19.8426C18.7637 21.284 17.8858 22.1618 17.8858 23.2407V25.0675H9.08557C5.02348 25.0675 1.71875 21.7627 1.71875 17.7008V14.9603ZM19.6047 26.7862H24.4172V28.0156C24.4172 29.3425 23.3377 30.4219 22.0109 30.4219C20.684 30.4219 19.6047 29.3425 19.6047 28.0156V26.7862ZM19.6047 25.0675V23.2406C19.6047 23.1094 19.7114 23.0025 19.8427 23.0025H24.1792C24.3104 23.0025 24.4172 23.1093 24.4172 23.2406V25.0675H19.6047ZM42.2812 37.2969C42.2812 39.0975 40.8163 40.5625 39.0156 40.5625H4.98438C3.18373 40.5625 1.71875 39.0975 1.71875 37.2969V23.0119C3.37055 25.2966 6.05713 26.7862 9.08557 26.7862H17.8859V28.0156C17.8859 30.2902 19.7363 32.1406 22.0109 32.1406C24.2855 32.1406 26.1359 30.2902 26.1359 28.0156V26.7862H34.9144C37.9428 26.7862 40.6294 25.2966 42.2812 23.0119V37.2969Z" fill="#063C43"/>
<path id="XMLID 148" d="M22.0112 11.6944C22.2372 11.6944 22.459 11.6032 22.6188 11.4425C22.7786 11.2827 22.8706 11.061 22.8706 10.835C22.8706 10.609 22.7787 10.3872 22.6188 10.2274C22.459 10.0676 22.2372 9.9756 22.0112 9.9756C21.7852 9.9756 21.5635 10.0675 21.4028 10.2274C21.2429 10.3872 21.1519 10.609 21.1519 10.835C21.1519 11.061 21.2429 11.2827 21.4028 11.4425C21.5635 11.6033 21.7852 11.6944 22.0112 11.6944Z" fill="#063C43"/>
</g>
</g>
</g>
</svg>
