<svg width="45" height="45" viewBox="0 0 45 45" fill="none" xmlns="http://www.w3.org/2000/svg">
<g id="flower" clip-path="url(#clip0_5_80)">
<path id="Vector" d="M22.5 30.9375C22.2225 30.9375 21.9582 30.8138 21.78 30.6C15.2569 22.77 15.2569 13.7906 21.78 5.96064C22.1344 5.53314 22.8638 5.53314 23.22 5.96064C29.7432 13.7906 29.7432 22.77 23.22 30.6C23.0419 30.8138 22.7775 30.9375 22.5 30.9375ZM22.5 8.06814C17.4844 14.6906 17.4844 21.8719 22.5 28.4944C27.5157 21.8719 27.5157 14.6906 22.5 8.06814Z" fill="#81BF32"/>
<path id="Vector_2" d="M22.5 39.375C22.2225 39.375 21.9582 39.2512 21.78 39.0375C20.2463 37.1962 19.0538 35.2519 18.2382 33.2606C18.0432 32.7806 18.2719 32.2331 18.75 32.0381C19.23 31.8431 19.7775 32.0719 19.9725 32.55C20.5819 34.0425 21.4294 35.5106 22.4982 36.9281C23.565 35.5106 24.4125 34.0425 25.0238 32.55C25.2188 32.0719 25.7663 31.8412 26.2463 32.0381C26.7263 32.2331 26.955 32.7806 26.7582 33.2606C25.9425 35.2519 24.7519 37.1962 23.2163 39.0375C23.0419 39.2512 22.7775 39.375 22.5 39.375Z" fill="#81BF32"/>
<path id="Vector_3" d="M22.5168 30.9188C22.0387 30.9188 21.63 30.5531 21.585 30.0675C21.5381 29.5519 21.9169 29.0944 22.4325 29.0475C31.3425 28.2225 36.2418 23.6644 37.3762 15.1256C33.2737 15.6788 30.0581 17.1188 27.8006 19.4081C27.4331 19.7775 26.8387 19.7813 26.475 19.4175C26.1056 19.0538 26.1018 18.4613 26.4637 18.0919C29.2481 15.2681 33.2475 13.5994 38.3531 13.1288C38.625 13.0988 38.9043 13.2019 39.1012 13.3988C39.2962 13.5956 39.3975 13.8694 39.3731 14.1469C38.4525 24.33 32.8106 29.97 22.6069 30.915C22.575 30.9188 22.545 30.9188 22.5168 30.9188Z" fill="#81BF32"/>
<path id="Vector_4" d="M32.8238 35.6363C29.1863 35.6363 25.5469 34.2544 21.93 31.4869C21.5175 31.1738 21.4406 30.585 21.7538 30.1725C22.0706 29.76 22.6575 29.685 23.0681 29.9981C29.6231 35.0119 36.0056 35.0194 42.5588 30.0131C39.5831 27.7481 36.6037 26.5069 33.6881 26.3156C33.1725 26.2819 32.7825 25.8356 32.8144 25.3181C32.85 24.8025 33.2475 24.4088 33.8119 24.4444C37.425 24.6806 41.0756 26.3119 44.6606 29.2894C44.8762 29.4675 45 29.7319 45 30.0094C45 30.2888 44.8781 30.5531 44.6625 30.7313C40.7381 34.0013 36.78 35.6363 32.8238 35.6363Z" fill="#81BF32"/>
<path id="Vector_5" d="M12.1763 35.6362C8.22 35.6362 4.26188 34.0012 0.3375 30.7312C0.121875 30.5531 0 30.2887 0 30.0094C0 29.7319 0.12375 29.4675 0.339375 29.2894C3.92438 26.3119 7.575 24.6806 11.1881 24.4444C11.7431 24.405 12.1519 24.8025 12.1856 25.3181C12.2194 25.8337 11.8294 26.2819 11.3119 26.3156C8.39438 26.5069 5.415 27.75 2.44125 30.0131C8.99063 35.0194 15.3769 35.0119 21.9319 29.9981C22.3425 29.685 22.9313 29.76 23.2463 30.1725C23.5594 30.5831 23.4825 31.1719 23.07 31.4869C19.4531 34.2525 15.8156 35.6362 12.1763 35.6362Z" fill="#81BF32"/>
<path id="Vector_6" d="M22.4831 30.9188C22.4531 30.9188 22.425 30.9188 22.395 30.915C12.1913 29.97 6.54941 24.3281 5.62878 14.1469C5.60253 13.8713 5.70378 13.5956 5.90066 13.3988C6.09753 13.2019 6.36941 13.0988 6.64878 13.1288C11.7544 13.5975 15.7519 15.2681 18.5381 18.0919C18.9 18.4613 18.8963 19.0538 18.5269 19.4175C18.1613 19.7813 17.5669 19.7775 17.2013 19.4081C14.9438 17.1188 11.7263 15.6806 7.62378 15.1256C8.75628 23.6644 13.6575 28.2225 22.5675 29.0475C23.0831 29.0944 23.4638 29.5519 23.415 30.0675C23.37 30.5531 22.9613 30.9188 22.4831 30.9188Z" fill="#81BF32"/>
</g>
<defs>
<clipPath id="clip0_5_80">
<rect width="45" height="45" fill="white"/>
</clipPath>
</defs>
</svg>
