<svg width="44" height="44" viewBox="0 0 44 44" fill="none" xmlns="http://www.w3.org/2000/svg">
<g id="swimmer 1" clip-path="url(#clip0_5_107)">
<g id="Group">
<path id="Vector" d="M1.64261 31.439C18.3641 26.6856 24.476 36.2912 43.037 31.4463C43.7259 31.2665 44.1385 30.5622 43.9587 29.8734C43.7789 29.1846 43.0746 28.7721 42.3859 28.9518C38.7418 29.903 35.5833 30.2551 32.723 30.2589L28.9859 24.2355C31.195 26.9804 35.3006 27.1386 37.7062 24.5806C38.7638 23.4561 39.3202 21.9869 39.2729 20.4438C39.1143 15.2708 32.7763 12.9498 29.2858 16.6613C27.6043 18.4493 27.2993 20.9916 28.246 23.0429L23.1324 14.8012L30.7209 12.6114C33.0775 11.9314 34.1913 9.23383 32.9939 7.08822C32.1245 5.53035 30.32 4.78768 28.606 5.28233L17.1176 8.59754C14.139 9.45718 12.805 12.9198 14.4406 15.556L17.913 21.1525C15.4099 22.7062 7.47072 27.6294 7.38642 27.6879C5.39361 27.8985 3.25944 28.2991 0.937838 28.9591C0.253088 29.1537 -0.144287 29.8666 0.0503611 30.5515C0.244924 31.2364 0.958119 31.6336 1.64261 31.439ZM31.1638 18.4277C32.3772 17.1374 34.4028 17.0789 35.6893 18.2888C36.9782 19.5009 37.0405 21.5253 35.8282 22.8144C34.6162 24.1032 32.5917 24.1656 31.3027 22.9533C30.0137 21.7411 29.9515 19.7167 31.1638 18.4277ZM20.7831 20.8888L16.6312 14.1969C15.8979 13.015 16.4949 11.4606 17.8323 11.0747L29.3207 7.75948C29.8764 7.59895 30.4608 7.83983 30.7426 8.34463C31.1314 9.04133 30.768 9.91445 30.006 10.1344L20.7823 12.7961C19.9613 13.033 19.5946 13.9895 20.0443 14.7142L29.608 30.1282C23.5935 29.6233 18.7065 27.8093 12.5184 27.5338L20.3675 22.6636C20.9724 22.2883 21.1585 21.4937 20.7831 20.8888Z" fill="#0DAEC4"/>
<path id="Vector_2" d="M42.385 34.9674C24.6266 39.603 18.3952 30.0117 0.936861 34.9747C0.252111 35.1693 -0.145264 35.8823 0.0493845 36.5671C0.244033 37.252 0.957228 37.6493 1.64181 37.4546C18.3633 32.7012 24.4751 42.3069 43.0362 37.4619C43.7251 37.2821 44.1376 36.5779 43.9579 35.8891C43.7781 35.2002 43.0738 34.7877 42.385 34.9674Z" fill="#0DAEC4"/>
</g>
</g>
<defs>
<clipPath id="clip0_5_107">
<rect width="44" height="44" fill="white"/>
</clipPath>
</defs>
</svg>
