<svg width="22" height="22" viewBox="0 0 22 22" fill="none" xmlns="http://www.w3.org/2000/svg">
<g id="adoption 1" clip-path="url(#clip0_8_5917)">
<g id="XMLID_675_">
<g id="XMLID_1072_">
<path id="XMLID_1133_" d="M11.7653 7.21349C11.9331 7.0457 11.9331 6.77362 11.7653 6.60582C11.5975 6.43803 11.3254 6.43803 11.1576 6.60582C11.1046 6.65893 11.0425 6.66684 11.0103 6.66684C10.9781 6.66684 10.9161 6.65889 10.8629 6.60582C10.6952 6.43803 10.4232 6.43803 10.2553 6.60582C10.0874 6.77362 10.0874 7.0457 10.2552 7.21349C10.4569 7.41518 10.7251 7.52626 11.0102 7.52626C11.2954 7.52626 11.5637 7.41518 11.7653 7.21349Z" fill="#01654C"/>
<path id="XMLID_1134_" d="M10.698 19.4216H6.72664C6.61268 19.4216 6.50341 19.4669 6.42281 19.5475L4.70397 21.2663C4.53618 21.4341 4.53618 21.7062 4.70397 21.8739C4.78789 21.9579 4.89784 21.9998 5.0078 21.9998C5.11776 21.9998 5.22772 21.9578 5.31163 21.8739L6.90466 20.281H10.698C10.9353 20.281 11.1277 20.0886 11.1277 19.8513C11.1277 19.614 10.9353 19.4216 10.698 19.4216Z" fill="#01654C"/>
<path id="XMLID_1142_" d="M21.9821 13.3534C21.9387 12.886 21.697 12.4583 21.319 12.18C20.6402 11.6799 19.6985 11.7714 19.1286 12.3928L17.4443 14.2294V13.9037C17.4443 11.9782 16.0735 10.3084 14.1849 9.9333L13.2881 9.75515C12.9895 9.69586 12.7306 9.52896 12.5539 9.29397C13.6653 8.85302 14.5468 7.95395 14.9644 6.83109C15.0354 6.9227 15.1123 7.01074 15.1956 7.09406C15.7236 7.62201 16.4298 7.91192 17.1679 7.91192C17.2647 7.91192 17.3621 7.90694 17.4596 7.89684C17.5848 7.88391 17.6979 7.81675 17.7693 7.71315C17.8407 7.60951 17.863 7.47979 17.8305 7.35823L17.751 7.062L18.0474 7.14136C18.1688 7.17393 18.2986 7.15163 18.4022 7.08022C18.5059 7.00885 18.573 6.89567 18.586 6.7705C18.6729 5.92883 18.3803 5.10366 17.7831 4.50648C17.1027 3.82602 16.1242 3.55029 15.2012 3.75474C14.9647 1.64532 13.1705 0 10.999 0C8.82743 0 7.03322 1.64532 6.79672 3.75474C5.87375 3.55029 4.89527 3.82598 4.21482 4.50648C3.61764 5.1037 3.32502 5.92891 3.41203 6.7705C3.42501 6.89567 3.49213 7.00885 3.59577 7.08022C3.69936 7.15159 3.82909 7.17389 3.95065 7.14136L4.24691 7.062L4.16751 7.35823C4.13494 7.47979 4.15728 7.60951 4.22865 7.71315C4.30002 7.81679 4.4132 7.88395 4.53837 7.89684C4.63595 7.90694 4.73324 7.91192 4.83009 7.91192C5.56825 7.91188 6.27448 7.62197 6.8024 7.09406C6.88571 7.01074 6.96258 6.9227 7.03361 6.83109C7.45122 7.95395 8.33268 8.85302 9.44407 9.29397C9.26738 9.52896 9.00854 9.69586 8.70999 9.75515L7.81315 9.9333C5.93228 10.3068 4.56549 11.9645 4.55423 13.88C3.99275 14.1502 3.47485 14.516 3.02123 14.9696L0.134634 17.8562C-0.0331592 18.024 -0.0331592 18.2961 0.134634 18.4639C0.218552 18.5478 0.328509 18.5897 0.438466 18.5897C0.548423 18.5897 0.65838 18.5478 0.742298 18.4639L3.62885 15.5773C4.52342 14.6827 5.71288 14.19 6.97805 14.19C7.82939 14.19 8.62968 14.5215 9.23163 15.1235C9.31224 15.2041 9.42151 15.2494 9.53547 15.2494H12.3533C12.7703 15.2494 13.1096 15.5887 13.1096 16.0057C13.1096 16.4228 12.7704 16.7621 12.3533 16.7621H9.08683C8.84956 16.7621 8.65714 16.9544 8.65714 17.1918C8.65714 17.4291 8.84956 17.6214 9.08683 17.6214H12.4405C14.3845 17.6214 16.2531 16.7997 17.5671 15.367L19.7619 12.9737C20.0344 12.6766 20.4847 12.6328 20.8093 12.8719C20.9927 13.007 21.1053 13.2062 21.1264 13.433C21.1475 13.6598 21.0736 13.8764 20.9182 14.043L18.1349 17.0282C17.1389 18.0965 15.8632 18.8473 14.4458 19.1997C14.2155 19.257 14.0752 19.4901 14.1325 19.7204C14.1811 19.9159 14.3564 20.0465 14.5491 20.0465C14.5835 20.0465 14.6183 20.0423 14.6531 20.0337C16.2324 19.6411 17.6537 18.8045 18.7635 17.6143L21.5468 14.629C21.867 14.2856 22.0256 13.8207 21.9821 13.3534ZM15.3034 4.61428C15.9668 4.43592 16.6837 4.62228 17.1755 5.11414C17.4645 5.40311 17.6504 5.76933 17.7156 6.16275L17.2546 6.03926C17.1062 5.99943 16.9481 6.04197 16.8396 6.15046C16.731 6.259 16.6886 6.41721 16.7283 6.56554L16.8518 7.02646C16.4585 6.96128 16.0922 6.77536 15.8032 6.48643C15.3114 5.99453 15.125 5.27764 15.3034 4.61428ZM14.3556 3.94238C13.319 3.84588 12.3375 3.39698 11.5864 2.67175C11.9137 2.21237 12.1675 1.6946 12.3297 1.13386C13.4442 1.61485 14.2487 2.68061 14.3556 3.94238ZM10.999 0.859375C11.1703 0.859375 11.3386 0.872438 11.5031 0.897231C11.0022 2.62457 9.45413 3.86048 7.64136 3.95583C7.78101 2.22522 9.23305 0.859375 10.999 0.859375ZM6.19473 6.48639C5.90577 6.77536 5.53959 6.96128 5.14612 7.02642L5.26961 6.5655C5.30936 6.41721 5.26695 6.259 5.15841 6.15042C5.07677 6.06878 4.96703 6.02456 4.85454 6.02456C4.8175 6.02456 4.78016 6.02933 4.74338 6.03921L4.28245 6.16271C4.34759 5.76929 4.53352 5.40306 4.82248 5.1141C5.31434 4.62219 6.03145 4.43588 6.69459 4.61424C6.87304 5.27764 6.68659 5.99453 6.19473 6.48639ZM7.62933 5.36117V4.81718C8.94301 4.76283 10.1447 4.20978 11.0299 3.3281C11.9386 4.18752 13.1228 4.71152 14.3686 4.8061V5.36117C14.3686 7.21918 12.857 8.73082 10.999 8.73082C9.14097 8.73082 7.62933 7.21918 7.62933 5.36117ZM10.999 9.59015C11.2348 9.59015 11.4661 9.57043 11.6915 9.53313C11.8211 9.77861 11.9975 9.99324 12.2089 10.1667C11.914 10.5227 11.4761 10.7339 10.999 10.7339C10.5219 10.7339 10.084 10.5227 9.78924 10.1667C10.0006 9.99324 10.177 9.77861 10.3066 9.53313C10.532 9.57047 10.7632 9.59015 10.999 9.59015ZM12.3534 14.39H9.7079C8.96046 13.7055 7.99809 13.3307 6.97814 13.3307C6.44833 13.3307 5.92987 13.4042 5.43406 13.5457C5.58849 12.1841 6.6114 11.0482 7.9806 10.7763L8.87744 10.5981C8.92316 10.589 8.96832 10.5783 9.01292 10.5664C9.4647 11.2076 10.1964 11.5934 10.999 11.5934C11.8017 11.5934 12.5334 11.2076 12.9852 10.5664C13.0298 10.5783 13.0749 10.589 13.1207 10.5981L14.0175 10.7763C15.5052 11.0717 16.5849 12.387 16.5849 13.9037V15.1363C15.8139 15.8502 14.8714 16.3509 13.8576 16.5941C13.9293 16.4117 13.9691 16.2133 13.9691 16.0057C13.9691 15.1148 13.2443 14.39 12.3534 14.39Z" fill="#01654C"/>
<path id="XMLID_1527_" d="M12.6313 19.4216C12.5183 19.4216 12.4075 19.4676 12.3276 19.5475C12.2476 19.6275 12.2017 19.7383 12.2017 19.8513C12.2017 19.9643 12.2476 20.0752 12.3276 20.1551C12.4075 20.235 12.5183 20.281 12.6313 20.281C12.7444 20.281 12.8552 20.235 12.9351 20.1551C13.015 20.0752 13.061 19.9643 13.061 19.8513C13.061 19.7383 13.0151 19.6275 12.9351 19.5475C12.8552 19.4676 12.7444 19.4216 12.6313 19.4216Z" fill="#01654C"/>
</g>
</g>
</g>
<defs>
<clipPath id="clip0_8_5917">
<rect width="22" height="22" fill="white"/>
</clipPath>
</defs>
</svg>
