<svg width="48" height="48" viewBox="0 0 48 48" fill="none" xmlns="http://www.w3.org/2000/svg">
<g id="air-conditioner" clip-path="url(#clip0_8_7823)">
<g id="Group">
<path id="Vector" d="M44.6263 9.44067H11.4129C11.0237 9.44067 10.7083 9.75606 10.7083 10.1453C10.7083 10.5345 11.0237 10.8499 11.4129 10.8499H44.6263C45.7096 10.8499 46.5908 11.7312 46.5908 12.8144V27.8174C46.5908 28.9007 45.7096 29.7819 44.6263 29.7819H42.9391V25.1909C42.9391 24.8016 42.6236 24.4862 42.2345 24.4862H5.76554C5.37639 24.4862 5.06091 24.8016 5.06091 25.1909V29.7819H3.37375C2.29051 29.7819 1.40925 28.9007 1.40925 27.8174V12.8144C1.40925 11.7312 2.29051 10.8499 3.37375 10.8499H8.59438C8.98352 10.8499 9.299 10.5345 9.299 10.1453C9.299 9.75606 8.98352 9.44067 8.59438 9.44067H3.37375C1.51344 9.44067 0 10.9541 0 12.8144V27.8174C0 29.6777 1.51344 31.1912 3.37375 31.1912H10.7085C11.0977 31.1912 11.4132 30.8758 11.4132 30.4866C11.4132 30.0974 11.0977 29.7819 10.7085 29.7819H6.47016V28.5433H34.473C34.8622 28.5433 35.1777 28.2279 35.1777 27.8387C35.1777 27.4494 34.8622 27.134 34.473 27.134H6.47016V25.8954H41.5298V27.134H37.2916C36.9024 27.134 36.5869 27.4494 36.5869 27.8387C36.5869 28.2279 36.9024 28.5433 37.2916 28.5433H41.5298V29.7819H13.5269C13.1378 29.7819 12.8223 30.0974 12.8223 30.4866C12.8223 30.8758 13.1378 31.1912 13.5269 31.1912H44.6263C46.4866 31.1912 48.0001 29.6777 48.0001 27.8174V12.8144C48 10.9542 46.4866 9.44067 44.6263 9.44067Z" fill="#063C43"/>
<path id="Vector_2" d="M42.2338 15.1698C42.623 15.1698 42.9385 14.8544 42.9385 14.4651C42.9385 14.0759 42.623 13.7605 42.2338 13.7605H40.1499C39.7608 13.7605 39.4453 14.0759 39.4453 14.4651C39.4453 14.8544 39.7608 15.1698 40.1499 15.1698H42.2338Z" fill="#063C43"/>
<path id="Vector_3" d="M36.9359 15.1698C37.3251 15.1698 37.6406 14.8544 37.6406 14.4651C37.6406 14.0759 37.3251 13.7605 36.9359 13.7605H23.5992C23.21 13.7605 22.8945 14.0759 22.8945 14.4651C22.8945 14.8544 23.21 15.1698 23.5992 15.1698H36.9359Z" fill="#063C43"/>
<path id="Vector_4" d="M13.2548 33.0764C12.8657 33.0764 12.5502 33.3918 12.5502 33.781C12.5502 33.802 12.5276 35.8909 10.5728 37.2802C10.2557 37.5056 10.1812 37.9456 10.4067 38.2628C10.5442 38.4562 10.7612 38.5593 10.9817 38.5593C11.1229 38.5593 11.2655 38.5169 11.3894 38.4289C13.9303 36.6228 13.9595 33.8961 13.9595 33.7809C13.9595 33.3918 13.644 33.0764 13.2548 33.0764Z" fill="#063C43"/>
<path id="Vector_5" d="M18.2994 33.0764C17.9102 33.0764 17.5947 33.3918 17.5947 33.781V37.8545C17.5947 38.2438 17.9102 38.5592 18.2994 38.5592C18.6885 38.5592 19.004 38.2438 19.004 37.8545V33.781C19.004 33.3918 18.6885 33.0764 18.2994 33.0764Z" fill="#063C43"/>
<path id="Vector_6" d="M24.1978 33.0764C23.8086 33.0764 23.4932 33.3918 23.4932 33.781V37.8545C23.4932 38.2438 23.8086 38.5592 24.1978 38.5592C24.5869 38.5592 24.9024 38.2438 24.9024 37.8545V33.781C24.9024 33.3918 24.5869 33.0764 24.1978 33.0764Z" fill="#063C43"/>
<path id="Vector_7" d="M37.4276 37.2802C35.4992 35.9096 35.4513 33.8716 35.4503 33.7778C35.4486 33.3901 35.1338 33.0764 34.7456 33.0764C34.3565 33.0764 34.041 33.3918 34.041 33.781C34.041 33.8962 34.0702 36.6229 36.6112 38.4289C36.735 38.517 36.8777 38.5594 37.0189 38.5594C37.2393 38.5593 37.4564 38.4561 37.5938 38.2628C37.8192 37.9456 37.7448 37.5056 37.4276 37.2802Z" fill="#063C43"/>
<path id="Vector_8" d="M29.6997 33.0764C29.3106 33.0764 28.9951 33.3918 28.9951 33.781V37.8545C28.9951 38.2438 29.3106 38.5592 29.6997 38.5592C30.0889 38.5592 30.4044 38.2438 30.4044 37.8545V33.781C30.4044 33.3918 30.0889 33.0764 29.6997 33.0764Z" fill="#063C43"/>
</g>
</g>
<defs>
<clipPath id="clip0_8_7823">
<rect width="48" height="48" fill="white"/>
</clipPath>
</defs>
</svg>
