<svg width="32" height="32" viewBox="0 0 32 32" fill="none" xmlns="http://www.w3.org/2000/svg">
<g id="bathtub 2">
<g id="Group">
<g id="Group_2">
<g id="Group_3">
<path id="Vector" d="M30.4 17.0668H29.8667V5.86677C29.8667 3.20008 27.7334 1.06677 25.0667 1.06677C22.7061 1.06677 21.0082 2.81715 20.8183 5.38183C19.579 5.61608 18.6667 6.68346 18.6667 8.00008C18.6667 8.32008 18.88 8.5334 19.2 8.5334H23.4667C23.7867 8.5334 24 8.32008 24 8.00008C24 6.69802 23.1079 5.63952 21.8896 5.38965C22.0489 3.6949 23.0668 2.1334 25.0667 2.1334C27.1467 2.1334 28.8 3.78671 28.8 5.86671V17.0667H12.7484C12.5072 15.8366 11.4436 14.9334 10.1334 14.9334C9.60006 14.2934 8.85338 13.8667 8.00006 13.8667C6.98675 13.8667 6.08006 14.4534 5.65338 15.3067C5.22669 15.0934 4.74669 14.9334 4.26669 14.9334C2.9565 14.9334 1.89288 15.8366 1.65163 17.0667H1.6C0.693313 17.0667 0 17.76 0 18.6667C0 19.5734 0.693313 20.2667 1.6 20.2667H2.24094L3.68 25.9734C4.10669 27.6267 5.6 28.8001 7.30669 28.8001H7.73338L7.04006 30.1868C6.88006 30.4535 6.98675 30.7735 7.25338 30.8801C7.30669 30.9334 7.41338 30.9334 7.46669 30.9334C7.68 30.9334 7.84 30.8267 7.94669 30.6667L8.88 28.8001H23.68L24.5867 30.6134C24.6934 30.8267 24.8534 30.9334 25.0667 30.9334C25.1734 30.9334 25.2267 30.9334 25.28 30.8267C25.4933 30.72 25.6 30.4 25.4933 30.1334L24.8253 28.7972C26.4764 28.7386 27.9044 27.5853 28.32 26.0267L29.7725 20.2667H30.4C31.3067 20.2667 32 19.5734 32 18.6667C32 17.7601 31.3067 17.0668 30.4 17.0668ZM22.88 7.46677H19.84C20.0533 6.82677 20.6933 6.40008 21.3867 6.40008C22.0801 6.40008 22.6667 6.82677 22.88 7.46677ZM4.26669 16.0001C4.74669 16.0001 5.17338 16.2134 5.54669 16.5868C5.65338 16.7468 5.86669 16.8001 6.08 16.7468C6.29331 16.6935 6.4 16.5335 6.45331 16.3201C6.61331 15.5201 7.25331 14.9334 8.05331 14.9334C8.64 14.9334 9.17331 15.2001 9.44 15.7334C9.54669 15.9467 9.81331 16.0534 10.0267 16.0001C10.08 16.0001 10.1334 16.0001 10.1867 16.0001C10.88 16.0001 11.4667 16.4268 11.68 17.0668H2.77331C2.98669 16.4268 3.57331 16.0001 4.26669 16.0001ZM27.36 25.7068C27.04 26.8801 25.9733 27.7335 24.7467 27.7335H7.36C6.13331 27.7335 5.06669 26.8801 4.74669 25.7068L3.36 20.2668H28.64L27.36 25.7068ZM30.4 19.2001H29.3333H2.66669H1.6C1.28 19.2001 1.06669 18.9868 1.06669 18.6668C1.06669 18.3468 1.28 18.1335 1.6 18.1335H2.13331H12.2666H30.4C30.72 18.1335 30.9333 18.3468 30.9333 18.6668C30.9333 18.9868 30.72 19.2001 30.4 19.2001Z" fill="#063C43"/>
<path id="Vector_2" d="M19.2003 10.9334C19.5203 10.9334 19.7336 10.7201 19.7336 10.4001V10.1334C19.7336 9.81341 19.5203 9.6001 19.2003 9.6001C18.8803 9.6001 18.667 9.81341 18.667 10.1334V10.4001C18.667 10.7201 18.8803 10.9334 19.2003 10.9334Z" fill="#063C43"/>
<path id="Vector_3" d="M19.2003 13.3868C19.5203 13.3868 19.7336 13.1201 19.7336 12.8535V12.2668C19.7336 11.9468 19.5203 11.7335 19.2003 11.7335C18.8803 11.7335 18.667 11.9468 18.667 12.2668V12.8535C18.667 13.1735 18.8803 13.3868 19.2003 13.3868Z" fill="#063C43"/>
<path id="Vector_4" d="M19.2003 15.4669C19.5203 15.4669 19.7336 15.2535 19.7336 14.9335V14.6669C19.7336 14.3469 19.5203 14.1335 19.2003 14.1335C18.8803 14.1335 18.667 14.3469 18.667 14.6669V14.9335C18.667 15.2535 18.8803 15.4669 19.2003 15.4669Z" fill="#063C43"/>
<path id="Vector_5" d="M21.3331 10.9334C21.6531 10.9334 21.8664 10.7201 21.8664 10.4001V10.1334C21.8664 9.81341 21.6531 9.6001 21.3331 9.6001C21.0131 9.6001 20.7998 9.81341 20.7998 10.1334V10.4001C20.7998 10.7201 21.0131 10.9334 21.3331 10.9334Z" fill="#063C43"/>
<path id="Vector_6" d="M20.7998 12.8534C20.7998 13.1734 21.0131 13.3867 21.3331 13.3867C21.6531 13.3867 21.8664 13.12 21.8664 12.8534V12.2667C21.8664 11.9467 21.6531 11.7334 21.3331 11.7334C21.0131 11.7334 20.7998 11.9467 20.7998 12.2667V12.8534Z" fill="#063C43"/>
<path id="Vector_7" d="M20.7998 14.9334C20.7998 15.2534 21.0131 15.4667 21.3331 15.4667C21.6531 15.4667 21.8664 15.2534 21.8664 14.9334V14.6667C21.8664 14.3467 21.6531 14.1334 21.3331 14.1334C21.0131 14.1334 20.7998 14.3467 20.7998 14.6667V14.9334Z" fill="#063C43"/>
<path id="Vector_8" d="M23.4669 10.9334C23.7869 10.9334 24.0002 10.7201 24.0002 10.4001V10.1334C24.0002 9.81341 23.7869 9.6001 23.4669 9.6001C23.1469 9.6001 22.9336 9.81341 22.9336 10.1334V10.4001C22.9335 10.7201 23.1469 10.9334 23.4669 10.9334Z" fill="#063C43"/>
<path id="Vector_9" d="M22.9336 12.8534C22.9336 13.1734 23.1469 13.3867 23.4669 13.3867C23.7869 13.3867 24.0003 13.1201 24.0003 12.8534V12.2667C24.0003 11.9467 23.787 11.7334 23.467 11.7334C23.147 11.7334 22.9337 11.9467 22.9337 12.2667V12.8534H22.9336Z" fill="#063C43"/>
<path id="Vector_10" d="M22.9336 14.9334C22.9336 15.2534 23.1469 15.4667 23.4669 15.4667C23.7869 15.4667 24.0002 15.2534 24.0002 14.9334V14.6667C24.0002 14.3467 23.7869 14.1334 23.4669 14.1334C23.1469 14.1334 22.9336 14.3467 22.9336 14.6667V14.9334Z" fill="#063C43"/>
</g>
</g>
</g>
</g>
</svg>
