<svg width="32" height="32" viewBox="0 0 32 32" fill="none" xmlns="http://www.w3.org/2000/svg">
<g id="bed 1">
<path id="Vector" d="M31 21.5H30.5V17.5C30.4993 16.9698 30.2884 16.4615 29.9134 16.0866C29.5385 15.7116 29.0302 15.5007 28.5 15.5V7C28.4993 6.46978 28.2884 5.96148 27.9134 5.58655C27.5385 5.21163 27.0302 5.00069 26.5 5H5.5C4.96978 5.00069 4.46148 5.21163 4.08655 5.58655C3.71163 5.96148 3.50069 6.46978 3.5 7V15.5C2.96978 15.5007 2.46148 15.7116 2.08655 16.0866C1.71163 16.4615 1.50069 16.9698 1.5 17.5V21.5H1C0.867392 21.5 0.740215 21.5527 0.646447 21.6464C0.552678 21.7402 0.5 21.8674 0.5 22V24C0.5 24.1326 0.552678 24.2598 0.646447 24.3536C0.740215 24.4473 0.867392 24.5 1 24.5H1.5V26.5C1.5 26.6326 1.55268 26.7598 1.64645 26.8536C1.74021 26.9473 1.86739 27 2 27H3.5C3.61556 27.0001 3.72756 26.96 3.81691 26.8867C3.90627 26.8135 3.96744 26.7115 3.99 26.5981L4.41 24.5H27.59L28.01 26.5981C28.0326 26.7115 28.0937 26.8135 28.1831 26.8867C28.2724 26.96 28.3844 27.0001 28.5 27H30C30.1326 27 30.2598 26.9473 30.3536 26.8536C30.4473 26.7598 30.5 26.6326 30.5 26.5V24.5H31C31.1326 24.5 31.2598 24.4473 31.3536 24.3536C31.4473 24.2598 31.5 24.1326 31.5 24V22C31.5 21.8674 31.4473 21.7402 31.3536 21.6464C31.2598 21.5527 31.1326 21.5 31 21.5ZM4.5 7C4.50035 6.73489 4.60582 6.48074 4.79328 6.29328C4.98074 6.10582 5.23489 6.00035 5.5 6H26.5C26.7651 6.00035 27.0193 6.10582 27.2067 6.29328C27.3942 6.48074 27.4997 6.73489 27.5 7V15.5H26.5V13.5C26.4993 12.9698 26.2884 12.4615 25.9134 12.0866C25.5385 11.7116 25.0302 11.5007 24.5 11.5H18.5C17.9698 11.5007 17.4615 11.7116 17.0866 12.0866C16.7116 12.4615 16.5007 12.9698 16.5 13.5V15.5H15.5V13.5C15.4993 12.9698 15.2884 12.4615 14.9134 12.0866C14.5385 11.7116 14.0302 11.5007 13.5 11.5H7.5C6.96978 11.5007 6.46148 11.7116 6.08655 12.0866C5.71163 12.4615 5.50069 12.9698 5.5 13.5V15.5H4.5V7ZM25.5 13.5V15.5H17.5V13.5C17.5003 13.2349 17.6058 12.9807 17.7933 12.7933C17.9807 12.6058 18.2349 12.5003 18.5 12.5H24.5C24.7651 12.5003 25.0193 12.6058 25.2067 12.7933C25.3942 12.9807 25.4997 13.2349 25.5 13.5ZM14.5 13.5V15.5H6.5V13.5C6.50035 13.2349 6.60582 12.9807 6.79328 12.7933C6.98074 12.6058 7.23489 12.5003 7.5 12.5H13.5C13.7651 12.5003 14.0193 12.6058 14.2067 12.7933C14.3942 12.9807 14.4997 13.2349 14.5 13.5ZM2.5 17.5C2.50035 17.2349 2.60582 16.9807 2.79328 16.7933C2.98074 16.6058 3.23489 16.5003 3.5 16.5H28.5C28.7651 16.5003 29.0193 16.6058 29.2067 16.7933C29.3942 16.9807 29.4997 17.2349 29.5 17.5V21.5H2.5V17.5ZM3.09 26H2.5V24.5H3.39L3.09 26ZM29.5 26H28.91L28.61 24.5H29.5V26ZM30.5 23.5H1.5V22.5H30.5V23.5Z" fill="#063C43"/>
</g>
</svg>
