<svg width="25" height="25" viewBox="0 0 25 25" fill="none" xmlns="http://www.w3.org/2000/svg">
<g id="Calling">
<g id="Group 3">
<mask id="mask0_29_89" style="mask-type:luminance" maskUnits="userSpaceOnUse" x="14" y="0" width="11" height="11">
<path id="Clip 2" fill-rule="evenodd" clip-rule="evenodd" d="M14.7463 0.33374H24.7085V10.2887H14.7463V0.33374Z" fill="white"/>
</mask>
<g mask="url(#mask0_29_89)">
<path id="Fill 1" fill-rule="evenodd" clip-rule="evenodd" d="M23.8332 10.2887C23.3933 10.2887 23.0153 9.95852 22.9652 9.51169C22.523 5.57302 19.464 2.51636 15.5242 2.07886C15.0447 2.02519 14.6982 1.59352 14.7518 1.11286C14.8043 0.633356 15.2325 0.279856 15.7178 0.340523C20.4755 0.869023 24.1703 4.55919 24.7035 9.31569C24.7572 9.79636 24.4118 10.2292 23.9323 10.2829C23.8997 10.2864 23.8658 10.2887 23.8332 10.2887Z" fill="white"/>
</g>
</g>
<path id="Fill 4" fill-rule="evenodd" clip-rule="evenodd" d="M19.703 10.3012C19.2923 10.3012 18.9272 10.0119 18.8455 9.59423C18.5095 7.86756 17.1783 6.53639 15.454 6.20156C14.9792 6.10939 14.67 5.65089 14.7622 5.17606C14.8543 4.70123 15.321 4.39089 15.7877 4.48423C18.2155 4.95556 20.0903 6.82923 20.5628 9.25823C20.655 9.73423 20.3458 10.1927 19.8722 10.2849C19.815 10.2954 19.759 10.3012 19.703 10.3012Z" fill="white"/>
<g id="Group 8">
<mask id="mask1_29_89" style="mask-type:luminance" maskUnits="userSpaceOnUse" x="0" y="0" width="25" height="25">
<path id="Clip 7" fill-rule="evenodd" clip-rule="evenodd" d="M0.333801 0.333252H24.2507V24.2505H0.333801V0.333252Z" fill="white"/>
</mask>
<g mask="url(#mask1_29_89)">
<path id="Fill 6" fill-rule="evenodd" clip-rule="evenodd" d="M3.08607 3.90505C3.0884 3.90505 3.03007 3.96572 2.95657 4.03805C2.67423 4.31222 2.08973 4.88272 2.0839 6.07622C2.07457 7.74572 3.1724 10.8455 8.45857 16.1305C13.7191 21.3899 16.8142 22.5005 18.4884 22.5005H18.5129C19.7064 22.4935 20.2757 21.9091 20.5499 21.6279C20.6327 21.5427 20.7004 21.4785 20.7482 21.4401C21.9114 20.2699 22.5064 19.4007 22.5006 18.8419C22.4936 18.2726 21.7854 17.6005 20.8066 16.6684C20.4951 16.3732 20.1567 16.05 19.7997 15.693C18.8734 14.7702 18.4172 14.9277 17.4081 15.2824C16.0139 15.7712 14.1041 16.4409 11.1279 13.4624C8.15057 10.4862 8.8179 8.57638 9.3044 7.18105C9.65673 6.17305 9.81773 5.71455 8.89257 4.78822C8.5309 4.42655 8.2054 4.08355 7.90557 3.76855C6.97923 2.79555 6.31073 2.09205 5.7449 2.08388H5.73557C5.17673 2.08388 4.30873 2.68122 3.08023 3.90972C3.08373 3.90622 3.0849 3.90505 3.08607 3.90505ZM18.4884 24.2505C15.5811 24.2505 11.7906 21.9359 7.2219 17.3684C2.63457 12.7822 0.3164 8.98005 0.3339 6.06688C0.3444 4.14188 1.35357 3.15605 1.73273 2.78622C1.75257 2.76172 1.82023 2.69522 1.84357 2.67188C3.51773 0.997716 4.66807 0.309382 5.76707 0.333882C7.07023 0.351382 7.9989 1.32788 9.17373 2.56338C9.46423 2.86788 9.77807 3.20038 10.1292 3.55038C11.8314 5.25372 11.3472 6.64322 10.9564 7.75855C10.5317 8.97538 10.1642 10.0254 12.3646 12.2257C14.5649 14.426 15.6137 14.0585 16.8294 13.6304C17.9459 13.2407 19.3319 12.753 21.0376 14.4564C21.3841 14.8029 21.7107 15.1132 22.0141 15.4014C23.2542 16.582 24.2342 17.5142 24.2506 18.8209C24.2634 19.9339 23.5867 21.0702 21.9161 22.7409L21.1764 22.2392L21.8029 22.8494C21.4331 23.2285 20.4496 24.2389 18.5234 24.2505H18.4884Z" fill="white"/>
</g>
</g>
</g>
</svg>
