<svg width="48" height="48" viewBox="0 0 48 48" fill="none" xmlns="http://www.w3.org/2000/svg">
<g id="coffee-maker">
<g id="Group">
<path id="Vector" d="M41.5318 39.3886L38.0002 18.2939V7.79862C38.0002 7.79439 38.0002 7.79059 38.0002 7.78636C37.9988 6.46837 37.4774 5.20477 36.5504 4.27281C35.6234 3.34086 34.3665 2.81664 33.0555 2.81519H14.7314C13.4204 2.81664 12.1635 3.34086 11.2365 4.27281C10.3095 5.20477 9.78811 6.46837 9.78666 7.78636C9.78666 7.98272 9.86425 8.17104 10.0024 8.30989C10.1405 8.44874 10.3278 8.52674 10.5231 8.52674H12.6323L14.9208 11.2294C14.99 11.3109 15.076 11.3764 15.1728 11.4213C15.2697 11.4663 15.3751 11.4895 15.4817 11.4896H16.4244V16.135C16.4243 16.2322 16.4433 16.3285 16.4803 16.4184C16.5173 16.5082 16.5716 16.5899 16.64 16.6586C16.7084 16.7274 16.7896 16.7819 16.8789 16.8191C16.9683 16.8563 17.0641 16.8754 17.1608 16.8753H17.5484L18.1207 20.4076C18.1489 20.581 18.2374 20.7388 18.3706 20.8526C18.5037 20.9664 18.6727 21.029 18.8475 21.0291H20.4092C20.5842 21.0293 20.7536 20.9669 20.8871 20.853C21.0206 20.7392 21.1094 20.5813 21.1377 20.4076L21.7096 16.8753H22.0984C22.2937 16.8753 22.481 16.7973 22.6192 16.6585C22.7573 16.5196 22.8349 16.3313 22.8349 16.135V11.4896H23.7775C23.8841 11.4896 23.9894 11.4663 24.0862 11.4214C24.183 11.3765 24.2689 11.311 24.3381 11.2294L26.6269 8.52674H29.5306V37.3566H23.3062C23.9058 36.8182 24.3857 36.1587 24.7144 35.4211C25.0432 34.6835 25.2133 33.8845 25.2138 33.0763V27.1989C25.2138 27.0025 25.1362 26.8142 24.9981 26.6753C24.86 26.5365 24.6727 26.4585 24.4773 26.4585H14.4886C14.2933 26.4586 14.106 26.5366 13.9679 26.6755C13.8299 26.8143 13.7522 27.0025 13.7521 27.1989V27.4481H13.6217C12.6585 27.4481 11.7347 27.8327 11.0536 28.5175C10.3726 29.2022 9.98992 30.1309 9.98992 31.0992C9.98992 32.0676 10.3726 32.9963 11.0536 33.681C11.7347 34.3657 12.6585 34.7504 13.6217 34.7504H14.0004C14.3071 35.7548 14.8809 36.656 15.6597 37.3566H6.88C6.68469 37.3566 6.49737 37.4346 6.35926 37.5734C6.22114 37.7123 6.14355 37.9006 6.14355 38.0969V44.4431C6.14355 44.6395 6.22114 44.8278 6.35926 44.9667C6.49737 45.1055 6.68469 45.1835 6.88 45.1835H36.6557C37.3745 45.1835 38.0846 45.026 38.7367 44.7218C39.3887 44.4177 39.9669 43.9743 40.4311 43.4226C40.8953 42.8708 41.2342 42.224 41.4243 41.5271C41.6144 40.8301 41.6511 40.1 41.5318 39.3873V39.3886ZM13.6217 33.2696C13.0491 33.2696 12.5 33.041 12.0951 32.6339C11.6903 32.2269 11.4628 31.6749 11.4628 31.0992C11.4628 30.5236 11.6903 29.9716 12.0951 29.5645C12.5 29.1575 13.0491 28.9288 13.6217 28.9288H13.7504C13.7546 31.2757 13.7424 32.7365 13.7601 33.2696H13.6217ZM15.2987 33.8619V33.8594C15.1968 33.3094 15.2238 33.6237 15.2238 27.9384H23.7413V33.0763C23.74 34.2071 23.2941 35.2916 22.5009 36.0934C21.7077 36.8951 20.6313 37.3492 19.5065 37.3566H19.4581C18.4694 37.3495 17.5138 36.9972 16.755 36.3598C15.9962 35.7225 15.4814 34.8397 15.2987 33.8628V33.8619ZM29.5273 43.7027H7.61645V38.8373H29.5273V43.7027ZM19.7834 19.5484H19.4737L19.0407 16.8762H20.216L19.7834 19.5484ZM21.3607 15.3946H17.8973V11.4896H21.3607V15.3946ZM23.4358 10.0088H15.8222L14.5668 8.52801H24.6911L23.4358 10.0088ZM11.3383 7.04724C11.5075 6.26877 11.9362 5.57177 12.5532 5.07166C13.1703 4.57155 13.9388 4.29832 14.7314 4.29723H33.0568C33.8494 4.2983 34.618 4.57151 35.2351 5.07162C35.8522 5.57173 36.281 6.26873 36.4503 7.04724H11.3383ZM36.5273 8.52801V17.6242H31.0019V8.52801H36.5273ZM39.3048 42.4686C38.9791 42.8564 38.5732 43.1681 38.1152 43.3817C37.6573 43.5953 37.1584 43.7057 36.6536 43.7053H30.9981C30.9981 37.4369 30.9981 40.0291 30.9981 19.1054H36.6372L40.0745 39.6365C40.159 40.1361 40.134 40.6483 40.0014 41.1372C39.8687 41.6261 39.6316 42.08 39.3065 42.4673L39.3048 42.4686Z" fill="#063C43"/>
<path id="Vector_2" d="M34.4961 22.1126C34.4857 22.0159 34.4564 21.9223 34.41 21.837C34.3636 21.7517 34.3009 21.6764 34.2255 21.6154C34.1502 21.5545 34.0636 21.509 33.9708 21.4817C33.878 21.4544 33.7807 21.4457 33.6845 21.4562C33.5884 21.4667 33.4952 21.4961 33.4104 21.5428C33.3255 21.5894 33.2506 21.6525 33.19 21.7282C33.1294 21.804 33.0842 21.891 33.057 21.9843C33.0298 22.0777 33.0212 22.1754 33.0316 22.2721L34.8315 39.0027C34.8525 39.198 34.9499 39.3768 35.1021 39.4999C35.2543 39.623 35.4489 39.6803 35.6431 39.6591C35.8373 39.638 36.0152 39.5401 36.1376 39.3871C36.2601 39.2341 36.317 39.0385 36.296 38.8432L34.4961 22.1126Z" fill="#063C43"/>
</g>
</g>
</svg>
