<svg width="40" height="40" viewBox="0 0 40 40" fill="none" xmlns="http://www.w3.org/2000/svg">
<g id="diamond 1" clip-path="url(#clip0_5_2526)">
<path id="Vector" d="M24.6873 20.3125C24.256 20.3125 23.906 20.6625 23.906 21.0938C23.906 21.525 24.256 21.875 24.6873 21.875C25.1185 21.875 25.4685 21.525 25.4685 21.0938C25.4685 20.6625 25.1185 20.3125 24.6873 20.3125Z" fill="#01654C"/>
<path id="Vector_2" d="M0.194614 18.4842C0.196723 18.4866 0.198598 18.4894 0.200786 18.4917C0.201098 18.492 0.201333 18.4924 0.201645 18.4928L19.4204 39.7428C19.5636 39.9012 19.7806 40 19.9998 40C20.2184 40 20.435 39.9023 20.5793 39.7428L39.798 18.4928C39.7984 18.4925 39.7986 18.4921 39.7989 18.4917C39.8011 18.4893 39.8029 18.4866 39.8051 18.4842C40.0555 18.1994 40.062 17.781 39.8348 17.4895C39.8326 17.4867 39.8309 17.4835 39.8287 17.4807L33.5787 9.6682C33.4305 9.48289 33.2059 9.375 32.9686 9.375C29.7837 9.375 9.62258 9.375 7.0311 9.375C6.79375 9.375 6.5693 9.48289 6.42102 9.6682L0.17102 17.4807C0.168755 17.4835 0.167192 17.4866 0.164927 17.4895C-0.0646827 17.7841 -0.052964 18.2026 0.194614 18.4842ZM15.7546 10.9375H24.245L27.995 17.1875H12.0046L15.7546 10.9375ZM11.8234 18.75H28.1762L19.9998 37.2833L11.8234 18.75ZM29.8841 18.75H37.4587L22.6702 35.1014L29.8841 18.75ZM10.1156 18.75L17.3294 35.1014L2.54094 18.75H10.1156ZM37.593 17.1875H29.8171L26.0671 10.9375H32.593L37.593 17.1875ZM7.40649 10.9375H13.9324L10.1824 17.1875H2.40649L7.40649 10.9375Z" fill="#01654C"/>
<path id="Vector_3" d="M21.5626 20.3125H15.7642C15.3327 20.3125 14.9829 20.6623 14.9829 21.0938C14.9829 21.5252 15.3327 21.875 15.7642 21.875H21.5626C21.9941 21.875 22.3439 21.5252 22.3439 21.0938C22.3439 20.6623 21.9941 20.3125 21.5626 20.3125Z" fill="#01654C"/>
<path id="Vector_4" d="M19.9998 6.25C20.4312 6.25 20.781 5.90023 20.781 5.46875V0.78125C20.781 0.349766 20.4312 0 19.9998 0C19.5683 0 19.2185 0.349766 19.2185 0.78125V5.46875C19.2185 5.90023 19.5683 6.25 19.9998 6.25Z" fill="#01654C"/>
<path id="Vector_5" d="M25.24 6.02114L28.365 2.89614C28.6701 2.59106 28.6701 2.09637 28.365 1.79122C28.0599 1.48606 27.5652 1.48614 27.2601 1.79122L24.1351 4.91622C23.83 5.22129 23.83 5.71598 24.1351 6.02114C24.4401 6.32622 24.9348 6.32629 25.24 6.02114Z" fill="#01654C"/>
<path id="Vector_6" d="M14.7598 6.02123C15.0649 6.32631 15.5596 6.32631 15.8648 6.02123C16.1698 5.71615 16.1698 5.22146 15.8648 4.91631L12.7398 1.79131C12.4347 1.48623 11.94 1.48623 11.6348 1.79131C11.3297 2.09639 11.3298 2.59107 11.6348 2.89623L14.7598 6.02123Z" fill="#01654C"/>
</g>
<defs>
<clipPath id="clip0_5_2526">
<rect width="40" height="40" fill="white"/>
</clipPath>
</defs>
</svg>
