<svg width="20" height="20" viewBox="0 0 20 20" fill="none" xmlns="http://www.w3.org/2000/svg">
<g id="global 1" clip-path="url(#clip0_1_875)">
<path id="Vector" d="M10.3575 19.988C11.8869 19.7707 13.2277 18.1744 14.0713 15.8171C12.8517 15.5439 11.6072 15.3973 10.3575 15.3799V19.988Z" fill="white"/>
<path id="Vector_2" d="M12.8008 19.6133C12.8912 19.5871 12.9813 19.5608 13.0707 19.5318C13.1461 19.5076 13.2204 19.4814 13.2948 19.4554C13.3827 19.425 13.4703 19.3938 13.5576 19.3606C13.6319 19.3323 13.7056 19.3023 13.7794 19.2723C13.8646 19.2365 13.9496 19.2009 14.0337 19.1651C14.1072 19.1328 14.1801 19.099 14.2531 19.065C14.3356 19.026 14.4178 18.9864 14.4994 18.9452C14.5709 18.9087 14.6423 18.8716 14.7139 18.8334C14.794 18.7904 14.8735 18.7466 14.9526 18.7016C15.0242 18.6611 15.0931 18.6204 15.1627 18.5785C15.2402 18.5309 15.3174 18.4832 15.394 18.4356C15.4626 18.392 15.531 18.3476 15.5985 18.3019C15.6739 18.2511 15.7483 18.1982 15.8223 18.1454C15.8888 18.0977 15.9549 18.0502 16.0199 18.0024C16.0914 17.9473 16.1647 17.8902 16.2364 17.8329C16.3001 17.7822 16.3637 17.7317 16.4263 17.6795C16.4977 17.6202 16.5661 17.5588 16.6354 17.4973C16.6962 17.4434 16.7572 17.39 16.8166 17.3347C16.8848 17.271 16.9513 17.205 17.0178 17.1395C17.0754 17.0826 17.1337 17.0266 17.1901 16.9683C17.2005 16.9575 17.2105 16.9458 17.2213 16.9346C16.4417 16.532 15.6205 16.2159 14.7721 15.9922C14.3309 17.3992 13.5457 18.6744 12.4877 19.7016C12.5167 19.6941 12.5457 19.688 12.5746 19.6805C12.6511 19.6591 12.7261 19.6355 12.8008 19.6133Z" fill="white"/>
<path id="Vector_3" d="M19.9999 10.3657H15.7142C15.6979 12.0391 15.4552 13.7025 14.9925 15.3108C15.936 15.5629 16.8465 15.9252 17.7052 16.3903C19.1151 14.6911 19.9221 12.5725 19.9999 10.3657Z" fill="white"/>
<path id="Vector_4" d="M10.3575 9.65079H14.9995C14.9813 8.03657 14.7445 6.43229 14.2958 4.88159C13.0032 5.17637 11.6831 5.3338 10.3575 5.35125V9.65079Z" fill="white"/>
<path id="Vector_5" d="M10.3575 0.0280762V4.63618C11.6072 4.61855 12.8517 4.47212 14.0713 4.19898C13.2277 1.84161 11.8869 0.245365 10.3575 0.0280762Z" fill="white"/>
<path id="Vector_6" d="M10.3575 14.6653C11.6831 14.6829 13.0032 14.8403 14.2958 15.1351C14.7445 13.5844 14.9813 11.9799 14.9995 10.3657H10.3575V14.6653Z" fill="white"/>
<path id="Vector_7" d="M17.7052 3.62622C16.8465 4.09134 15.936 4.45367 14.9925 4.70569C15.4552 6.31398 15.6979 7.97742 15.7142 9.65081H19.9999C19.9219 7.44423 19.1149 5.32561 17.7052 3.62622Z" fill="white"/>
<path id="Vector_8" d="M17.2224 3.08399C17.212 3.07334 17.202 3.06182 17.1917 3.05083C17.1352 2.99254 17.0765 2.93634 17.0189 2.87962C16.9526 2.81417 16.8865 2.74802 16.818 2.68449C16.7589 2.62934 16.6976 2.57716 16.6369 2.52218C16.5676 2.46074 16.4983 2.39879 16.4271 2.33945C16.3653 2.28726 16.302 2.23735 16.2391 2.18726C16.1676 2.12931 16.0943 2.07172 16.0206 2.01639C15.956 1.9677 15.8906 1.92058 15.8248 1.87345C15.7501 1.8197 15.675 1.76612 15.5989 1.71498C15.5321 1.66995 15.4642 1.62597 15.3963 1.58286C15.319 1.53312 15.2419 1.48443 15.1631 1.4373C15.0942 1.39594 15.0246 1.3551 14.9548 1.31548C14.8748 1.26976 14.7947 1.22542 14.7139 1.18214C14.6423 1.14636 14.571 1.10744 14.4994 1.07166C14.4172 1.03013 14.3343 0.990159 14.2493 0.95089C14.1777 0.916856 14.1051 0.883696 14.0315 0.851408C13.9468 0.813884 13.8613 0.780025 13.776 0.744247C13.7023 0.714228 13.629 0.684558 13.5547 0.656284C13.4679 0.623123 13.38 0.592057 13.292 0.561689C13.2177 0.535509 13.1433 0.509505 13.0679 0.48507C12.9785 0.456098 12.8892 0.429745 12.7974 0.403216C12.723 0.3814 12.6483 0.359235 12.5731 0.339338C12.5443 0.331484 12.515 0.325376 12.486 0.317871C13.544 1.34515 14.3291 2.62009 14.7704 4.02732C15.6197 3.80357 16.4421 3.48733 17.2224 3.08399Z" fill="white"/>
<path id="Vector_9" d="M0 9.65081H4.28575C4.30198 7.97742 4.54475 6.31398 5.00725 4.70569C4.06392 4.45384 3.1534 4.09152 2.29471 3.62622C0.884865 5.32544 0.0778402 7.44423 0 9.65081Z" fill="white"/>
<path id="Vector_10" d="M9.64252 19.988V15.3799C8.39289 15.3975 7.14832 15.5439 5.92871 15.8171C6.77221 18.1744 8.11312 19.7707 9.64252 19.988Z" fill="white"/>
<path id="Vector_11" d="M9.64252 10.3657H5.00055C5.0187 11.9799 5.25536 13.5844 5.70425 15.1351C6.99682 14.8401 8.31679 14.6827 9.64252 14.6653V10.3657Z" fill="white"/>
<path id="Vector_12" d="M9.64252 0.0280762C8.11312 0.245365 6.77221 1.84161 5.92871 4.19898C7.14832 4.4723 8.39289 4.61873 9.64252 4.63618V0.0280762Z" fill="white"/>
<path id="Vector_13" d="M9.64252 5.35125C8.31696 5.3338 6.99682 5.17637 5.70425 4.88159C5.25536 6.43229 5.0187 8.03657 5.00055 9.65079H9.64252V5.35125Z" fill="white"/>
<path id="Vector_14" d="M7.5113 0.317383C7.48233 0.324888 7.45336 0.330996 7.42438 0.338501C7.34864 0.358746 7.27394 0.381261 7.19854 0.403077C7.10883 0.429256 7.01982 0.45561 6.92977 0.484233C6.85385 0.508842 6.77915 0.535021 6.70445 0.561026C6.61701 0.591918 6.52939 0.622635 6.44283 0.655446C6.36813 0.684069 6.29448 0.713739 6.22048 0.744107C6.13548 0.779886 6.05031 0.815665 5.96636 0.851269C5.89271 0.883557 5.81993 0.917415 5.74698 0.951449C5.66442 0.990369 5.58222 1.02999 5.50072 1.07118C5.42916 1.10765 5.3576 1.145 5.28622 1.18305C5.20611 1.22598 5.1267 1.26996 5.04781 1.31499C4.97625 1.35496 4.90592 1.39598 4.83698 1.43786C4.75931 1.48464 4.68252 1.53298 4.60608 1.5808C4.53731 1.62478 4.46907 1.66911 4.40153 1.71484C4.32613 1.76563 4.25178 1.81851 4.17778 1.87139C4.11128 1.91904 4.04514 1.96651 3.98004 2.01451C3.90691 2.06948 3.8371 2.12673 3.76345 2.1838C3.69992 2.23459 3.63586 2.28503 3.57373 2.33756C3.50217 2.39655 3.43428 2.45764 3.36534 2.51872C3.30426 2.57318 3.24265 2.62606 3.18296 2.68243C3.11507 2.74579 3.04892 2.81158 2.9826 2.87686C2.925 2.93375 2.86636 2.98995 2.80981 3.04842C2.79952 3.05924 2.78957 3.07111 2.77875 3.0821C3.5582 3.48492 4.37954 3.80099 5.22793 4.02474C5.66914 2.61838 6.45382 1.34414 7.5113 0.317383Z" fill="white"/>
<path id="Vector_15" d="M2.98099 17.137C3.04749 17.2024 3.11363 17.2686 3.18187 17.3323C3.24121 17.3873 3.3023 17.4395 3.36321 17.4944C3.4325 17.556 3.50179 17.6178 3.573 17.6772C3.63478 17.729 3.69778 17.7791 3.76096 17.8294C3.83252 17.8873 3.9039 17.9449 3.97965 18.0006C4.04405 18.0489 4.1095 18.0957 4.17495 18.1437C4.24965 18.1973 4.32504 18.2508 4.40114 18.3023C4.46798 18.3474 4.53587 18.3913 4.60377 18.4346C4.68108 18.4842 4.75823 18.5329 4.83694 18.58C4.90588 18.6215 4.97551 18.6622 5.04533 18.702C5.12526 18.7477 5.20537 18.7921 5.28618 18.8352C5.35756 18.8709 5.42912 18.9099 5.50067 18.9456C5.58288 18.9872 5.66578 19.0271 5.75077 19.0666C5.82233 19.1003 5.89494 19.1334 5.96859 19.1659C6.05323 19.2034 6.13858 19.2373 6.2241 19.2731C6.29775 19.3031 6.37105 19.3327 6.4454 19.361C6.53214 19.3944 6.62011 19.4254 6.70807 19.4558C6.78242 19.4818 6.85677 19.508 6.93217 19.5322C7.02152 19.5612 7.11088 19.5877 7.20269 19.6141C7.27704 19.6359 7.35173 19.6581 7.42678 19.6781C7.45575 19.686 7.48507 19.6921 7.51405 19.6996C6.45605 18.6722 5.67101 17.3972 5.22963 15.99C4.38124 16.2139 3.55991 16.53 2.78046 16.933C2.79093 16.9436 2.80088 16.9551 2.81135 16.9661C2.86493 17.0241 2.9227 17.0803 2.98099 17.137Z" fill="white"/>
<path id="Vector_16" d="M2.29471 16.3903C3.1534 15.9252 4.06392 15.5629 5.00725 15.3108C4.54475 13.7025 4.30198 12.0391 4.28575 10.3657H0C0.0780147 12.5723 0.884865 14.6909 2.29471 16.3903Z" fill="white"/>
</g>
<defs>
<clipPath id="clip0_1_875">
<rect width="20" height="20" fill="white"/>
</clipPath>
</defs>
</svg>
