<svg width="48" height="48" viewBox="0 0 48 48" fill="none" xmlns="http://www.w3.org/2000/svg">
<g id="hairdryer 1" clip-path="url(#clip0_8_7774)">
<g id="Group 262">
<g id="Group">
<g id="Group_2">
<path id="Vector" d="M21.9808 8.73821C20.5723 5.75528 17.5317 3.82788 14.2344 3.82788C13.7166 3.82788 13.2969 4.24769 13.2969 4.76538C13.2969 5.28307 13.7167 5.70297 14.2345 5.70297C16.81 5.70297 19.1851 7.20869 20.2855 9.53884C20.4455 9.87774 20.7823 10.0762 21.1338 10.0762C21.2679 10.0762 21.4042 10.0472 21.5335 9.98631C22.0016 9.76524 22.202 9.2064 21.9808 8.73821Z" fill="#063C43"/>
</g>
</g>
<g id="Group_3">
<g id="Group_4">
<path id="Vector_2" d="M22.7968 12.345C22.7931 11.8274 22.3693 11.4079 21.8527 11.4141C21.335 11.4178 20.9182 11.8405 20.9219 12.3583V12.3904C20.9219 12.9081 21.3416 13.3279 21.8594 13.3279C22.3772 13.3279 22.7969 12.9081 22.7969 12.3904L22.7968 12.345Z" fill="#063C43"/>
</g>
</g>
<g id="Group_5">
<g id="Group_6">
<path id="Vector_3" d="M17.0478 10.532C16.5301 10.532 16.1104 10.9518 16.1104 11.4695V15.4933C16.1104 16.011 16.5301 16.4308 17.0478 16.4308C17.5656 16.4308 17.9853 16.011 17.9853 15.4933V11.4695C17.9853 10.9517 17.5656 10.532 17.0478 10.532Z" fill="#063C43"/>
</g>
</g>
<g id="Group_7">
<g id="Group_8">
<path id="Vector_4" d="M13.2978 10.532C12.7801 10.532 12.3604 10.9518 12.3604 11.4695V15.4933C12.3604 16.011 12.7801 16.4308 13.2978 16.4308C13.8156 16.4308 14.2353 16.011 14.2353 15.4933V11.4695C14.2353 10.9518 13.8156 10.532 13.2978 10.532Z" fill="#063C43"/>
</g>
</g>
<g id="Group_9">
<g id="Group_10">
<path id="Vector_5" d="M9.54785 10.532C9.03007 10.532 8.61035 10.9518 8.61035 11.4695V15.4933C8.61035 16.011 9.03007 16.4308 9.54785 16.4308C10.0656 16.4308 10.4853 16.011 10.4853 15.4933V11.4695C10.4853 10.9518 10.0656 10.532 9.54785 10.532Z" fill="#063C43"/>
</g>
</g>
<g id="Group_11">
<g id="Group_12">
<path id="Vector_6" d="M47.4955 16.6256C46.2914 15.9969 44.8526 15.9947 43.6495 16.6185C43.6486 16.619 43.6396 16.6236 43.6386 16.6241C42.9692 16.9713 42.1698 16.9712 41.5002 16.624C41.4965 16.6221 41.4927 16.6201 41.4889 16.6182C40.2813 15.9963 38.8415 15.9982 37.6351 16.6237C37.1754 16.862 36.996 17.4279 37.2343 17.8874C37.4727 18.3472 38.0386 18.5265 38.4981 18.2882C39.1677 17.941 39.967 17.941 40.6365 18.2882C40.6402 18.2902 40.6441 18.292 40.6478 18.294C41.2504 18.6043 41.9106 18.7593 42.5704 18.7593C43.2332 18.7593 43.8958 18.6028 44.4989 18.29C44.4998 18.2895 44.5087 18.2849 44.5098 18.2844C45.173 17.9404 45.9648 17.9415 46.6274 18.2876C47.0864 18.5272 47.6527 18.3496 47.8924 17.8907C48.1322 17.4317 47.9544 16.8654 47.4955 16.6256Z" fill="#063C43"/>
</g>
</g>
<g id="Group_13">
<g id="Group_14">
<path id="Vector_7" d="M47.4954 12.4245C46.2914 11.7957 44.8526 11.7936 43.6386 12.4229C42.9702 12.7696 42.1719 12.77 41.5029 12.4243C41.5018 12.4237 41.5008 12.4232 41.4997 12.4226C40.2899 11.7952 38.8451 11.7951 37.6351 12.4224C37.1754 12.6607 36.996 13.2266 37.2343 13.6862C37.4727 14.1458 38.0386 14.3253 38.4981 14.087C39.1667 13.7404 39.9648 13.7399 40.6335 14.0854C40.6347 14.086 40.6358 14.0867 40.6371 14.0873C41.2411 14.4006 41.9036 14.5574 42.5672 14.5574C43.2329 14.5574 43.8997 14.3994 44.5097 14.0832C45.1732 13.7392 45.965 13.7403 46.6274 14.0864C47.0864 14.3258 47.6527 14.1484 47.8924 13.6895C48.1321 13.2307 47.9543 12.6643 47.4954 12.4245Z" fill="#063C43"/>
</g>
</g>
<g id="Group_15">
<g id="Group_16">
<path id="Vector_8" d="M47.4954 8.30844C46.2916 7.67984 44.8528 7.67759 43.6386 8.30684C42.971 8.65297 42.174 8.654 41.5056 8.30956C41.5036 8.30853 41.5017 8.30759 41.4997 8.30656C40.2899 7.67919 38.8451 7.679 37.6351 8.30637C37.1754 8.54469 36.996 9.11056 37.2343 9.57012C37.4727 10.0299 38.0385 10.2093 38.4981 9.971C39.1658 9.62478 39.9628 9.62393 40.6311 9.96818C40.633 9.96931 40.635 9.97025 40.6371 9.97137C41.2411 10.2846 41.9036 10.4414 42.5672 10.4414C43.2329 10.4414 43.8997 10.2835 44.5097 9.96725C45.1732 9.62309 45.965 9.62431 46.6274 9.97043C47.0864 10.21 47.6527 10.0325 47.8924 9.5735C48.1321 9.1145 47.9543 8.54816 47.4954 8.30844Z" fill="#063C43"/>
</g>
</g>
<g id="Group_17">
<g id="Group_18">
<path id="Vector_9" d="M32.0708 6.00213H24.438C23.2932 4.26373 21.7484 2.80639 19.9434 1.76717C17.921 0.602705 15.6097 -0.0119186 13.2649 0.000175098C6.00271 0.02605 0.0525991 5.95488 0.00131794 13.2166C-0.0239008 16.7914 1.34888 20.1566 3.86681 22.6923C4.63125 23.4622 5.47312 24.1263 6.37452 24.6789V36.6577C6.37452 39.8129 8.71396 42.4311 11.7492 42.8712C12.0536 45.7495 14.4934 47.9998 17.4488 47.9998C20.5975 47.9998 23.1592 45.4264 23.1592 42.2632V33.4686C23.1592 32.3026 23.5764 31.1783 24.3339 30.3026C24.6725 29.9112 24.6297 29.3192 24.2381 28.9805C23.8465 28.6419 23.2545 28.6846 22.9157 29.0762C21.8636 30.2924 21.2841 31.8524 21.2841 33.4688V42.2634C21.2841 44.3928 19.5635 46.125 17.4487 46.125C15.5245 46.125 13.9251 44.7069 13.6378 42.8599C16.6347 42.3863 18.9337 39.7857 18.9337 36.6578V25.3805C19.2838 25.2175 19.6277 25.0403 19.963 24.8465C21.7594 23.8081 23.2973 22.3548 24.4379 20.623H32.0708C33.6771 20.623 34.984 19.3162 34.984 17.7099V8.91522C34.984 7.30891 33.6772 6.00213 32.0708 6.00213ZM17.0589 36.6578C17.0589 39.0865 15.0829 41.0624 12.6543 41.0624C10.2254 41.0625 8.24952 39.0866 8.24952 36.6578V25.6318C9.83445 26.2832 11.5472 26.625 13.3136 26.625C14.5868 26.625 15.8483 26.4412 17.0589 26.0869V36.6578ZM33.109 17.7099C33.109 18.2822 32.6432 18.748 32.0708 18.748H23.9206C23.5919 18.748 23.2871 18.9202 23.1175 19.2019C21.0257 22.676 17.3607 24.75 13.3134 24.75C11.42 24.75 9.59849 24.2931 7.97249 23.4323C7.85343 23.314 7.70249 23.2284 7.53402 23.1873C6.69065 22.6917 5.90521 22.0843 5.19712 21.3712C3.03403 19.1927 1.85466 16.3013 1.87631 13.2298C1.92038 6.9911 7.03237 1.89739 13.2717 1.87517C13.2852 1.87508 13.2986 1.87508 13.312 1.87508C17.3012 1.87508 21.0556 3.99814 23.1177 7.42319C23.2873 7.70491 23.5921 7.87713 23.9208 7.87713H29.545V16.3606C29.545 16.8783 29.9647 17.2981 30.4825 17.2981C31.0003 17.2981 31.42 16.8783 31.42 16.3606V7.87704H32.0708C32.6432 7.87704 33.109 8.34278 33.109 8.91513V17.7099Z" fill="#063C43"/>
</g>
</g>
<g id="Group_19">
<g id="Group_20">
<path id="Vector_10" d="M32.7025 28.7308C31.4279 27.4678 29.7414 26.7724 27.9534 26.7725C27.1476 26.7725 26.3602 26.9148 25.6131 27.1952C25.1284 27.3771 24.883 27.9177 25.0649 28.4024C25.2469 28.8872 25.7874 29.1325 26.2722 28.9506C26.8078 28.7495 27.3734 28.6476 27.9535 28.6476C29.2439 28.6475 30.4617 29.1501 31.3827 30.0627C32.304 30.9756 32.8114 32.1854 32.8114 33.4688V36.408H32.8113C32.8113 36.9257 33.231 37.3455 33.7488 37.3455C34.2666 37.3455 34.6863 36.9257 34.6863 36.408V33.4687C34.6863 31.6812 33.9818 29.9985 32.7025 28.7308Z" fill="#063C43"/>
</g>
</g>
<g id="Group_21">
<g id="Group_22">
<path id="Vector_11" d="M34.4118 38.7301C34.2375 38.5557 33.9955 38.4553 33.749 38.4553C33.5025 38.4553 33.2606 38.5556 33.0862 38.7301C32.9118 38.9054 32.8115 39.1463 32.8115 39.3928C32.8115 39.6404 32.9118 39.8813 33.0862 40.0566C33.2606 40.2309 33.5025 40.3313 33.749 40.3313C33.9956 40.3313 34.2375 40.231 34.4118 40.0566C34.5862 39.8813 34.6865 39.6404 34.6865 39.3928C34.6865 39.1463 34.5862 38.9054 34.4118 38.7301Z" fill="#063C43"/>
</g>
</g>
<g id="Group_23">
<g id="Group_24">
<path id="Vector_12" d="M47.0617 35.0625H46.1266C44.0602 35.0625 42.3791 36.7437 42.3791 38.8101V42.2634C42.3791 44.3928 40.6585 46.125 38.5436 46.125C36.4168 46.125 34.6865 44.3927 34.6865 42.2634C34.6865 41.7457 34.2668 41.3259 33.749 41.3259C33.2312 41.3259 32.8115 41.7457 32.8115 42.2634C32.8115 45.4265 35.3829 48 38.5436 48C41.6924 48 44.2541 45.4265 44.2541 42.2634V38.8101C44.2541 37.7776 45.0941 36.9375 46.1266 36.9375H47.0617C47.5795 36.9375 47.9992 36.5177 47.9992 36C47.9992 35.4823 47.5794 35.0625 47.0617 35.0625Z" fill="#063C43"/>
</g>
</g>
</g>
</g>
<defs>
<clipPath id="clip0_8_7774">
<rect width="48" height="48" fill="white"/>
</clipPath>
</defs>
</svg>
