<svg width="32" height="32" viewBox="0 0 32 32" fill="none" xmlns="http://www.w3.org/2000/svg">
<g id="hand 1" clip-path="url(#clip0_12_8893)">
<path id="Vector" d="M14.7661 21.7041C15.0105 21.4597 15.0105 21.0642 14.7661 20.8198C14.5215 20.5762 14.1252 20.5762 13.8804 20.8198C13.6362 21.0642 13.6362 21.4597 13.8804 21.7041C14.1252 21.9478 14.5215 21.9478 14.7661 21.7041Z" fill="#063C43"/>
<path id="Vector_2" d="M11.8008 6.87305C11.8008 10.6628 14.8901 13.7463 18.6873 13.7463C22.4845 13.7463 25.5738 10.6628 25.5738 6.87305C25.5738 3.08325 22.4845 0 18.6873 0C14.8901 0 11.8008 3.08325 11.8008 6.87305ZM24.3218 6.87305C24.3218 9.97388 21.7942 12.4966 18.6873 12.4966C15.5804 12.4966 13.0527 9.97388 13.0527 6.87305C13.0527 3.77246 15.5804 1.24976 18.6873 1.24976C21.7942 1.24976 24.3218 3.77246 24.3218 6.87305Z" fill="#063C43"/>
<path id="Vector_3" d="M7.24229 31.8151C7.48496 32.0593 7.88001 32.062 8.12586 31.8203L11.1611 28.8359C11.6767 28.3212 11.8335 27.5593 11.6068 26.8969L12.2597 26.2685C12.6112 25.9296 13.074 25.7429 13.5632 25.7429H21.8859C23.3624 25.7429 24.7579 25.1769 25.8159 24.1494C25.8595 24.1071 25.4854 24.5468 31.4938 17.3798C32.3849 16.3276 32.2516 14.7475 31.1963 13.8571C30.1476 12.975 28.5767 13.1017 27.6831 14.1359L23.9889 17.9255C23.5224 17.3525 22.811 16.9953 22.0424 16.9953H15.0613C14.0679 16.5805 13.0138 16.3705 11.9262 16.3705C8.91157 16.3705 6.27923 17.7602 4.86656 20.3657C4.2714 20.2531 3.64371 20.4328 3.19215 20.8835L0.213919 23.8647C-0.0292315 24.1081 -0.0297207 24.5019 0.212941 24.746L7.24229 31.8151ZM11.926 17.6201C12.8849 17.6201 13.812 17.8127 14.6821 18.1926C14.7614 18.2272 14.8467 18.2451 14.9331 18.2451H22.0424C22.7213 18.2451 23.2946 18.7976 23.2946 19.4946C23.2946 20.1838 22.733 20.7443 22.0424 20.7443H16.9346C16.5889 20.7443 16.3086 21.0241 16.3086 21.3691C16.3086 21.7143 16.5889 21.9938 16.9346 21.9938H22.0424C23.4233 21.9938 24.5466 20.8727 24.5466 19.4946C24.5466 19.3847 24.5388 19.2758 24.5246 19.1679C28.0982 15.5017 28.6021 14.9865 28.6237 14.9609C29.0698 14.4352 29.8619 14.3686 30.3888 14.812C30.9162 15.257 30.983 16.0471 30.5356 16.5756L24.9204 23.2753C24.1004 24.061 23.0238 24.4934 21.8859 24.4934H13.5632C12.7477 24.4934 11.9757 24.8046 11.39 25.3693L10.858 25.8818L5.9534 20.987C7.09968 18.8408 9.25061 17.6201 11.926 17.6201ZM4.07816 21.7665C4.28461 21.5605 4.60164 21.5234 4.85335 21.6787C4.96172 21.7446 4.65056 21.4619 10.2758 27.0683C10.5261 27.3181 10.5126 27.716 10.2792 27.9489L7.69166 30.4931L1.54024 24.3068L4.07816 21.7665Z" fill="#063C43"/>
<path id="Vector_4" d="M17.9358 3.12427V3.85645C17.2071 4.11426 16.6836 4.80884 16.6836 5.62354C16.6836 6.65698 17.526 7.49805 18.5618 7.49805C18.9069 7.49805 19.1877 7.77832 19.1877 8.1228C19.1877 8.46729 18.9069 8.74756 18.5618 8.74756C18.2944 8.74756 18.0055 8.57984 17.7489 8.2749C17.5263 8.01074 17.1315 7.97681 16.8668 8.19873C16.6021 8.4209 16.5679 8.81494 16.7905 9.0791C17.1251 9.47632 17.5187 9.75318 17.9358 9.89283V10.6221C17.9358 10.9673 18.2161 11.2468 18.5618 11.2468C18.9074 11.2468 19.1877 10.9673 19.1877 10.6221V9.8899C19.9165 9.63184 20.4399 8.93726 20.4399 8.1228C20.4399 7.08911 19.5975 6.24829 18.5618 6.24829C18.2166 6.24829 17.9358 5.96802 17.9358 5.62354C17.9358 5.27905 18.2166 4.99854 18.5618 4.99854C18.7836 4.99854 19.0177 5.11157 19.2389 5.3252C19.4874 5.56519 19.8837 5.55859 20.1241 5.31079C20.3646 5.06275 20.358 4.66724 20.1097 4.42725C19.7919 4.12036 19.4739 3.94678 19.1877 3.85205V3.12427C19.1877 2.77905 18.9074 2.49927 18.5618 2.49927C18.2161 2.49927 17.9358 2.77905 17.9358 3.12427Z" fill="#063C43"/>
</g>
<defs>
<clipPath id="clip0_12_8893">
<rect width="32" height="32" fill="white"/>
</clipPath>
</defs>
</svg>
