<svg width="24" height="24" viewBox="0 0 24 24" fill="none" xmlns="http://www.w3.org/2000/svg">
<g id="Home">
<path id="Home_2" d="M8.65708 22.2355V18.6681C8.65708 17.7575 9.4007 17.0193 10.318 17.0193H13.6712C14.1117 17.0193 14.5342 17.193 14.8457 17.5022C15.1572 17.8114 15.3321 18.2308 15.3321 18.6681V22.2355C15.3294 22.6141 15.4789 22.9781 15.7476 23.2468C16.0163 23.5155 16.3819 23.6666 16.7633 23.6666H19.051C20.1194 23.6693 21.145 23.2499 21.9015 22.5009C22.658 21.7518 23.0832 20.7347 23.0832 19.674V9.51125C23.0831 8.65446 22.7006 7.84173 22.0386 7.29203L14.2562 1.12177C12.9024 0.0399072 10.9628 0.0748377 9.64946 1.20473L2.04468 7.29203C1.35137 7.82553 0.936982 8.64066 0.916504 9.51125V19.6637C0.916504 21.8744 2.72178 23.6666 4.94871 23.6666H7.18418C7.97627 23.6666 8.62 23.0322 8.62574 22.2459L8.65708 22.2355Z" fill="#01654C"/>
</g>
</svg>
