<svg width="40" height="40" viewBox="0 0 40 40" fill="none" xmlns="http://www.w3.org/2000/svg">
<g id="housekeeper 1" clip-path="url(#clip0_5_2489)">
<g id="Group">
<path id="Vector" d="M23.0072 29.7875L19.4933 28.5761C18.7016 28.3029 18.0396 27.7893 17.5789 27.0904C17.3443 26.7344 16.8365 26.6965 16.5511 27.0114L14.2613 29.5385H12.1559L10.1949 27.3469C10.4255 26.9016 10.5911 26.4202 10.6816 25.9166C16.2386 27.6001 21.9307 23.4378 21.9307 17.5643V12.9887C21.9307 12.6971 21.7371 12.4409 21.4567 12.3613C20.0034 11.9485 18.8533 10.8748 18.3014 9.41534C18.1469 9.00689 17.6412 8.86243 17.2946 9.12837C13.8409 11.7754 9.5537 12.9168 5.22195 12.3421C4.83257 12.2904 4.48397 12.5933 4.48397 12.9887V17.5643C4.48397 19.9111 5.40261 22.1129 7.07056 23.764C7.32656 24.0174 7.73949 24.0154 7.99287 23.7593C8.24626 23.5033 8.24422 23.0904 7.98815 22.837C6.56966 21.4327 5.78839 19.5601 5.78839 17.5643V13.7177C9.93166 14.096 14.0155 13.0237 17.4301 10.6448C18.1316 11.9539 19.2541 12.9454 20.6262 13.4602V17.5643C20.6262 22.9705 15.1238 26.3992 10.3598 24.4173C9.93101 24.2388 9.45709 24.5545 9.45709 25.0195C9.45709 26.6239 8.43809 28.0532 6.92129 28.5761L3.40781 29.7875C1.36932 30.4939 0 32.4168 0 34.5747V38.9141C0 39.2743 0.292029 39.5663 0.652213 39.5663C1.0124 39.5663 1.30443 39.2743 1.30443 38.9141V34.5747C1.30443 32.9704 2.32343 31.5409 3.84015 31.018C3.84015 31.018 7.5254 29.744 7.61296 29.7082L8.4941 33.7074C8.61125 34.2391 9.29396 34.4023 9.63792 33.9774L10.6162 32.7689C10.8429 32.4889 10.7997 32.0783 10.5196 31.8516C10.2397 31.6249 9.82894 31.6683 9.60237 31.9483L9.47641 32.1038L8.79787 29.0241C9.02443 28.8484 9.23485 28.6547 9.42709 28.4451L11.3781 30.6256C11.5019 30.7639 11.6786 30.843 11.8642 30.843H14.2393L16.7767 33.9774C17.1188 34.4 17.8029 34.2415 17.9205 33.7074L18.3606 31.7101C18.4382 31.3584 18.2158 31.0104 17.864 30.9328C17.5124 30.8555 17.1643 31.0776 17.0868 31.4294L16.9381 32.1037L15.4089 30.2147L17.0002 28.4584C17.5654 29.0682 18.2786 29.5369 19.0679 29.8091L21.1154 30.5151V38.9141C21.1154 39.2743 21.4074 39.5663 21.7676 39.5663C22.1278 39.5663 22.4198 39.2743 22.4198 38.9141V30.9649C22.4198 30.9649 22.5716 31.0171 22.5745 31.0182C24.0897 31.5455 25.1102 32.9704 25.1102 34.5747V38.9141C25.1102 39.2743 25.4022 39.5663 25.7624 39.5663C26.1226 39.5663 26.4146 39.2743 26.4146 38.9141V34.5747C26.4146 32.4167 25.0456 30.494 23.0072 29.7875Z" fill="#01654C"/>
<path id="Vector_2" d="M4.5861 24.2975C4.94197 24.3497 5.2737 24.103 5.32588 23.7465C5.37805 23.3902 5.13135 23.0589 4.77492 23.0068C4.14431 22.9145 3.66868 22.3602 3.66868 21.7174V9.1982C3.66868 5.08469 7.01511 1.73802 11.1285 1.73802H15.2863C19.3997 1.73802 22.7461 5.08469 22.7461 9.1982V21.7174C22.7461 22.3603 22.2705 22.9146 21.6399 23.0068C21.2834 23.059 21.0368 23.3902 21.0889 23.7465C21.1407 24.1005 21.469 24.3494 21.8287 24.2975C23.0953 24.1121 24.0505 23.0029 24.0505 21.7174V9.1982C24.0505 4.36538 20.1189 0.433594 15.2863 0.433594H11.1285C6.29588 0.433594 2.36426 4.36538 2.36426 9.1982V21.7174C2.36426 23.0029 3.31942 24.112 4.5861 24.2975Z" fill="#01654C"/>
<path id="Vector_3" d="M18.6907 35.164H5.2993V33.5671C5.2993 33.2069 5.00727 32.9149 4.64709 32.9149C4.2869 32.9149 3.99487 33.2069 3.99487 33.5671V38.9142C3.99487 39.2744 4.2869 39.5664 4.64709 39.5664C5.00727 39.5664 5.2993 39.2744 5.2993 38.9142V36.4684H18.6907C19.0509 36.4684 19.3429 36.1764 19.3429 35.8162C19.3429 35.456 19.0509 35.164 18.6907 35.164Z" fill="#01654C"/>
<path id="Vector_4" d="M39.5748 18.3261C38.9067 17.4909 37.6906 17.3626 36.8602 18.0313C36.5661 18.268 36.2875 18.5181 36.024 18.7803C36.0667 18.584 36.1129 18.3887 36.1647 18.1949C36.5654 16.6971 35.2898 15.2884 33.765 15.5032C33.1891 15.5849 32.6795 15.8867 32.3301 16.3529C32.0438 16.7351 31.7775 17.1365 31.5386 17.5457C31.3569 17.8567 31.462 18.2562 31.7731 18.4378C32.0843 18.6195 32.4836 18.5143 32.6651 18.2033C32.879 17.8369 33.1175 17.4775 33.3741 17.135C33.514 16.9483 33.7178 16.8275 33.948 16.7948C34.5546 16.7082 35.061 17.2729 34.9044 17.8578C34.6479 18.8169 34.4945 19.806 34.4453 20.8007C34.3482 20.9636 34.2551 21.1291 34.1668 21.2977C33.9998 21.6168 34.1231 22.0109 34.4422 22.1781C34.7614 22.3452 35.1554 22.2218 35.3226 21.9027C35.8984 20.8027 36.6908 19.8421 37.6781 19.0474C37.809 18.9419 37.9738 18.8942 38.1395 18.9121C38.5797 18.9603 38.8298 19.4453 38.6181 19.8224C37.9184 21.0691 37.4531 22.4212 37.2287 23.851C37.0178 23.8233 37.3416 23.8317 32.2214 23.8317C31.7175 21.5582 30.4482 19.5146 28.6058 18.0314C27.7743 17.362 26.5586 17.4917 25.8912 18.3261C25.3988 18.9415 25.3277 19.7794 25.7102 20.4609C25.9662 20.9172 26.1903 21.3965 26.3761 21.8855C26.504 22.2222 26.8808 22.3916 27.2173 22.2637C27.554 22.1358 27.7234 21.7591 27.5955 21.4224C27.3868 20.8731 27.1352 20.3348 26.8476 19.8226C26.7266 19.607 26.7509 19.3395 26.9097 19.1411C27.1232 18.8743 27.5155 18.8284 27.7878 19.0476C29.3218 20.2826 30.4012 21.9605 30.8806 23.8319H28.5232C27.3156 23.8319 26.333 24.8145 26.333 26.0221C26.333 28.8955 27.8647 31.1367 30.4094 32.0502V38.9143C30.4094 39.2745 30.7014 39.5666 31.0616 39.5666C31.4218 39.5666 31.7138 39.2745 31.7138 38.9143V32.376C32.3622 32.4715 33.005 32.4772 33.6704 32.3883V38.9143C33.6704 39.2745 33.9625 39.5666 34.3226 39.5666C34.6828 39.5666 34.9749 39.2745 34.9749 38.9143C34.9749 31.1031 34.9769 31.5796 34.9693 31.519C34.9216 31.1362 34.5525 30.8766 34.1739 30.9652C32.3344 31.3959 30.6368 30.9806 29.4566 30.0632C28.2667 29.1377 27.6376 27.7404 27.6376 26.0219C27.6376 25.5335 28.035 25.1361 28.5234 25.1361H36.9427C37.4311 25.1361 37.8285 25.5335 37.8285 26.0219C37.8285 27.1255 37.6129 28.007 37.1502 28.796C36.968 29.1067 37.0721 29.5062 37.3829 29.6885C37.6937 29.8708 38.0932 29.7666 38.2754 29.4558C38.8524 28.4721 39.1329 27.3487 39.1329 26.0219C39.1329 25.404 38.8753 24.8455 38.4623 24.4469C38.6348 23.0243 39.0688 21.6847 39.7558 20.4608C40.1382 19.7794 40.0671 18.9414 39.5748 18.3261Z" fill="#01654C"/>
<path id="Vector_5" d="M11.1691 14.8638C10.8089 14.8638 10.5168 15.1558 10.5168 15.516V16.6574C10.5168 17.0175 10.8089 17.3096 11.1691 17.3096C11.5292 17.3096 11.8213 17.0175 11.8213 16.6574V15.516C11.8213 15.1558 11.5292 14.8638 11.1691 14.8638Z" fill="#01654C"/>
<path id="Vector_6" d="M15.2455 17.3096C15.6057 17.3096 15.8977 17.0175 15.8977 16.6574V15.516C15.8977 15.1558 15.6057 14.8638 15.2455 14.8638C14.8853 14.8638 14.5933 15.1558 14.5933 15.516V16.6574C14.5933 17.0175 14.8853 17.3096 15.2455 17.3096Z" fill="#01654C"/>
<path id="Vector_7" d="M12.1119 20.443C11.8572 20.1884 11.4443 20.1884 11.1896 20.443C10.9349 20.6978 10.9349 21.1107 11.1896 21.3654C12.302 22.4779 14.1124 22.478 15.225 21.3654C15.4796 21.1107 15.4796 20.6978 15.225 20.443C14.9702 20.1884 14.5573 20.1884 14.3026 20.443C13.6985 21.047 12.716 21.047 12.1119 20.443Z" fill="#01654C"/>
</g>
</g>
<defs>
<clipPath id="clip0_5_2489">
<rect width="40" height="40" fill="white"/>
</clipPath>
</defs>
</svg>
