<svg width="49" height="48" viewBox="0 0 49 48" fill="none" xmlns="http://www.w3.org/2000/svg">
<g id="key (2)" clip-path="url(#clip0_8_7856)">
<g id="Group">
<g id="Group_2">
<g id="Group_3">
<path id="Vector" d="M19.7794 16.7938C19.7298 17.5386 19.7002 18.3354 19.7002 19.2001C19.7002 23.2072 20.8961 25.6 22.9001 25.6C25.4257 25.6 26.1 22.5825 26.1 20.8001C26.1 20.3577 25.7424 20.0002 25.3 20.0002C24.8585 20.0002 24.5001 20.3577 24.5001 20.8001C24.5001 20.8321 24.4313 24 22.9001 24C21.9729 24 21.3001 21.9809 21.3001 19.2001C21.3001 9.87315 24.5736 8.81079 24.676 8.78033C25.0985 8.68517 25.3696 8.26996 25.284 7.84275C25.1976 7.40992 24.7784 7.12839 24.3424 7.21558C24.1824 7.24755 23.6032 7.40036 22.9056 7.99716C22.9064 7.86038 22.9176 7.72275 22.9545 7.58598C23.0649 7.1732 23.3296 6.8284 23.7 6.614C24.0704 6.40119 24.5008 6.34363 24.9136 6.45481C25.3264 6.56525 25.672 6.82999 25.8847 7.20039C26.3263 7.96359 26.0631 8.94438 25.2992 9.38594C24.9168 9.60671 24.7864 10.0964 25.0072 10.4788C25.1552 10.7355 25.424 10.8788 25.7007 10.8788C25.8367 10.8788 25.9743 10.8444 26.0999 10.7716C27.627 9.88843 28.1518 7.92769 27.2711 6.40053C26.8431 5.65974 26.1535 5.131 25.328 4.90938C24.5 4.68776 23.6392 4.80222 22.9 5.22859C22.1592 5.65655 21.6296 6.34616 21.4088 7.17255C21.2016 7.94531 21.2992 8.74695 21.676 9.47809C20.9896 10.5949 20.3481 12.258 19.9913 14.7308C18.7929 13.2964 18.1001 11.47 18.1001 9.60053C18.1001 5.1894 21.6889 1.60073 26.0999 1.60073C30.5102 1.60073 34.0997 5.1895 34.0997 9.60053C34.0997 14.0116 30.5102 17.6003 26.0999 17.6003C25.2303 17.6003 24.3767 17.462 23.5607 17.1899C23.1423 17.0507 22.6895 17.2755 22.5487 17.6947C22.4087 18.1139 22.6351 18.5667 23.0543 18.7067C24.0335 19.0339 25.0583 19.2003 26.0998 19.2003C31.3933 19.2003 35.6996 14.8933 35.6996 9.60053C35.6996 4.30705 31.3933 0.000732422 26.0998 0.000732422C20.8063 0.000732422 16.5 4.30705 16.5 9.60053C16.5003 12.3283 17.725 14.9787 19.7794 16.7938Z" fill="#063C43"/>
<path id="Vector_2" d="M10.8996 30.3998H17.2995C18.2323 30.3998 19.8194 31.5902 21.2193 32.6397C22.9745 33.9565 24.6321 35.1997 26.0992 35.1997H30.8991C32.1135 35.1997 32.7174 35.7508 32.7335 35.7653C32.8895 35.9213 33.0943 35.9996 33.2991 35.9996C33.5039 35.9996 33.7079 35.9213 33.8646 35.7653C34.1766 35.4524 34.1766 34.9461 33.8646 34.6341C33.7591 34.5277 32.7759 33.5997 30.8991 33.5997H26.0992C25.1657 33.5997 23.5793 32.4093 22.1793 31.3598C20.4242 30.043 18.7658 28.7998 17.2995 28.7998H10.8996C10.458 28.7998 10.0996 29.1574 10.0996 29.5998C10.0996 30.0414 10.458 30.3998 10.8996 30.3998Z" fill="#063C43"/>
<path id="Vector_3" d="M35.6253 16.2572L43.6996 24.3315V27.2002H40.8308L40.4996 26.869V24.8003C40.4996 24.3579 40.142 24.0003 39.6996 24.0003H38.8997V23.2004C38.8997 22.758 38.5421 22.4004 38.0997 22.4004H36.0317L35.6998 22.0685V20.0005C35.6998 19.5581 35.3422 19.2005 34.8998 19.2005H32.8311L32.7535 19.1229C32.4415 18.8101 31.935 18.8101 31.6223 19.1229C31.3095 19.4358 31.3095 19.9413 31.6223 20.2541L31.9343 20.5661C32.0839 20.7157 32.2871 20.8004 32.4999 20.8004H34.0998V22.3988C34.0998 22.6108 34.1838 22.8141 34.3334 22.9644L35.1333 23.7652C35.283 23.9156 35.487 24.0004 35.6998 24.0004H37.2998V24.8004C37.2998 25.2419 37.6573 25.6003 38.0997 25.6003H38.8997V27.2003C38.8997 27.4123 38.9837 27.6155 39.134 27.7659L39.934 28.5659C40.0836 28.7155 40.2868 28.8002 40.4996 28.8002H44.4995C44.9419 28.8002 45.2995 28.4418 45.2995 28.0003V24.0003C45.2995 23.7884 45.2146 23.5844 45.0651 23.4348L36.7565 15.1262C36.4437 14.8134 35.9381 14.8134 35.6253 15.1262C35.3126 15.4388 35.3126 15.9444 35.6253 16.2572Z" fill="#063C43"/>
<path id="Vector_4" d="M4.49956 42.7996C4.49956 42.138 3.96116 41.5996 3.29958 41.5996C2.638 41.5996 2.09961 42.138 2.09961 42.7996C2.09961 43.4612 2.638 43.9996 3.29958 43.9996C3.96116 43.9996 4.49956 43.4612 4.49956 42.7996Z" fill="#063C43"/>
<path id="Vector_5" d="M6.09985 25.6001H1.29995C0.858399 25.6001 0.5 25.9577 0.5 26.4001C0.5 26.8416 0.858399 27.2 1.29995 27.2H6.09985C6.54065 27.2 6.8998 27.5584 6.8998 28V45.5995C6.8998 46.0404 6.54065 46.3995 6.09985 46.3995H1.29995C0.858399 46.3995 0.5 46.7571 0.5 47.1995C0.5 47.641 0.858399 47.9994 1.29995 47.9994H6.09985C7.42301 47.9994 8.4998 46.9226 8.4998 45.5995V28C8.4998 26.6761 7.42301 25.6001 6.09985 25.6001Z" fill="#063C43"/>
<path id="Vector_6" d="M48.07 33.6C47.1876 32.0713 45.2236 31.548 43.7485 32.4025L34.5415 36.884C33.1095 37.5999 31.6656 37.5999 28.4992 37.5999C25.4042 37.5999 20.6779 36.8184 20.6306 36.8104C20.1914 36.7376 19.7827 37.0328 19.7098 37.4679C19.6378 37.904 19.9322 38.3159 20.3674 38.3887C20.5666 38.4223 25.2705 39.1999 28.4992 39.1999C31.8206 39.1999 33.4879 39.1999 35.2486 38.3192L44.4988 33.8145C44.8684 33.6009 45.2996 33.5441 45.7124 33.6545C46.1252 33.7648 46.4708 34.0296 46.6835 34.4C46.8979 34.7704 46.9548 35.2016 46.8436 35.6145C46.734 36.0265 46.4691 36.372 46.0756 36.5993L35.2598 43.3311C35.2374 43.3456 32.9294 44.7999 27.6992 44.7999C23.1641 44.7999 16.1579 40.9392 16.057 40.8839C15.985 40.8479 14.2498 40 10.8996 40C10.458 40 10.0996 40.3575 10.0996 40.7999C10.0996 41.2415 10.458 41.5999 10.8996 41.5999C13.8091 41.5999 15.3082 42.2991 15.3107 42.2991C15.6131 42.4671 22.7489 46.3998 27.6992 46.3998C33.4743 46.3998 36.0366 44.7359 36.1214 44.679L46.8988 37.9712C47.6387 37.544 48.1683 36.8536 48.3892 36.0281C48.6108 35.2023 48.4972 34.34 48.07 33.6Z" fill="#063C43"/>
</g>
</g>
</g>
</g>
<defs>
<clipPath id="clip0_8_7856">
<rect width="48" height="48" fill="white" transform="translate(0.5)"/>
</clipPath>
</defs>
</svg>
