<svg width="22" height="22" viewBox="0 0 22 22" fill="none" xmlns="http://www.w3.org/2000/svg">
<g id="manager 1" clip-path="url(#clip0_8_5927)">
<g id="Group">
<g id="Group_2">
<path id="Vector" d="M10.3651 16.28C10.1996 16.1586 9.9668 16.194 9.8452 16.3596L9.79926 16.4221C9.67779 16.5875 9.71315 16.82 9.87841 16.9418C9.9448 16.9907 10.0221 17.0144 10.0988 17.0144C10.2128 17.0144 10.3253 16.9621 10.3982 16.8634L10.4448 16.8C10.5663 16.6344 10.5307 16.4016 10.3651 16.28Z" fill="#01654C"/>
</g>
</g>
<g id="Group_3">
<g id="Group_4">
<path id="Vector_2" d="M10.4618 19.8187L9.50521 18.0792L10.3984 16.8628C10.52 16.6972 10.4843 16.4644 10.3187 16.3428C10.1531 16.2212 9.92033 16.2569 9.79877 16.4225L8.76502 17.8304C8.6793 17.9471 8.66916 18.1029 8.7389 18.2298L9.81003 20.1772V20.1772C9.87779 20.3003 10.005 20.3699 10.1363 20.3699C10.1969 20.3699 10.2584 20.355 10.3152 20.3238C10.4952 20.2248 10.5608 19.9987 10.4618 19.8187Z" fill="#01654C"/>
</g>
</g>
<g id="Group_5">
<g id="Group_6">
<path id="Vector_3" d="M13.2341 17.8303L12.2045 16.4282C12.1191 16.3119 11.9745 16.2554 11.8329 16.2834C11.6914 16.3112 11.5788 16.4184 11.5438 16.5583C11.517 16.6657 11.5394 16.7794 11.6049 16.8686L12.4937 18.0792L11.5436 19.8068C11.5134 19.8617 11.4976 19.9236 11.4976 19.9863C11.4976 20.156 11.6125 20.3043 11.777 20.3465C11.8078 20.3545 11.8389 20.3583 11.8695 20.3583C12.0027 20.3583 12.1289 20.2864 12.1955 20.1656L13.2601 18.2298C13.33 18.1028 13.3197 17.947 13.2341 17.8303Z" fill="#01654C"/>
</g>
</g>
<g id="Group_7">
<g id="Group_8">
<path id="Vector_4" d="M13.8233 11.9851C13.701 11.9208 13.5531 11.9296 13.4393 12.0081C13.218 12.1605 13.0127 12.3219 12.8291 12.4879C11.8281 13.3929 10.877 13.2704 10.8398 13.2651C10.8174 13.2615 10.7945 13.2599 10.772 13.2606C10.3764 13.2708 9.66309 12.9093 8.90851 12.3167C8.7931 12.226 8.67476 12.1397 8.5566 12.0599C8.44264 11.9829 8.29539 11.9751 8.17396 12.0397C8.05249 12.1043 7.97656 12.2306 7.97656 12.3682V13.6442C7.97656 13.757 8.02791 13.8637 8.11591 13.9343C8.12631 13.9427 8.13714 13.9504 8.14831 13.9576L10.7858 15.72C10.7862 15.7202 10.7866 15.7206 10.787 15.7209L10.794 15.7255C10.8561 15.7666 10.9276 15.7873 10.9994 15.7873C11.0598 15.7873 11.1202 15.7727 11.1755 15.7432C11.1871 15.7369 11.1983 15.7301 11.209 15.7228C11.2103 15.722 11.2115 15.7212 11.2128 15.7203C11.2143 15.7194 11.2157 15.7184 11.2172 15.7174L13.8484 13.9591C13.859 13.9524 13.8693 13.9452 13.8792 13.9375C13.9695 13.867 14.0223 13.7589 14.0223 13.6443V12.3144C14.0223 12.1761 13.9457 12.0494 13.8233 11.9851ZM13.2783 13.4452L10.9994 14.9681L8.72048 13.4452V13.1069C9.27538 13.5102 10.0917 14.0048 10.757 14.0047C10.7584 14.0047 10.76 14.0047 10.7614 14.0047C10.9848 14.0294 12.124 14.0966 13.2784 13.0839V13.4452H13.2783Z" fill="#01654C"/>
</g>
</g>
<g id="Group_9">
<g id="Group_10">
<path id="Vector_5" d="M11.3663 15.3545C11.3418 15.207 11.2312 15.0885 11.0857 15.0538C10.9401 15.0193 10.7881 15.0749 10.6996 15.1955L9.84464 16.36C9.72304 16.5256 9.7587 16.7584 9.92435 16.88C9.99065 16.9287 10.0677 16.9522 10.1442 16.9522C10.2586 16.9522 10.3714 16.8995 10.4444 16.8002L11.2948 15.6419C11.3432 15.5786 11.3714 15.4999 11.3714 15.4158C11.3714 15.3953 11.3697 15.3747 11.3663 15.3545Z" fill="#01654C"/>
</g>
</g>
<g id="Group_11">
<g id="Group_12">
<path id="Vector_6" d="M16.6667 3.363C16.6593 3.30474 16.4851 2.04721 15.3014 1.55114C15.3357 1.33028 15.3321 1.04642 15.1919 0.770263C15.0035 0.399098 14.6316 0.157227 14.0865 0.0512656C14.0631 0.0467109 14.0394 0.0444336 14.0156 0.0444336H9.02314C6.99595 0.0444336 5.34668 1.69366 5.34668 3.72093V5.67993C5.34668 6.19031 5.52066 6.68802 5.83648 7.08127C5.99306 7.27626 6.1859 7.61679 6.21499 8.13164C6.22634 8.33265 6.3946 8.48798 6.59686 8.4824C6.79812 8.47672 6.95831 8.3119 6.95831 8.11059V5.55652C7.21088 4.51199 8.07288 4.3087 8.22108 4.28125H9.83593C10.0259 4.28125 10.2127 4.25224 10.3912 4.19501C10.6983 4.09652 11.1854 3.91528 11.5401 3.78057C11.7774 3.69038 12.0401 3.68707 12.2797 3.77129L14.0085 4.37818C14.8728 4.69701 15.027 5.45576 15.0462 5.57495V8.64022C15.0462 8.83491 15.1963 8.99643 15.3904 9.01091C15.3998 9.0116 15.4091 9.01199 15.4184 9.01199C15.6008 9.01194 15.7584 8.87827 15.786 8.69509C15.7875 8.68551 15.936 7.72614 16.4149 6.95803C16.5815 6.69064 16.6697 6.38577 16.6697 6.0764V3.40997C16.6697 3.39428 16.6687 3.3786 16.6667 3.363ZM15.9257 6.07623C15.9257 6.24239 15.8788 6.40722 15.79 6.55378V5.54952C15.79 5.53607 15.7893 5.5227 15.7878 5.50934C15.782 5.45533 15.6283 4.18061 14.2625 3.67891C14.2609 3.67831 14.2592 3.67771 14.2575 3.6771L12.5261 3.06927C12.3309 3.00073 12.1266 2.96653 11.9225 2.96653C11.7031 2.96653 11.4837 3.0061 11.2759 3.08517C10.7793 3.2738 10.3948 3.41263 10.164 3.48662C10.059 3.52027 9.94864 3.53737 9.83589 3.53737H8.191C8.17506 3.53737 8.15908 3.5384 8.14322 3.54042C8.08027 3.54859 6.59669 3.75956 6.22333 5.43298C6.2174 5.45958 6.21439 5.48674 6.21439 5.51398V6.27951C6.1334 6.09234 6.09051 5.88789 6.09051 5.67997V3.72102C6.09051 2.10402 7.40609 0.788439 9.02305 0.788439H13.978C14.1831 0.832138 14.4324 0.921814 14.527 1.10426C14.6428 1.32757 14.5109 1.63505 14.5108 1.63531C14.4632 1.7365 14.4638 1.85368 14.5121 1.95444C14.5605 2.0552 14.6517 2.12885 14.7604 2.15502C15.7073 2.38297 15.9005 3.2912 15.9256 3.43811V6.07623H15.9257Z" fill="#01654C"/>
</g>
</g>
<g id="Group_13">
<g id="Group_14">
<path id="Vector_7" d="M15.7879 5.50909C15.782 5.45508 15.6283 4.18037 14.2626 3.67866C14.2609 3.67806 14.2592 3.67746 14.2575 3.67686L12.5261 3.06902C12.1209 2.9268 11.6769 2.93247 11.2758 3.08483C10.7793 3.27347 10.3948 3.4123 10.164 3.48634C10.059 3.51998 9.94861 3.53704 9.83586 3.53704H8.19097C8.17502 3.53704 8.15904 3.53807 8.14318 3.54009C8.08023 3.54825 6.59665 3.75923 6.22329 5.43265C6.21736 5.45925 6.21436 5.48641 6.21436 5.51365V8.71122C6.21436 8.71397 6.2144 8.71672 6.21444 8.71947C6.21689 8.83054 6.29548 11.4537 8.10791 12.6533L8.11727 12.6599C8.12505 12.6654 8.13283 12.6709 8.14095 12.6764C8.24429 12.7462 8.34806 12.8219 8.44955 12.9016C8.97755 13.3162 9.97258 14.0046 10.7575 14.0046C10.759 14.0046 10.7604 14.0046 10.7619 14.0046C10.8045 14.0093 10.8806 14.0155 10.9838 14.0155C11.4287 14.0155 12.3778 13.899 13.3284 13.0396C13.488 12.8954 13.6673 12.7544 13.8618 12.6204L13.8896 12.601C13.8987 12.5946 13.9078 12.5881 13.9171 12.5819C14.5217 12.1758 15.5688 11.128 15.7886 8.67306C15.7896 8.66206 15.7901 8.65093 15.7901 8.63985V5.54927C15.7901 5.53586 15.7893 5.5225 15.7879 5.50909ZM15.0461 8.62304C14.8434 10.8386 13.8994 11.6975 13.5023 11.9642C13.4882 11.9737 13.4743 11.9835 13.4604 11.9933L13.4397 12.0078C13.2185 12.1602 13.0132 12.3217 12.8295 12.4877C11.8323 13.3893 10.8843 13.271 10.8378 13.2645C10.8162 13.2613 10.7943 13.2599 10.7724 13.2605C10.3768 13.2706 9.66355 12.9091 8.90898 12.3165C8.79356 12.2259 8.67522 12.1395 8.55723 12.0599L8.54808 12.0534C8.53914 12.0471 8.53025 12.0407 8.51976 12.0338C7.05719 11.0657 6.9615 8.80038 6.95827 8.70585V5.55623C7.21175 4.50788 8.07907 4.30691 8.22044 4.28096H9.8359C10.0259 4.28096 10.2127 4.25195 10.3912 4.19472C10.6982 4.09624 11.1854 3.91499 11.54 3.78029C11.7773 3.69009 12.04 3.68679 12.2797 3.771L14.0085 4.3779C14.8728 4.69672 15.027 5.45547 15.0461 5.57466V8.62304H15.0461Z" fill="#01654C"/>
</g>
</g>
<g id="Group_15">
<g id="Group_16">
<path id="Vector_8" d="M11.3325 15.2493C11.2746 15.1334 11.1604 15.056 11.0313 15.045C10.9024 15.0343 10.7767 15.091 10.7 15.1955L9.80897 16.409C9.6875 16.5745 9.72299 16.8072 9.88838 16.9288C9.95472 16.9776 10.0319 17.0012 10.1085 17.0012C10.2226 17.0012 10.3353 16.9488 10.4082 16.8499L11.2992 15.6408C11.3464 15.5769 11.3718 15.4952 11.3718 15.4158C11.3718 15.358 11.3583 15.301 11.3325 15.2493Z" fill="#01654C"/>
</g>
</g>
<g id="Group_17">
<g id="Group_18">
<path id="Vector_9" d="M11.3557 21.2382C11.2159 21.0921 10.9851 21.0843 10.8359 21.2208L10.7508 21.2986C10.6235 21.415 10.593 21.6037 10.6771 21.7543L10.6797 21.759C10.7365 21.8608 10.8378 21.9301 10.9533 21.9461C10.9704 21.9485 10.9875 21.9496 11.0045 21.9496C11.1024 21.9496 11.1973 21.9109 11.2675 21.8407L11.3499 21.7582C11.4929 21.6152 11.4954 21.3842 11.3557 21.2382Z" fill="#01654C"/>
</g>
</g>
<g id="Group_19">
<g id="Group_20">
<path id="Vector_10" d="M11.2486 21.2985L11.1635 21.2208C11.0143 21.0843 10.7834 21.0921 10.6437 21.2382C10.5039 21.3843 10.5065 21.6154 10.6495 21.7583L10.732 21.8408C10.8022 21.911 10.897 21.9497 10.995 21.9497C11.0125 21.9497 11.03 21.9485 11.0476 21.9459C11.1634 21.9294 11.2648 21.8592 11.3211 21.7566L11.3237 21.7519C11.4061 21.6015 11.3751 21.4142 11.2486 21.2985Z" fill="#01654C"/>
</g>
</g>
<g id="Group_21">
<g id="Group_22">
<path id="Vector_11" d="M11.2545 21.3042L11.254 21.3038C11.1966 21.2501 11.1223 21.2147 11.0404 21.2057C10.9308 21.1938 10.824 21.2309 10.7464 21.3032L10.7453 21.3042C10.6701 21.3728 10.6263 21.4693 10.6241 21.571C10.6219 21.6729 10.6615 21.771 10.7337 21.8428L10.7376 21.8467C10.8102 21.9188 10.905 21.9549 10.9999 21.9549C11.0951 21.9549 11.1903 21.9185 11.2628 21.846L11.2667 21.8421C11.3386 21.7702 11.3779 21.6721 11.3756 21.5705C11.3734 21.4689 11.3296 21.3727 11.2545 21.3042Z" fill="#01654C"/>
</g>
</g>
<g id="Group_23">
<g id="Group_24">
<path id="Vector_12" d="M11.1206 15.0554C10.9666 15.0061 10.7976 15.0633 10.7038 15.1952C10.5988 15.3429 10.6161 15.5442 10.744 15.6726C10.8159 15.7449 10.9114 15.7819 11.0076 15.7819C11.0823 15.7819 11.1574 15.7596 11.2222 15.714C11.3212 15.6443 11.3801 15.5309 11.3801 15.4098V15.4089C11.3801 15.247 11.2749 15.1046 11.1206 15.0554Z" fill="#01654C"/>
</g>
</g>
<g id="Group_25">
<g id="Group_26">
<path id="Vector_13" d="M11.3026 15.1921L11.2995 15.1878C11.204 15.0587 11.0365 15.0055 10.884 15.0557C10.7315 15.1059 10.6284 15.2484 10.6284 15.4089V15.4153C10.6284 15.5522 10.7053 15.6771 10.8259 15.7419C10.8806 15.7712 10.9409 15.7857 11.0012 15.7857C11.0738 15.7857 11.1464 15.7646 11.2088 15.7233C11.2938 15.667 11.3521 15.5782 11.3698 15.4778C11.3876 15.3774 11.3633 15.2741 11.3026 15.1921Z" fill="#01654C"/>
</g>
</g>
<g id="Group_27">
<g id="Group_28">
<path id="Vector_14" d="M21.9811 20.3738L21.5013 17.4763C21.3501 16.5632 20.7155 15.8003 19.8451 15.4855L15.203 13.806C15.0599 13.7543 14.8999 13.7948 14.7987 13.9084C14.6976 14.0219 14.6757 14.1856 14.7436 14.3218L15.7128 16.2655L14.7618 16.2801C14.6327 16.2821 14.5138 16.3509 14.4478 16.4619C14.3818 16.5729 14.3781 16.7102 14.438 16.8246L14.8281 17.5694L10.8361 21.2212C10.8321 21.2249 10.8281 21.2287 10.8242 21.2326L10.7417 21.315C10.625 21.4318 10.5992 21.6116 10.6785 21.7565L10.6814 21.7618C10.7466 21.881 10.8718 21.9552 11.0077 21.9552H20.6401C21.0403 21.9552 21.4181 21.7802 21.6768 21.475C21.9356 21.1699 22.0465 20.7685 21.9811 20.3738ZM21.1096 20.9939C20.9923 21.1321 20.8212 21.2113 20.6401 21.2113H11.949L15.5417 17.9249C15.6663 17.811 15.6985 17.6275 15.6201 17.4779L15.3774 17.0146L16.3153 17.0001C16.4431 16.9982 16.5609 16.9307 16.6274 16.8215C16.6937 16.7122 16.6995 16.5766 16.6424 16.4622L15.8244 14.8218L19.5922 16.1849C20.2099 16.4084 20.6602 16.9498 20.7675 17.5978L21.2474 20.4953C21.2474 20.4954 21.2474 20.4954 21.2474 20.4954C21.2769 20.6741 21.2267 20.8557 21.1096 20.9939Z" fill="#01654C"/>
</g>
</g>
<g id="Group_29">
<g id="Group_30">
<path id="Vector_15" d="M11.2572 21.3076L11.2529 21.3037C11.1057 21.1704 10.8796 21.1763 10.7395 21.3172L10.7356 21.3211C10.6297 21.4277 10.5983 21.5875 10.656 21.7262C10.7137 21.865 10.8492 21.9553 10.9994 21.9553H11.0076C11.1613 21.9553 11.2993 21.8606 11.3546 21.7172C11.41 21.5736 11.3712 21.4108 11.2572 21.3076Z" fill="#01654C"/>
</g>
</g>
<g id="Group_31">
<g id="Group_32">
<path id="Vector_16" d="M11.2464 21.2967C11.162 21.2206 11.0475 21.1873 10.9353 21.2065C10.8233 21.2254 10.7261 21.2946 10.6715 21.3942L10.6689 21.3989C10.5905 21.5419 10.6143 21.7193 10.7277 21.8365L10.729 21.8378C10.8019 21.9132 10.899 21.9512 10.9964 21.9512C11.086 21.9512 11.1758 21.9189 11.247 21.8539L11.2509 21.8504C11.2847 21.8196 11.3125 21.7828 11.333 21.7419C11.4079 21.5922 11.3708 21.4085 11.2464 21.2967Z" fill="#01654C"/>
</g>
</g>
<g id="Group_33">
<g id="Group_34">
<path id="Vector_17" d="M11.2622 21.3196L11.2607 21.318C11.2597 21.317 11.2587 21.316 11.2577 21.315L11.1752 21.2326C11.1713 21.2287 11.1674 21.2249 11.1633 21.2212L7.17138 17.5694L7.56149 16.8247C7.62143 16.7103 7.6177 16.573 7.55174 16.462C7.48574 16.351 7.36689 16.2822 7.23777 16.2802L6.28665 16.2655L7.25586 14.3219C7.32375 14.1857 7.30183 14.022 7.20073 13.9084C7.09962 13.7948 6.93943 13.7542 6.79648 13.8061L2.15442 15.4855C1.28405 15.8003 0.649397 16.5632 0.498189 17.4764L0.0183563 20.3739C-0.0469993 20.7687 0.0639463 21.17 0.322705 21.4751C0.581506 21.7803 0.959417 21.9553 1.35946 21.9553H11C11.1507 21.9553 11.2864 21.8644 11.3438 21.7252C11.4013 21.5859 11.369 21.4258 11.2622 21.3196ZM1.3595 21.2114C1.17834 21.2114 1.00724 21.1322 0.890108 20.994C0.772975 20.8558 0.722787 20.6741 0.75235 20.4954L1.23218 17.5978C1.33948 16.9497 1.78983 16.4084 2.40751 16.185L6.17523 14.8219L5.35728 16.4622C5.30021 16.5766 5.30589 16.7122 5.37236 16.8215C5.43875 16.9307 5.55661 16.9982 5.68444 17.0001L6.62228 17.0146L6.37959 17.4779C6.30126 17.6274 6.33349 17.811 6.45801 17.9249L10.0507 21.2114H1.3595Z" fill="#01654C"/>
</g>
</g>
</g>
<defs>
<clipPath id="clip0_8_5927">
<rect width="22" height="22" fill="white"/>
</clipPath>
</defs>
</svg>
