<svg width="24" height="22" viewBox="0 0 24 22" fill="none" xmlns="http://www.w3.org/2000/svg">
<g id="Message">
<path id="Message_2" fill-rule="evenodd" clip-rule="evenodd" d="M17.7623 0.5C19.3268 0.5 20.8318 1.11833 21.939 2.22783C23.0473 3.335 23.6668 4.82833 23.6668 6.39167V15.6083C23.6668 18.8633 21.0185 21.5 17.7623 21.5H6.23683C2.98066 21.5 0.333496 18.8633 0.333496 15.6083V6.39167C0.333496 3.13667 2.969 0.5 6.23683 0.5H17.7623ZM19.6185 8.13001L19.7118 8.03668C19.9907 7.69835 19.9907 7.20835 19.699 6.87001C19.5368 6.69618 19.314 6.59001 19.0818 6.56668C18.8368 6.55385 18.6035 6.63668 18.4273 6.80001L13.1668 11C12.4902 11.5612 11.5207 11.5612 10.8335 11L5.58348 6.80001C5.22065 6.53168 4.71898 6.56668 4.41682 6.88168C4.10182 7.19668 4.06682 7.69835 4.33398 8.04835L4.48682 8.20001L9.79515 12.3417C10.4485 12.855 11.2407 13.135 12.0702 13.135C12.8973 13.135 13.7035 12.855 14.3557 12.3417L19.6185 8.13001Z" fill="#01654C"/>
</g>
</svg>
