<svg width="40" height="40" viewBox="0 0 40 40" fill="none" xmlns="http://www.w3.org/2000/svg">
<g id="mobile-payment 1">
<g id="22-mobile">
<g id="linear color">
<path id="Vector" d="M22.6594 34.8455H18.6785C18.4713 34.8455 18.2726 34.9278 18.126 35.0743C17.9795 35.2208 17.8972 35.4195 17.8972 35.6267C17.8972 35.8339 17.9795 36.0326 18.126 36.1791C18.2726 36.3256 18.4713 36.408 18.6785 36.408H22.6594C22.8666 36.408 23.0653 36.3256 23.2118 36.1791C23.3584 36.0326 23.4407 35.8339 23.4407 35.6267C23.4407 35.4195 23.3584 35.2208 23.2118 35.0743C23.0653 34.9278 22.8666 34.8455 22.6594 34.8455Z" fill="#01654C"/>
<path id="Vector_2" d="M36.2498 12.9688C34.6746 12.9688 33.3129 13.4096 32.3123 14.2435C32.22 14.3205 32.1258 14.4057 32.031 14.4987V2.5C32.0295 1.96176 31.815 1.44601 31.4344 1.06542C31.0538 0.684826 30.538 0.470316 29.9998 0.46875H11.2498C10.7116 0.470316 10.1958 0.684826 9.81522 1.06542C9.43462 1.44601 9.22011 1.96176 9.21855 2.5V4.57812L9.12175 4.48133C8.50636 3.86594 7.67172 3.52022 6.80144 3.52022C5.93115 3.52022 5.09651 3.86594 4.48112 4.48133C3.86574 5.09671 3.52002 5.93135 3.52002 6.80164C3.52002 7.67193 3.86574 8.50657 4.48112 9.12195L7.86191 12.5027C7.31471 12.6623 6.8185 12.9616 6.42212 13.3712C6.02573 13.7808 5.74282 14.2865 5.60124 14.8387C5.45966 15.3908 5.46429 15.9703 5.61466 16.5201C5.76504 17.0699 6.05598 17.571 6.45886 17.9742L8.38198 19.8973C7.77138 19.9716 7.19396 20.2161 6.71563 20.6029C6.2373 20.9896 5.87733 21.503 5.6768 22.0845C5.47627 22.666 5.44327 23.2922 5.58155 23.8916C5.71984 24.4909 6.02384 25.0393 6.45886 25.4742L7.75683 26.7724C7.14622 26.8467 6.5688 27.0912 6.09047 27.4779C5.61214 27.8647 5.25217 28.3781 5.05164 28.9596C4.85112 29.5411 4.81811 30.1673 4.9564 30.7666C5.09468 31.366 5.39868 31.9144 5.8337 32.3493L9.21855 35.7344V37.5C9.21915 38.0385 9.43334 38.5548 9.81415 38.9356C10.195 39.3165 10.7113 39.5307 11.2498 39.5312H26.2498C26.457 39.5312 26.6557 39.4489 26.8022 39.3024C26.9487 39.1559 27.031 38.9572 27.031 38.75V31.25C27.0326 30.5953 27.1858 29.9499 27.4786 29.3644C27.7713 28.7788 28.1958 28.2691 28.7185 27.875L31.7185 25.625C31.8151 25.5518 31.8935 25.4573 31.9477 25.349C32.0019 25.2406 32.0304 25.1212 32.031 25V18.75C32.031 15.6385 33.9303 14.7707 35.4685 14.5781V38.75C35.4685 38.9572 35.5508 39.1559 35.6974 39.3024C35.8439 39.4489 36.0426 39.5312 36.2498 39.5312C36.457 39.5312 36.6557 39.4489 36.8022 39.3024C36.9487 39.1559 37.031 38.9572 37.031 38.75V13.75C37.031 13.5428 36.9487 13.3441 36.8022 13.1976C36.6557 13.0511 36.457 12.9688 36.2498 12.9688ZM11.2498 2.03125H29.9998C30.1241 2.03137 30.2432 2.0808 30.3311 2.16868C30.419 2.25656 30.4684 2.37572 30.4685 2.5V4.84031H10.781V2.5C10.7812 2.37572 10.8306 2.25656 10.9185 2.16868C11.0064 2.0808 11.1255 2.03137 11.2498 2.03125ZM5.08222 6.80156C5.06659 5.28813 6.95808 4.50586 8.01691 5.58602L9.21855 6.78773V11.6498L5.58573 8.01703C5.4256 7.85779 5.29865 7.66837 5.21222 7.45974C5.12579 7.2511 5.0816 7.02739 5.08222 6.80156ZM7.56355 14.4387C8.20339 13.772 9.35448 13.772 9.99425 14.4387L13.5298 17.9743C15.0824 19.6417 12.7601 21.9581 11.0991 20.405L7.56355 16.8695C7.24173 16.5469 7.061 16.1098 7.061 15.6541C7.061 15.1984 7.24173 14.7614 7.56355 14.4387ZM14.6346 16.8695L13.7855 16.0202C13.9471 14.467 14.6445 13.0184 15.7579 11.9234C16.8714 10.8285 18.3313 10.1553 19.8871 10.0197C21.4428 9.8841 22.9973 10.2944 24.2834 11.1802C25.5695 12.066 26.507 13.372 26.935 14.8739C27.3629 16.3758 27.2545 17.9798 26.6284 19.4105C26.0023 20.8411 24.8976 22.0091 23.504 22.7138C22.1104 23.4186 20.5149 23.616 18.9915 23.2723C17.4682 22.9286 16.112 22.0652 15.156 20.8304C15.5163 20.2046 15.6604 19.4775 15.5662 18.7616C15.472 18.0457 15.1446 17.3807 14.6346 16.8695ZM7.56355 21.9388C8.20339 21.272 9.35448 21.272 9.99425 21.9388L13.5298 25.4743C15.0824 27.1417 12.7601 29.4581 11.0991 27.905L7.56355 24.3695C7.24173 24.0469 7.061 23.6098 7.061 23.1541C7.061 22.6984 7.24173 22.2614 7.56355 21.9388ZM6.93855 28.8138C7.57839 28.147 8.72948 28.147 9.36925 28.8138L12.9048 32.3493C14.4574 34.0167 12.1351 36.3331 10.4741 34.78L6.93855 31.2445C6.61673 30.9219 6.436 30.4848 6.436 30.0291C6.436 29.5734 6.61673 29.1364 6.93855 28.8138ZM10.781 37.5V36.7188C11.0764 36.8034 11.3821 36.8464 11.6894 36.8463C12.1439 36.8465 12.5935 36.7522 13.0095 36.5693C13.4256 36.3865 13.7991 36.1191 14.1064 35.7842C14.4136 35.4493 14.6479 35.0541 14.7942 34.6238C14.9406 34.1936 14.9959 33.7376 14.9566 33.2848H25.4685V37.9688H11.2498C11.1255 37.9686 11.0064 37.9192 10.9185 37.8313C10.8306 37.7434 10.7812 37.6243 10.781 37.5ZM27.781 26.625C27.0646 27.165 26.483 27.8636 26.0818 28.666C25.6806 29.4684 25.4707 30.3529 25.4685 31.25V31.7219H14.4038C14.2877 31.5507 14.1558 31.3908 14.0096 31.2445L12.7115 29.9463C13.3221 29.872 13.8995 29.6276 14.3779 29.2408C14.8562 28.8541 15.2162 28.3407 15.4167 27.7592C15.6172 27.1777 15.6502 26.5515 15.5119 25.9521C15.3737 25.3527 15.0697 24.8043 14.6346 24.3695L12.7115 22.4463C13.1922 22.3892 13.654 22.2252 14.0631 21.9664C15.2438 23.4059 16.8754 24.4053 18.6941 24.8033C20.5129 25.2013 22.4127 24.9746 24.0868 24.1598C25.7608 23.345 27.1114 21.9897 27.9202 20.3128C28.7291 18.6358 28.9491 16.7352 28.5447 14.9179C28.1403 13.1005 27.1351 11.4725 25.6915 10.2969C24.2478 9.12118 22.45 8.46644 20.5885 8.4384C18.7269 8.41036 16.9102 9.01065 15.4318 10.1423C13.9534 11.274 12.8996 12.871 12.4407 14.6753C12.4407 14.6753 10.8918 13.1406 10.781 13.0547V6.40281H30.4685V24.6094L27.781 26.625Z" fill="#01654C"/>
<path id="Vector_3" d="M19.7652 17.5H21.0933C21.3869 17.5103 21.6649 17.6342 21.8689 17.8455C22.0729 18.0568 22.1869 18.3391 22.1869 18.6328C22.1869 18.9265 22.0729 19.2088 21.8689 19.4201C21.6649 19.6314 21.3869 19.7553 21.0933 19.7656H19.1239C18.851 19.7719 18.6551 19.5069 18.6951 19.2463C18.6988 19.0391 18.6201 18.8389 18.4762 18.6898C18.3323 18.5407 18.1351 18.4548 17.9279 18.4511C17.7207 18.4474 17.5205 18.5261 17.3713 18.67C17.2222 18.8139 17.1363 19.0112 17.1326 19.2184L17.1311 19.2993C17.1264 19.564 17.1744 19.827 17.2724 20.0729C17.3704 20.3189 17.5164 20.5428 17.7019 20.7317C17.8875 20.9206 18.1087 21.0706 18.3529 21.173C18.597 21.2754 18.8591 21.3281 19.1239 21.3281H19.6871V21.7969C19.6871 22.0041 19.7694 22.2028 19.9159 22.3493C20.0624 22.4958 20.2611 22.5781 20.4683 22.5781C20.6755 22.5781 20.8742 22.4958 21.0208 22.3493C21.1673 22.2028 21.2496 22.0041 21.2496 21.7969V21.3232C21.9425 21.2727 22.5892 20.9567 23.0549 20.4411C23.5205 19.9255 23.7692 19.25 23.749 18.5556C23.7289 17.8611 23.4415 17.2012 22.9467 16.7134C22.4519 16.2257 21.788 15.9477 21.0933 15.9375H19.7652C19.4751 15.9375 19.1969 15.8223 18.9918 15.6171C18.7867 15.412 18.6715 15.1338 18.6715 14.8438C18.6715 14.5537 18.7867 14.2755 18.9918 14.0704C19.1969 13.8652 19.4751 13.75 19.7652 13.75H21.7036C21.9787 13.773 22.1219 13.9226 22.1332 14.1988C22.1288 14.3013 22.1447 14.4036 22.1798 14.5C22.215 14.5964 22.2687 14.6849 22.3381 14.7605C22.4782 14.9132 22.6732 15.004 22.8802 15.0129C23.0872 15.0218 23.2893 14.9481 23.442 14.808C23.5946 14.6679 23.6854 14.473 23.6943 14.2659C23.7059 13.9973 23.663 13.7291 23.5681 13.4775C23.4733 13.2259 23.3285 12.996 23.1425 12.8019C22.9565 12.6077 22.7332 12.4531 22.4859 12.3476C22.2386 12.242 21.9725 12.1875 21.7036 12.1875H21.2496V11.7188C21.2496 11.5115 21.1673 11.3128 21.0208 11.1663C20.8742 11.0198 20.6755 10.9375 20.4683 10.9375C20.2611 10.9375 20.0624 11.0198 19.9159 11.1663C19.7694 11.3128 19.6871 11.5115 19.6871 11.7188V12.1895C18.9899 12.2102 18.3289 12.5043 17.8467 13.0083C17.3646 13.5124 17.1001 14.1858 17.1104 14.8832C17.1207 15.5806 17.4048 16.246 17.9016 16.7356C18.3983 17.2252 19.0677 17.4998 19.7652 17.5Z" fill="#01654C"/>
</g>
</g>
</g>
</svg>
