<svg width="40" height="40" viewBox="0 0 40 40" fill="none" xmlns="http://www.w3.org/2000/svg">
<g id="offer 1" clip-path="url(#clip0_5_2502)">
<path id="Vector" d="M11.8477 17.3541L11.8462 17.3796C11.7477 19.1058 12.7146 20.7228 14.3102 21.4981L14.3266 21.5061C14.8891 21.7752 15.3502 22.2188 15.6411 22.7705L15.6477 22.7825C16.4516 24.3134 18.1145 25.2414 19.8873 25.1483L19.9142 25.1468C20.5571 25.1108 21.1953 25.2766 21.7393 25.6214C23.2403 26.5603 25.1458 26.5603 26.6469 25.6214C27.1909 25.2766 27.829 25.1108 28.4719 25.1468L28.4989 25.1483C30.2687 25.2421 31.9337 24.3134 32.7396 22.7799L32.7436 22.7716C33.0356 22.2185 33.4977 21.7741 34.0621 21.5047L34.0752 21.4981C35.6708 20.7225 36.6381 19.1058 36.5392 17.3792L36.5377 17.3552C36.505 16.7472 36.6737 16.1454 37.0184 15.6432C38.0108 14.196 38.0108 12.2876 37.0188 10.84C36.6744 10.3382 36.505 9.73674 36.5377 9.12874L36.5392 9.10329C36.6381 7.37676 35.6708 5.76004 34.0737 4.98404L34.0592 4.97677C33.4977 4.70841 33.0377 4.26696 32.7465 3.71678L32.7381 3.70042C31.9337 2.16952 30.2687 1.24189 28.4989 1.33461L28.4716 1.33607C27.829 1.37207 27.1909 1.20625 26.6472 0.861526H26.6465C25.1454 -0.0773771 23.24 -0.0773771 21.7389 0.861526C21.1949 1.20589 20.5567 1.3717 19.9138 1.3357L19.8869 1.33425C18.1167 1.24043 16.452 2.16915 15.648 3.69969L15.6418 3.71096C15.3506 4.26368 14.8891 4.70768 14.3258 4.97713L14.3106 4.98441C12.7149 5.75968 11.7477 7.37676 11.8466 9.10329L11.848 9.12729C11.8808 9.73528 11.712 10.3371 11.3673 10.8389C10.375 12.2865 10.375 14.1953 11.3673 15.6425C11.7117 16.1443 11.8808 16.7461 11.8477 17.3541ZM12.5931 11.6847C13.1251 10.9102 13.3858 9.98147 13.3349 9.04329L13.3335 9.01783C13.2811 7.87384 13.9233 6.8113 14.96 6.32513L14.9727 6.31894C15.8233 5.91167 16.5196 5.24113 16.9589 4.40696L16.9662 4.39314C17.5004 3.37569 18.6193 2.75897 19.8076 2.82224L19.8338 2.82333C20.7847 2.87679 21.7283 2.6317 22.5327 2.12188C23.5483 1.48661 24.8371 1.48661 25.8527 2.12188C26.657 2.63097 27.6007 2.87642 28.5512 2.82369L28.5774 2.82224C29.7716 2.75969 30.885 3.37569 31.4177 4.39023L31.4276 4.40877C31.8668 5.24186 32.5625 5.91131 33.4119 6.31822L33.4243 6.3244C34.4774 6.83639 35.1166 7.89348 35.0523 9.0182L35.0508 9.04474C34.9999 9.98292 35.261 10.9113 35.793 11.6858C36.4359 12.6236 36.4355 13.86 35.7923 14.7974C35.2606 15.5723 34.9999 16.5011 35.0508 17.4392L35.0523 17.4643C35.1166 18.589 34.4774 19.6465 33.4239 20.1589L33.413 20.1639C32.5617 20.5719 31.8647 21.2432 31.425 22.0788L31.4196 22.0897C30.885 23.1072 29.7679 23.7243 28.5778 23.6606L28.5519 23.6592C27.601 23.6061 26.657 23.8516 25.8523 24.361C24.8371 24.9959 23.5483 24.9959 22.5331 24.361C21.8014 23.8974 20.9527 23.6516 20.0865 23.6523C20.0025 23.6523 19.9182 23.6545 19.8338 23.6592L19.8076 23.6603C18.6349 23.7348 17.5255 23.121 16.9651 22.0879L16.9575 22.0737C16.5189 21.241 15.8237 20.5719 14.9746 20.165L14.9607 20.1581C13.9073 19.6461 13.268 18.5887 13.3328 17.4643L13.3342 17.4378C13.3848 16.4996 13.1237 15.5709 12.592 14.7967C11.9495 13.8589 11.9499 12.6225 12.5931 11.6855V11.6847Z" fill="#01654C"/>
<path id="Vector_2" d="M19.3877 20.9404C19.7364 21.1582 20.1957 21.0516 20.4135 20.7029L29.2356 6.56989C29.3796 6.34407 29.3916 6.05825 29.2665 5.82153C29.1414 5.58444 28.8985 5.43317 28.6309 5.4248C28.3633 5.41644 28.1116 5.55244 27.972 5.78116L19.1502 19.9142C18.9324 20.2633 19.0386 20.7225 19.3877 20.9404Z" fill="#01654C"/>
<path id="Vector_3" d="M20.1784 13.2783C21.9918 13.2783 23.4674 11.5957 23.4674 9.52775C23.4674 7.45976 21.9918 5.77759 20.1784 5.77759C18.3649 5.77759 16.8896 7.45976 16.8896 9.52775C16.8896 11.5957 18.3649 13.2783 20.1784 13.2783ZM20.1784 7.26703C21.1707 7.26703 21.978 8.28121 21.978 9.52775C21.978 10.7743 21.1707 11.7888 20.1784 11.7888C19.1864 11.7888 18.3791 10.7739 18.3791 9.52775C18.3791 8.28157 19.1864 7.26703 20.1784 7.26703Z" fill="#01654C"/>
<path id="Vector_4" d="M24.9187 16.9561C24.9187 19.0241 26.394 20.7062 28.2074 20.7062C30.0209 20.7062 31.4965 19.0237 31.4965 16.9561C31.4965 14.8888 30.0212 13.2059 28.2078 13.2059C26.394 13.2059 24.9187 14.8877 24.9187 16.9561ZM30.007 16.9561C30.007 18.2026 29.1998 19.2168 28.2074 19.2168C27.2154 19.2168 26.4081 18.2026 26.4081 16.9561C26.4081 15.7096 27.2154 14.6954 28.2074 14.6954C29.1998 14.6954 30.007 15.7088 30.007 16.9561Z" fill="#01654C"/>
<path id="Vector_5" d="M39.9033 29.3225C38.9171 27.5724 36.7303 26.9058 34.9357 27.8084L29.1019 30.5647C28.2965 29.0669 26.7514 28.1135 25.051 28.0655L19.6656 27.9171C18.8129 27.8927 17.9762 27.6764 17.218 27.2851L16.67 27.0011C13.8642 25.5386 10.5199 25.5422 7.71697 27.0106L7.75115 25.7691C7.76242 25.3578 7.43842 25.0153 7.02715 25.004L1.12173 24.8415C0.710463 24.8302 0.368283 25.1542 0.357011 25.5655L0.000285454 38.525C-0.0109873 38.9363 0.313011 39.2789 0.724281 39.2901L6.6297 39.4527H6.65043C7.0537 39.4523 7.38351 39.1312 7.39479 38.7283L7.41151 38.1083L8.94569 37.2869C9.54787 36.9629 10.2522 36.8858 10.91 37.072L20.0711 39.6432C20.0871 39.6479 20.1031 39.6516 20.1194 39.6552C20.7816 39.7938 21.4565 39.8632 22.1332 39.8628C23.566 39.8636 24.982 39.5549 26.2841 38.957C26.3161 38.9425 26.347 38.9258 26.3765 38.9069L39.6593 30.3145C39.9906 30.1007 40.0975 29.6654 39.9033 29.3225ZM1.50973 37.8214L1.82537 26.3513L6.24207 26.4727L5.92607 37.9432L1.50973 37.8214ZM25.6129 37.6261C23.9951 38.3563 22.1882 38.5578 20.4493 38.2021L11.3126 35.6381C10.2846 35.3472 9.1835 35.468 8.24278 35.9738L7.45879 36.3934L7.66897 28.7669C10.153 27.1146 13.3391 26.9447 15.9849 28.3233L16.5329 28.6073C17.4907 29.1018 18.5474 29.3749 19.6249 29.4058L25.0103 29.5542C26.523 29.5974 27.8078 30.6745 28.1147 32.1567L20.0929 31.936C19.6816 31.9247 19.3394 32.2487 19.3282 32.66C19.3169 33.0712 19.6409 33.4138 20.0522 33.4251L28.9048 33.6687H28.9259C29.3288 33.6683 29.6587 33.3472 29.6699 32.9443C29.679 32.6207 29.6547 32.2967 29.5979 31.9782L35.5804 29.1509L35.5979 29.1425C36.4466 28.7127 37.4732 28.8564 38.171 29.5025L25.6129 37.6261Z" fill="#01654C"/>
</g>
<defs>
<clipPath id="clip0_5_2502">
<rect width="40" height="40" fill="white"/>
</clipPath>
</defs>
</svg>
