<svg width="40" height="40" viewBox="0 0 40 40" fill="none" xmlns="http://www.w3.org/2000/svg">
<g id="point 1">
<path id="Vector" d="M19.8282 0.0015162C11.4853 0.117788 4.6875 6.96837 4.6875 15.3595C4.6875 20.5881 7.31079 25.4095 11.705 28.2571C12.2382 28.6026 12.6816 29.0704 12.9868 29.61L15.3168 33.7256C15.48 34.014 15.846 34.1156 16.1343 33.9523C16.4227 33.789 16.5241 33.4228 16.3608 33.1347L14.0311 29.0188C13.631 28.3121 13.0521 27.7005 12.3575 27.2503C8.29621 24.6185 5.81665 20.1077 5.88867 15.1504C5.99884 7.51586 12.3474 1.19964 20.047 1.19964C27.8546 1.19964 34.2066 7.55187 34.2066 15.3595C34.2066 20.1782 31.789 24.6228 27.7393 27.2485C27.0426 27.7002 26.4627 28.3124 26.0629 29.0191L20.7623 38.3825C20.4474 38.9386 19.6469 38.9392 19.3317 38.3825L17.543 35.2228C17.3798 34.9344 17.0139 34.833 16.7255 34.9963C16.4371 35.1596 16.3358 35.5255 16.499 35.8139L18.2877 38.9737C19.0619 40.3415 21.0312 40.3427 21.8063 38.9737L27.1066 29.61C27.4121 29.0707 27.8565 28.6023 28.3917 28.255C32.7841 25.4074 35.4062 20.5865 35.4062 15.3595C35.4062 6.82128 28.4018 -0.117807 19.8282 0.0015162Z" fill="#01654C"/>
<path id="Vector_2" d="M9.24425 13.7622C8.89177 13.7317 8.58202 13.9932 8.55211 14.3451C7.97227 21.1108 13.3217 26.8793 20.0469 26.8793C26.4083 26.8793 31.584 21.7035 31.584 15.3418C31.584 5.84836 20.717 0.460178 13.1648 6.08091C11.2035 7.54087 9.77861 9.53886 9.04466 11.8588C8.93816 12.1957 9.12492 12.5552 9.46184 12.6617C9.79875 12.7682 10.1582 12.5815 10.2648 12.2445C11.6194 7.96171 15.5507 5.0842 20.0466 5.0842C25.7027 5.0842 30.3041 9.68565 30.3041 15.3418C30.3041 20.9979 25.7027 25.5993 20.0466 25.5993C14.074 25.5993 9.31108 20.4782 9.82683 14.4546C9.85735 14.1025 9.59612 13.7924 9.24425 13.7622Z" fill="#01654C"/>
<path id="Vector_3" d="M26.5071 14.5007C26.2541 14.7473 26.2489 15.1526 26.4955 15.4056C26.7421 15.6586 27.1471 15.6641 27.4004 15.4172C28.7273 14.1232 27.9176 12.3026 26.4488 12.0892L23.5191 11.6635C23.3189 11.6345 23.1456 11.5085 23.0562 11.3269L21.7458 8.67218C21.0509 7.2644 19.0422 7.26501 18.3476 8.67218L17.0372 11.3269C16.9478 11.5085 16.7747 11.6345 16.5742 11.6635L13.6446 12.0892C12.0726 12.3175 11.4809 14.2361 12.5944 15.321L14.7142 17.3877C14.8323 17.5027 14.9 17.6633 14.9 17.8281C14.9 18.0338 14.3623 20.8008 14.3623 21.1789C14.3623 22.5888 15.8699 23.515 17.14 22.8473L19.7603 21.4697C19.9364 21.3773 20.157 21.3773 20.3328 21.4697C23.1764 22.9648 23.2362 23.0676 23.8353 23.0676C24.9937 23.0676 25.9053 22.0291 25.7027 20.8499C25.1643 17.7124 25.1933 17.908 25.1933 17.8281C25.1933 17.5095 25.392 17.3746 25.6819 17.092C25.9352 16.8454 25.9404 16.4404 25.6935 16.1871C25.4472 15.9341 25.042 15.929 24.7887 16.1755C24.4859 16.471 23.9134 16.9257 23.9134 17.8281C23.9134 18.0502 23.8966 17.8909 24.4414 21.066C24.5277 21.5704 24.0004 21.9519 23.5487 21.7145C20.7176 20.2261 20.652 20.1193 20.0465 20.1193C19.7407 20.1193 19.4359 20.1944 19.1649 20.3369C16.3277 21.8283 16.4607 21.788 16.2581 21.788C15.9318 21.788 15.5788 21.4929 15.652 21.066C16.2016 17.8629 16.18 18.0487 16.18 17.8281C16.18 17.3203 15.9712 16.8256 15.6077 16.4713C13.3165 14.238 13.3006 14.3082 13.3006 13.9713C13.3006 13.7033 13.4819 13.4061 13.8286 13.3557L16.7583 12.93C17.3756 12.8403 17.9088 12.4527 18.185 11.8933L19.4951 9.23859C19.7209 8.78082 20.3719 8.78021 20.5983 9.23859L21.9084 11.8933C22.1846 12.4527 22.7177 12.8403 23.3351 12.93L26.2648 13.3557C26.7613 13.4277 26.9768 14.043 26.6057 14.4046L26.5071 14.5007Z" fill="#01654C"/>
</g>
</svg>
