<svg width="48" height="48" viewBox="0 0 48 48" fill="none" xmlns="http://www.w3.org/2000/svg">
<g id="television-screen">
<g id="Group">
<path id="Vector" d="M46.3158 7.58521H1.68418C0.755567 7.58521 0 8.34077 0 9.26939V35.3524C0 36.281 0.755567 37.0365 1.68418 37.0365H19.3948V38.7306H10.2454C9.78038 38.7306 9.40333 39.1077 9.40333 39.5727C9.40333 40.0378 9.78038 40.4148 10.2454 40.4148H37.9296C38.3947 40.4148 38.7717 40.0378 38.7717 39.5727C38.7717 39.1077 38.3947 38.7306 37.9296 38.7306H28.6666V37.0365H46.3158C47.2444 37.0365 48 36.281 48 35.3524V9.26939C48 8.34067 47.2444 7.58521 46.3158 7.58521ZM26.9824 38.7305H21.079V37.0364H26.9824V38.7305ZM39.0767 35.3524L20.8455 17.1212C20.5166 16.7923 19.9835 16.7923 19.6546 17.1212C19.3257 17.45 19.3257 17.9831 19.6546 18.312L36.6949 35.3522H1.68418V9.26939H10.6119L16.2863 14.9437C16.4507 15.1081 16.6662 15.1904 16.8817 15.1904C17.0973 15.1904 17.3128 15.1081 17.4772 14.9437C17.8061 14.6149 17.8061 14.0817 17.4772 13.7529L12.9938 9.26949H46.3159L46.316 35.3525H39.0767V35.3524Z" fill="#063C43"/>
<path id="Vector_2" d="M22.7103 34.5497H25.2892C25.7542 34.5497 26.1313 34.1726 26.1313 33.7076C26.1313 33.2425 25.7542 32.8655 25.2892 32.8655H22.7103C22.2452 32.8655 21.8682 33.2425 21.8682 33.7076C21.8682 34.1726 22.2452 34.5497 22.7103 34.5497Z" fill="#063C43"/>
</g>
</g>
</svg>
