<svg width="26" height="22" viewBox="0 0 26 22" fill="none" xmlns="http://www.w3.org/2000/svg">
<g id="Ticket">
<g id="Group">
<path id="Stroke 1" d="M15.1595 1.95874V4.78207" stroke="white" stroke-width="1.5" stroke-linecap="round" stroke-linejoin="round"/>
<path id="Stroke 3" d="M15.1595 17.7202V20.0815" stroke="white" stroke-width="1.5" stroke-linecap="round" stroke-linejoin="round"/>
<path id="Stroke 6" d="M15.1595 13.7121V8.08765" stroke="white" stroke-width="1.5" stroke-linecap="round" stroke-linejoin="round"/>
</g>
<path id="Stroke 7" fill-rule="evenodd" clip-rule="evenodd" d="M20.8198 20.3334C22.9455 20.3334 24.6673 18.6331 24.6673 16.5337V13.5092C23.2607 13.5092 22.1279 12.3904 22.1279 11.0013C22.1279 9.61216 23.2607 8.49221 24.6673 8.49221L24.6661 5.46641C24.6661 3.3671 22.9431 1.66675 20.8186 1.66675H5.18272C3.05819 1.66675 1.3352 3.3671 1.3352 5.46641L1.33398 8.59074C2.7406 8.59074 3.87344 9.61216 3.87344 11.0013C3.87344 12.3904 2.7406 13.5092 1.33398 13.5092V16.5337C1.33398 18.6331 3.05575 20.3334 5.1815 20.3334H20.8198Z" stroke="white" stroke-width="1.5" stroke-linecap="round" stroke-linejoin="round"/>
</g>
</svg>
