<svg width="48" height="48" viewBox="0 0 48 48" fill="none" xmlns="http://www.w3.org/2000/svg">
<g id="tissue-box">
<path id="Vector" d="M44.0378 41.8021H3.50307C2.85775 41.8012 2.23912 41.5444 1.78288 41.0881C1.32663 40.6317 1.07002 40.013 1.06934 39.3677V27.9106C1.06934 27.7386 1.13768 27.5736 1.25932 27.4519C1.38097 27.3303 1.54595 27.262 1.71798 27.262H45.8261C45.9981 27.262 46.1631 27.3303 46.2848 27.4519C46.4064 27.5736 46.4747 27.7386 46.4747 27.9106V39.3677C46.474 40.0136 46.217 40.6328 45.76 41.0892C45.3031 41.5457 44.6836 41.8021 44.0378 41.8021ZM2.36534 28.5593V39.3677C2.36568 39.6693 2.48568 39.9584 2.69899 40.1716C2.9123 40.3848 3.20149 40.5046 3.50307 40.5048H44.0378C44.3392 40.5044 44.6283 40.3845 44.8414 40.1714C45.0546 39.9582 45.1745 39.6692 45.1748 39.3677V28.5593H2.36534Z" fill="#063C43"/>
<path id="Vector_2" d="M45.8239 28.5634H1.71581C1.6115 28.5633 1.50873 28.5381 1.41622 28.4899C1.32372 28.4417 1.24421 28.3719 1.18443 28.2864C1.12466 28.2009 1.08639 28.1023 1.07286 27.9988C1.05933 27.8954 1.07095 27.7902 1.10673 27.6922L5.30219 16.1936C5.47474 15.7257 5.78625 15.3218 6.19495 15.036C6.60364 14.7502 7.08997 14.5962 7.58868 14.5947H14.3515C14.5235 14.5947 14.6885 14.6631 14.8102 14.7847C14.9318 14.9064 15.0001 15.0713 15.0001 15.2434C15.0001 15.4154 14.9318 15.5804 14.8102 15.702C14.6885 15.8237 14.5235 15.892 14.3515 15.892H7.58868C7.35589 15.8927 7.12886 15.9645 6.93803 16.0978C6.7472 16.2311 6.60169 16.4196 6.521 16.638L2.64338 27.2661H44.8964L41.0123 16.6386C40.9329 16.4194 40.7877 16.23 40.5966 16.0963C40.4055 15.9627 40.1778 15.8913 39.9446 15.892H34.2365C34.0644 15.892 33.8994 15.8237 33.7778 15.702C33.6562 15.5804 33.5878 15.4154 33.5878 15.2434C33.5878 15.0713 33.6562 14.9064 33.7778 14.7847C33.8994 14.6631 34.0644 14.5947 34.2365 14.5947H39.9446C40.4441 14.594 40.9317 14.7472 41.3409 15.0335C41.7502 15.3199 42.0613 15.7254 42.2317 16.1949L46.4337 27.689C46.4696 27.7871 46.4813 27.8924 46.4678 27.9959C46.4543 28.0995 46.416 28.1983 46.3561 28.2839C46.2963 28.3695 46.2166 28.4394 46.124 28.4876C46.0313 28.5358 45.9284 28.5609 45.8239 28.5608V28.5634Z" fill="#063C43"/>
<path id="Vector_3" d="M23.7702 25.346C18.9462 25.346 9.82422 24.5579 9.82422 21.5767C9.82422 20.4091 11.1494 19.5101 13.8744 18.8225C13.9575 18.8001 14.0443 18.7944 14.1296 18.8058C14.215 18.8172 14.2972 18.8455 14.3715 18.889C14.4458 18.9325 14.5107 18.9904 14.5624 19.0593C14.6141 19.1281 14.6516 19.2066 14.6726 19.2901C14.6937 19.3736 14.6979 19.4604 14.685 19.5456C14.6722 19.6307 14.6425 19.7125 14.5977 19.786C14.5529 19.8596 14.494 19.9235 14.4242 19.974C14.3545 20.0245 14.2754 20.0606 14.1916 20.0803C11.6858 20.7127 11.1215 21.3892 11.1215 21.5767C11.1215 22.4154 15.5862 24.0487 23.7702 24.0487C31.9542 24.0487 36.4188 22.4154 36.4188 21.5767C36.4188 21.4055 35.9206 20.7821 33.7075 20.175C33.5415 20.1294 33.4005 20.0197 33.3154 19.8702C33.2303 19.7206 33.2081 19.5434 33.2537 19.3775C33.2993 19.2115 33.4089 19.0705 33.5585 18.9854C33.7081 18.9003 33.8853 18.8781 34.0512 18.9237C36.5161 19.6003 37.7161 20.4682 37.7161 21.5767C37.7161 24.5579 28.5935 25.346 23.7702 25.346Z" fill="#063C43"/>
<path id="Vector_4" d="M17.0403 24.9172C16.9101 24.9173 16.7828 24.8782 16.6751 24.805C12.6535 22.0658 12.9992 18.6519 14.0474 13.3544C14.9756 8.66664 12.2708 6.24978 12.2435 6.22707C12.1551 6.1502 12.0892 6.05081 12.0527 5.93946C12.0163 5.82812 12.0106 5.70898 12.0364 5.59469C12.0623 5.48041 12.1185 5.37525 12.1993 5.29038C12.2801 5.20552 12.3823 5.14411 12.4952 5.1127C14.2964 4.65006 16.166 4.51407 18.0152 4.71118C19.2205 4.8388 20.4057 5.11304 21.5445 5.52783C23.2894 6.13951 27.6262 7.47378 30.202 6.66297C32.1369 6.05259 33.6107 6.00199 34.583 6.51248C35.002 6.70715 35.328 7.05833 35.4911 7.49064C35.5154 7.56951 35.5244 7.65228 35.5177 7.73453L34.1789 23.7484C34.1726 23.8339 34.1495 23.9173 34.1108 23.9938C34.0721 24.0703 34.0186 24.1383 33.9534 24.194C33.8883 24.2497 33.8127 24.292 33.7311 24.3183C33.6496 24.3446 33.5636 24.3545 33.4781 24.3474C33.3927 24.3403 33.3095 24.3163 33.2334 24.2768C33.1573 24.2374 33.0898 24.1832 33.0347 24.1175C32.9797 24.0518 32.9382 23.9758 32.9127 23.894C32.8872 23.8121 32.8782 23.726 32.8861 23.6407L34.2074 7.80913C33.981 7.54967 33.0159 7.13453 30.5925 7.89929C27.7495 8.79507 23.4347 7.56459 21.1151 6.75118C20.0749 6.37147 18.9924 6.11989 17.8913 6.00199C16.5521 5.86636 15.2007 5.90999 13.8729 6.13172C14.6317 7.20382 15.1532 8.42533 15.4028 9.71484C15.6523 11.0043 15.6241 12.3322 15.3201 13.61C14.3225 18.6513 13.9625 21.3938 17.4055 23.7354C17.5202 23.8134 17.607 23.9262 17.6529 24.0571C17.6988 24.188 17.7016 24.3302 17.6607 24.4629C17.6198 24.5955 17.5375 24.7115 17.4259 24.7938C17.3142 24.8762 17.1791 24.9206 17.0403 24.9205V24.9172Z" fill="#063C43"/>
<path id="Vector_5" d="M33.4249 24.3703C33.2708 24.3701 33.1218 24.315 33.0046 24.2149C32.8874 24.1149 32.8097 23.9763 32.7854 23.8242C31.8844 18.1887 27.2128 12.9658 27.1655 12.9139C27.0908 12.8312 27.0386 12.7307 27.014 12.622C26.9894 12.5134 26.9933 12.4002 27.0252 12.2934C27.057 12.1866 27.1159 12.0899 27.196 12.0125C27.2761 11.9351 27.3748 11.8796 27.4826 11.8514C31.5471 10.7909 34.3317 7.31086 34.3583 7.27843C34.4661 7.14738 34.6209 7.06377 34.7896 7.04552C34.9582 7.02726 35.1273 7.07582 35.2606 7.18077C35.3939 7.28573 35.4808 7.43873 35.5026 7.60698C35.5244 7.77522 35.4795 7.94532 35.3774 8.08081C33.6153 10.1946 31.342 11.8226 28.7735 12.8101C30.1538 14.5206 33.303 18.8536 34.0651 23.6192C34.0922 23.7891 34.0507 23.9628 33.9498 24.102C33.8488 24.2413 33.6966 24.3348 33.5268 24.3619C33.4931 24.3675 33.459 24.3703 33.4249 24.3703Z" fill="#063C43"/>
</g>
</svg>
