<svg width="48" height="48" viewBox="0 0 48 48" fill="none" xmlns="http://www.w3.org/2000/svg">
<g id="wifi (1)" clip-path="url(#clip0_8_7841)">
<g id="Group">
<g id="Group_2">
<path id="Vector" d="M23.9062 43.7344C25.6149 43.7344 27 42.3492 27 40.6406C27 38.932 25.6149 37.5469 23.9062 37.5469C22.1976 37.5469 20.8125 38.932 20.8125 40.6406C20.8125 42.3492 22.1976 43.7344 23.9062 43.7344Z" fill="#063C43"/>
</g>
</g>
<g id="Group_3">
<g id="Group_4">
<path id="Vector_2" d="M47.4966 14.5185C41.3345 7.90696 32.9901 4.26572 23.9996 4.26562C15.01 4.26572 6.66559 7.90696 0.503315 14.5185C-0.202622 15.276 -0.160903 16.4625 0.596596 17.1685C1.35419 17.8744 2.54059 17.8328 3.24662 17.0752C8.69161 11.2331 16.0618 8.01571 24.0003 8.01562C31.9381 8.01571 39.3083 11.2331 44.7533 17.0752C45.1226 17.4714 45.6233 17.6719 46.1254 17.6719C46.5831 17.6719 47.042 17.5052 47.4034 17.1685C48.1609 16.4624 48.2027 15.276 47.4966 14.5185Z" fill="#063C43"/>
</g>
</g>
<g id="Group_5">
<g id="Group_6">
<path id="Vector_3" d="M40.6121 22.2617C36.057 17.6722 30.1575 15.1448 24 15.145C17.8411 15.1451 11.9414 17.6726 7.38778 22.2619C6.65841 22.9969 6.663 24.1841 7.3981 24.9135C8.13319 25.6428 9.32034 25.6383 10.0497 24.9032C13.8939 21.0289 18.8482 18.8951 24 18.895C29.1504 18.8948 34.1047 21.0287 37.9503 24.9033C38.3169 25.2726 38.7989 25.4575 39.2812 25.4575C39.7586 25.4575 40.2363 25.2762 40.6021 24.9133C41.337 24.1838 41.3415 22.9967 40.6121 22.2617Z" fill="#063C43"/>
</g>
</g>
<g id="Group_7">
<g id="Group_8">
<path id="Vector_4" d="M33.1076 30.0274C30.6682 27.6106 27.1716 26.1094 23.9821 26.1094C23.9817 26.1094 23.9811 26.1094 23.9807 26.1094H23.8456C23.845 26.1094 23.8447 26.1094 23.8442 26.1094C20.6545 26.1094 17.1577 27.6107 14.7184 30.0274C13.9828 30.7562 13.9773 31.9433 14.7061 32.679C15.0728 33.049 15.5554 33.2344 16.0381 33.2344C16.515 33.2344 16.9921 33.0535 17.3576 32.6914C19.0942 30.9709 21.6401 29.8594 23.8444 29.8594C23.8447 29.8594 23.845 29.8594 23.8453 29.8594H23.981C23.9813 29.8594 23.9814 29.8594 23.9818 29.8594C26.1858 29.8594 28.7319 30.971 30.4683 32.6914C31.2038 33.4201 32.3912 33.4148 33.1199 32.679C33.8488 31.9434 33.8433 30.7562 33.1076 30.0274Z" fill="#063C43"/>
</g>
</g>
</g>
<defs>
<clipPath id="clip0_8_7841">
<rect width="48" height="48" fill="white"/>
</clipPath>
</defs>
</svg>
