<svg width="161" height="21" viewBox="0 0 161 21" fill="none" xmlns="http://www.w3.org/2000/svg">
<g id="Group 1000005859">
<path id="vector" d="M10.8374 11.8959C10.8374 12.4571 10.671 13.0057 10.3592 13.4723C10.0475 13.9389 9.60431 14.3026 9.08584 14.5174C8.56737 14.7321 7.99685 14.7883 7.44644 14.6788C6.89603 14.5694 6.39045 14.2991 5.99363 13.9023C5.59681 13.5055 5.32656 12.9999 5.21708 12.4495C5.1076 11.8991 5.16379 11.3286 5.37855 10.8101C5.59331 10.2916 5.95699 9.84846 6.4236 9.53668C6.89022 9.2249 7.43881 9.05849 8 9.05849C8.75253 9.05849 9.47425 9.35743 10.0064 9.88955C10.5385 10.4217 10.8374 11.1434 10.8374 11.8959ZM23.9929 9.05849C23.4317 9.05849 22.8831 9.2249 22.4165 9.53668C21.9499 9.84846 21.5862 10.2916 21.3715 10.8101C21.1567 11.3286 21.1005 11.8991 21.21 12.4495C21.3195 12.9999 21.5897 13.5055 21.9865 13.9023C22.3834 14.2991 22.8889 14.5694 23.4394 14.6788C23.9898 14.7883 24.5603 14.7321 25.0787 14.5174C25.5972 14.3026 26.0404 13.9389 26.3521 13.4723C26.6639 13.0057 26.8303 12.4571 26.8303 11.8959C26.8301 11.1438 26.5313 10.4225 25.9996 9.89062C25.4678 9.35871 24.7466 9.05969 23.9945 9.05927L23.9929 9.05849ZM31.9929 11.8959C31.9929 16.3117 28.4099 19.8916 23.9929 19.8916C21.9781 19.8949 20.0369 19.1344 18.5604 17.7635L16 20.5493L13.4384 17.7604C11.962 19.1328 10.0201 19.8944 8.00433 19.8916C3.59054 19.8916 0.00867 16.3117 0.00867 11.8959C0.007171 10.7835 0.238435 9.68307 0.6876 8.66536C1.13677 7.64764 1.79389 6.73516 2.61675 5.98657L0 3.13967H5.8136C8.81955 1.09397 12.3715 0 16.0075 0C19.6435 0 23.1954 1.09397 26.2014 3.13967H32L29.3836 5.98657C30.2068 6.73502 30.8642 7.64744 31.3137 8.66516C31.7631 9.68288 31.9946 10.7834 31.9933 11.8959H31.9929ZM13.4132 11.8959C13.4132 10.8257 13.0958 9.77945 12.5012 8.88956C11.9066 7.99968 11.0615 7.30611 10.0727 6.89656C9.08387 6.48701 7.99583 6.37987 6.94615 6.5887C5.89646 6.79752 4.93227 7.31293 4.17551 8.06975C3.41875 8.82656 2.90341 9.79079 2.69467 10.8405C2.48592 11.8902 2.59313 12.9782 3.00276 13.967C3.41238 14.9558 4.10601 15.8008 4.99594 16.3954C5.88586 16.9899 6.93211 17.3072 8.00236 17.3072C8.71299 17.3072 9.41667 17.1673 10.0732 16.8954C10.7298 16.6234 11.3263 16.2248 11.8288 15.7224C12.3313 15.2199 12.7299 14.6233 13.0018 13.9668C13.2737 13.3102 13.4136 12.6066 13.4136 11.8959H13.4132ZM22.0043 3.81711C20.1015 3.02431 18.0604 2.61614 15.999 2.61614C13.9376 2.61614 11.8966 3.02431 9.99369 3.81711C13.41 5.12469 16 8.17888 16 11.7399C16 8.17928 18.5896 5.12469 22.0047 3.8175L22.0043 3.81711ZM29.4053 11.8959C29.4053 10.8257 29.0879 9.77945 28.4933 8.88956C27.8987 7.99968 27.0536 7.30611 26.0648 6.89656C25.076 6.48701 23.988 6.37987 22.9383 6.5887C21.8886 6.79752 20.9244 7.31293 20.1676 8.06975C19.4109 8.82656 18.8955 9.79079 18.6868 10.8405C18.478 11.8902 18.5853 12.9782 18.9949 13.967C19.4045 14.9558 20.0981 15.8008 20.9881 16.3954C21.878 16.9899 22.9242 17.3072 23.9945 17.3072C25.4296 17.3072 26.806 16.737 27.8208 15.7222C28.8356 14.7074 29.4057 13.3311 29.4057 11.8959H29.4053Z" fill="#01654C"/>
<g id="Group 1000005858">
<circle id="Ellipse 11" cx="53.5" cy="10.5" r="7.5" fill="#01654C"/>
<circle id="Ellipse 12" cx="78.5" cy="10.5" r="7.5" fill="#01654C"/>
<circle id="Ellipse 13" cx="103.5" cy="10.5" r="7.5" fill="#01654C"/>
<circle id="Ellipse 14" cx="128.5" cy="10.5" r="7.5" fill="#01654C"/>
<circle id="Ellipse 15" cx="153.5" cy="10.5" r="7.335" fill="#01654C" stroke="#01654C" stroke-width="0.33"/>
<path id="Ellipse 16" d="M153.5 4C154.354 4 155.199 4.16813 155.987 4.49478C156.776 4.82144 157.493 5.30023 158.096 5.90381C158.7 6.50739 159.179 7.22394 159.505 8.01256C159.832 8.80117 160 9.64641 160 10.5C160 11.3536 159.832 12.1988 159.505 12.9874C159.179 13.7761 158.7 14.4926 158.096 15.0962C157.493 15.6998 156.776 16.1786 155.987 16.5052C155.199 16.8319 154.354 17 153.5 17L153.5 10.5L153.5 4Z" fill="white"/>
</g>
</g>
</svg>
