<svg width="32" height="32" viewBox="0 0 32 32" fill="none" xmlns="http://www.w3.org/2000/svg">
<g id="icon / ionicons / outline / person-outline">
<g id="Vector">
<path fill-rule="evenodd" clip-rule="evenodd" d="M16.0176 2C12.1212 2 9.22837 5.05876 9.52028 9.07254C9.78832 12.7541 12.6087 16 16.0176 16C19.4276 16 22.2422 12.7524 22.5149 9.07387C22.8072 5.12792 19.9204 2 16.0176 2ZM16.0176 4C13.2891 4 11.307 6.06628 11.515 8.92746C11.7283 11.8559 13.9266 14 16.0176 14C18.1077 14 20.3031 11.8563 20.5204 8.92606C20.7281 6.12205 18.7399 4 16.0176 4Z" fill="#01654C"/>
<path fill-rule="evenodd" clip-rule="evenodd" d="M3.0384 27.485C4.17669 21.1736 10.2786 18 16 18C21.7215 18 27.8233 21.1736 28.9623 27.4849C29.0647 28.0526 28.9652 28.6605 28.6285 29.1522C28.2764 29.6664 27.696 30 27 30H5.00003C4.30404 30 3.72386 29.6661 3.372 29.152C3.0355 28.6604 2.93599 28.0527 3.0384 27.485ZM16 20C10.8465 20 5.91087 22.8264 5.00665 27.84C4.99692 27.8939 4.99884 27.939 5.00511 27.9718C5.00729 27.9833 5.00987 27.9926 5.01237 28H26.9883C26.9908 27.9926 26.9934 27.9833 26.9956 27.9718C27.0018 27.939 27.0038 27.894 26.994 27.8401C26.0893 22.8264 21.1536 20 16 20Z" fill="#01654C"/>
</g>
</g>
</svg>
