<svg width="159" height="103" viewBox="0 0 159 103" fill="none" xmlns="http://www.w3.org/2000/svg">
<g id="Group 1000005888">
<g id="Group">
<path id="Vector" d="M123.4 35.4L123 33.9C122.8 32.9 122.5 31.9 122.2 30.9L121.8 29.4C121.7 28.9 121.5 28.4 121.4 27.9L120.9 26.4C120.7 25.9 120.6 25.4 120.4 24.9L120.1 24.1L118.4 23.3L115.4 21.9L112.4 20.5C111.9 20.3 111.4 20.1 110.9 19.8L109.4 19.2C109 19 108.7 18.9 108.3 18.8C107.6 17.8 106.9 16.8 106.2 15.8L104.9 13.9C104.5 13.3 104 12.7 103.6 12L103 11.2L80.7 0L76.6 2.3L74 4.2C73.1 4.8 72.3 5.4 71.4 6.1L68.8 8L67.5 9L63.6 9.7C63.1 9.8 62.6 9.9 62.2 10L60.8 10.2L57.9 10.8L55.5 11.3L54.3 12.6C53.8 13.1 53.3 13.8 52.8 14.4L51.2 16.2C50.7 16.8 50.1 17.4 49.6 18L49 18.7C48.6 18.8 48.3 18.8 47.9 18.9L46 19.2C45.4 19.3 44.8 19.4 44.1 19.5L42.2 19.9L41.9 20.4L39.7 22.3C39 22.9 38.2 23.6 37.5 24.2C36.8 24.9 36.1 25.5 35.3 26.2L33.2 28.2L31.1 30.2C30.4 30.9 29.7 31.6 29 32.3C28.3 33 27.6 33.7 27 34.5L26 35.6C25.7 36 24.3 37.4 24 37.7V39.4L35.1 31.2C36.7 30.2 38.3 32.5 39.9 31.5L44.6 28.4L51.9 28H52.1L52.3 27.8L59 21.2L70.3 19.6H70.5L70.8 19.4L76 15.7C77.6 14.5 79.2 13.4 80.8 12.2L98.8 19.8L104.6 26.6L104.7 26.7H104.9L111.2 25.1C113.2 25.7 123.7 39.3 123.7 39.3V36.9C123.6 36.4 123.5 35.9 123.4 35.4ZM67.7 16.3L60 15.7L53 20.1L58.9 13.3H67.1L78 7.3L67.7 16.3ZM105.5 22.8L104 19.7L100.5 13.7L106.5 20.7L112 22.5L105.5 22.8Z" fill="#01654C"/>
</g>
<g id="Group_2">
<g id="Group_3">
<path id="Vector_2" d="M4.9 87.7H4V85.2H0.8V87.7H0V82H0.8V84.5H4V82H4.8V87.7H4.9Z" fill="#01654C"/>
</g>
<g id="Group_4">
<path id="Vector_3" d="M12.4008 84.7999C12.4008 86.3999 11.1008 87.6999 9.30078 87.6999C7.50078 87.6999 6.30078 86.3999 6.30078 84.7999C6.30078 83.2999 7.40078 81.8999 9.30078 81.8999C11.3008 81.8999 12.4008 83.2999 12.4008 84.7999ZM7.20078 84.8999C7.20078 86.1999 8.20078 86.9999 9.40078 86.9999C10.0008 86.9999 10.7008 86.6999 11.1008 86.2999C11.5008 85.8999 11.7008 85.2999 11.7008 84.7999C11.7008 83.8999 11.0008 82.6999 9.50078 82.6999C7.80078 82.6999 7.20078 83.8999 7.20078 84.8999Z" fill="#01654C"/>
</g>
<g id="Group_5">
<path id="Vector_4" d="M17.8 82.7H15.8V87.7H15V82.7H13V82H17.8V82.7Z" fill="#01654C"/>
</g>
<g id="Group_6">
<path id="Vector_5" d="M22.1996 82.6999H19.7996V84.3999H22.1996V85.0999H19.8996V86.8999H22.3996V87.5999H19.0996V81.8999H22.1996V82.6999Z" fill="#01654C"/>
</g>
<g id="Group_7">
<path id="Vector_6" d="M24.6008 86.8999H27.2008V87.5999H23.8008V81.8999H24.6008V86.8999Z" fill="#01654C"/>
</g>
<g id="Group_8">
<path id="Vector_7" d="M31.8995 83.7998C32.4995 83.7998 32.8995 84.2998 32.8995 84.7998C32.8995 85.3998 32.3995 85.7998 31.8995 85.7998C31.2995 85.7998 30.8995 85.2998 30.8995 84.7998C30.7995 84.2998 31.2995 83.7998 31.8995 83.7998Z" fill="#01654C"/>
</g>
<g id="Group_9">
<path id="Vector_8" d="M42.0008 83.3C41.4008 83 40.7008 82.7 40.0008 82.7C38.6008 82.7 37.7008 83.7 37.7008 84.9C37.7008 86 38.5008 87 40.0008 87C40.7008 87 41.4008 86.8 42.0008 86.4V87.3C41.3008 87.7 40.7008 87.8 39.9008 87.8C37.8008 87.8 36.8008 86.2 36.8008 84.9C36.8008 83.3 38.1008 82 39.9008 82C40.8008 82 41.5008 82.3 41.9008 82.5V83.3H42.0008Z" fill="#01654C"/>
</g>
<g id="Group_10">
<path id="Vector_9" d="M49.2992 84.7999C49.2992 86.3999 47.9992 87.6999 46.1992 87.6999C44.3992 87.6999 43.1992 86.3999 43.1992 84.7999C43.1992 83.2999 44.2992 81.8999 46.1992 81.8999C48.0992 81.8999 49.2992 83.2999 49.2992 84.7999ZM43.9992 84.8999C43.9992 86.1999 44.9992 86.9999 46.1992 86.9999C46.7992 86.9999 47.4992 86.6999 47.8992 86.2999C48.2992 85.8999 48.4992 85.2999 48.4992 84.7999C48.4992 83.8999 47.7992 82.6999 46.2992 82.6999C44.5992 82.6999 43.9992 83.8999 43.9992 84.8999Z" fill="#01654C"/>
</g>
<g id="Group_11">
<path id="Vector_10" d="M55.9992 87.7H55.2992L51.4992 83.3V87.7H50.6992V82H51.3992L55.1992 86.4V82H55.9992V87.7Z" fill="#01654C"/>
</g>
<g id="Group_12">
<path id="Vector_11" d="M59.7 87.7H59.5L57 82H57.8L59.5 86L61.2 82H62L59.7 87.7Z" fill="#01654C"/>
</g>
<g id="Group_13">
<path id="Vector_12" d="M66.4992 82.6999H64.0992V84.3999H66.3992V85.0999H64.0992V86.8999H66.5992V87.5999H63.1992V81.8999H66.3992V82.6999H66.4992Z" fill="#01654C"/>
</g>
<g id="Group_14">
<path id="Vector_13" d="M73.3 87.7H72.6L68.8 83.3V87.7H68V82H68.7L72.5 86.4V82H73.3V87.7Z" fill="#01654C"/>
</g>
<g id="Group_15">
<path id="Vector_14" d="M79.2004 82.7H77.2004V87.7H76.4004V82.7H74.4004V82H79.2004V82.7Z" fill="#01654C"/>
</g>
<g id="Group_16">
<path id="Vector_15" d="M81.2004 87.7H80.4004V82H81.2004V87.7Z" fill="#01654C"/>
</g>
<g id="Group_17">
<path id="Vector_16" d="M88.7992 84.7999C88.7992 86.3999 87.4992 87.6999 85.6992 87.6999C83.8992 87.6999 82.6992 86.3999 82.6992 84.7999C82.6992 83.2999 83.7992 81.8999 85.6992 81.8999C87.5992 81.8999 88.7992 83.2999 88.7992 84.7999ZM83.4992 84.8999C83.4992 86.1999 84.4992 86.9999 85.6992 86.9999C86.2992 86.9999 86.9992 86.6999 87.3992 86.2999C87.7992 85.8999 87.9992 85.2999 87.9992 84.7999C87.9992 83.8999 87.2992 82.6999 85.7992 82.6999C84.1992 82.6999 83.4992 83.8999 83.4992 84.8999Z" fill="#01654C"/>
</g>
<g id="Group_18">
<path id="Vector_17" d="M95.6008 87.7H94.9008L91.1008 83.3V87.7H90.3008V82H91.0008L94.8008 86.4V82H95.6008V87.7Z" fill="#01654C"/>
</g>
<g id="Group_19">
<path id="Vector_18" d="M104.8 83.3C104.2 83 103.5 82.7 102.8 82.7C101.4 82.7 100.5 83.7 100.5 84.9C100.5 86 101.3 87 102.8 87C103.5 87 104.2 86.8 104.8 86.4V87.3C104.1 87.7 103.5 87.8 102.7 87.8C100.6 87.8 99.5996 86.2 99.5996 84.9C99.5996 83.3 100.9 82 102.7 82C103.6 82 104.3 82.3 104.7 82.5V83.3H104.8Z" fill="#01654C"/>
</g>
<g id="Group_20">
<path id="Vector_19" d="M109.6 82.6999H107.2V84.3999H109.5V85.0999H107.2V86.8999H109.7V87.5999H106.4V81.8999H109.6V82.6999Z" fill="#01654C"/>
</g>
<g id="Group_21">
<path id="Vector_20" d="M116.399 87.7H115.699L111.899 83.3V87.7H111.199V82H111.899L115.699 86.4V82H116.499V87.7H116.399Z" fill="#01654C"/>
</g>
<g id="Group_22">
<path id="Vector_21" d="M122.3 82.7H120.3V87.7H119.5V82.7H117.5V82H122.3V82.7Z" fill="#01654C"/>
</g>
<g id="Group_23">
<path id="Vector_22" d="M126.7 82.6999H124.3V84.3999H126.6V85.0999H124.3V86.8999H126.8V87.5999H123.5V81.8999H126.7V82.6999Z" fill="#01654C"/>
</g>
<g id="Group_24">
<path id="Vector_23" d="M129.701 82C130.001 82 130.301 82 130.701 82.2C131.301 82.5 131.601 83 131.601 83.6C131.601 84.3 131.301 84.8 130.601 85C131.101 85.3 131.401 85.9 131.901 86.6C132.101 87 132.301 87.2 132.701 87.7H131.701C131.501 87.4 130.701 86.2 130.501 85.9C129.901 85.2 129.701 85.2 129.301 85.2H129.101V87.7H128.301V82H129.701ZM129.101 82.7V84.5H129.401C129.501 84.5 130.001 84.5 130.201 84.4C130.601 84.2 130.701 83.9 130.701 83.6C130.701 83.3 130.501 83 130.301 82.8C130.101 82.7 129.801 82.7 129.301 82.7H129.101Z" fill="#01654C"/>
</g>
<g id="Group_25">
<path id="Vector_24" d="M141 87.6997H140L139.3 86.8997C138.9 87.1997 138.9 87.1997 138.8 87.2997C138.5 87.4997 137.9 87.7997 137.5 87.7997C136.8 87.7997 136.1 87.2997 136.1 86.4997C136.1 85.8997 136.4 85.3997 137.4 84.7997C137.2 84.5997 136.8 84.0997 136.8 83.4997C136.8 82.8997 137.2 82.1997 138.2 82.1997C139.2 82.1997 139.6 82.8997 139.6 83.4997C139.6 84.2997 138.9 84.7997 138.5 84.9997L139.3 85.8997C139.4 85.7997 139.6 85.4997 139.9 84.9997H140.7C140.4 85.6997 140 86.1997 139.8 86.4997L141 87.6997ZM138.8 86.2997L137.9 85.1997L137.5 85.4997C137.1 85.6997 136.9 85.9997 136.9 86.3997C136.9 86.6997 137.2 86.9997 137.6 86.9997C138 86.9997 138.4 86.7997 138.6 86.4997L138.8 86.2997ZM138.9 83.3997C138.9 83.0997 138.6 82.7997 138.3 82.7997C137.9 82.7997 137.7 82.9997 137.7 83.2997C137.7 83.7997 138.2 84.1997 138.2 84.2997C138.6 83.9997 138.9 83.6997 138.9 83.3997Z" fill="#01654C"/>
</g>
<g id="Group_26">
<path id="Vector_25" d="M147.6 83.1998C147.1 82.6998 146.6 82.5998 146.3 82.5998C145.7 82.5998 145.4 82.8998 145.4 83.2998C145.4 83.7998 145.7 83.9998 146.8 84.5998C147 84.6998 147.3 84.8998 147.5 85.1998C147.7 85.3998 147.8 85.6998 147.8 86.0998C147.8 86.9998 147.2 87.6998 146.1 87.6998C145.5 87.6998 145 87.4998 144.6 87.1998V86.1998C144.8 86.3998 145.3 86.9998 146.1 86.9998C146.5 86.9998 147 86.6998 147 86.1998C147 85.6998 146.5 85.3998 146.2 85.1998C145.3 84.6998 145 84.4998 144.8 84.1998C144.6 83.9998 144.5 83.6998 144.5 83.2998C144.5 82.3998 145.2 81.7998 146.2 81.7998C146.7 81.7998 147.1 81.8998 147.5 82.1998V83.1998H147.6Z" fill="#01654C"/>
</g>
<g id="Group_27">
<path id="Vector_26" d="M150.699 82C151.399 82 151.899 82 152.399 82.5C152.599 82.8 152.799 83.1 152.799 83.6C152.799 83.9 152.699 84.3 152.299 84.8C151.899 85.1 151.499 85.3 150.599 85.3H149.999V87.8H149.199V82.1H150.699V82ZM149.999 82.7V84.5H150.699C150.999 84.5 151.399 84.5 151.599 84.3C151.799 84.2 151.999 83.9 151.999 83.5C151.999 83.3 151.899 83 151.799 82.9C151.499 82.7 151.299 82.7 150.699 82.7H149.999Z" fill="#01654C"/>
</g>
<g id="Group_28">
<path id="Vector_27" d="M158.4 87.7H157.6L156.8 86H154.4L153.7 87.7H152.9L155.3 82H155.9L158.4 87.7ZM156.5 85.3L155.6 83.2L154.7 85.3H156.5Z" fill="#01654C"/>
</g>
</g>
<g id="Group_29">
<path id="Vector_28" d="M8.6 70.7C8.6 71.7 8.7 72.4 9 72.6C9.3 72.9 10.1 73 11.5 73V76.8H0V73C1.4 73 2.3 72.9 2.5 72.6C2.8 72.3 2.9 71.7 2.9 70.7V49.2C2.9 48.2 2.8 47.5 2.5 47.3C2.2 47 1.4 46.9 0 46.9V43.1H11.6V46.9C10.2 46.9 9.4 47 9.1 47.3C8.8 47.6 8.7 48.2 8.7 49.2V70.7H8.6ZM23.3 70.8C23.9 71.8 24.4 72.4 24.8 72.6C25.2 72.8 26 73 27 73V76.8H20.2L10 60.6V58.8L20.3 43H26.7V46.8C25.6 46.8 24.9 46.9 24.6 47.1C24.2 47.4 23.7 48 23.2 48.9L15.9 59.6L23.3 70.8Z" fill="white"/>
</g>
<g id="Group_30">
<path id="Vector_29" d="M47.8 70.6999C47.8 71.6999 47.9 72.3999 48.2 72.5999C48.4 72.8999 49.2 72.9999 50.4 72.9999V76.7999H42.7L42.5 73.6999L39.8 75.9999C38.6 76.7999 37.2 77.1999 35.5 77.1999C33.6 77.1999 32 76.5999 30.8 75.4999C29.6 74.3999 29 72.9999 29 71.1999C29 67.6999 31.2 65.4999 35.5 64.6999L42.4 63.1999V60.8999C42.4 57.9999 40.9 56.5999 37.9 56.5999C35.6 56.5999 33.2 57.0999 30.9 57.9999L30.6 57.7999L32 53.9999C34.5 53.2999 36.8 52.8999 39.1 52.8999C41.7 52.8999 43.8 53.4999 45.4 54.5999C47 55.7999 47.8 57.3999 47.8 59.3999V70.6999ZM37.6 67.1999C36.5 67.4999 35.8 67.8999 35.3 68.2999C34.8 68.6999 34.6 69.3999 34.6 70.2999C34.6 71.1999 34.9 71.9999 35.5 72.4999C36.1 72.9999 36.8 73.2999 37.7 73.2999C39.4 73.2999 41 72.4999 42.5 70.9999V65.7999L37.6 67.1999Z" fill="white"/>
</g>
<g id="Group_31">
<path id="Vector_30" d="M62.7996 54.2999C63.9996 53.3999 65.3996 52.8999 66.7996 52.8999C67.5996 52.8999 68.4996 52.9999 69.3996 53.2999L67.6996 57.9999C66.9996 57.7999 66.3996 57.6999 65.5996 57.6999C63.6996 57.6999 62.0996 58.4999 60.5996 59.9999V70.5999C60.5996 71.5999 60.7996 72.2999 61.0996 72.4999C61.4996 72.7999 62.4996 72.8999 64.2996 72.8999V76.6999H52.5996V72.8999C53.7996 72.8999 54.5996 72.7999 54.8996 72.4999C55.1996 72.1999 55.2996 71.5999 55.2996 70.5999V59.4999C55.2996 58.4999 55.1996 57.8999 54.8996 57.5999C54.5996 57.2999 53.8996 57.1999 52.5996 57.1999V53.3999H60.2996L60.4996 57.4999H60.5996L62.7996 54.2999Z" fill="white"/>
</g>
<g id="Group_32">
<path id="Vector_31" d="M79 70.6998C79 71.6998 79.1 72.2998 79.4 72.5998C79.7 72.8998 80.4 72.9998 81.7 72.9998V76.7998H71V72.9998C72.2 72.9998 73 72.8998 73.2 72.5998C73.4 72.2998 73.6 71.6998 73.6 70.6998V59.4998C73.6 58.4998 73.5 57.7998 73.2 57.5998C73 57.2998 72.2 57.1998 71 57.1998V53.3998H79V70.6998ZM73.7 45.0998C74.3 44.5998 75 44.2998 75.9 44.2998C76.8 44.2998 77.5 44.5998 78.1 45.0998C78.7 45.5998 79 46.2998 79 47.0998C79 47.8998 78.7 48.5998 78.1 49.0998C77.5 49.5998 76.8 49.8998 75.9 49.8998C75 49.8998 74.2 49.5998 73.7 49.0998C73.1 48.5998 72.9 47.8998 72.9 47.0998C72.8 46.3998 73.1 45.6998 73.7 45.0998Z" fill="white"/>
</g>
<g id="Group_33">
<path id="Vector_32" d="M105.7 70.6999C105.7 71.6999 105.8 72.3999 106.1 72.5999C106.3 72.8999 107.1 72.9999 108.3 72.9999V76.7999H100.4V60.6999C100.4 58.3999 99.3004 57.1999 97.0004 57.1999C95.4004 57.1999 93.7004 57.7999 91.9004 58.9999V70.6999C91.9004 71.6999 92.0004 72.2999 92.3004 72.5999C92.6004 72.8999 93.3004 72.9999 94.6004 72.9999V76.7999H83.9004V72.9999C85.1004 72.9999 85.9004 72.8999 86.2004 72.5999C86.5004 72.2999 86.6004 71.6999 86.6004 70.6999V59.4999C86.6004 58.4999 86.5004 57.8999 86.2004 57.5999C85.9004 57.2999 85.2004 57.1999 83.9004 57.1999V53.3999H91.6004L91.8004 56.4999H91.9004L94.2004 54.1999C95.8004 53.2999 97.4004 52.8999 99.1004 52.8999C101.1 52.8999 102.7 53.4999 103.9 54.5999C105.1 55.7999 105.7 57.3999 105.7 59.5999V70.6999Z" fill="white"/>
</g>
<g id="Group_34">
<path id="Vector_33" d="M132.4 70.6999C132.4 71.6999 132.5 72.3999 132.8 72.5999C133 72.8999 133.8 72.9999 135 72.9999V76.7999H127V60.6999C127 58.3999 125.9 57.1999 123.6 57.1999C122 57.1999 120.3 57.7999 118.5 58.9999V70.6999C118.5 71.6999 118.6 72.2999 118.9 72.5999C119.2 72.8999 119.9 72.9999 121.2 72.9999V76.7999H110.6V72.9999C111.8 72.9999 112.6 72.8999 112.9 72.5999C113.2 72.2999 113.3 71.6999 113.3 70.6999V59.4999C113.3 58.4999 113.2 57.8999 112.9 57.5999C112.6 57.2999 111.9 57.1999 110.6 57.1999V53.3999H118.3L118.5 56.4999H118.6L120.9 54.1999C122.5 53.2999 124.1 52.8999 125.8 52.8999C127.8 52.8999 129.4 53.4999 130.6 54.5999C131.8 55.7999 132.4 57.3999 132.4 59.5999V70.6999Z" fill="white"/>
</g>
<g id="Group_35">
<path id="Vector_34" d="M155.8 70.6999C155.8 71.6999 155.9 72.3999 156.2 72.5999C156.4 72.8999 157.2 72.9999 158.4 72.9999V76.7999H150.7L150.5 73.6999L147.8 75.9999C146.6 76.7999 145.2 77.1999 143.5 77.1999C141.6 77.1999 140 76.5999 138.8 75.4999C137.6 74.3999 137 72.9999 137 71.1999C137 67.6999 139.2 65.4999 143.5 64.6999L150.4 63.1999V60.8999C150.4 57.9999 148.9 56.5999 145.9 56.5999C143.6 56.5999 141.2 57.0999 138.9 57.9999L138.6 57.7999L140 53.9999C142.5 53.2999 144.8 52.8999 147.1 52.8999C149.7 52.8999 151.8 53.4999 153.4 54.5999C155 55.7999 155.8 57.3999 155.8 59.3999V70.6999ZM145.5 67.1999C144.4 67.4999 143.7 67.8999 143.2 68.2999C142.7 68.6999 142.5 69.3999 142.5 70.2999C142.5 71.1999 142.8 71.9999 143.4 72.4999C144 72.9999 144.7 73.2999 145.6 73.2999C147.3 73.2999 148.9 72.4999 150.4 70.9999V65.7999L145.5 67.1999Z" fill="white"/>
</g>
<g id="Group_36">
<g id="Group_37">
<path id="Vector_35" d="M52.9 99.7001C52.9 100.3 52.9 101.2 52.2 101.8C51.6 102.3 50.9 102.5 50.2 102.5C49.3 102.5 48.3 102.2 47.8 101.4C47.5 100.8 47.5 100.1 47.5 99.7001V96.1001H48.4V99.7001C48.4 100.5 48.5 100.8 48.8 101.2C49.1 101.5 49.5 101.7 50.2 101.7C51.2 101.7 51.7 101.2 51.8 100.9C51.9 100.7 52 100.3 52 99.7001V96.1001H52.9V99.7001Z" fill="white"/>
</g>
<g id="Group_38">
<path id="Vector_36" d="M60.8004 101.6H63.6004V102.4H59.9004V96.1001H60.8004V101.6Z" fill="white"/>
</g>
<g id="Group_39">
<path id="Vector_37" d="M74.9996 99.7001C74.9996 100.3 74.9996 101.2 74.2996 101.8C73.6996 102.3 72.9996 102.5 72.2996 102.5C71.3996 102.5 70.3996 102.2 69.8996 101.4C69.5996 100.8 69.5996 100.1 69.5996 99.7001V96.1001H70.4996V99.7001C70.4996 100.5 70.5996 100.8 70.8996 101.2C71.1996 101.5 71.5996 101.7 72.2996 101.7C73.2996 101.7 73.7996 101.2 73.8996 100.9C73.9996 100.7 74.0996 100.3 74.0996 99.7001V96.1001H74.9996V99.7001Z" fill="white"/>
</g>
<g id="Group_40">
<path id="Vector_38" d="M84.0008 96.1001C84.6008 96.1001 85.6008 96.1001 86.4008 96.7001C87.1008 97.2001 87.6008 98.1001 87.6008 99.2001C87.6008 100.8 86.5008 101.6 86.1008 101.9C85.3008 102.4 84.5008 102.4 83.8008 102.4H81.8008V96.1001H84.0008ZM82.8008 96.9001V101.6H84.0008C84.5008 101.6 85.2008 101.6 85.7008 101.2C86.3008 100.8 86.7008 100 86.7008 99.2001C86.7008 98.4001 86.4008 97.6001 85.4008 97.1001C84.9008 96.9001 84.5008 96.9001 83.9008 96.9001H82.8008Z" fill="white"/>
</g>
<g id="Group_41">
<path id="Vector_39" d="M99.5004 102.4H98.6004L97.8004 100.6H95.1004L94.3004 102.4H93.4004L96.1004 96.1001H96.7004L99.5004 102.4ZM97.3004 99.7001L96.3004 97.4001L95.4004 99.7001H97.3004Z" fill="white"/>
</g>
<g id="Group_42">
<path id="Vector_40" d="M110.8 102C110.3 102.2 109.5 102.5 108.5 102.5C106.1 102.5 105.1 100.8 105.1 99.2999C105.1 97.5999 106.3 95.9999 108.5 95.9999C109.4 95.9999 110 96.1999 110.7 96.4999V97.3999C109.7 96.7999 108.8 96.6999 108.5 96.6999C107.2 96.6999 106.1 97.5999 106.1 99.0999C106.1 100.5 107.1 101.5 108.6 101.5C109.1 101.5 109.4 101.4 110 101.2V99.8999H108.8V99.0999H110.9V102H110.8ZM107.5 94.3999C107.6 94.6999 107.8 94.9999 108.3 94.9999C108.9 94.9999 109 94.6999 109.1 94.3999H109.8C109.6 95.3999 108.9 95.6999 108.3 95.6999C107.8 95.6999 106.9 95.2999 106.8 94.3999H107.5Z" fill="white"/>
</g>
</g>
<g id="Group_43">
<path id="Vector_41" d="M44 98.8999H0V99.3999H44V98.8999Z" fill="white"/>
</g>
<g id="Group_44">
<path id="Vector_42" d="M158.4 99H114.4V99.5H158.4V99Z" fill="white"/>
</g>
</g>
</svg>
