<svg width="159" height="103" viewBox="0 0 159 103" fill="none" xmlns="http://www.w3.org/2000/svg">
<g id="Group 1000005887">
<path id="Vector" d="M123.136 34.0291L122.735 32.5872C122.536 31.6259 122.235 30.6647 121.935 29.7034L121.535 28.2615C121.435 27.7808 121.236 27.3002 121.135 26.8195L120.636 25.3777C120.436 24.897 120.335 24.4164 120.136 23.9357L119.836 23.1667L118.135 22.3977L115.135 21.0519L112.135 19.7062C111.635 19.5138 111.135 19.3216 110.636 19.0333L109.135 18.4565C108.736 18.2642 108.435 18.168 108.035 18.072C107.335 17.1107 106.635 16.1494 105.935 15.1881L104.635 13.3617C104.235 12.785 103.735 12.2081 103.336 11.5352L102.735 10.7663L80.435 0L76.3349 2.21093L73.7349 4.03735C72.8349 4.61412 72.0348 5.19088 71.1349 5.86377L68.5348 7.6902L67.2348 8.65147L63.3347 9.32436C62.8348 9.42047 62.3348 9.51663 61.9348 9.61278L60.5347 9.805L57.6347 10.3817L55.2347 10.8624L54.0347 12.1121C53.5346 12.5927 53.0347 13.2656 52.5346 13.8423L50.9346 15.5727C50.4347 16.1494 49.8347 16.7262 49.3346 17.3029L48.7346 17.9758C48.3346 18.072 48.0346 18.072 47.6346 18.168L45.7346 18.4565C45.1346 18.5526 44.5346 18.6487 43.8346 18.7449L41.9346 19.1293L41.6345 19.61L39.4345 21.4364C38.7345 22.0131 37.9345 22.6861 37.2345 23.2628C36.5345 23.9357 35.8345 24.5125 35.0345 25.1854L32.9345 27.1079L30.8344 29.0305C30.1344 29.7034 29.4345 30.3763 28.7344 31.0492C28.0344 31.7221 27.3344 32.3949 26.7344 33.164L25.7344 34.2214C25.4344 34.6058 24.0344 35.9516 23.7344 36.24V37.8742L34.8345 29.9917C36.4345 29.0305 38.0345 31.2414 39.6346 30.2801L44.3345 27.3002L51.6346 26.9157H51.8346L52.0347 26.7234L58.7348 20.379L70.0348 18.8409H70.2348L70.5349 18.6487L75.7349 15.092C77.3349 13.9385 78.9349 12.8811 80.5349 11.7276L98.5351 19.0333L104.335 25.5699L104.436 25.666H104.635L110.936 24.128C112.935 24.7048 123.435 37.778 123.435 37.778V35.471C123.335 34.9904 123.235 34.5098 123.136 34.0291ZM67.4348 15.6687L59.7347 15.092L52.7347 19.3216L58.6347 12.785H66.8348L77.7349 7.0173L67.4348 15.6687ZM105.236 21.9171L103.735 18.9371L100.235 13.1694L106.235 19.8984L111.736 21.6287L105.236 21.9171Z" fill="#01654C"/>
<path id="Vector_2" d="M9.00047 68.2089C9.00047 69.1701 9.10047 69.843 9.40048 70.0353C9.70048 70.3236 10.5005 70.4198 11.9005 70.4198V74.0727H0.400391V70.4198C1.8004 70.4198 2.70041 70.3236 2.90042 70.0353C3.20042 69.7469 3.30042 69.1701 3.30042 68.2089V47.5415C3.30042 46.5802 3.20042 45.9073 2.90042 45.715C2.60041 45.4267 1.8004 45.3306 0.400391 45.3306V41.6777H12.0005V45.3306C10.6005 45.3306 9.80048 45.4267 9.50048 45.715C9.20047 46.0034 9.10047 46.5802 9.10047 47.5415V68.2089H9.00047ZM23.7006 68.305C24.3006 69.2663 24.8006 69.843 25.2007 70.0353C25.6006 70.2276 26.4007 70.4198 27.4007 70.4198V74.0727H20.6006L10.4005 58.5V56.7697L20.7006 41.5815H27.1007V45.2344C26.0006 45.2344 25.3006 45.3306 25.0006 45.5228C24.6006 45.8112 24.1006 46.3879 23.6006 47.2531L16.3006 57.5387L23.7006 68.305Z" fill="white"/>
<path id="Vector_3" d="M48.6243 67.8197C48.6243 68.781 48.7244 69.4539 49.0243 69.6461C49.2244 69.9345 50.0244 70.0306 51.2243 70.0306V73.6834H43.5243L43.3243 70.7035L40.6243 72.9144C39.4242 73.6834 38.0243 74.0679 36.3243 74.0679C34.4243 74.0679 32.8242 73.4912 31.6242 72.4338C30.4242 71.3764 29.8242 70.0306 29.8242 68.3003C29.8242 64.9358 32.0242 62.8211 36.3243 62.052L43.2243 60.6101V58.3992C43.2243 55.6115 41.7243 54.2657 38.7243 54.2657C36.4242 54.2657 34.0242 54.7463 31.7242 55.6115L31.4242 55.4192L32.8242 51.7664C35.3242 51.0935 37.6243 50.709 39.9243 50.709C42.5243 50.709 44.6244 51.2857 46.2244 52.3432C47.8244 53.4967 48.6243 55.0347 48.6243 56.9572V67.8197ZM38.4242 64.4553C37.3243 64.7436 36.6243 65.1281 36.1242 65.5126C35.6242 65.8971 35.4243 66.57 35.4243 67.4352C35.4243 68.3003 35.7243 69.0693 36.3243 69.5499C36.9242 70.0306 37.6243 70.319 38.5243 70.319C40.2243 70.319 41.8243 69.5499 43.3243 68.1081V63.1094L38.4242 64.4553Z" fill="white"/>
<path id="Vector_4" d="M63.3583 52.0548C64.5584 51.1897 65.9584 50.709 67.3584 50.709C68.1584 50.709 69.0584 50.8051 69.9584 51.0935L68.2584 55.6115C67.5584 55.4192 66.9583 55.3231 66.1584 55.3231C64.2584 55.3231 62.6584 56.0921 61.1583 57.534V67.7235C61.1583 68.6848 61.3584 69.3577 61.6584 69.5499C62.0583 69.8384 63.0583 69.9345 64.8584 69.9345V73.5873H53.1582V69.9345C54.3583 69.9345 55.1582 69.8384 55.4582 69.5499C55.7583 69.2615 55.8583 68.6848 55.8583 67.7235V57.0534C55.8583 56.0921 55.7583 55.5154 55.4582 55.227C55.1582 54.9386 54.4583 54.8425 53.1582 54.8425V51.1897H60.8583L61.0583 55.1308H61.1583L63.3583 52.0548Z" fill="white"/>
<path id="Vector_5" d="M79.4199 67.9733C79.4199 68.9345 79.52 69.5113 79.82 69.7997C80.12 70.0881 80.82 70.1842 82.12 70.1842V73.8371H71.4199V70.1842C72.6199 70.1842 73.4199 70.0881 73.6199 69.7997C73.8199 69.5113 74.0199 68.9345 74.0199 67.9733V57.207C74.0199 56.2457 73.9199 55.5728 73.6199 55.3806C73.4199 55.0922 72.6199 54.9961 71.4199 54.9961V51.3433H79.4199V67.9733ZM74.1199 43.3647C74.72 42.8841 75.42 42.5957 76.32 42.5957C77.2199 42.5957 77.92 42.8841 78.5199 43.3647C79.1199 43.8454 79.4199 44.5182 79.4199 45.2872C79.4199 46.0563 79.1199 46.7291 78.5199 47.2098C77.92 47.6904 77.2199 47.9787 76.32 47.9787C75.42 47.9787 74.6199 47.6904 74.1199 47.2098C73.5199 46.7291 73.3199 46.0563 73.3199 45.2872C73.2199 44.6143 73.5199 43.9414 74.1199 43.3647Z" fill="white"/>
<path id="Vector_6" d="M106.41 67.8197C106.41 68.781 106.509 69.4539 106.809 69.6461C107.009 69.9345 107.809 70.0306 109.01 70.0306V73.6834H101.109V58.2069C101.109 55.996 100.009 54.8425 97.7095 54.8425C96.1095 54.8425 94.4095 55.4192 92.6095 56.5728V67.8197C92.6095 68.781 92.7095 69.3577 93.0095 69.6461C93.3095 69.9345 94.0095 70.0306 95.3095 70.0306V73.6834H84.6094V70.0306C85.8095 70.0306 86.6094 69.9345 86.9094 69.6461C87.2094 69.3577 87.3094 68.781 87.3094 67.8197V57.0534C87.3094 56.0921 87.2094 55.5154 86.9094 55.227C86.6094 54.9386 85.9094 54.8425 84.6094 54.8425V51.1897H92.3095L92.5095 54.1696H92.6095L94.9095 51.9586C96.5095 51.0935 98.1095 50.709 99.8099 50.709C101.81 50.709 103.41 51.2857 104.609 52.3432C105.81 53.4967 106.41 55.0347 106.41 57.1496V67.8197Z" fill="white"/>
<path id="Vector_7" d="M132.789 67.8197C132.789 68.781 132.889 69.4539 133.188 69.6461C133.389 69.9345 134.189 70.0306 135.388 70.0306V73.6834H127.389V58.2069C127.389 55.996 126.289 54.8425 123.988 54.8425C122.388 54.8425 120.689 55.4192 118.888 56.5728V67.8197C118.888 68.781 118.989 69.3577 119.289 69.6461C119.589 69.9345 120.289 70.0306 121.588 70.0306V73.6834H110.988V70.0306C112.189 70.0306 112.989 69.9345 113.289 69.6461C113.589 69.3577 113.688 68.781 113.688 67.8197V57.0534C113.688 56.0921 113.589 55.5154 113.289 55.227C112.989 54.9386 112.288 54.8425 110.988 54.8425V51.1897H118.689L118.888 54.1696H118.989L121.288 51.9586C122.888 51.0935 124.489 50.709 126.188 50.709C128.189 50.709 129.789 51.2857 130.989 52.3432C132.189 53.4967 132.789 55.0347 132.789 57.1496V67.8197Z" fill="white"/>
<path id="Vector_8" d="M156.167 67.8197C156.167 68.781 156.268 69.4539 156.567 69.6461C156.768 69.9345 157.568 70.0306 158.767 70.0306V73.6834H151.068L150.867 70.7035L148.167 72.9144C146.967 73.6834 145.567 74.0679 143.867 74.0679C141.967 74.0679 140.367 73.4912 139.168 72.4338C137.967 71.3764 137.367 70.0306 137.367 68.3003C137.367 64.9358 139.567 62.8211 143.867 62.052L150.767 60.6101V58.3992C150.767 55.6115 149.267 54.2657 146.267 54.2657C143.967 54.2657 141.567 54.7463 139.267 55.6115L138.967 55.4192L140.367 51.7664C142.867 51.0935 145.167 50.709 147.467 50.709C150.067 50.709 152.168 51.2857 153.768 52.3432C155.367 53.4967 156.167 55.0347 156.167 56.9572V67.8197ZM145.867 64.4553C144.767 64.7436 144.067 65.1281 143.567 65.5126C143.067 65.8971 142.867 66.57 142.867 67.4352C142.867 68.3003 143.167 69.0693 143.768 69.5499C144.367 70.0306 145.067 70.319 145.967 70.319C147.667 70.319 149.267 69.5499 150.767 68.1081V63.1094L145.867 64.4553Z" fill="white"/>
<path id="Vector_9" d="M53.3023 99.808C53.3023 100.385 53.3023 101.25 52.6023 101.827C52.0023 102.308 51.3023 102.5 50.6023 102.5C49.7023 102.5 48.7023 102.212 48.2023 101.443C47.9023 100.865 47.9023 100.193 47.9023 99.808V96.3477H48.8023V99.808C48.8023 100.577 48.9024 100.865 49.2024 101.25C49.5023 101.539 49.9024 101.731 50.6023 101.731C51.6023 101.731 52.1024 101.25 52.2024 100.962C52.3023 100.77 52.4024 100.385 52.4024 99.808V96.3477H53.3023V99.808Z" fill="white"/>
<path id="Vector_10" d="M61.2027 101.24H64.0028V102.009H60.3027V95.9531H61.2027V101.24Z" fill="white"/>
<path id="Vector_11" d="M75.398 99.4134C75.398 99.9909 75.398 100.856 74.698 101.432C74.098 101.913 73.398 102.106 72.6981 102.106C71.798 102.106 70.798 101.817 70.298 101.048C69.998 100.471 69.998 99.7984 69.998 99.4134V95.9531H70.898V99.4134C70.898 100.182 70.9981 100.471 71.2981 100.856C71.598 101.144 71.9981 101.337 72.6981 101.337C73.6981 101.337 74.1981 100.856 74.2981 100.567C74.398 100.375 74.4981 99.9909 74.4981 99.4134V95.9531H75.398V99.4134Z" fill="white"/>
<path id="Vector_12" d="M84.4013 95.9531C85.0012 95.9531 86.0013 95.9531 86.8012 96.5297C87.5012 97.0105 88.0013 97.8762 88.0013 98.9336C88.0013 100.471 86.9012 101.24 86.5012 101.529C85.7013 102.009 84.9012 102.009 84.2012 102.009H82.2012V95.9531H84.4013ZM83.2012 96.7222V101.24H84.4013C84.9012 101.24 85.6012 101.24 86.1012 100.856C86.7012 100.471 87.1012 99.7026 87.1012 98.9336C87.1012 98.1645 86.8012 97.3955 85.8012 96.9147C85.3012 96.7222 84.9012 96.7222 84.3012 96.7222H83.2012Z" fill="white"/>
<path id="Vector_13" d="M99.903 102.009H99.0033L98.2032 100.279H95.5028L94.7027 102.009H93.8027L96.5028 95.9531H97.1028L99.903 102.009ZM97.7028 99.4134L96.7027 97.203L95.8028 99.4134H97.7028Z" fill="white"/>
<path id="Vector_14" d="M111.202 101.625C110.702 101.818 109.902 102.106 108.901 102.106C106.502 102.106 105.502 100.472 105.502 99.0296C105.502 97.3957 106.702 95.8575 108.901 95.8575C109.802 95.8575 110.402 96.0501 111.102 96.3383V97.2032C110.102 96.6266 109.202 96.5299 108.901 96.5299C107.602 96.5299 106.502 97.3957 106.502 98.8371C106.502 100.183 107.502 101.144 109.002 101.144C109.502 101.144 109.802 101.048 110.402 100.856V99.6061H109.202V98.8371H111.302V101.625H111.202ZM107.902 94.3193C108.002 94.6077 108.202 94.896 108.702 94.896C109.302 94.896 109.402 94.6077 109.502 94.3193H110.202C110.001 95.281 109.302 95.5693 108.702 95.5693C108.202 95.5693 107.301 95.1843 107.202 94.3193H107.902Z" fill="white"/>
<path id="Vector_15" d="M44.4008 99.3901H0.400391V99.87H44.4008V99.3901Z" fill="white"/>
<path id="Vector_16" d="M158.8 99.3901H114.799V99.87H158.8V99.3901Z" fill="white"/>
<g id="ORMAN EVLER&#196;&#176;">
<path d="M25.0566 83.3414C25.0566 84.1869 24.8968 84.9176 24.5772 85.5335C24.2576 86.1494 23.8191 86.6244 23.2619 86.9584C22.7046 87.2924 22.0682 87.4595 21.3525 87.4595C20.6368 87.4595 20.0003 87.2924 19.4431 86.9584C18.8859 86.6244 18.4474 86.1494 18.1278 85.5335C17.8082 84.9176 17.6484 84.1869 17.6484 83.3414C17.6484 82.4958 17.8082 81.7651 18.1278 81.1492C18.4474 80.5334 18.8859 80.0584 19.4431 79.7243C20.0003 79.3903 20.6368 79.2233 21.3525 79.2233C22.0682 79.2233 22.7046 79.3903 23.2619 79.7243C23.8191 80.0584 24.2576 80.5334 24.5772 81.1492C24.8968 81.7651 25.0566 82.4958 25.0566 83.3414ZM24.0732 83.3414C24.0732 82.6472 23.9516 82.0613 23.7085 81.5837C23.4681 81.1062 23.1417 80.7447 22.7292 80.4994C22.3195 80.2541 21.8606 80.1315 21.3525 80.1315C20.8444 80.1315 20.3841 80.2541 19.9717 80.4994C19.5619 80.7447 19.2355 81.1062 18.9924 81.5837C18.752 82.0613 18.6318 82.6472 18.6318 83.3414C18.6318 84.0355 18.752 84.6214 18.9924 85.099C19.2355 85.5766 19.5619 85.938 19.9717 86.1833C20.3841 86.4286 20.8444 86.5513 21.3525 86.5513C21.8606 86.5513 22.3195 86.4286 22.7292 86.1833C23.1417 85.938 23.4681 85.5766 23.7085 85.099C23.9516 84.6214 24.0732 84.0355 24.0732 83.3414Z" fill="#01654C"/>
<path d="M30.5728 87.3499V79.3329H33.4082C34.0638 79.3329 34.6019 79.4399 35.0226 79.6539C35.4433 79.8653 35.7547 80.1563 35.9568 80.5268C36.1589 80.8974 36.26 81.3189 36.26 81.7912C36.26 82.2636 36.1589 82.6824 35.9568 83.0478C35.7547 83.4131 35.4446 83.7002 35.0267 83.909C34.6088 84.1151 34.0747 84.2182 33.4246 84.2182H31.1301V83.3414H33.3918C33.8398 83.3414 34.2004 83.2787 34.4735 83.1535C34.7494 83.0282 34.9488 82.8508 35.0718 82.6211C35.1974 82.3888 35.2602 82.1122 35.2602 81.7912C35.2602 81.4702 35.1974 81.1897 35.0718 80.9496C34.9461 80.7095 34.7453 80.5242 34.4694 80.3937C34.1936 80.2606 33.8289 80.1941 33.3754 80.1941H31.589V87.3499H30.5728ZM34.5227 83.7485L36.5878 87.3499H35.4077L33.3754 83.7485H34.5227Z" fill="#01654C"/>
<path d="M41.7609 79.3329H42.9737L45.8255 85.9876H45.9239L48.7757 79.3329H49.9885V87.3499H49.0379V81.2588H48.9559L46.3336 87.3499H45.4158L42.7934 81.2588H42.7115V87.3499H41.7609V79.3329Z" fill="#01654C"/>
<path d="M56.1778 87.3499H55.1124L58.1937 79.3329H59.2426L62.3239 87.3499H61.2585L58.7509 80.6012H58.6854L56.1778 87.3499ZM56.5711 84.2182H60.8652V85.0794H56.5711V84.2182Z" fill="#01654C"/>
<path d="M74.0928 79.3329V87.3499H73.1094L68.5367 81.0553H68.4547V87.3499H67.4386V79.3329H68.422L73.0111 85.6431H73.093V79.3329H74.0928Z" fill="#01654C"/>
<path d="M86.9865 87.3499V79.3329H92.0509V80.1941H88.0027V82.9029H91.7887V83.7641H88.0027V86.4887H92.1165V87.3499H86.9865Z" fill="#01654C"/>
<path d="M98.0343 79.3329L100.526 86.0815H100.624L103.115 79.3329H104.18L101.099 87.3499H100.05L96.969 79.3329H98.0343Z" fill="#01654C"/>
<path d="M109.295 87.3499V79.3329H110.311V86.4887H114.212V87.3499H109.295Z" fill="#01654C"/>
<path d="M119.593 87.3499V79.3329H124.657V80.1941H120.609V82.9029H124.395V83.7641H120.609V86.4887H124.723V87.3499H119.593Z" fill="#01654C"/>
<path d="M130.297 87.3499V79.3329H133.132C133.788 79.3329 134.326 79.4399 134.746 79.6539C135.167 79.8653 135.478 80.1563 135.681 80.5268C135.883 80.8974 135.984 81.3189 135.984 81.7912C135.984 82.2636 135.883 82.6824 135.681 83.0478C135.478 83.4131 135.168 83.7002 134.75 83.909C134.333 84.1151 133.799 84.2182 133.148 84.2182H130.854V83.3414H133.116C133.564 83.3414 133.924 83.2787 134.197 83.1535C134.473 83.0282 134.673 82.8508 134.796 82.6211C134.921 82.3888 134.984 82.1122 134.984 81.7912C134.984 81.4702 134.921 81.1897 134.796 80.9496C134.67 80.7095 134.469 80.5242 134.193 80.3937C133.917 80.2606 133.553 80.1941 133.099 80.1941H131.313V87.3499H130.297ZM134.247 83.7485L136.312 87.3499H135.132L133.099 83.7485H134.247Z" fill="#01654C"/>
<path d="M142.501 79.3329V87.3499H141.485V79.3329H142.501ZM141.993 78.3308C141.804 78.3308 141.642 78.2694 141.505 78.1468C141.371 78.0241 141.304 77.8767 141.304 77.7044C141.304 77.5322 141.371 77.3848 141.505 77.2621C141.642 77.1395 141.804 77.0781 141.993 77.0781C142.181 77.0781 142.342 77.1395 142.476 77.2621C142.613 77.3848 142.681 77.5322 142.681 77.7044C142.681 77.8767 142.613 78.0241 142.476 78.1468C142.342 78.2694 142.181 78.3308 141.993 78.3308Z" fill="#01654C"/>
</g>
</g>
</svg>
