<svg width="159" height="106" viewBox="0 0 159 106" fill="none" xmlns="http://www.w3.org/2000/svg">
<g id="Logo" filter="url(#filter0_b_23_1751)">
<g id="Group">
<g id="Group_2">
<path id="Vector" d="M121.8 35.4L121.4 33.9C121.2 32.9 120.9 31.9 120.6 30.9L120.2 29.4C120.1 28.9 119.9 28.4 119.8 27.9L119.3 26.4C119.1 25.9 119 25.4 118.8 24.9L118.5 24.1L116.8 23.3L113.8 21.9L110.8 20.5C110.3 20.3 109.8 20.1 109.3 19.8L107.8 19.2C107.4 19 107.1 18.9 106.7 18.8C106 17.8 105.3 16.8 104.6 15.8L103.3 13.9C102.9 13.3 102.4 12.7 102 12L101.4 11.2L79.1004 0L75.0004 2.3L72.4004 4.2C71.5004 4.8 70.7004 5.4 69.8004 6.1L67.2004 8L65.9004 9L62.0004 9.7C61.5004 9.8 61.0004 9.9 60.6004 10L59.2004 10.2L56.3004 10.8L53.9004 11.3L52.7004 12.6C52.2004 13.1 51.7004 13.8 51.2004 14.4L49.6004 16.2C49.1004 16.8 48.5004 17.4 48.0004 18L47.4004 18.7C47.0004 18.8 46.7004 18.8 46.3004 18.9L44.4004 19.2C43.8004 19.3 43.2004 19.4 42.5004 19.5L40.6004 19.9L40.3004 20.4L38.1004 22.3C37.4004 22.9 36.6004 23.6 35.9004 24.2C35.2004 24.9 34.5004 25.5 33.7004 26.2L31.6004 28.2L29.5004 30.2C28.8004 30.9 28.1004 31.6 27.4004 32.3C26.7004 33 26.0004 33.7 25.4004 34.5L24.4004 35.6C24.1004 36 22.7004 37.4 22.4004 37.7V39.4L33.5004 31.2C35.1004 30.2 36.7004 32.5 38.3004 31.5L43.0004 28.4L50.3004 28H50.5004L50.7004 27.8L57.4004 21.2L68.7004 19.6H68.9004L69.2004 19.4L74.4004 15.7C76.0004 14.5 77.6004 13.4 79.2004 12.2L97.2004 19.8L103 26.6L103.1 26.7H103.3L109.6 25.1C111.6 25.7 122.1 39.3 122.1 39.3V36.9C122 36.4 121.9 35.9 121.8 35.4ZM66.1004 16.3L58.4004 15.7L51.4004 20.1L57.3004 13.3H65.5004L76.4004 7.3L66.1004 16.3ZM103.9 22.8L102.4 19.7L98.9004 13.7L104.9 20.7L110.4 22.5L103.9 22.8Z" fill="white"/>
</g>
<g id="Group_3">
<g id="Group_4">
<g id="Group_5">
<path id="Vector_2" d="M4.9 90.7H4V88.2H0.8V90.7H0V85H0.8V87.5H4V85H4.8V90.7H4.9Z" fill="white"/>
</g>
<g id="Group_6">
<path id="Vector_3" d="M12.4 87.8001C12.4 89.4001 11.1 90.7001 9.30005 90.7001C7.50005 90.7001 6.30005 89.4001 6.30005 87.8001C6.30005 86.3001 7.40005 84.9001 9.30005 84.9001C11.3 84.9001 12.4 86.3001 12.4 87.8001ZM7.20005 87.9001C7.20005 89.2001 8.20005 90.0001 9.40005 90.0001C10 90.0001 10.7 89.7001 11.1 89.3001C11.5 88.9001 11.7 88.3001 11.7 87.8001C11.7 86.9001 11 85.7001 9.50005 85.7001C7.80005 85.7001 7.20005 86.9001 7.20005 87.9001Z" fill="white"/>
</g>
<g id="Group_7">
<path id="Vector_4" d="M17.8 85.7H15.8V90.7H15V85.7H13V85H17.8V85.7Z" fill="white"/>
</g>
<g id="Group_8">
<path id="Vector_5" d="M22.1996 85.6999H19.7996V87.3999H22.1996V88.0999H19.8996V89.8999H22.3996V90.5999H19.0996V84.8999H22.1996V85.6999Z" fill="white"/>
</g>
<g id="Group_9">
<path id="Vector_6" d="M24.6 89.9001H27.2V90.6001H23.8V84.9001H24.6V89.9001Z" fill="white"/>
</g>
<g id="Group_10">
<path id="Vector_7" d="M31.8995 86.8C32.4995 86.8 32.8995 87.3 32.8995 87.8C32.8995 88.4 32.3995 88.8 31.8995 88.8C31.2995 88.8 30.8995 88.3 30.8995 87.8C30.7995 87.3 31.2995 86.8 31.8995 86.8Z" fill="white"/>
</g>
<g id="Group_11">
<path id="Vector_8" d="M42 86.3C41.4 86 40.7 85.7 40 85.7C38.6 85.7 37.7001 86.7 37.7001 87.9C37.7001 89 38.5 90 40 90C40.7 90 41.4 89.8 42 89.4V90.3C41.3 90.7 40.7001 90.8 39.9001 90.8C37.8001 90.8 36.8 89.2 36.8 87.9C36.8 86.3 38.1001 85 39.9001 85C40.8001 85 41.5001 85.3 41.9001 85.5V86.3H42Z" fill="white"/>
</g>
<g id="Group_12">
<path id="Vector_9" d="M49.2999 87.8001C49.2999 89.4001 48 90.7001 46.2 90.7001C44.4 90.7001 43.2 89.4001 43.2 87.8001C43.2 86.3001 44.3 84.9001 46.2 84.9001C48.1 84.9001 49.2999 86.3001 49.2999 87.8001ZM44 87.9001C44 89.2001 45 90.0001 46.2 90.0001C46.8 90.0001 47.5 89.7001 47.9 89.3001C48.3 88.9001 48.5 88.3001 48.5 87.8001C48.5 86.9001 47.7999 85.7001 46.2999 85.7001C44.5999 85.7001 44 86.9001 44 87.9001Z" fill="white"/>
</g>
<g id="Group_13">
<path id="Vector_10" d="M56 90.7H55.2999L51.5 86.3V90.7H50.7V85H51.4L55.2 89.4V85H56V90.7Z" fill="white"/>
</g>
<g id="Group_14">
<path id="Vector_11" d="M59.7 90.7H59.5L57 85H57.8L59.5 89L61.2 85H62L59.7 90.7Z" fill="white"/>
</g>
<g id="Group_15">
<path id="Vector_12" d="M66.5 85.7001H64.1V87.4001H66.3999V88.1001H64.1V89.9001H66.6V90.6001H63.2V84.9001H66.3999V85.7001H66.5Z" fill="white"/>
</g>
<g id="Group_16">
<path id="Vector_13" d="M73.3 90.7H72.6L68.8 86.3V90.7H68V85H68.7L72.5 89.4V85H73.3V90.7Z" fill="white"/>
</g>
<g id="Group_17">
<path id="Vector_14" d="M79.2004 85.7H77.2004V90.7H76.4004V85.7H74.4004V85H79.2004V85.7Z" fill="white"/>
</g>
<g id="Group_18">
<path id="Vector_15" d="M81.2004 90.7H80.4004V85H81.2004V90.7Z" fill="white"/>
</g>
<g id="Group_19">
<path id="Vector_16" d="M88.7999 87.8001C88.7999 89.4001 87.5 90.7001 85.7 90.7001C83.9 90.7001 82.7 89.4001 82.7 87.8001C82.7 86.3001 83.8 84.9001 85.7 84.9001C87.6 84.9001 88.7999 86.3001 88.7999 87.8001ZM83.5 87.9001C83.5 89.2001 84.5 90.0001 85.7 90.0001C86.3 90.0001 86.9999 89.7001 87.3999 89.3001C87.7999 88.9001 88 88.3001 88 87.8001C88 86.9001 87.2999 85.7001 85.7999 85.7001C84.1999 85.7001 83.5 86.9001 83.5 87.9001Z" fill="white"/>
</g>
<g id="Group_20">
<path id="Vector_17" d="M95.6001 90.7H94.9L91.1001 86.3V90.7H90.3V85H91.0001L94.8 89.4V85H95.6001V90.7Z" fill="white"/>
</g>
<g id="Group_21">
<path id="Vector_18" d="M104.8 86.3C104.2 86 103.5 85.7 102.8 85.7C101.4 85.7 100.5 86.7 100.5 87.9C100.5 89 101.3 90 102.8 90C103.5 90 104.2 89.8 104.8 89.4V90.3C104.1 90.7 103.5 90.8 102.7 90.8C100.6 90.8 99.5996 89.2 99.5996 87.9C99.5996 86.3 100.9 85 102.7 85C103.6 85 104.3 85.3 104.7 85.5V86.3H104.8Z" fill="white"/>
</g>
<g id="Group_22">
<path id="Vector_19" d="M109.6 85.6999H107.2V87.3999H109.5V88.0999H107.2V89.8999H109.7V90.5999H106.4V84.8999H109.6V85.6999Z" fill="white"/>
</g>
<g id="Group_23">
<path id="Vector_20" d="M116.4 90.7H115.7L111.9 86.3V90.7H111.2V85H111.9L115.7 89.4V85H116.5V90.7H116.4Z" fill="white"/>
</g>
<g id="Group_24">
<path id="Vector_21" d="M122.3 85.7H120.3V90.7H119.5V85.7H117.5V85H122.3V85.7Z" fill="white"/>
</g>
<g id="Group_25">
<path id="Vector_22" d="M126.7 85.7001H124.3V87.4001H126.6V88.1001H124.3V89.9001H126.8V90.6001H123.5V84.9001H126.7V85.7001Z" fill="white"/>
</g>
<g id="Group_26">
<path id="Vector_23" d="M129.7 85C130 85 130.3 85 130.7 85.2C131.3 85.5 131.6 86 131.6 86.6C131.6 87.3 131.3 87.8 130.6 88C131.1 88.3 131.4 88.9 131.9 89.6C132.1 90 132.3 90.2 132.7 90.7H131.7C131.5 90.4 130.7 89.2 130.5 88.9C129.9 88.2 129.7 88.2 129.3 88.2H129.1V90.7H128.3V85H129.7ZM129.1 85.7V87.5H129.4C129.5 87.5 130 87.5 130.2 87.4C130.6 87.2 130.7 86.9 130.7 86.6C130.7 86.3 130.5 86 130.3 85.8C130.1 85.7 129.8 85.7 129.3 85.7H129.1Z" fill="white"/>
</g>
<g id="Group_27">
<path id="Vector_24" d="M141 90.7002H140L139.3 89.9002C138.9 90.2002 138.9 90.2002 138.8 90.3002C138.5 90.5002 137.9 90.8002 137.5 90.8002C136.8 90.8002 136.1 90.3002 136.1 89.5002C136.1 88.9002 136.4 88.4002 137.4 87.8002C137.2 87.6002 136.8 87.1002 136.8 86.5002C136.8 85.9002 137.2 85.2002 138.2 85.2002C139.2 85.2002 139.6 85.9002 139.6 86.5002C139.6 87.3002 138.9 87.8002 138.5 88.0002L139.3 88.9002C139.4 88.8002 139.6 88.5002 139.9 88.0002H140.7C140.4 88.7002 140 89.2002 139.8 89.5002L141 90.7002ZM138.8 89.3002L137.9 88.2002L137.5 88.5002C137.1 88.7002 136.9 89.0002 136.9 89.4002C136.9 89.7002 137.2 90.0002 137.6 90.0002C138 90.0002 138.4 89.8002 138.6 89.5002L138.8 89.3002ZM138.9 86.4002C138.9 86.1002 138.6 85.8002 138.3 85.8002C137.9 85.8002 137.7 86.0002 137.7 86.3002C137.7 86.8002 138.2 87.2002 138.2 87.3002C138.6 87.0002 138.9 86.7002 138.9 86.4002Z" fill="white"/>
</g>
<g id="Group_28">
<path id="Vector_25" d="M147.6 86.2001C147.1 85.7001 146.6 85.6 146.3 85.6C145.7 85.6 145.4 85.9 145.4 86.3C145.4 86.8 145.7 87 146.8 87.6C147 87.7 147.3 87.9001 147.5 88.2001C147.7 88.4001 147.8 88.7 147.8 89.1C147.8 90 147.2 90.7001 146.1 90.7001C145.5 90.7001 145 90.5001 144.6 90.2001V89.2001C144.8 89.4001 145.3 90 146.1 90C146.5 90 147 89.7001 147 89.2001C147 88.7001 146.5 88.4001 146.2 88.2001C145.3 87.7001 145 87.5001 144.8 87.2001C144.6 87.0001 144.5 86.7 144.5 86.3C144.5 85.4 145.2 84.8 146.2 84.8C146.7 84.8 147.1 84.9001 147.5 85.2001V86.2001H147.6Z" fill="white"/>
</g>
<g id="Group_29">
<path id="Vector_26" d="M150.7 85C151.4 85 151.9 85 152.4 85.5C152.6 85.8 152.8 86.1 152.8 86.6C152.8 86.9 152.7 87.3 152.3 87.8C151.9 88.1 151.5 88.3 150.6 88.3H150V90.8H149.2V85.1H150.7V85ZM150 85.7V87.5H150.7C151 87.5 151.4 87.5 151.6 87.3C151.8 87.2 152 86.9 152 86.5C152 86.3 151.9 86 151.8 85.9C151.5 85.7 151.3 85.7 150.7 85.7H150Z" fill="white"/>
</g>
<g id="Group_30">
<path id="Vector_27" d="M158.4 90.7H157.6L156.8 89H154.4L153.7 90.7H152.9L155.3 85H155.9L158.4 90.7ZM156.5 88.3L155.6 86.2L154.7 88.3H156.5Z" fill="white"/>
</g>
</g>
<g id="Group_31">
<g id="Group_32">
<path id="Vector_28" d="M8.6 73.7C8.6 74.7 8.7 75.4 9 75.6C9.3 75.9 10.1 76 11.5 76V79.8H0V76C1.4 76 2.3 75.9 2.5 75.6C2.8 75.3 2.9 74.7 2.9 73.7V52.2C2.9 51.2 2.8 50.5 2.5 50.3C2.2 50 1.4 49.9 0 49.9V46.1H11.6V49.9C10.2 49.9 9.4 50 9.1 50.3C8.8 50.6 8.7 51.2 8.7 52.2V73.7H8.6ZM23.3 73.8C23.9 74.8 24.4 75.4 24.8 75.6C25.2 75.8 26 76 27 76V79.8H20.2L10 63.6V61.8L20.3 46H26.7V49.8C25.6 49.8 24.9 49.9 24.6 50.1C24.2 50.4 23.7 51 23.2 51.9L15.9 62.6L23.3 73.8Z" fill="white"/>
</g>
<g id="Group_33">
<path id="Vector_29" d="M47.8 73.6999C47.8 74.6999 47.9 75.3999 48.2 75.5999C48.4 75.8999 49.2 75.9999 50.4 75.9999V79.7999H42.7L42.5 76.6999L39.8 78.9999C38.6 79.7999 37.2 80.1999 35.5 80.1999C33.6 80.1999 32 79.5999 30.8 78.4999C29.6 77.3999 29 75.9999 29 74.1999C29 70.6999 31.2 68.4999 35.5 67.6999L42.4 66.1999V63.8999C42.4 60.9999 40.9 59.5999 37.9 59.5999C35.6 59.5999 33.2 60.0999 30.9 60.9999L30.6 60.7999L32 56.9999C34.5 56.2999 36.8 55.8999 39.1 55.8999C41.7 55.8999 43.8 56.4999 45.4 57.5999C47 58.7999 47.8 60.3999 47.8 62.3999V73.6999ZM37.6 70.1999C36.5 70.4999 35.8 70.8999 35.3 71.2999C34.8 71.6999 34.6 72.3999 34.6 73.2999C34.6 74.1999 34.9 74.9999 35.5 75.4999C36.1 75.9999 36.8 76.2999 37.7 76.2999C39.4 76.2999 41 75.4999 42.5 73.9999V68.7999L37.6 70.1999Z" fill="white"/>
</g>
<g id="Group_34">
<path id="Vector_30" d="M62.7996 57.2999C63.9996 56.3999 65.3996 55.8999 66.7996 55.8999C67.5996 55.8999 68.4996 55.9999 69.3996 56.2999L67.6996 60.9999C66.9996 60.7999 66.3996 60.6999 65.5996 60.6999C63.6996 60.6999 62.0996 61.4999 60.5996 62.9999V73.5999C60.5996 74.5999 60.7996 75.2999 61.0996 75.4999C61.4996 75.7999 62.4996 75.8999 64.2996 75.8999V79.6999H52.5996V75.8999C53.7996 75.8999 54.5996 75.7999 54.8996 75.4999C55.1996 75.1999 55.2996 74.5999 55.2996 73.5999V62.4999C55.2996 61.4999 55.1996 60.8999 54.8996 60.5999C54.5996 60.2999 53.8996 60.1999 52.5996 60.1999V56.3999H60.2996L60.4996 60.4999H60.5996L62.7996 57.2999Z" fill="white"/>
</g>
<g id="Group_35">
<path id="Vector_31" d="M79 73.7001C79 74.7001 79.1 75.3 79.4 75.6C79.7 75.9 80.4 76 81.7 76V79.8H71V76C72.2 76 73 75.9 73.2 75.6C73.4 75.3 73.6 74.7001 73.6 73.7001V62.5C73.6 61.5 73.5 60.8 73.2 60.6C73 60.3 72.2 60.2 71 60.2V56.4H79V73.7001ZM73.7 48.1C74.3 47.6 75 47.3 75.9 47.3C76.8 47.3 77.5 47.6 78.1 48.1C78.7 48.6 79 49.3 79 50.1C79 50.9 78.7 51.6 78.1 52.1C77.5 52.6 76.8 52.9 75.9 52.9C75 52.9 74.2 52.6 73.7 52.1C73.1 51.6 72.9 50.9 72.9 50.1C72.8 49.4 73.1 48.7 73.7 48.1Z" fill="white"/>
</g>
<g id="Group_36">
<path id="Vector_32" d="M105.7 73.6999C105.7 74.6999 105.8 75.3999 106.1 75.5999C106.3 75.8999 107.1 75.9999 108.3 75.9999V79.7999H100.4V63.6999C100.4 61.3999 99.3004 60.1999 97.0004 60.1999C95.4004 60.1999 93.7004 60.7999 91.9004 61.9999V73.6999C91.9004 74.6999 92.0004 75.2999 92.3004 75.5999C92.6004 75.8999 93.3004 75.9999 94.6004 75.9999V79.7999H83.9004V75.9999C85.1004 75.9999 85.9004 75.8999 86.2004 75.5999C86.5004 75.2999 86.6004 74.6999 86.6004 73.6999V62.4999C86.6004 61.4999 86.5004 60.8999 86.2004 60.5999C85.9004 60.2999 85.2004 60.1999 83.9004 60.1999V56.3999H91.6004L91.8004 59.4999H91.9004L94.2004 57.1999C95.8004 56.2999 97.4004 55.8999 99.1004 55.8999C101.1 55.8999 102.7 56.4999 103.9 57.5999C105.1 58.7999 105.7 60.3999 105.7 62.5999V73.6999Z" fill="white"/>
</g>
<g id="Group_37">
<path id="Vector_33" d="M132.4 73.6999C132.4 74.6999 132.5 75.3999 132.8 75.5999C133 75.8999 133.8 75.9999 135 75.9999V79.7999H127V63.6999C127 61.3999 125.9 60.1999 123.6 60.1999C122 60.1999 120.3 60.7999 118.5 61.9999V73.6999C118.5 74.6999 118.6 75.2999 118.9 75.5999C119.2 75.8999 119.9 75.9999 121.2 75.9999V79.7999H110.6V75.9999C111.8 75.9999 112.6 75.8999 112.9 75.5999C113.2 75.2999 113.3 74.6999 113.3 73.6999V62.4999C113.3 61.4999 113.2 60.8999 112.9 60.5999C112.6 60.2999 111.9 60.1999 110.6 60.1999V56.3999H118.3L118.5 59.4999H118.6L120.9 57.1999C122.5 56.2999 124.1 55.8999 125.8 55.8999C127.8 55.8999 129.4 56.4999 130.6 57.5999C131.8 58.7999 132.4 60.3999 132.4 62.5999V73.6999Z" fill="white"/>
</g>
<g id="Group_38">
<path id="Vector_34" d="M155.8 73.6999C155.8 74.6999 155.9 75.3999 156.2 75.5999C156.4 75.8999 157.2 75.9999 158.4 75.9999V79.7999H150.7L150.5 76.6999L147.8 78.9999C146.6 79.7999 145.2 80.1999 143.5 80.1999C141.6 80.1999 140 79.5999 138.8 78.4999C137.6 77.3999 137 75.9999 137 74.1999C137 70.6999 139.2 68.4999 143.5 67.6999L150.4 66.1999V63.8999C150.4 60.9999 148.9 59.5999 145.9 59.5999C143.6 59.5999 141.2 60.0999 138.9 60.9999L138.6 60.7999L140 56.9999C142.5 56.2999 144.8 55.8999 147.1 55.8999C149.7 55.8999 151.8 56.4999 153.4 57.5999C155 58.7999 155.8 60.3999 155.8 62.3999V73.6999ZM145.5 70.1999C144.4 70.4999 143.7 70.8999 143.2 71.2999C142.7 71.6999 142.5 72.3999 142.5 73.2999C142.5 74.1999 142.8 74.9999 143.4 75.4999C144 75.9999 144.7 76.2999 145.6 76.2999C147.3 76.2999 148.9 75.4999 150.4 73.9999V68.7999L145.5 70.1999Z" fill="white"/>
</g>
</g>
</g>
<g id="Group_39">
<g id="Group_40">
<path id="Vector_35" d="M52.9 102.7C52.9 103.3 52.9 104.2 52.2 104.8C51.6 105.3 50.9 105.5 50.2 105.5C49.3 105.5 48.3 105.2 47.8 104.4C47.5 103.8 47.5 103.1 47.5 102.7V99.0999H48.4V102.7C48.4 103.5 48.5 103.8 48.8 104.2C49.1 104.5 49.5 104.7 50.2 104.7C51.2 104.7 51.7 104.2 51.8 103.9C51.9 103.7 52 103.3 52 102.7V99.0999H52.9V102.7Z" fill="white"/>
</g>
<g id="Group_41">
<path id="Vector_36" d="M60.8004 104.6H63.6004V105.4H59.9004V99.0999H60.8004V104.6Z" fill="white"/>
</g>
<g id="Group_42">
<path id="Vector_37" d="M74.9996 102.7C74.9996 103.3 74.9996 104.2 74.2996 104.8C73.6996 105.3 72.9996 105.5 72.2996 105.5C71.3996 105.5 70.3996 105.2 69.8996 104.4C69.5996 103.8 69.5996 103.1 69.5996 102.7V99.0999H70.4996V102.7C70.4996 103.5 70.5996 103.8 70.8996 104.2C71.1996 104.5 71.5996 104.7 72.2996 104.7C73.2996 104.7 73.7996 104.2 73.8996 103.9C73.9996 103.7 74.0996 103.3 74.0996 102.7V99.0999H74.9996V102.7Z" fill="white"/>
</g>
<g id="Group_43">
<path id="Vector_38" d="M84.0001 99.0999C84.6001 99.0999 85.6 99.0999 86.4 99.6999C87.1 100.2 87.6001 101.1 87.6001 102.2C87.6001 103.8 86.5001 104.6 86.1001 104.9C85.3001 105.4 84.5 105.4 83.8 105.4H81.8V99.0999H84.0001ZM82.8 99.8999V104.6H84.0001C84.5001 104.6 85.2001 104.6 85.7001 104.2C86.3001 103.8 86.7001 103 86.7001 102.2C86.7001 101.4 86.4 100.6 85.4 100.1C84.9 99.8999 84.5 99.8999 83.9 99.8999H82.8Z" fill="white"/>
</g>
<g id="Group_44">
<path id="Vector_39" d="M99.5004 105.4H98.6004L97.8004 103.6H95.1004L94.3004 105.4H93.4004L96.1004 99.0999H96.7004L99.5004 105.4ZM97.3004 102.7L96.3004 100.4L95.4004 102.7H97.3004Z" fill="white"/>
</g>
<g id="Group_45">
<path id="Vector_40" d="M110.8 105C110.3 105.2 109.5 105.5 108.5 105.5C106.1 105.5 105.1 103.8 105.1 102.3C105.1 100.6 106.3 98.9999 108.5 98.9999C109.4 98.9999 110 99.1999 110.7 99.4999V100.4C109.7 99.7999 108.8 99.6999 108.5 99.6999C107.2 99.6999 106.1 100.6 106.1 102.1C106.1 103.5 107.1 104.5 108.6 104.5C109.1 104.5 109.4 104.4 110 104.2V102.9H108.8V102.1H110.9V105H110.8ZM107.5 97.3999C107.6 97.6999 107.8 97.9999 108.3 97.9999C108.9 97.9999 109 97.6999 109.1 97.3999H109.8C109.6 98.3999 108.9 98.6999 108.3 98.6999C107.8 98.6999 106.9 98.2999 106.8 97.3999H107.5Z" fill="white"/>
</g>
</g>
<g id="Group_46">
<path id="Vector_41" d="M44 101.9H0V102.4H44V101.9Z" fill="white"/>
</g>
<g id="Group_47">
<path id="Vector_42" d="M158.4 101.9H114.4V102.4H158.4V101.9Z" fill="white"/>
</g>
</g>
</g>
<defs>
<filter id="filter0_b_23_1751" x="-20" y="-20" width="198.4" height="145.5" filterUnits="userSpaceOnUse" color-interpolation-filters="sRGB">
<feFlood flood-opacity="0" result="BackgroundImageFix"/>
<feGaussianBlur in="BackgroundImageFix" stdDeviation="10"/>
<feComposite in2="SourceAlpha" operator="in" result="effect1_backgroundBlur_23_1751"/>
<feBlend mode="normal" in="SourceGraphic" in2="effect1_backgroundBlur_23_1751" result="shape"/>
</filter>
</defs>
</svg>
