<svg width="159" height="106" viewBox="0 0 159 106" fill="none" xmlns="http://www.w3.org/2000/svg">
<g id="Logo" filter="url(#filter0_b_118_1024)">
<g id="Group">
<g id="Group_2">
<path id="Vector" d="M121.8 35.4L121.4 33.9C121.2 32.9 120.9 31.9 120.6 30.9L120.2 29.4C120.1 28.9 119.9 28.4 119.8 27.9L119.3 26.4C119.1 25.9 119 25.4 118.8 24.9L118.5 24.1L116.8 23.3L113.8 21.9L110.8 20.5C110.3 20.3 109.8 20.1 109.3 19.8L107.8 19.2C107.4 19 107.1 18.9 106.7 18.8C106 17.8 105.3 16.8 104.6 15.8L103.3 13.9C102.9 13.3 102.4 12.7 102 12L101.4 11.2L79.1004 0L75.0004 2.3L72.4004 4.2C71.5004 4.8 70.7004 5.4 69.8004 6.1L67.2004 8L65.9004 9L62.0004 9.7C61.5004 9.8 61.0004 9.9 60.6004 10L59.2004 10.2L56.3004 10.8L53.9004 11.3L52.7004 12.6C52.2004 13.1 51.7004 13.8 51.2004 14.4L49.6004 16.2C49.1004 16.8 48.5004 17.4 48.0004 18L47.4004 18.7C47.0004 18.8 46.7004 18.8 46.3004 18.9L44.4004 19.2C43.8004 19.3 43.2004 19.4 42.5004 19.5L40.6004 19.9L40.3004 20.4L38.1004 22.3C37.4004 22.9 36.6004 23.6 35.9004 24.2C35.2004 24.9 34.5004 25.5 33.7004 26.2L31.6004 28.2L29.5004 30.2C28.8004 30.9 28.1004 31.6 27.4004 32.3C26.7004 33 26.0004 33.7 25.4004 34.5L24.4004 35.6C24.1004 36 22.7004 37.4 22.4004 37.7V39.4L33.5004 31.2C35.1004 30.2 36.7004 32.5 38.3004 31.5L43.0004 28.4L50.3004 28H50.5004L50.7004 27.8L57.4004 21.2L68.7004 19.6H68.9004L69.2004 19.4L74.4004 15.7C76.0004 14.5 77.6004 13.4 79.2004 12.2L97.2004 19.8L103 26.6L103.1 26.7H103.3L109.6 25.1C111.6 25.7 122.1 39.3 122.1 39.3V36.9C122 36.4 121.9 35.9 121.8 35.4ZM66.1004 16.3L58.4004 15.7L51.4004 20.1L57.3004 13.3H65.5004L76.4004 7.3L66.1004 16.3ZM103.9 22.8L102.4 19.7L98.9004 13.7L104.9 20.7L110.4 22.5L103.9 22.8Z" fill="#01654C"/>
</g>
<g id="Group_3">
<g id="Group_4">
<g id="Group_5">
<path id="Vector_2" d="M4.9 90.7H4V88.2H0.8V90.7H0V85H0.8V87.5H4V85H4.8V90.7H4.9Z" fill="#6C4A03"/>
</g>
<g id="Group_6">
<path id="Vector_3" d="M12.3998 87.8C12.3998 89.4 11.0998 90.7 9.29981 90.7C7.49981 90.7 6.2998 89.4 6.2998 87.8C6.2998 86.3 7.39981 84.9 9.29981 84.9C11.2998 84.9 12.3998 86.3 12.3998 87.8ZM7.1998 87.9C7.1998 89.2 8.1998 90 9.3998 90C9.9998 90 10.6998 89.7 11.0998 89.3C11.4998 88.9 11.6998 88.3 11.6998 87.8C11.6998 86.9 10.9998 85.7 9.4998 85.7C7.7998 85.7 7.1998 86.9 7.1998 87.9Z" fill="#6C4A03"/>
</g>
<g id="Group_7">
<path id="Vector_4" d="M17.8 85.7H15.8V90.7H15V85.7H13V85H17.8V85.7Z" fill="#6C4A03"/>
</g>
<g id="Group_8">
<path id="Vector_5" d="M22.1996 85.7H19.7996V87.4H22.1996V88.1H19.8996V89.9H22.3996V90.6H19.0996V84.9H22.1996V85.7Z" fill="#6C4A03"/>
</g>
<g id="Group_9">
<path id="Vector_6" d="M24.5998 89.9H27.1998V90.6H23.7998V84.9H24.5998V89.9Z" fill="#6C4A03"/>
</g>
<g id="Group_10">
<path id="Vector_7" d="M31.8995 86.8C32.4995 86.8 32.8995 87.3 32.8995 87.8C32.8995 88.4 32.3995 88.8 31.8995 88.8C31.2995 88.8 30.8995 88.3 30.8995 87.8C30.7995 87.3 31.2995 86.8 31.8995 86.8Z" fill="#6C4A03"/>
</g>
<g id="Group_11">
<path id="Vector_8" d="M41.9998 86.3C41.3998 86 40.6998 85.7 39.9998 85.7C38.5998 85.7 37.6998 86.7 37.6998 87.9C37.6998 89 38.4998 90 39.9998 90C40.6998 90 41.3998 89.8 41.9998 89.4V90.3C41.2998 90.7 40.6998 90.8 39.8998 90.8C37.7998 90.8 36.7998 89.2 36.7998 87.9C36.7998 86.3 38.0998 85 39.8998 85C40.7998 85 41.4998 85.3 41.8998 85.5V86.3H41.9998Z" fill="#6C4A03"/>
</g>
<g id="Group_12">
<path id="Vector_9" d="M49.3002 87.8C49.3002 89.4 48.0002 90.7 46.2002 90.7C44.4002 90.7 43.2002 89.4 43.2002 87.8C43.2002 86.3 44.3002 84.9 46.2002 84.9C48.1002 84.9 49.3002 86.3 49.3002 87.8ZM44.0002 87.9C44.0002 89.2 45.0002 90 46.2002 90C46.8002 90 47.5002 89.7 47.9002 89.3C48.3002 88.9 48.5002 88.3 48.5002 87.8C48.5002 86.9 47.8002 85.7 46.3002 85.7C44.6002 85.7 44.0002 86.9 44.0002 87.9Z" fill="#6C4A03"/>
</g>
<g id="Group_13">
<path id="Vector_10" d="M56.0002 90.7H55.3002L51.5002 86.3V90.7H50.7002V85H51.4002L55.2002 89.4V85H56.0002V90.7Z" fill="#6C4A03"/>
</g>
<g id="Group_14">
<path id="Vector_11" d="M59.7 90.7H59.5L57 85H57.8L59.5 89L61.2 85H62L59.7 90.7Z" fill="#6C4A03"/>
</g>
<g id="Group_15">
<path id="Vector_12" d="M66.5002 85.7H64.1002V87.4H66.4002V88.1H64.1002V89.9H66.6002V90.6H63.2002V84.9H66.4002V85.7H66.5002Z" fill="#6C4A03"/>
</g>
<g id="Group_16">
<path id="Vector_13" d="M73.3 90.7H72.6L68.8 86.3V90.7H68V85H68.7L72.5 89.4V85H73.3V90.7Z" fill="#6C4A03"/>
</g>
<g id="Group_17">
<path id="Vector_14" d="M79.2004 85.7H77.2004V90.7H76.4004V85.7H74.4004V85H79.2004V85.7Z" fill="#6C4A03"/>
</g>
<g id="Group_18">
<path id="Vector_15" d="M81.2004 90.7H80.4004V85H81.2004V90.7Z" fill="#6C4A03"/>
</g>
<g id="Group_19">
<path id="Vector_16" d="M88.8002 87.8C88.8002 89.4 87.5002 90.7 85.7002 90.7C83.9002 90.7 82.7002 89.4 82.7002 87.8C82.7002 86.3 83.8002 84.9 85.7002 84.9C87.6002 84.9 88.8002 86.3 88.8002 87.8ZM83.5002 87.9C83.5002 89.2 84.5002 90 85.7002 90C86.3002 90 87.0002 89.7 87.4002 89.3C87.8002 88.9 88.0002 88.3 88.0002 87.8C88.0002 86.9 87.3002 85.7 85.8002 85.7C84.2002 85.7 83.5002 86.9 83.5002 87.9Z" fill="#6C4A03"/>
</g>
<g id="Group_20">
<path id="Vector_17" d="M95.5998 90.7H94.8998L91.0998 86.3V90.7H90.2998V85H90.9998L94.7998 89.4V85H95.5998V90.7Z" fill="#6C4A03"/>
</g>
<g id="Group_21">
<path id="Vector_18" d="M104.8 86.3C104.2 86 103.5 85.7 102.8 85.7C101.4 85.7 100.5 86.7 100.5 87.9C100.5 89 101.3 90 102.8 90C103.5 90 104.2 89.8 104.8 89.4V90.3C104.1 90.7 103.5 90.8 102.7 90.8C100.6 90.8 99.5996 89.2 99.5996 87.9C99.5996 86.3 100.9 85 102.7 85C103.6 85 104.3 85.3 104.7 85.5V86.3H104.8Z" fill="#6C4A03"/>
</g>
<g id="Group_22">
<path id="Vector_19" d="M109.6 85.7H107.2V87.4H109.5V88.1H107.2V89.9H109.7V90.6H106.4V84.9H109.6V85.7Z" fill="#6C4A03"/>
</g>
<g id="Group_23">
<path id="Vector_20" d="M116.4 90.7H115.7L111.9 86.3V90.7H111.2V85H111.9L115.7 89.4V85H116.5V90.7H116.4Z" fill="#6C4A03"/>
</g>
<g id="Group_24">
<path id="Vector_21" d="M122.3 85.7H120.3V90.7H119.5V85.7H117.5V85H122.3V85.7Z" fill="#6C4A03"/>
</g>
<g id="Group_25">
<path id="Vector_22" d="M126.7 85.7H124.3V87.4H126.6V88.1H124.3V89.9H126.8V90.6H123.5V84.9H126.7V85.7Z" fill="#6C4A03"/>
</g>
<g id="Group_26">
<path id="Vector_23" d="M129.7 85C130 85 130.3 85 130.7 85.2C131.3 85.5 131.6 86 131.6 86.6C131.6 87.3 131.3 87.8 130.6 88C131.1 88.3 131.4 88.9 131.9 89.6C132.1 90 132.3 90.2 132.7 90.7H131.7C131.5 90.4 130.7 89.2 130.5 88.9C129.9 88.2 129.7 88.2 129.3 88.2H129.1V90.7H128.3V85H129.7ZM129.1 85.7V87.5H129.4C129.5 87.5 130 87.5 130.2 87.4C130.6 87.2 130.7 86.9 130.7 86.6C130.7 86.3 130.5 86 130.3 85.8C130.1 85.7 129.8 85.7 129.3 85.7H129.1Z" fill="#6C4A03"/>
</g>
<g id="Group_27">
<path id="Vector_24" d="M141 90.7H140L139.3 89.9C138.9 90.2 138.9 90.2 138.8 90.3C138.5 90.5 137.9 90.8 137.5 90.8C136.8 90.8 136.1 90.3 136.1 89.5C136.1 88.9 136.4 88.4 137.4 87.8C137.2 87.6 136.8 87.1 136.8 86.5C136.8 85.9 137.2 85.2 138.2 85.2C139.2 85.2 139.6 85.9 139.6 86.5C139.6 87.3 138.9 87.8 138.5 88L139.3 88.9C139.4 88.8 139.6 88.5 139.9 88H140.7C140.4 88.7 140 89.2 139.8 89.5L141 90.7ZM138.8 89.3L137.9 88.2L137.5 88.5C137.1 88.7 136.9 89 136.9 89.4C136.9 89.7 137.2 90 137.6 90C138 90 138.4 89.8 138.6 89.5L138.8 89.3ZM138.9 86.4C138.9 86.1 138.6 85.8 138.3 85.8C137.9 85.8 137.7 86 137.7 86.3C137.7 86.8 138.2 87.2 138.2 87.3C138.6 87 138.9 86.7 138.9 86.4Z" fill="#6C4A03"/>
</g>
<g id="Group_28">
<path id="Vector_25" d="M147.6 86.2C147.1 85.7 146.6 85.6 146.3 85.6C145.7 85.6 145.4 85.9 145.4 86.3C145.4 86.8 145.7 87 146.8 87.6C147 87.7 147.3 87.9 147.5 88.2C147.7 88.4 147.8 88.7 147.8 89.1C147.8 90 147.2 90.7 146.1 90.7C145.5 90.7 145 90.5 144.6 90.2V89.2C144.8 89.4 145.3 90 146.1 90C146.5 90 147 89.7 147 89.2C147 88.7 146.5 88.4 146.2 88.2C145.3 87.7 145 87.5 144.8 87.2C144.6 87 144.5 86.7 144.5 86.3C144.5 85.4 145.2 84.8 146.2 84.8C146.7 84.8 147.1 84.9 147.5 85.2V86.2H147.6Z" fill="#6C4A03"/>
</g>
<g id="Group_29">
<path id="Vector_26" d="M150.7 85C151.4 85 151.9 85 152.4 85.5C152.6 85.8 152.8 86.1 152.8 86.6C152.8 86.9 152.7 87.3 152.3 87.8C151.9 88.1 151.5 88.3 150.6 88.3H150V90.8H149.2V85.1H150.7V85ZM150 85.7V87.5H150.7C151 87.5 151.4 87.5 151.6 87.3C151.8 87.2 152 86.9 152 86.5C152 86.3 151.9 86 151.8 85.9C151.5 85.7 151.3 85.7 150.7 85.7H150Z" fill="#6C4A03"/>
</g>
<g id="Group_30">
<path id="Vector_27" d="M158.4 90.7H157.6L156.8 89H154.4L153.7 90.7H152.9L155.3 85H155.9L158.4 90.7ZM156.5 88.3L155.6 86.2L154.7 88.3H156.5Z" fill="#6C4A03"/>
</g>
</g>
<g id="Group_31">
<g id="Group_32">
<path id="Vector_28" d="M8.6 73.7C8.6 74.7 8.7 75.4 9 75.6C9.3 75.9 10.1 76 11.5 76V79.8H0V76C1.4 76 2.3 75.9 2.5 75.6C2.8 75.3 2.9 74.7 2.9 73.7V52.2C2.9 51.2 2.8 50.5 2.5 50.3C2.2 50 1.4 49.9 0 49.9V46.1H11.6V49.9C10.2 49.9 9.4 50 9.1 50.3C8.8 50.6 8.7 51.2 8.7 52.2V73.7H8.6ZM23.3 73.8C23.9 74.8 24.4 75.4 24.8 75.6C25.2 75.8 26 76 27 76V79.8H20.2L10 63.6V61.8L20.3 46H26.7V49.8C25.6 49.8 24.9 49.9 24.6 50.1C24.2 50.4 23.7 51 23.2 51.9L15.9 62.6L23.3 73.8Z" fill="#6C4A03"/>
</g>
<g id="Group_33">
<path id="Vector_29" d="M47.8 73.7C47.8 74.7 47.9 75.4 48.2 75.6C48.4 75.9 49.2 76 50.4 76V79.8H42.7L42.5 76.7L39.8 79C38.6 79.8 37.2 80.2 35.5 80.2C33.6 80.2 32 79.6 30.8 78.5C29.6 77.4 29 76 29 74.2C29 70.7 31.2 68.5 35.5 67.7L42.4 66.2V63.9C42.4 61 40.9 59.6 37.9 59.6C35.6 59.6 33.2 60.1 30.9 61L30.6 60.8L32 57C34.5 56.3 36.8 55.9 39.1 55.9C41.7 55.9 43.8 56.5 45.4 57.6C47 58.8 47.8 60.4 47.8 62.4V73.7ZM37.6 70.2C36.5 70.5 35.8 70.9 35.3 71.3C34.8 71.7 34.6 72.4 34.6 73.3C34.6 74.2 34.9 75 35.5 75.5C36.1 76 36.8 76.3 37.7 76.3C39.4 76.3 41 75.5 42.5 74V68.8L37.6 70.2Z" fill="#6C4A03"/>
</g>
<g id="Group_34">
<path id="Vector_30" d="M62.7996 57.3C63.9996 56.4 65.3996 55.9 66.7996 55.9C67.5996 55.9 68.4996 56 69.3996 56.3L67.6996 61C66.9996 60.8 66.3996 60.7 65.5996 60.7C63.6996 60.7 62.0996 61.5 60.5996 63V73.6C60.5996 74.6 60.7996 75.3 61.0996 75.5C61.4996 75.8 62.4996 75.9 64.2996 75.9V79.7H52.5996V75.9C53.7996 75.9 54.5996 75.8 54.8996 75.5C55.1996 75.2 55.2996 74.6 55.2996 73.6V62.5C55.2996 61.5 55.1996 60.9 54.8996 60.6C54.5996 60.3 53.8996 60.2 52.5996 60.2V56.4H60.2996L60.4996 60.5H60.5996L62.7996 57.3Z" fill="#6C4A03"/>
</g>
<g id="Group_35">
<path id="Vector_31" d="M79 73.7001C79 74.7001 79.1 75.3 79.4 75.6C79.7 75.9 80.4 76 81.7 76V79.8H71V76C72.2 76 73 75.9 73.2 75.6C73.4 75.3 73.6 74.7001 73.6 73.7001V62.5C73.6 61.5 73.5 60.8 73.2 60.6C73 60.3 72.2 60.2 71 60.2V56.4H79V73.7001ZM73.7 48.1C74.3 47.6 75 47.3 75.9 47.3C76.8 47.3 77.5 47.6 78.1 48.1C78.7 48.6 79 49.3 79 50.1C79 50.9 78.7 51.6 78.1 52.1C77.5 52.6 76.8 52.9 75.9 52.9C75 52.9 74.2 52.6 73.7 52.1C73.1 51.6 72.9 50.9 72.9 50.1C72.8 49.4 73.1 48.7 73.7 48.1Z" fill="#6C4A03"/>
</g>
<g id="Group_36">
<path id="Vector_32" d="M105.7 73.7C105.7 74.7 105.8 75.4 106.1 75.6C106.3 75.9 107.1 76 108.3 76V79.8H100.4V63.7C100.4 61.4 99.3004 60.2 97.0004 60.2C95.4004 60.2 93.7004 60.8 91.9004 62V73.7C91.9004 74.7 92.0004 75.3 92.3004 75.6C92.6004 75.9 93.3004 76 94.6004 76V79.8H83.9004V76C85.1004 76 85.9004 75.9 86.2004 75.6C86.5004 75.3 86.6004 74.7 86.6004 73.7V62.5C86.6004 61.5 86.5004 60.9 86.2004 60.6C85.9004 60.3 85.2004 60.2 83.9004 60.2V56.4H91.6004L91.8004 59.5H91.9004L94.2004 57.2C95.8004 56.3 97.4004 55.9 99.1004 55.9C101.1 55.9 102.7 56.5 103.9 57.6C105.1 58.8 105.7 60.4 105.7 62.6V73.7Z" fill="#6C4A03"/>
</g>
<g id="Group_37">
<path id="Vector_33" d="M132.4 73.7C132.4 74.7 132.5 75.4 132.8 75.6C133 75.9 133.8 76 135 76V79.8H127V63.7C127 61.4 125.9 60.2 123.6 60.2C122 60.2 120.3 60.8 118.5 62V73.7C118.5 74.7 118.6 75.3 118.9 75.6C119.2 75.9 119.9 76 121.2 76V79.8H110.6V76C111.8 76 112.6 75.9 112.9 75.6C113.2 75.3 113.3 74.7 113.3 73.7V62.5C113.3 61.5 113.2 60.9 112.9 60.6C112.6 60.3 111.9 60.2 110.6 60.2V56.4H118.3L118.5 59.5H118.6L120.9 57.2C122.5 56.3 124.1 55.9 125.8 55.9C127.8 55.9 129.4 56.5 130.6 57.6C131.8 58.8 132.4 60.4 132.4 62.6V73.7Z" fill="#6C4A03"/>
</g>
<g id="Group_38">
<path id="Vector_34" d="M155.8 73.7C155.8 74.7 155.9 75.4 156.2 75.6C156.4 75.9 157.2 76 158.4 76V79.8H150.7L150.5 76.7L147.8 79C146.6 79.8 145.2 80.2 143.5 80.2C141.6 80.2 140 79.6 138.8 78.5C137.6 77.4 137 76 137 74.2C137 70.7 139.2 68.5 143.5 67.7L150.4 66.2V63.9C150.4 61 148.9 59.6 145.9 59.6C143.6 59.6 141.2 60.1 138.9 61L138.6 60.8L140 57C142.5 56.3 144.8 55.9 147.1 55.9C149.7 55.9 151.8 56.5 153.4 57.6C155 58.8 155.8 60.4 155.8 62.4V73.7ZM145.5 70.2C144.4 70.5 143.7 70.9 143.2 71.3C142.7 71.7 142.5 72.4 142.5 73.3C142.5 74.2 142.8 75 143.4 75.5C144 76 144.7 76.3 145.6 76.3C147.3 76.3 148.9 75.5 150.4 74V68.8L145.5 70.2Z" fill="#6C4A03"/>
</g>
</g>
</g>
<g id="Group_39">
<g id="Group_40">
<path id="Vector_35" d="M52.9 102.7C52.9 103.3 52.9 104.2 52.2 104.8C51.6 105.3 50.9 105.5 50.2 105.5C49.3 105.5 48.3 105.2 47.8 104.4C47.5 103.8 47.5 103.1 47.5 102.7V99.1H48.4V102.7C48.4 103.5 48.5 103.8 48.8 104.2C49.1 104.5 49.5 104.7 50.2 104.7C51.2 104.7 51.7 104.2 51.8 103.9C51.9 103.7 52 103.3 52 102.7V99.1H52.9V102.7Z" fill="#6C4A03"/>
</g>
<g id="Group_41">
<path id="Vector_36" d="M60.8004 104.6H63.6004V105.4H59.9004V99.1H60.8004V104.6Z" fill="#6C4A03"/>
</g>
<g id="Group_42">
<path id="Vector_37" d="M74.9996 102.7C74.9996 103.3 74.9996 104.2 74.2996 104.8C73.6996 105.3 72.9996 105.5 72.2996 105.5C71.3996 105.5 70.3996 105.2 69.8996 104.4C69.5996 103.8 69.5996 103.1 69.5996 102.7V99.1H70.4996V102.7C70.4996 103.5 70.5996 103.8 70.8996 104.2C71.1996 104.5 71.5996 104.7 72.2996 104.7C73.2996 104.7 73.7996 104.2 73.8996 103.9C73.9996 103.7 74.0996 103.3 74.0996 102.7V99.1H74.9996V102.7Z" fill="#6C4A03"/>
</g>
<g id="Group_43">
<path id="Vector_38" d="M83.9998 99.1C84.5998 99.1 85.5998 99.1 86.3998 99.7C87.0998 100.2 87.5998 101.1 87.5998 102.2C87.5998 103.8 86.4998 104.6 86.0998 104.9C85.2998 105.4 84.4998 105.4 83.7998 105.4H81.7998V99.1H83.9998ZM82.7998 99.9V104.6H83.9998C84.4998 104.6 85.1998 104.6 85.6998 104.2C86.2998 103.8 86.6998 103 86.6998 102.2C86.6998 101.4 86.3998 100.6 85.3998 100.1C84.8998 99.9 84.4998 99.9 83.8998 99.9H82.7998Z" fill="#6C4A03"/>
</g>
<g id="Group_44">
<path id="Vector_39" d="M99.5004 105.4H98.6004L97.8004 103.6H95.1004L94.3004 105.4H93.4004L96.1004 99.1H96.7004L99.5004 105.4ZM97.3004 102.7L96.3004 100.4L95.4004 102.7H97.3004Z" fill="#6C4A03"/>
</g>
<g id="Group_45">
<path id="Vector_40" d="M110.8 105C110.3 105.2 109.5 105.5 108.5 105.5C106.1 105.5 105.1 103.8 105.1 102.3C105.1 100.6 106.3 99 108.5 99C109.4 99 110 99.2 110.7 99.5V100.4C109.7 99.8 108.8 99.7 108.5 99.7C107.2 99.7 106.1 100.6 106.1 102.1C106.1 103.5 107.1 104.5 108.6 104.5C109.1 104.5 109.4 104.4 110 104.2V102.9H108.8V102.1H110.9V105H110.8ZM107.5 97.4C107.6 97.7 107.8 98 108.3 98C108.9 98 109 97.7 109.1 97.4H109.8C109.6 98.4 108.9 98.7 108.3 98.7C107.8 98.7 106.9 98.3 106.8 97.4H107.5Z" fill="#6C4A03"/>
</g>
</g>
<g id="Group_46">
<path id="Vector_41" d="M44 101.9H0V102.4H44V101.9Z" fill="#6C4A03"/>
</g>
<g id="Group_47">
<path id="Vector_42" d="M158.4 101.9H114.4V102.4H158.4V101.9Z" fill="#6C4A03"/>
</g>
</g>
</g>
<defs>
<filter id="filter0_b_118_1024" x="-20" y="-20" width="198.4" height="145.5" filterUnits="userSpaceOnUse" color-interpolation-filters="sRGB">
<feFlood flood-opacity="0" result="BackgroundImageFix"/>
<feGaussianBlur in="BackgroundImageFix" stdDeviation="10"/>
<feComposite in2="SourceAlpha" operator="in" result="effect1_backgroundBlur_118_1024"/>
<feBlend mode="normal" in="SourceGraphic" in2="effect1_backgroundBlur_118_1024" result="shape"/>
</filter>
</defs>
</svg>
