<svg width="48" height="48" viewBox="0 0 48 48" fill="none" xmlns="http://www.w3.org/2000/svg">
<g id="tripadvisor">
<path id="vector" d="M17.5468 26.0266C17.5468 26.7281 17.3388 27.4139 16.9491 27.9971C16.5593 28.5804 16.0054 29.035 15.3573 29.3035C14.7092 29.5719 13.9961 29.6421 13.3081 29.5053C12.62 29.3684 11.9881 29.0306 11.492 28.5346C10.996 28.0386 10.6582 27.4066 10.5214 26.7186C10.3845 26.0306 10.4547 25.3174 10.7232 24.6693C10.9916 24.0213 11.4462 23.4673 12.0295 23.0776C12.6128 22.6879 13.2985 22.4798 14 22.4798C14.9407 22.4798 15.8428 22.8535 16.508 23.5187C17.1731 24.1838 17.5468 25.086 17.5468 26.0266ZM33.9911 22.4798C33.2896 22.4798 32.6039 22.6879 32.0206 23.0776C31.4374 23.4673 30.9828 24.0213 30.7143 24.6693C30.4459 25.3174 30.3756 26.0306 30.5125 26.7186C30.6493 27.4066 30.9871 28.0386 31.4832 28.5346C31.9792 29.0306 32.6112 29.3684 33.2992 29.5053C33.9872 29.6421 34.7003 29.5719 35.3484 29.3035C35.9965 29.035 36.5505 28.5804 36.9402 27.9971C37.3299 27.4139 37.5379 26.7281 37.5379 26.0266C37.5377 25.0865 37.1641 24.1849 36.4994 23.52C35.8347 22.8551 34.9333 22.4814 33.9931 22.4808L33.9911 22.4798ZM43.9911 26.0266C43.9911 31.5464 39.5123 36.0212 33.9911 36.0212C31.4726 36.0253 29.0461 35.0748 27.2005 33.3611L24 36.8434L20.798 33.3572C18.9525 35.0727 16.5251 36.0247 14.0054 36.0212C8.48818 36.0212 4.01084 31.5464 4.01084 26.0266C4.00896 24.6361 4.29804 23.2606 4.8595 21.9884C5.42096 20.7163 6.24237 19.5757 7.27094 18.6399L4 15.0813H11.267C15.0244 12.5242 19.4643 11.1567 24.0094 11.1567C28.5544 11.1567 32.9943 12.5242 36.7517 15.0813H44L40.7296 18.6399C41.7585 19.5755 42.5803 20.716 43.1421 21.9882C43.7039 23.2603 43.9932 24.636 43.9916 26.0266H43.9911ZM20.7665 26.0266C20.7665 24.6888 20.3698 23.381 19.6265 22.2687C18.8833 21.1563 17.8268 20.2894 16.5908 19.7774C15.3548 19.2655 13.9948 19.1316 12.6827 19.3926C11.3706 19.6536 10.1653 20.2979 9.21939 21.2439C8.27344 22.1899 7.62927 23.3952 7.36833 24.7073C7.1074 26.0195 7.24142 27.3795 7.75345 28.6155C8.26548 29.8514 9.13252 30.9078 10.2449 31.651C11.3573 32.3942 12.6651 32.7908 14.003 32.7907C14.8912 32.7907 15.7708 32.6158 16.5915 32.2759C17.4122 31.936 18.1579 31.4378 18.786 30.8097C19.4141 30.1816 19.9123 29.4359 20.2522 28.6152C20.5921 27.7945 20.7671 26.9149 20.767 26.0266H20.7665ZM31.5054 15.9281C29.1268 14.9371 26.5755 14.4269 23.9988 14.4269C21.422 14.4269 18.8707 14.9371 16.4921 15.9281C20.7626 17.5626 24 21.3803 24 25.8316C24 21.3808 27.2369 17.5626 31.5059 15.9286L31.5054 15.9281ZM40.7566 26.0266C40.7566 24.6888 40.3599 23.381 39.6167 22.2687C38.8734 21.1563 37.817 20.2894 36.581 19.7774C35.345 19.2655 33.9849 19.1316 32.6728 19.3926C31.3607 19.6536 30.1555 20.2979 29.2095 21.2439C28.2636 22.1899 27.6194 23.3952 27.3585 24.7073C27.0975 26.0195 27.2316 27.3795 27.7436 28.6155C28.2556 29.8514 29.1227 30.9078 30.2351 31.651C31.3475 32.3942 32.6553 32.7908 33.9931 32.7907C35.787 32.7907 37.5075 32.078 38.776 30.8095C40.0445 29.541 40.7571 27.8206 40.7571 26.0266H40.7566Z" fill="white"/>
</g>
</svg>
