<?xml version="1.0" encoding="utf-8"?>
<!-- Generator: Adobe Illustrator 19.0.0, SVG Export Plug-In . SVG Version: 6.00 Build 0)  -->
<svg version="1.1" id="Layer_1" xmlns="http://www.w3.org/2000/svg" xmlns:xlink="http://www.w3.org/1999/xlink" x="0px" y="0px"
	 viewBox="-858 2475 186 51" style="enable-background:new -858 2475 186 51;" xml:space="preserve">
<style type="text/css">
	.st0{fill:#FFFFFF;}
	.st1{fill:#375340;}
</style>
<rect x="2358.2" y="5125.5" class="st0" width="4608" height="3741.8"/>
<g>
	<path class="st0" d="M-852.4,2492.6c0.1,0,0.1-0.1,0.1-0.1c0-0.2,0.1-0.4,0.1-0.6c0.2-1,0.6-2,1.2-2.8c0.5-0.8,1.1-1.4,1.9-2
		c0.4-0.3,0.9-0.6,1.3-0.9c0.6-0.3,1.2-0.5,1.8-0.6c0.3,0,0.6-0.1,1-0.1c0.5,0,1.1,0,1.6,0c0.6,0,1.1-0.1,1.7-0.2
		c1.5-0.3,3-0.8,4.4-1.4c0.3-0.1,0.5-0.2,0.8-0.4h0.1h0.1c0,0.1,0,0.1,0,0.2c-0.4,1.3-1.1,2.6-2,3.7c-0.6,0.7-1.3,1.4-2,1.9
		c-0.3,0.2-0.7,0.5-1,0.7c-0.4,0.2-0.9,0.3-1.4,0.4c-0.4,0.1-0.8,0.1-1.2,0.1c-0.7,0-1.5,0-2.2,0c-1.6,0-3.1,0.4-4.5,1.2
		c-0.5,0.3-1,0.6-1.5,1c-0.1,0-0.1,0.1-0.2,0.1C-852.4,2492.8-852.4,2492.6-852.4,2492.6z"/>
	<path class="st0" d="M-790.2,2511.1c-0.1,0.1-0.1,0.2-0.1,0.2c-0.4,1.2-1.1,2.2-1.9,3.2c-0.8,0.9-1.7,1.6-2.7,2.2
		c-0.5,0.3-1.1,0.5-1.7,0.6c-0.6,0.1-1.2,0.1-1.8,0.1c-0.4,0-0.9,0-1.3,0s-0.7,0-1.1,0.1c-1.2,0.1-2.3,0.4-3.4,0.9
		c-0.6,0.3-1.2,0.7-1.8,1l-0.1,0.1c0-0.1,0-0.1,0-0.2c0.2-1.3,0.7-2.4,1.5-3.4c0.4-0.5,0.9-1,1.4-1.4c0.6-0.4,1.2-0.8,1.8-1.1
		c0.5-0.2,1-0.4,1.5-0.5c0.3,0,0.6-0.1,0.9-0.1c0.5,0,1.1,0,1.6,0c0.6,0,1.1-0.1,1.7-0.1c1.6-0.2,3.1-0.7,4.5-1.3
		c0.3-0.1,0.7-0.3,1-0.4C-790.2,2510.9-790.2,2511.1-790.2,2511.1z"/>
	<path class="st0" d="M-828,2485.9c1.9-1.5,3.8-2.9,5.7-4.4c0.1,0,0,0.1,0.1,0.2c0,0.3,0.1,0.6,0.1,1c0.1,0.4,0.2,0.7,0.4,1.1
		c0.4,0.7,1,1.2,1.8,1.4c0.4,0.1,0.9,0.1,1.3,0.1c0.3,0,0.6,0,0.9-0.1h0.1c0,0.1-0.1,0.1-0.1,0.2c-0.5,0.5-1,1-1.6,1.4
		c-0.3,0.3-0.6,0.5-0.8,0.8c-0.1,0.1-0.1,0.2-0.1,0.3v0.1c0,6.9,0,13.8,0,20.7c0,0.1,0,0.2,0,0.3c0.2,0.1,3,1.4,3.7,1.6
		c1.1-0.4,2.2-0.9,3.3-1.3c0-0.1,0-0.1,0-0.2v-0.1c0-6.6,0-13.2,0-19.8c0-0.1,0-0.2,0-0.3c-0.1-0.1-0.2-0.1-0.3-0.2
		c-0.4-0.2-0.7-0.4-1.1-0.6c-0.3-0.2-0.6-0.5-0.9-0.8c-0.1-0.2-0.3-0.4-0.3-0.6c-0.1-0.2-0.1-0.4-0.1-0.6c1.8-1.4,3.7-2.8,5.5-4.2
		c0,0,0,0,0.1,0v0.1c0,0.2,0,0.5,0,0.7c0,0.4,0.1,0.7,0.2,1.1c0.3,0.8,0.8,1.3,1.6,1.6c0.4,0.1,0.8,0.2,1.2,0.3c0.4,0,0.8,0,1.2,0
		c0.2,0,0.3,0,0.5,0c0,0.1,0,0.1-0.1,0.1c-0.4,0.4-0.8,0.7-1.2,1.1c-0.5,0.4-0.9,0.8-1.4,1.2c0,0,0,0-0.1,0.1
		c-0.1,0-0.1,0.1-0.1,0.2c0,0.1,0,0.1,0,0.2c0,6.9,0,13.8,0,20.7c0,0.1,0,0.2,0,0.3c0.1,0,0.1,0,0.2,0.1c0.9,0.3,1.9,0.5,2.8,0.8
		c0.6,0.2,1.2,0.3,1.8,0.5c0.1,0,0.2,0,0.3,0c0.7-0.3,1.3-0.6,2-0.9c0,0,0.1,0,0.1-0.1v-0.1c0-0.3,0-0.6,0-0.9c0-0.6,0-1.2,0-1.8
		c0-0.2,0-0.5,0-0.7c0-0.5,0-1.1,0-1.6s0-1.1,0-1.6c0-0.7,0-1.4,0-2.1c0-0.9,0-1.8,0-2.8c0-0.9,0-1.8,0-2.7c0-1,0-2,0-2.9
		c0-0.8,0-1.7,0-2.5c0-0.2,0-0.4,0-0.6c0-0.1,0-0.1,0-0.2c-0.1,0-0.2-0.1-0.2-0.1c-0.6-0.3-1.1-0.6-1.7-0.9
		c-0.4-0.3-0.8-0.7-1.1-1.1c-0.1-0.1-0.2-0.3-0.2-0.4c0-0.1,0.1-0.1,0.2-0.2c0.8-0.6,1.6-1.2,2.4-1.8c1-0.8,2-1.6,3-2.3
		c0,0,0.1-0.1,0.2-0.1c0.1,0.1,0.1,0.1,0.1,0.2c0,0.4,0.1,0.7,0.2,1.1c0.1,0.4,0.2,0.8,0.5,1.1c0.4,0.7,1.1,1.1,1.9,1.3
		c0.5,0.1,1,0,1.5-0.1c0.2,0,0.4-0.1,0.6-0.1v0.1c-0.5,0.4-0.9,0.9-1.4,1.3c-0.4,0.4-0.8,0.8-1.3,1.2l-0.1,0.1v0.1
		c0,6.9,0,13.9,0,20.8c0,0.1,0,0.2,0,0.3c0.2,0.1,0.4,0.2,0.6,0.3c0.2,0.1,0.4,0.2,0.5,0.3c0.2,0.1,0.4,0.2,0.5,0.3
		c0.2,0.1,0.4,0.2,0.5,0.3c0.2,0.1,0.4,0.2,0.6,0.3c-0.1,0-0.1,0-0.1,0c-0.5,0-0.9-0.1-1.4-0.1s-0.9,0-1.4,0s-1,0.1-1.5,0.1
		c-0.7,0.1-1.4,0.2-2.1,0.4c-1,0.3-2,0.7-2.9,1.3c-1.2,0.8-2.2,1.8-2.9,3.1c-0.3,0.6-0.6,1.3-0.8,1.9c0,0,0,0.1-0.1,0.2
		c0-0.1-0.1-0.1-0.1-0.2c-0.4-0.7-0.7-1.5-1.2-2.2c-0.4-0.7-0.9-1.3-1.5-1.9c-0.6-0.6-1.3-1.1-2.1-1.4c-0.6-0.3-1.3-0.4-2-0.4
		c-0.9,0-1.8,0.2-2.6,0.5c-0.8,0.3-1.5,0.7-2.2,1.2s-1.3,1-2,1.5l-0.1,0.1c0,0,0,0-0.1,0c-0.1,0-0.1-0.1-0.2-0.1
		c-0.6-0.5-1.3-0.9-2-1.2c-0.7-0.3-1.4-0.5-2.2-0.6c-0.7-0.1-1.4-0.1-2.1,0c-1.1,0.1-2.2,0.5-3.2,0.9c-0.1,0.1-0.2,0.1-0.3,0.2h-0.1
		c0-0.1,0-0.1,0-0.1c0.4-1.1,1-2,1.8-2.8c0.9-0.9,1.9-1.6,3-2.2c0.2-0.1,0.5-0.2,0.7-0.4v-0.1v-0.1c0-6.7,0-13.4,0-20.1
		c0-0.1,0-0.2,0-0.3c-0.2-0.1-0.4-0.2-0.6-0.3c-0.4-0.2-0.8-0.4-1.2-0.8c-0.3-0.3-0.6-0.6-0.8-0.9
		C-827.9,2486.3-828,2486.1-828,2485.9z"/>
	<path class="st0" d="M-831.4,2482.4c0,0.1-0.1,0.2-0.1,0.2c-0.5,1.1-0.9,2.3-1.2,3.5c-0.2,0.7-0.3,1.4-0.4,2
		c-0.1,0.7-0.2,1.3-0.2,2c0,0.6-0.1,1.2-0.1,1.8c0,0.4,0,0.8,0,1.2c0,0.7,0,1.4,0,2.1c0,0.6,0,1.2,0,1.9c0,0.4,0,0.7,0,1.1
		c0,0.1,0,0.1,0,0.2c0.1,0,0.1,0,0.1,0c0.4,0,0.9,0,1.3,0c0.4,0,0.8-0.1,1.2-0.1c0.7-0.1,1.4-0.3,2.1-0.5c1-0.3,2.1-0.7,3.1-1.1
		c0.1,0,0.2-0.1,0.4-0.2v0.1c-0.2,0.7-0.4,1.4-0.8,2.1c-0.3,0.8-0.8,1.4-1.4,2c-0.4,0.4-0.8,0.7-1.3,1.1c-0.7,0.5-1.5,0.9-2.3,1.2
		c-0.1,0-0.2,0.1-0.2,0.1c-0.4,0.1-0.8,0.1-1.2,0.1c-0.3,0-0.5,0.1-0.8,0.1c-0.1,0-0.2,0-0.2,0c0,0.1,0,0.3,0,0.4c0,0.1,0,0.3,0,0.4
		c0,0.6,0,1.3,0,1.9c0,0.3,0,0.5,0,0.8c0,0.5,0,1,0,1.4c0,0.2,0,0.4,0,0.7c0,0.4-0.1,0.9-0.2,1.3c-0.2,1.3-0.5,2.6-1.1,3.8
		c-0.4,0.8-0.8,1.5-1.4,2.2c-0.8,0.9-1.7,1.6-2.7,2.1c-0.5,0.3-1.1,0.5-1.6,0.7c-0.1,0-0.1,0.1-0.2,0c0-0.1,0-0.1,0.1-0.1
		c0.7-1.5,1.1-3.1,1.5-4.8c0.1-0.7,0.3-1.4,0.3-2.2c0.1-0.6,0.1-1.2,0.2-1.8c0-0.6,0.1-1.3,0.1-1.9c0-1.3,0-2.7,0-4
		c0-0.1,0-0.1,0-0.2l0,0c-0.1,0-0.2,0-0.3,0.1c-0.4,0.1-0.8,0.4-1.2,0.6c-0.4,0.3-0.7,0.6-1,1c0,0.1-0.1,0.1-0.1,0.2
		c-0.1,0,0-0.1,0-0.1c0.1-0.5,0.2-1.1,0.3-1.6c0.2-0.8,0.5-1.5,1-2.1c0.3-0.4,0.7-0.8,1.1-1.2c0.1-0.1,0.1-0.1,0.2-0.2l0,0
		c0,0,0-0.1,0-0.2c0-0.5-0.1-0.9-0.1-1.4c0-0.1,0-0.2,0-0.3c0-0.8-0.1-1.6-0.1-2.4c0-0.6,0-1.2,0.1-1.9c0.1-1.2,0.2-2.4,0.5-3.6
		c0.3-1.1,0.6-2.2,1.1-3.3c0.5-1,1.1-2,1.9-2.8c0.8-0.9,1.8-1.6,2.8-2.1c0.3-0.1,0.6-0.3,0.9-0.4
		C-831.5,2482.4-831.5,2482.4-831.4,2482.4z"/>
	<path class="st0" d="M-773.7,2490.1c-0.1,0.2-0.2,0.3-0.2,0.5c-0.7,1.7-1.4,3.3-2.1,5c0,0.1-0.1,0.2-0.1,0.3
		c-0.1,0.1-0.2,0.1-0.3,0c-0.1-0.1-0.1-0.3-0.2-0.4c-1-2.4-2-4.8-2.9-7.2c-0.1-0.3-0.2-0.5-0.4-0.8c-0.1-0.3-0.3-0.5-0.6-0.6
		c-0.1,0-0.2-0.1-0.1-0.2c0.1,0,0.1,0,0.2,0c1.1,0,2.3,0,3.4,0c0.1,0,0.2,0,0.2,0s0.1,0.1,0.1,0.2c-0.2,0-0.3,0.1-0.5,0.1
		c-0.2,0.1-0.3,0.2-0.3,0.4c0,0.1,0,0.2,0.1,0.3c0.1,0.3,0.2,0.6,0.3,0.9c0.5,1.3,1,2.5,1.6,3.8c0,0.1,0.1,0.2,0.2,0.4
		c0-0.1,0.1-0.1,0.1-0.1c0.5-1.1,0.9-2.2,1.4-3.2c-0.2-0.6-0.5-1.1-0.7-1.7c0-0.1-0.1-0.2-0.1-0.3c-0.2-0.3-0.4-0.5-0.8-0.6
		c-0.1,0-0.2,0-0.2,0s0-0.1-0.1-0.2c0.4-0.1,2.6-0.1,4.2,0c0.1,0,0.2,0,0.2,0c0,0.1,0.1,0.2,0,0.2c-0.2,0-0.3,0-0.5,0.1
		c-0.3,0.1-0.5,0.3-0.4,0.6c0,0.1,0.1,0.3,0.1,0.4c0.6,1.4,1.1,2.9,1.7,4.3c0,0.1,0.1,0.1,0.1,0.3c0.1-0.1,0.1-0.2,0.1-0.2
		c0.5-1.3,1-2.7,1.5-4c0.1-0.2,0.1-0.4,0.2-0.6c0.1-0.4-0.1-0.7-0.5-0.8c-0.1,0-0.3-0.1-0.4-0.1c0-0.1,0-0.1,0-0.2
		c0.1,0,0.1,0,0.2,0c0.7,0,1.3,0,2,0c0.1,0,0.2,0,0.2,0.1s0,0.1-0.2,0.2c-0.4,0.1-0.5,0.4-0.7,0.7c-0.4,1-0.8,1.9-1.1,2.9
		c-0.7,1.7-1.3,3.4-2,5.1c0,0.1-0.1,0.2-0.1,0.3c0,0.1-0.2,0.1-0.3,0c-0.1-0.1-0.1-0.2-0.1-0.3c-0.6-1.7-1.3-3.3-1.9-5
		C-773.6,2490.6-773.7,2490.4-773.7,2490.1z"/>
	<path class="st0" d="M-745.5,2486.9c-0.1,0-0.2,0-0.3,0c-0.1,0-0.3,0-0.4,0.1c-0.3,0.1-0.5,0.3-0.5,0.6c0,0.1,0,0.2,0,0.3
		c0,0.9,0,1.9,0,2.8v0.1c0.1,0,0.1,0,0.2,0c0.9,0,1.9,0,2.8,0c0.1,0,0.1,0,0.2,0c0-0.1,0-0.2,0-0.3c0-0.8,0-1.6,0-2.4
		c0-0.2,0-0.3,0-0.5c0-0.3-0.2-0.5-0.5-0.6c-0.2-0.1-0.4-0.1-0.6-0.1c-0.1,0-0.1,0-0.1-0.2c0.1,0,0.2,0,0.3,0c1.4,0,2.7,0,4.1,0
		c0.1,0,0.2,0,0.3,0c0,0,0.1,0.1,0.1,0.2c-0.1,0-0.2,0-0.3,0c-0.2,0-0.3,0-0.5,0.1c-0.3,0.1-0.4,0.3-0.5,0.6c0,0.2-0.1,0.5-0.1,0.7
		c0,1.9,0,3.9,0,5.8c0,0.2,0,0.5,0,0.7c0,0.3,0.2,0.5,0.4,0.6c0.1,0.1,0.3,0.1,0.4,0.1c0.1,0,0.2,0,0.3,0l0.1,0.1l-0.1,0.1
		c-0.3,0-4.3,0-4.6,0c-0.1-0.1,0-0.2,0.1-0.2c0.1,0,0.3,0,0.4,0c0.5-0.1,0.7-0.3,0.8-0.7c0-0.2,0-0.3,0-0.5c0-0.8,0-1.7,0-2.5
		c0-0.1,0-0.3,0-0.4c-0.1,0-0.1,0-0.2,0c-1,0-1.9,0-2.9,0h-0.1c0,0.1,0,0.2,0,0.3c0,0.9,0,1.7,0,2.6c0,0.1,0,0.3,0,0.4
		c0,0.5,0.3,0.7,0.8,0.8c0.1,0,0.3,0,0.4,0c0,0,0.1,0.1,0.1,0.2c-0.4,0.1-4.3,0.1-4.8,0c-0.1-0.1,0-0.2,0.1-0.2c0.1,0,0.3,0,0.4,0
		c0.4,0,0.7-0.3,0.8-0.8c0-0.2,0-0.3,0-0.5c0-2,0-4.1,0-6.1c0-0.2,0-0.3,0-0.5c0-0.4-0.2-0.6-0.6-0.7c-0.2,0-0.4,0-0.6-0.1l-0.1-0.1
		l0.1-0.1c0,0,0.1,0,0.2,0c1.4,0,2.8,0,4.2,0c0.1,0,0.1,0,0.2,0C-745.5,2486.8-745.5,2486.8-745.5,2486.9z"/>
	<path class="st0" d="M-698.7,2486.6c0.6,0,1.2,0,1.7,0.2c1.7,0.6,2.8,1.7,3.1,3.5c0.3,1.4,0,2.7-0.9,3.9c-0.8,1-1.8,1.6-3.1,1.8
		c-0.9,0.1-1.7,0.1-2.5-0.2c-1.7-0.5-2.7-1.7-3.1-3.3c-0.2-0.9-0.2-1.9,0.1-2.8c0.4-1.3,1.8-2.9,3.9-3
		C-699.2,2486.6-699,2486.6-698.7,2486.6z M-696.3,2491.3c0-0.6,0-1.2-0.1-1.8c-0.1-0.6-0.3-1.2-0.6-1.7c-0.7-1-2.3-1.1-3.1-0.3
		c-0.4,0.4-0.7,0.9-0.8,1.5c-0.1,0.5-0.2,1-0.2,1.5c-0.1,0.9,0,1.8,0.1,2.6c0.1,0.5,0.2,0.9,0.5,1.3c0.3,0.4,0.6,0.8,1.1,0.9
		c0.9,0.3,1.9,0.1,2.5-0.9c0.3-0.5,0.4-1,0.5-1.5S-696.3,2491.9-696.3,2491.3z"/>
	<path class="st0" d="M-716.8,2495.3c0-0.1,0-0.1,0-0.2c0-0.7,0-1.3,0-2c0-0.5-0.2-0.7-0.7-0.8c-0.1,0-0.3,0-0.4,0l-0.1-0.1
		c0,0,0-0.1,0.1-0.1s0.1,0,0.2,0c1.3,0,2.7,0,4,0c0.1,0,0.1,0,0.2,0c0,0.1,0.1,0.2,0,0.2c-0.1,0-0.3,0.1-0.4,0.1
		c-0.4,0.1-0.6,0.3-0.6,0.7c0,0.1,0,0.2,0,0.3c0,0.5,0,1,0,1.5c0,0.1,0,0.3,0,0.4c-0.5,0.3-1,0.4-1.6,0.5c-0.9,0.2-1.8,0.3-2.7,0.3
		c-1.3-0.1-2.4-0.5-3.4-1.4c-1.1-1-1.5-2.2-1.4-3.7c0.1-1.1,0.5-2.1,1.2-2.9c0.9-1,2-1.5,3.4-1.6c0.6,0,1.2-0.1,1.8,0.1
		c0.4,0.1,0.7,0.2,1,0.3c0.2,0.1,0.4,0.1,0.5,0.2c0.3,0.1,0.5,0,0.7-0.3c0-0.1,0.1-0.2,0.1-0.2c0-0.1,0.1-0.1,0.3-0.1
		c0,1,0,2.1,0,3.1c-0.2,0-0.2,0-0.3-0.1c-0.1-0.2-0.2-0.4-0.3-0.6c-0.4-0.7-0.9-1.3-1.7-1.7c-0.7-0.3-1.4-0.4-2.2-0.2
		s-1.3,0.7-1.7,1.4c-0.2,0.4-0.3,0.8-0.4,1.2c-0.2,1.2-0.2,2.4,0.1,3.6c0.1,0.2,0.1,0.4,0.2,0.6c0.3,0.7,0.8,1.2,1.5,1.4
		C-718.4,2495.6-717.6,2495.6-716.8,2495.3z"/>
	<path class="st0" d="M-685.3,2492.3c0-0.2,0-0.3,0-0.4c0-1.2,0-2.4,0-3.6c0-0.2,0-0.4-0.1-0.6c-0.1-0.4-0.3-0.5-0.6-0.6
		c-0.2-0.1-0.4-0.1-0.5-0.1c0-0.2,0-0.2,0.1-0.2s0.1,0,0.2,0c0.8,0,1.6,0,2.3,0c0.1,0,0.2,0,0.3,0c0,0.2,0,0.2-0.1,0.2
		c-0.1,0-0.2,0-0.3,0.1c-0.5,0.1-0.7,0.3-0.8,0.8c0,0.3-0.1,0.6-0.1,0.9c0,2.3,0,4.6,0,6.8c0,0.2,0,0.3,0,0.5c-0.1,0-0.1,0-0.2-0.1
		c-0.1-0.1-0.2-0.2-0.2-0.3c-1.9-2.3-3.8-4.6-5.7-6.9c-0.1-0.1-0.2-0.2-0.3-0.3c0,0.1-0.1,0.1-0.1,0.2c0,0.1,0,0.2,0,0.3
		c0,1.6,0,3.2,0,4.8c0,0.2,0,0.5,0,0.7c0.1,0.6,0.4,0.8,0.9,0.9c0.1,0,0.2,0,0.3,0c0.1,0,0.1,0.1,0.1,0.2c0,0,0,0-0.1,0
		c-0.3,0-2.8,0-3.1,0c-0.1-0.1-0.1-0.2,0.1-0.2s0.3-0.1,0.5-0.1c0.4-0.1,0.6-0.4,0.7-0.8c0-0.1,0-0.3,0-0.4c0-2,0-4.1,0-6.1
		c0-0.2-0.1-0.4-0.2-0.6c-0.2-0.3-0.5-0.5-0.9-0.6c-0.1,0-0.1,0-0.2,0c0-0.2,0-0.2,0.1-0.2l0,0c1,0,2,0,3.1,0
		c0.1,0.1,0.2,0.2,0.3,0.3c1.3,1.6,2.6,3.2,3.9,4.8C-685.6,2491.9-685.5,2492.1-685.3,2492.3z"/>
	<path class="st0" d="M-734.1,2486.9c0-0.1,0.1-0.1,0.1-0.1c0.1,0,0.2,0,0.3,0c0.9,0,1.8,0,2.7,0c0.1,0,0.1,0,0.2,0
		c0.1,0.1,0.2,0.2,0.3,0.4c1.3,1.6,2.5,3.2,3.8,4.7c0.1,0.1,0.2,0.3,0.4,0.4c0-0.1,0-0.2,0-0.3c0-1.2,0-2.5,0-3.7
		c0-0.2,0-0.3-0.1-0.5c-0.1-0.4-0.3-0.6-0.7-0.7c-0.2-0.1-0.4-0.1-0.6-0.1c0-0.1,0-0.1,0-0.2c0.4-0.1,2.6-0.1,3,0
		c0,0.1,0,0.2-0.1,0.2c-0.1,0-0.2,0.1-0.3,0.1c-0.4,0.1-0.7,0.3-0.7,0.8c0,0.3-0.1,0.6-0.1,0.9c0,2.3,0,4.6,0,6.9c0,0.2,0,0.3,0,0.5
		c-0.1,0-0.2,0-0.2,0c-0.1-0.1-0.2-0.2-0.2-0.3c-1.9-2.3-3.7-4.5-5.6-6.8c-0.1-0.1-0.2-0.2-0.3-0.3c-0.1,0-0.1,0.1-0.1,0.2v0.1
		c0,1.8,0,3.6,0,5.3c0,0.1,0,0.2,0,0.3c0.1,0.6,0.4,0.9,1,1c0.1,0,0.2,0,0.3,0c0,0,0.1,0.1,0.1,0.2c-0.4,0.1-2.9,0.1-3.3,0
		c0-0.1,0.1-0.1,0.1-0.2c0,0,0.1,0,0.2,0s0.2,0,0.3-0.1c0.4-0.1,0.7-0.3,0.7-0.8c0-0.2,0.1-0.5,0.1-0.7c0-1.9,0-3.9,0-5.8v-0.1
		c0-0.2,0-0.4-0.2-0.5c-0.3-0.3-0.6-0.6-1-0.7C-734,2486.9-734,2486.9-734.1,2486.9z"/>
	<path class="st0" d="M-751.9,2486.4c0.1,0.4,0.1,2.5,0.1,3h-0.1c-0.1,0-0.1-0.1-0.1-0.2c-0.1-0.2-0.1-0.5-0.2-0.7
		c-0.4-0.8-1-1.4-1.9-1.6c-0.4-0.1-0.8-0.1-1.2,0c-0.2,0.1-0.4,0.2-0.6,0.4c-0.3,0.4-0.4,0.9,0,1.4c0.2,0.3,0.5,0.5,0.8,0.7
		c0.4,0.2,0.8,0.4,1.2,0.6c0.5,0.3,1.1,0.5,1.5,0.9c0.3,0.2,0.6,0.5,0.8,0.8c0.6,0.9,0.5,2-0.1,2.9c-0.5,0.6-1.1,1-1.9,1.2
		c-0.7,0.1-1.4,0.1-2.1-0.2c-0.2-0.1-0.4-0.1-0.6-0.2c-0.4-0.2-0.7-0.2-1.1,0.3l-0.1,0.1c0,0-0.1,0-0.2,0c-0.1-0.3-0.1-3,0-3.4
		c0.1,0,0.2,0,0.2,0.1c0.1,0.1,0.1,0.2,0.1,0.3c0.1,0.3,0.2,0.7,0.4,1c0.3,0.7,0.9,1.2,1.6,1.5c0.5,0.2,1.1,0.3,1.6,0.1
		c0.3-0.1,0.6-0.3,0.7-0.5c0.3-0.4,0.4-0.9,0.1-1.4c-0.2-0.3-0.4-0.5-0.7-0.7s-0.6-0.3-0.9-0.5c-0.5-0.2-0.9-0.5-1.4-0.7
		c-0.3-0.2-0.6-0.4-0.9-0.6c-0.4-0.4-0.7-0.8-0.8-1.3c-0.2-0.9,0-1.6,0.6-2.3c0.6-0.6,1.3-0.9,2.1-0.9c0.6,0,1.2,0.1,1.7,0.4
		c0.2,0.1,0.4,0.2,0.6,0.2c0.2,0.1,0.4,0,0.5-0.2c0-0.1,0.1-0.2,0.1-0.3C-752,2486.6-752,2486.6-751.9,2486.4z"/>
	<path class="st0" d="M-709.8,2487.3c-0.2-0.1-0.5,0-0.8,0c-0.1,0-0.2,0-0.3,0c-0.6,0-1,0.4-1.3,0.9c-0.1,0.2-0.2,0.4-0.3,0.6
		c0,0.1-0.1,0.2-0.1,0.3c0,0-0.1,0-0.1,0.1c0-0.1-0.1-0.1-0.1-0.1c0-0.5,0-2,0-2.3c0.1,0,0.2,0,0.3,0c2.5,0,5.1,0,7.6,0
		c0.1,0,0.2,0,0.3,0c0,0.1,0.1,0.1,0.1,0.2c0,0.7,0,1.3,0,2c0,0.1,0,0.1,0,0.2c0,0.1-0.1,0.1-0.2,0c0-0.1-0.1-0.1-0.1-0.2
		c-0.1-0.2-0.2-0.4-0.2-0.7c-0.2-0.4-0.4-0.7-0.8-0.9c-0.1-0.1-0.2-0.1-0.3-0.1c-0.4-0.1-0.9-0.1-1.4,0c0,0.1,0,0.2-0.1,0.3
		c0,0.3,0,0.7,0,1c0,1.8,0,3.5,0,5.3c0,0.3,0,0.7,0,1c0,0.4,0.3,0.7,0.7,0.7c0.2,0,0.3,0,0.5,0c0.1,0,0.2,0.1,0.1,0.2h-0.1
		c-1.5,0-3,0-4.5,0c0,0-0.1,0-0.2,0c0-0.1,0.1-0.2,0.1-0.2c0.1,0,0.2,0,0.3,0c0.1,0,0.3,0,0.4-0.1c0.2-0.1,0.4-0.2,0.4-0.5
		c0-0.2,0.1-0.4,0.1-0.6c0-2.3,0-4.5,0-6.8C-709.7,2487.4-709.7,2487.4-709.8,2487.3z"/>
	<path class="st0" d="M-763.1,2495.8c0-0.1,0.1-0.2,0.1-0.2c0.1,0,0.2,0,0.3,0c0.1,0,0.3,0,0.4-0.1c0.2-0.1,0.3-0.3,0.3-0.5
		c0-0.1,0-0.2-0.1-0.2c-0.2-0.5-0.4-0.9-0.6-1.4c0,0,0-0.1-0.1-0.1c-0.4-0.1-0.7,0-1.1,0c-0.4,0-0.7,0-1.1,0c-0.4,0-0.7,0-1.1,0
		c-0.2,0.4-0.4,0.8-0.5,1.3c0,0.1,0,0.1,0,0.2c0,0.4,0.1,0.6,0.5,0.7c0.2,0.1,0.4,0.1,0.6,0.1c0.1,0,0.1,0.1,0.1,0.2
		c0,0,0,0.1-0.1,0.1c-0.3,0-2.6,0-2.9,0c-0.1-0.1-0.1-0.2,0-0.2l0,0c0.5-0.1,0.8-0.5,1-0.9c0.2-0.3,0.3-0.6,0.5-0.9
		c1-2.3,2.1-4.5,3.1-6.8c0.1-0.1,0.1-0.3,0.2-0.4c0.1,0,0.2,0.1,0.2,0.2c0.3,0.6,0.6,1.3,0.9,1.9c0.8,1.8,1.6,3.6,2.4,5.4
		c0.1,0.3,0.3,0.6,0.5,0.9c0.2,0.3,0.4,0.6,0.9,0.7c0.1,0,0.1,0.1,0.1,0.2h-0.1c-1.4,0-2.8,0-4.1,0
		C-762.9,2495.8-763,2495.8-763.1,2495.8z M-763,2492.6C-763,2492.6-763,2492.6-763,2492.6c-0.4-1-0.8-1.9-1.2-2.8l-0.1-0.1
		c0,0.1-0.1,0.1-0.1,0.2c-0.4,0.9-0.8,1.8-1.2,2.7l0,0l0,0h0.1c0.8,0,1.6,0,2.3,0C-763.1,2492.8-763.1,2492.6-763,2492.6z"/>
	<path class="st0" d="M-734.6,2486.9c-0.1,0-0.2,0-0.3,0c-0.1,0-0.2,0-0.3,0c-0.4,0.1-0.6,0.3-0.6,0.7c0,0.2,0,0.4,0,0.6
		c0,2,0,3.9,0,5.9c0,0.2,0,0.4,0,0.6c0,0.5,0.3,0.7,0.8,0.8c0.1,0,0.3,0,0.4,0c0.1,0,0.1,0.1,0.1,0.1s0,0.1-0.1,0.1
		c-0.3,0-4.4,0-4.7,0c-0.1-0.1,0-0.2,0.1-0.2c0.1,0,0.3,0,0.4,0c0.2,0,0.4-0.1,0.5-0.2c0.2-0.1,0.2-0.3,0.2-0.5c0-0.3,0-0.6,0-0.8
		c0-1.8,0-3.7,0-5.5c0-0.3,0-0.5,0-0.8c0-0.4-0.2-0.7-0.6-0.8c-0.2,0-0.3,0-0.5-0.1l-0.1-0.1l0.1-0.1c0.1,0,0.2,0,0.3,0
		c1.4,0,2.7,0,4.1,0c0.1,0,0.2,0,0.3,0C-734.6,2486.6-734.6,2486.8-734.6,2486.9z"/>
	<path class="st0" d="M-733.3,2514.6c0.1-0.6,0.3-1.1,0.5-1.7c-0.1-0.1-0.1-0.1-0.2-0.2c-0.4-0.3-0.8-0.6-1.2-0.9
		c0-0.1,0.1-0.1,0.1-0.1c0.4,0,0.8,0,1.2,0c0.1,0,0.3,0,0.4,0c0.3-0.6,0.4-1.2,0.6-1.8c0.1,0.1,0.1,0.2,0.1,0.2
		c0.1,0.4,0.2,0.7,0.3,1.1c0,0.1,0.1,0.3,0.2,0.4c0.6,0.1,1.2,0,1.8,0.1c-0.5,0.4-1,0.7-1.5,1.1c0.2,0.6,0.4,1.1,0.5,1.7
		c-0.2-0.1-0.4-0.2-0.5-0.3c-0.2-0.1-0.3-0.2-0.5-0.3c-0.2-0.1-0.3-0.2-0.5-0.4c-0.3,0.1-0.5,0.4-0.8,0.5
		C-732.8,2514.3-733.1,2514.4-733.3,2514.6z"/>
	<path class="st0" d="M-720.6,2512.9c-0.5-0.4-1-0.7-1.4-1c0.1-0.1,0.2-0.1,0.3-0.1c0.1,0,0.2,0,0.3,0s0.2,0,0.3,0s0.2,0,0.3,0
		c0.1,0,0.2,0,0.3,0c0.1,0,0.2,0,0.3,0c0.3-0.6,0.4-1.2,0.6-1.8c0.3,0.6,0.4,1.2,0.6,1.8c0.6,0,1.2,0,1.8,0c0,0.2-0.2,0.2-0.2,0.3
		c-0.1,0.1-0.2,0.1-0.3,0.2c-0.1,0.1-0.2,0.2-0.3,0.2c-0.1,0.1-0.2,0.1-0.3,0.2c-0.1,0.1-0.2,0.1-0.3,0.2c0.1,0.3,0.2,0.6,0.3,0.9
		c0.1,0.3,0.2,0.5,0.2,0.9c-0.5-0.3-1-0.7-1.5-1c-0.1,0.1-0.2,0.1-0.3,0.2c-0.3,0.2-0.7,0.5-1,0.7c-0.1,0.1-0.2,0.1-0.3,0.2
		C-721,2513.9-720.7,2513.4-720.6,2512.9z"/>
	<path class="st0" d="M-707.3,2513.6c-0.5,0.3-1,0.7-1.4,1c-0.1-0.1,0-0.1,0-0.2c0.1-0.4,0.3-0.8,0.4-1.2c0-0.1,0.1-0.2,0.1-0.3
		c-0.4-0.4-0.9-0.7-1.4-1c0-0.1,0.1-0.1,0.2-0.1c0.4,0,0.7,0,1.1,0c0.1,0,0.3,0,0.4,0c0.2-0.3,0.2-0.6,0.3-0.9
		c0.1-0.3,0.2-0.6,0.3-0.8c0.1,0,0.1,0.1,0.1,0.1c0.1,0.4,0.3,0.9,0.4,1.3c0,0.1,0.1,0.2,0.1,0.3c0.3,0.1,0.6,0,0.9,0
		c0.3,0,0.6,0,0.9,0c-0.2,0.2-0.3,0.3-0.5,0.4c-0.2,0.1-0.3,0.2-0.5,0.4c-0.2,0.1-0.3,0.2-0.5,0.3c0,0.1,0,0.2,0,0.3
		c0.1,0.3,0.2,0.7,0.3,1c0,0.1,0.1,0.3,0.1,0.4c-0.1,0.1-0.1,0-0.2,0c-0.3-0.2-0.7-0.5-1-0.7
		C-707.1,2513.6-707.2,2513.6-707.3,2513.6z"/>
	<path class="st0" d="M-744.2,2509.9c0.3,0.6,0.4,1.2,0.6,1.8c0.6,0,1.2,0,1.7,0c0,0.1,0,0.1-0.1,0.2c-0.3,0.2-0.6,0.5-0.9,0.7
		c-0.1,0.1-0.2,0.2-0.3,0.3c0.1,0.6,0.4,1.1,0.6,1.8c-0.6-0.3-1-0.7-1.5-1.1c-0.3,0.1-0.5,0.3-0.8,0.5c-0.2,0.2-0.5,0.4-0.7,0.5
		c0-0.4,0.1-0.6,0.2-0.9c0.1-0.3,0.2-0.5,0.3-0.8c-0.5-0.4-1-0.7-1.4-1c0-0.1,0.1-0.1,0.2-0.1c0.4,0,0.8,0,1.2,0c0.1,0,0.3,0,0.4,0
		C-744.5,2511.1-744.4,2510.6-744.2,2509.9z"/>
	<path class="st0" d="M-755,2514.6c-0.5-0.3-1-0.7-1.5-1c-0.3,0.2-0.5,0.4-0.8,0.5c-0.2,0.2-0.5,0.3-0.7,0.5c0-0.3,0.1-0.4,0.1-0.6
		c0.1-0.2,0.1-0.4,0.2-0.6c0.1-0.2,0.1-0.4,0.2-0.6c-0.4-0.4-1-0.7-1.4-1.1c0.2-0.1,0.4,0,0.6-0.1c0.2,0,0.4,0,0.6,0
		c0.2,0,0.4,0,0.6,0c0.3-0.6,0.4-1.2,0.6-1.7c0.2,0.2,0.2,0.4,0.2,0.6c0.1,0.2,0.1,0.4,0.2,0.5c0.1,0.2,0.1,0.4,0.2,0.6
		c0.3,0.1,0.6,0,0.9,0s0.6,0,0.9,0c0.1,0.1,0,0.2-0.1,0.2c-0.3,0.2-0.6,0.4-0.8,0.6c-0.1,0.1-0.3,0.2-0.4,0.3c0,0.1,0,0.2,0.1,0.3
		C-755.2,2513.6-755.1,2514.1-755,2514.6C-755,2514.6-755,2514.6-755,2514.6z"/>
	<g>
		<path class="st0" d="M-680,2504.9c-0.2-0.1-0.4,0-0.5,0c-3.5,0-7,0-10.5,0c-0.2,0-0.3,0-0.6-0.1c0-0.2,0-0.3,0-0.5
			c0-0.8,0-1.6,0-2.4c0-0.1,0-0.1,0-0.2v7.7c0-0.2,0-0.3,0-0.5c0-0.9,0-1.9,0-2.8c0-0.1,0-0.3,0.1-0.4c0.1,0,0.3,0,0.5,0
			c1.7,0,3.4,0,5,0c1.9,0,3.7,0,5.6,0c0.2,0,0.3,0,0.5-0.1C-680,2505.3-679.9,2505.1-680,2504.9z"/>
		<path class="st0" d="M-772.5,2509.3c0.2,0.1,0.4,0,0.7,0c26.5,0,53,0,79.5,0c0.1,0,0.3,0,0.4,0c0.1,0,0.2,0,0.3,0H-772.5
			L-772.5,2509.3z"/>
		<path class="st0" d="M-691.7,2501.4c-0.2-0.1-0.5,0-0.7,0c-26.5,0-53,0-79.5,0c-0.1,0-0.3,0-0.4,0c-0.1,0-0.2,0-0.3,0H-691.7
			C-691.7,2501.4-691.7,2501.4-691.7,2501.4z"/>
		<path class="st0" d="M-772.6,2501.9c0,0.8,0,1.6,0,2.4c0,0.1,0,0.3-0.1,0.4c-0.2,0.1-0.3,0-0.5,0c-3,0-6,0-9,0c-0.4,0-0.9,0-1.3,0
			c-0.1,0-0.2,0-0.3,0c0,0.2,0,0.4,0,0.7c0.1,0,0.2,0,0.2,0c0.2,0,0.4,0,0.6,0c3.3,0,6.5,0,9.8,0c0.2,0,0.3,0,0.5,0
			c0.1,0.2,0.1,0.3,0.1,0.5c0,0.9,0,1.8,0,2.7c0,0.1,0,0.2,0,0.4v-7.7C-772.6,2501.6-772.6,2501.8-772.6,2501.9z"/>
		<polygon class="st0" points="-691.6,2501.4 -691.7,2501.4 -772.6,2501.4 -772.6,2509.1 -772.6,2509.3 -772.5,2509.3 
			-691.6,2509.3 -691.6,2501.6 		"/>
	</g>
	<g>
		<path class="st1" d="M-739.1,2503.4c-0.2,0-0.3-0.1-0.5-0.1c-0.1,0-0.1,0-0.2-0.1v-0.1c0,0,0-0.1,0.1-0.1h0.1c0.5,0,1.1,0,1.6,0
			h0.1c0,0,0,0,0,0.1v0.1c-0.1,0-0.2,0.1-0.4,0.1c-0.2,0.1-0.3,0.1-0.3,0.3c0,0.4,0,0.8,0,1.2c0,0.1,0,0.1,0,0.2
			c0.4,0.1,1.8,0.1,2.3,0c0-0.2,0-0.5,0-0.8c0-0.2,0-0.5,0-0.7c0-0.1-0.1-0.2-0.2-0.2c-0.2,0-0.3-0.1-0.5-0.1v-0.1c0,0,0,0,0.1-0.1
			h0.1c0.5,0,1.1,0,1.6,0h0.1c0,0,0.1,0,0.1,0.1c0,0,0,0.1-0.1,0.1s-0.2,0-0.2,0.1c-0.1,0-0.2,0.1-0.3,0.1c0,0.1,0,0.2,0,0.4
			c0,1.1,0,2.3,0,3.4c0.2,0.2,0.5,0.1,0.7,0.3c0,0.1-0.2,0.1-0.3,0.1c-0.4,0-0.9,0-1.3,0c-0.1,0-0.3,0-0.4,0c0,0-0.1,0-0.1-0.1
			c0,0,0-0.1,0.1-0.1c0.1,0,0.2-0.1,0.4-0.1c0.1,0,0.2-0.1,0.2-0.3c0-0.5,0.1-1,0-1.5c-0.4-0.1-0.8,0-1.1,0c-0.4,0-0.7,0-1.1,0
			c-0.1,0.3-0.1,1,0,1.7c0.1,0.1,0.2,0.1,0.4,0.2c0.1,0,0.2,0,0.2,0.1c0,0,0,0,0,0.1v0.1c-0.1,0-0.1,0-0.2,0c-0.5,0-1.1,0-1.6,0
			h-0.1c0,0,0,0,0-0.1v-0.1c0,0,0.1-0.1,0.2-0.1c0.2,0,0.3-0.1,0.5-0.1c0-0.1,0-0.2,0-0.3c0-1.1,0-2.2,0-3.3
			C-739.1,2503.6-739.1,2503.4-739.1,2503.4z"/>
		<path class="st1" d="M-711.5,2504.6c0.2,0,0.3,0,0.4,0c0.3,0,0.7,0,1,0l0,0c0,0,0,0,0,0.1c-0.1,0-0.2,0.1-0.3,0.1
			c-0.2,0.1-0.3,0.2-0.4,0.3c0,0.1-0.1,0.1-0.1,0.2c-0.2,0.4-0.5,0.8-0.7,1.2c0.1,0.2,0.3,0.3,0.6,0.4c0.2,0.1,0.4,0.1,0.6,0
			c0.1,0,0.2-0.1,0.3-0.1c0.1,0,0.2-0.1,0.2,0c0,0.1,0,0.1-0.1,0.2c-0.2,0.1-0.3,0.3-0.5,0.4c-0.3,0.2-0.6,0.2-0.9,0
			c-0.1-0.1-0.2-0.1-0.3-0.2c-0.1-0.1-0.2-0.2-0.3-0.3c-0.1,0.1-0.2,0.2-0.3,0.2c-0.4,0.3-0.8,0.4-1.2,0.4c-0.9-0.1-1.3-1-0.9-1.7
			c0.1-0.2,0.3-0.4,0.5-0.5c0.2-0.1,0.4-0.2,0.6-0.4c0-0.1-0.1-0.2-0.1-0.3c0-0.2-0.1-0.3-0.1-0.5c-0.1-0.5,0.1-0.9,0.6-1.2
			c0.3-0.1,0.5-0.2,0.8-0.1c0.5,0.1,0.7,0.5,0.5,1c-0.1,0.3-0.3,0.5-0.6,0.7c-0.1,0.1-0.3,0.2-0.4,0.3c0.1,0.4,0.4,0.9,0.8,1.3
			c0.3-0.3,0.5-0.7,0.6-1.1c0-0.1,0-0.2-0.1-0.2l-0.1-0.1C-711.4,2504.8-711.5,2504.8-711.5,2504.6z M-712.2,2506.8
			c-0.1-0.2-0.2-0.4-0.4-0.5c-0.1-0.2-0.2-0.3-0.3-0.5s-0.2-0.4-0.3-0.5c-0.2,0.1-0.3,0.2-0.4,0.3c-0.2,0.2-0.3,0.3-0.4,0.6
			c-0.1,0.5,0.3,1,0.6,1C-712.9,2507.3-712.5,2507.1-712.2,2506.8z M-712.7,2504.6c0.3-0.1,0.5-0.2,0.6-0.4c0.2-0.2,0.2-0.5,0.1-0.7
			c0-0.2-0.2-0.4-0.4-0.4s-0.4,0.1-0.5,0.3c0,0.1-0.1,0.2,0,0.3C-712.9,2504.1-712.9,2504.4-712.7,2504.6z"/>
		<path class="st1" d="M-746.9,2507.6c-0.1-0.1-0.1-0.1-0.1-0.2c-0.4-0.5-0.7-1.1-1.1-1.6c-0.2-0.3-0.3-0.3-0.7-0.3
			c0,0.1,0,0.1,0,0.2c0,0.4,0,0.9,0,1.3c0,0.2,0,0.2,0.2,0.3c0.1,0,0.3,0.1,0.4,0.1l0.1,0.1l-0.1,0.1c-0.2,0-0.4,0-0.6,0
			c-0.4,0-0.8,0-1.3,0c0,0-0.1,0-0.1-0.1c0,0,0-0.1,0.1-0.1c0.1,0,0.2-0.1,0.4-0.1s0.3-0.1,0.3-0.3c0-0.1,0-0.1,0-0.2
			c0-1,0-1.9,0-2.9c0-0.1,0-0.3,0-0.4c-0.2-0.3-0.5-0.1-0.7-0.4c0.1,0,0.2-0.1,0.3-0.1c0.7,0,1.4,0,2.1,0c0.2,0,0.4,0,0.6,0.1
			c0.3,0.1,0.5,0.3,0.6,0.7c0.1,0.6,0,1.1-0.6,1.4c-0.1,0.1-0.2,0.1-0.4,0.2c-0.1,0.1,0,0.2,0.1,0.2c0.3,0.4,0.6,0.8,0.9,1.2
			c0.2,0.2,0.4,0.4,0.6,0.4c0.1,0,0.2,0,0.3,0.1l0.1,0.1l-0.1,0.1C-746.1,2507.6-746.5,2507.6-746.9,2507.6z M-748.9,2503.4
			c-0.1,0.4-0.1,1.4,0,1.7c0.3,0.1,0.6,0.1,0.9,0c0.4-0.1,0.6-0.3,0.6-0.7c0-0.1,0-0.2,0-0.3c0-0.4-0.2-0.6-0.6-0.7
			C-748.2,2503.3-748.5,2503.4-748.9,2503.4z"/>
		<path class="st1" d="M-763.6,2507.4l-0.1,0.1c-0.4,0-0.8,0-1.1,0c-0.1-0.1-0.1-0.1-0.1-0.2c-0.4-0.5-0.8-1-1.1-1.6
			c-0.2-0.3-0.4-0.4-0.8-0.3l0,0v0.1v0.1c0,0.5,0,0.9,0.1,1.4c0.2,0.2,0.5,0.1,0.7,0.4c-0.1,0-0.1,0.1-0.2,0.1c-0.4,0-0.9,0-1.3,0
			c-0.2,0-0.3,0-0.5,0c0,0-0.1,0-0.1-0.1c0,0,0-0.1,0.1-0.1c0.1,0,0.2-0.1,0.3-0.1c0.3-0.1,0.3-0.1,0.3-0.4c0-0.3,0-0.7,0-1
			c0-0.7,0-1.4,0-2.2v-0.1c0-0.1-0.1-0.2-0.2-0.3c-0.1,0-0.2,0-0.3-0.1c-0.1,0-0.1-0.1-0.2-0.1c0.1-0.2,0.2-0.1,0.3-0.1
			c0.6,0,1.1,0,1.7,0c0.2,0,0.4,0,0.6,0c0.6,0,0.9,0.3,1,0.8c0.1,0.5,0,1-0.5,1.3c-0.1,0.1-0.2,0.1-0.3,0.2c-0.1,0-0.2,0.1-0.2,0.1
			c0,0.1,0,0.2,0.1,0.2c0.3,0.4,0.6,0.8,0.9,1.2c0.2,0.3,0.4,0.4,0.7,0.5C-763.8,2507.4-763.7,2507.4-763.6,2507.4
			C-763.6,2507.4-763.6,2507.4-763.6,2507.4z M-766.9,2503.4c0,0.3,0,0.6,0,0.9s-0.1,0.6,0,0.9c0.1,0,0.2,0,0.3,0c0.1,0,0.3,0,0.4,0
			c0.6-0.1,1-0.7,0.8-1.3c-0.1-0.2-0.2-0.4-0.5-0.5C-766.1,2503.3-766.5,2503.4-766.9,2503.4z"/>
		<path class="st1" d="M-750.7,2505.1c0,0.5-0.1,0.9-0.3,1.3c-0.3,0.6-0.8,1-1.5,1.1c-0.4,0.1-0.8,0.1-1.2,0
			c-0.7-0.1-1.1-0.5-1.4-1.1s-0.3-1.3-0.1-2c0.3-0.9,0.9-1.4,1.8-1.6c0.3-0.1,0.6-0.1,0.9,0c0.7,0.1,1.5,0.6,1.7,1.7
			C-750.7,2504.9-750.7,2504.9-750.7,2505.1z M-751.4,2505.3c0-0.1,0-0.1,0-0.2c0-0.4-0.1-0.9-0.4-1.2c-0.2-0.3-0.5-0.5-0.8-0.6
			c-1-0.2-1.6,0.3-1.9,1.1c-0.2,0.6-0.2,1.1,0,1.7c0,0.2,0.1,0.3,0.2,0.5c0.3,0.6,0.8,0.9,1.5,0.9c0.6,0,1-0.4,1.3-0.9
			C-751.5,2506.1-751.4,2505.6-751.4,2505.3z"/>
		<path class="st1" d="M-734.4,2505.4c0-0.7,0.2-1.3,0.8-1.8c0.5-0.5,1.2-0.6,1.8-0.6c0.2,0,0.3,0,0.5,0.1c0.7,0.2,1.2,0.7,1.4,1.4
			c0.2,0.6,0.2,1.2,0,1.8c-0.3,0.8-0.9,1.3-1.8,1.5c-0.3,0.1-0.6,0.1-0.9,0c-0.9-0.1-1.4-0.7-1.7-1.5
			C-734.4,2505.9-734.4,2505.6-734.4,2505.4z M-730.5,2505.3c0-0.1,0-0.3,0-0.4c0-0.4-0.1-0.7-0.4-1.1c-0.2-0.3-0.4-0.5-0.8-0.6
			c-0.9-0.2-1.6,0.2-1.9,1c-0.2,0.6-0.2,1.3,0,1.9c0,0.2,0.1,0.3,0.2,0.5c0.4,0.5,0.9,0.7,1.5,0.7c0.6-0.1,1-0.4,1.2-1
			C-730.5,2505.9-730.5,2505.6-730.5,2505.3z"/>
		<path class="st1" d="M-762.8,2503.4c-0.2-0.1-0.4-0.1-0.6-0.2l-0.1-0.1l0.1-0.1c0.2,0,0.4,0,0.6,0c0.8,0,1.5,0,2.3,0
			c0.2,0,0.4,0,0.6,0.1c0,0.2,0,0.3,0,0.5c0,0.2,0.1,0.3,0,0.5c-0.1,0-0.1-0.1-0.2-0.1c-0.1-0.1-0.1-0.3-0.2-0.4
			c-0.1-0.1-0.2-0.2-0.3-0.2c-0.5,0-1.1,0-1.6,0c-0.1,0.6,0,1.1,0,1.6c0.5,0.1,0.9,0.1,1.4,0c0.1-0.2,0.1-0.4,0.2-0.5h0.1
			c0,0,0,0,0.1,0.1l0,0c0,0.5,0,0.9,0,1.4l-0.1,0.1c0,0-0.1,0-0.1-0.1s-0.1-0.2-0.1-0.3c0-0.1-0.1-0.2-0.3-0.2c-0.4,0-0.8,0-1.1,0
			c-0.1,0.3-0.1,1.3,0,1.8c0.1,0,0.2,0,0.2,0c0.4,0,0.8,0,1.1,0c0.4,0,0.6-0.1,0.8-0.5c0.1-0.1,0.1-0.2,0.2-0.3h0.1
			c0.1,0,0.1,0.1,0.1,0.1c-0.1,0.2-0.1,0.4-0.2,0.6c0,0.1-0.1,0.2-0.1,0.4c-0.2,0.1-0.3,0-0.5,0c-0.9,0-1.9,0-2.8,0
			c-0.1,0-0.2,0-0.3,0c0-0.1,0-0.2,0.1-0.2c0.7-0.1,0.6-0.2,0.6-0.7c0-0.9,0-1.9,0-2.8C-762.8,2503.6-762.8,2503.6-762.8,2503.4z"/>
		<path class="st1" d="M-721.4,2507.6c-0.2,0-0.3,0-0.4,0c-0.9,0-1.9,0-2.8,0c-0.1,0-0.2,0-0.3,0c0,0-0.1,0,0-0.1c0,0,0-0.1,0.1-0.1
			c0.1,0,0.3-0.1,0.4-0.1c0.2-0.1,0.2-0.1,0.2-0.3c0-1.1,0-2.2,0-3.3c0-0.1,0-0.1,0-0.2c-0.1-0.1-0.3-0.2-0.5-0.2
			c-0.1,0-0.1,0-0.2-0.1v-0.1c0,0,0-0.1,0.1-0.1c0.1,0,0.1,0,0.2,0c0.9,0,1.7,0,2.6,0c0.2,0,0.5,0,0.7,0.1c0,0.3,0.1,0.6,0.1,0.9
			c0,0,0,0.1-0.1,0.1c-0.1,0-0.1,0-0.1-0.1c-0.1-0.1-0.1-0.3-0.2-0.4c-0.1-0.2-0.2-0.3-0.4-0.3c-0.5,0-1,0-1.5,0
			c-0.1,0.3-0.1,1-0.1,1.6c0.1,0,0.1,0.1,0.2,0.1c0.3,0,0.6,0,0.8,0s0.4-0.1,0.4-0.3c0-0.1,0-0.2,0.1-0.2l0.1-0.1c0,0.1,0,0.1,0,0.2
			c0,0.4,0,0.8,0,1.2v0.1c0,0,0,0.1-0.1,0.1h-0.1c0-0.1-0.1-0.2-0.1-0.3c-0.1-0.2-0.1-0.3-0.3-0.3c-0.4,0-0.7,0-1.1,0
			c0,0.6,0,1.2,0,1.8c0.1,0,0.2,0,0.3,0.1c0.4,0,0.8,0,1.2,0c0.4,0,0.6-0.1,0.8-0.4c0.1-0.1,0.1-0.2,0.2-0.3c0,0,0.1,0,0.1-0.1v0.1
			c0,0.1-0.1,0.3-0.1,0.4C-721.3,2507.1-721.3,2507.3-721.4,2507.6z"/>
		<path class="st1" d="M-697.2,2507.1c0-0.3-0.1-0.6-0.4-1c-0.3-0.1-1.4-0.1-1.9,0c-0.1,0.3-0.3,0.7-0.4,1.1
			c0.1,0.1,0.3,0.1,0.4,0.2v0.1c0,0,0,0.1-0.1,0.1c-0.2,0-0.3,0-0.5,0c-0.3,0-0.5,0-0.8,0c0,0,0,0-0.1-0.1v-0.1l0.1-0.1
			c0.3-0.1,0.4-0.2,0.5-0.5c0.3-0.6,0.5-1.2,0.8-1.8c0.3-0.6,0.5-1.3,0.8-1.9c0-0.1,0.1-0.3,0.2-0.3c0.1,0,0.2,0.2,0.2,0.3
			c0.5,1.2,1.1,2.4,1.6,3.6c0.1,0.3,0.2,0.5,0.5,0.5c0,0,0.1,0,0.1,0.1v0.1c0,0,0,0.1-0.1,0.1h-0.1c-0.5,0-0.9,0-1.4,0h-0.1
			c0,0-0.1,0-0.1-0.1c0,0,0-0.1,0.1-0.1s0.2-0.1,0.2-0.1C-697.2,2507.3-697.2,2507.1-697.2,2507.1z M-698.4,2503.9
			c-0.2,0.3-0.7,1.4-0.8,1.8c0.1,0.1,0.3,0.1,0.5,0.1c0.3,0,0.7,0,1.1-0.1C-697.9,2505.1-698.2,2504.6-698.4,2503.9z"/>
		<path class="st1" d="M-705,2503.1C-704.9,2503.1-704.9,2503.1-705,2503.1c0,0.4,0,0.6,0,0.9l-0.1,0.1c0,0-0.1,0-0.1-0.1
			c0-0.1-0.1-0.2-0.1-0.3c-0.1-0.4-0.4-0.5-0.8-0.6c-0.1,0-0.2,0-0.3,0c-0.3,0-0.6,0.2-0.6,0.5c-0.1,0.3,0,0.6,0.3,0.8
			c0.2,0.1,0.5,0.2,0.7,0.4c0.3,0.2,0.6,0.3,0.8,0.5c0.5,0.4,0.6,1.2,0.2,1.7c-0.2,0.3-0.5,0.4-0.8,0.5c-0.3,0.1-0.6,0.1-0.9,0
			c-0.3-0.1-0.6-0.1-0.9-0.2c0-0.4,0-0.7,0-1.1l0.1-0.1c0,0,0.1,0,0.1,0.1c0,0.1,0.1,0.2,0.1,0.3c0.2,0.7,1,0.9,1.5,0.7
			s0.6-0.9,0.2-1.3c-0.1-0.1-0.2-0.2-0.4-0.3c-0.2-0.1-0.4-0.2-0.6-0.3c-0.2-0.1-0.4-0.2-0.5-0.3c-0.7-0.4-0.6-1.3-0.1-1.7
			c0.4-0.3,0.8-0.5,1.3-0.4c0.3,0,0.5,0.1,0.8,0.2C-705.1,2503.1-705,2503.1-705,2503.1z"/>
		<path class="st1" d="M-758.9,2507.4c0-0.3,0-0.7,0-1l0.1-0.1c0,0,0.1,0,0.1,0.1c0.1,0.1,0.1,0.2,0.1,0.3c0.2,0.7,1.1,0.9,1.7,0.4
			c0.3-0.2,0.3-0.7,0.1-1.1c-0.1-0.1-0.2-0.2-0.3-0.3c-0.2-0.1-0.4-0.2-0.6-0.3c-0.2-0.1-0.5-0.2-0.7-0.4c-0.4-0.3-0.7-0.9-0.3-1.5
			c0.1-0.2,0.3-0.4,0.6-0.5c0.3-0.1,0.7-0.2,1.1-0.1c0.3,0.1,0.5,0.1,0.8,0.2c0,0.4,0.1,0.7,0,1h-0.1c-0.1-0.1-0.1-0.2-0.2-0.3
			c-0.2-0.6-0.7-0.7-1.2-0.6c-0.3,0.1-0.5,0.2-0.5,0.5c-0.1,0.3,0,0.6,0.3,0.7c0.2,0.1,0.5,0.3,0.7,0.4s0.5,0.3,0.7,0.4
			c0.2,0.1,0.4,0.3,0.4,0.5c0.2,0.5,0.1,1.1-0.4,1.5c-0.3,0.3-0.7,0.4-1.1,0.4C-757.8,2507.6-758.5,2507.6-758.9,2507.4z"/>
		<path class="st1" d="M-704.2,2503.1C-704.1,2503.1-704.1,2503.1-704.2,2503.1c0.9,0,1.6,0,2.4,0c0.2,0,0.3,0,0.5,0.1
			c0.4,0.1,0.6,0.4,0.7,0.9c0.1,0.7-0.4,1.4-1.1,1.5c-0.2,0-0.5,0.1-0.7,0c-0.1,0-0.3,0-0.4,0c0,0.1,0,0.2,0,0.3c0,0.4,0,0.8,0,1.1
			s0.1,0.3,0.3,0.4c0.1,0,0.2,0,0.3,0c0.1,0,0.2,0.1,0.2,0.1c0,0.1-0.1,0.1-0.2,0.1l0,0c-0.6,0-1.1,0-1.7,0c-0.1,0-0.1,0-0.2,0v-0.1
			l0.1-0.1c0.2,0,0.3-0.1,0.5-0.1c0-0.2,0.1-0.3,0.1-0.5c0-1,0-2,0-3c0-0.1,0-0.1,0-0.2c0-0.1-0.1-0.2-0.2-0.2
			c-0.1,0-0.3-0.1-0.4-0.1C-704.2,2503.1-704.2,2503.1-704.2,2503.1z M-702.8,2505.1c0.3,0.1,0.6,0.1,0.9,0.1
			c0.4-0.1,0.7-0.3,0.7-0.7c0.1-0.5,0-1-0.7-1.2c-0.3-0.1-0.6-0.1-0.9,0C-702.9,2503.9-702.9,2504.6-702.8,2505.1z"/>
		<path class="st1" d="M-729.2,2503.1c0.1,0,0.2,0,0.3,0c1.1,0,2.3,0,3.4,0h0.1v0.1c0,0.3,0,0.7,0.1,1c-0.2,0.1-0.2,0.1-0.2,0
			c-0.1-0.2-0.1-0.3-0.2-0.5c0-0.1-0.1-0.2-0.3-0.2c-0.3,0-0.6,0-1,0c-0.1,0.3,0,0.6-0.1,0.9c0,0.3,0,0.6,0,1c0,0.3,0,0.6,0,0.9
			s0,0.6,0.1,1c0.1,0,0.2,0.1,0.4,0.1c0.1,0,0.1,0,0.2,0l0.1,0.1l-0.1,0.1c-0.3,0-0.5,0-0.8,0s-0.7,0-1,0c0,0-0.1,0-0.1-0.1
			s0.1-0.1,0.1-0.1c0.1,0,0.2,0,0.3-0.1c0.1,0,0.2-0.1,0.2-0.3c0-0.1,0-0.1,0-0.2c0-1.1,0-2.1,0-3.2c0-0.1,0-0.1,0-0.2
			c-0.1,0-0.2-0.1-0.2-0.1c-0.2,0-0.5,0-0.7,0s-0.3,0.1-0.3,0.2s-0.1,0.3-0.1,0.4c0,0.1,0,0.1-0.1,0.2h-0.1c0,0-0.1,0-0.1-0.1v-0.1
			C-729.3,2503.6-729.3,2503.4-729.2,2503.1C-729.3,2503.1-729.2,2503.1-729.2,2503.1z"/>
		<path class="st1" d="M-744.1,2503.4c-0.4-0.1-0.7,0-1,0c-0.1,0-0.2,0.1-0.3,0.2c-0.1,0.2-0.1,0.3-0.2,0.5c0,0.1-0.1,0.2-0.2,0.1
			c0-0.3,0-0.7,0.1-1.2h0.1c0.1,0,0.3,0,0.4,0c1.1,0,2.2,0,3.3,0c0.1,0.4,0.1,0.7,0.1,1.1l-0.1,0.1c0,0-0.1,0-0.1-0.1
			c0-0.1,0-0.1-0.1-0.2c0-0.1-0.1-0.2-0.1-0.3c0-0.1-0.1-0.2-0.3-0.2c-0.3,0-0.6,0-0.9,0c-0.1,0.5-0.2,2.8,0,3.8
			c0.1,0.1,0.2,0.1,0.4,0.2c0.1,0,0.1,0,0.2,0l0.1,0.1l-0.1,0.1c-0.3,0-0.6,0-0.9,0s-0.6,0-0.9,0c0,0-0.1,0-0.1-0.1
			c0-0.1,0.1-0.1,0.1-0.1c0.2,0,0.3-0.1,0.5-0.1c0.1-0.4,0.1-0.9,0.1-1.3c0-0.4,0-0.8,0-1.2
			C-744.1,2504.3-744.1,2503.9-744.1,2503.4z"/>
		<path class="st1" d="M-720.7,2507.4c0.1-0.1,0.2-0.1,0.2-0.1c0.1,0,0.2,0,0.3-0.1c0.2-0.1,0.3-0.1,0.3-0.3v-0.1c0-1.1,0-2.1,0-3.2
			c0-0.1,0-0.1,0-0.2c-0.2-0.3-0.5-0.1-0.7-0.3c0,0,0,0,0-0.1h0.1c0.6,0,1.3,0,1.9,0c0,0,0,0,0.1,0.1c0,0.1-0.1,0.1-0.1,0.1
			c-0.2,0-0.4,0.1-0.6,0.1c-0.1,0.2-0.1,0.3-0.1,0.4c0,1,0,2.1,0,3.1c0,0.1,0,0.1,0,0.2c0.1,0,0.2,0,0.3,0c0.4,0,0.8,0,1.2,0
			c0.3,0,0.5-0.1,0.6-0.4c0.1-0.1,0.2-0.3,0.2-0.4c0.1-0.1,0.1-0.1,0.3,0c-0.1,0.4-0.3,0.7-0.3,1.1c-0.1,0.1-0.3,0.1-0.4,0.1
			c-0.6,0-1.2,0-1.9,0c-0.4,0-0.8,0-1.1,0C-720.5,2507.6-720.6,2507.4-720.7,2507.4z"/>
	</g>
</g>
</svg>
