<?xml version="1.0" encoding="utf-8"?>
<!-- Generator: Adobe Illustrator 19.0.0, SVG Export Plug-In . SVG Version: 6.00 Build 0)  -->
<svg version="1.1" id="Layer_1" xmlns="http://www.w3.org/2000/svg" xmlns:xlink="http://www.w3.org/1999/xlink" x="0px" y="0px"
	 viewBox="-185.7 344.1 176.7 153" style="enable-background:new -185.7 344.1 176.7 153;" xml:space="preserve">
<style type="text/css">
	.st0{fill:#FFFFFF;}
</style>
<rect x="3216.2" y="2650.5" class="st0" width="4608" height="3741.8"/>
<g>
	<path class="st0" d="M-182.9,376.9c0.2,0,0.2-0.2,0.2-0.3c0.1-0.6,0.2-1.1,0.4-1.7c0.7-2.8,1.7-5.4,3.3-7.8
		c1.4-2.1,3.1-3.9,5.1-5.5c1.2-0.9,2.4-1.8,3.7-2.5c1.5-0.9,3.2-1.5,5-1.7c0.9-0.1,1.8-0.2,2.7-0.2c1.5,0,3-0.1,4.5-0.1
		c1.5-0.1,3.1-0.2,4.6-0.5c4.2-0.7,8.3-2.1,12.2-3.8c0.7-0.3,1.4-0.7,2.2-1c0.1,0,0.2-0.1,0.3-0.1c0.1,0,0.2,0,0.2,0.1
		c0,0.2-0.1,0.3-0.1,0.4c-1.2,3.7-3,7.1-5.4,10.1c-1.6,2-3.5,3.8-5.6,5.3c-0.9,0.7-1.8,1.3-2.8,1.8c-1.2,0.6-2.4,1-3.8,1.2
		c-1.1,0.2-2.3,0.2-3.4,0.2c-2,0-4,0-6,0c-4.4,0.1-8.5,1.2-12.3,3.4c-1.5,0.8-2.9,1.7-4.2,2.8c-0.2,0.1-0.3,0.3-0.6,0.3
		C-182.9,377.2-182.9,377-182.9,376.9z"/>
	<path class="st0" d="M-11.2,427.8c-0.2,0.2-0.1,0.4-0.2,0.6c-1.2,3.2-2.9,6.2-5.2,8.8c-2.1,2.5-4.6,4.5-7.4,6.1
		c-1.5,0.9-3.1,1.4-4.7,1.6c-1.7,0.3-3.3,0.2-5,0.2c-1.2,0-2.4,0-3.6,0c-1,0-2.1,0.1-3.1,0.1c-3.3,0.3-6.5,1.2-9.5,2.6
		c-1.7,0.8-3.4,1.8-5,2.9c-0.1,0.1-0.2,0.2-0.4,0.2c-0.1-0.2,0-0.3,0-0.5c0.7-3.5,2-6.6,4.1-9.4c1.2-1.5,2.5-2.8,4-4
		c1.5-1.2,3.2-2.3,4.9-3.2c1.3-0.7,2.7-1.1,4.1-1.3c0.9-0.1,1.7-0.2,2.6-0.2c1.5,0,3-0.1,4.5-0.1c1.5-0.1,3-0.2,4.6-0.4
		c4.3-0.6,8.4-1.9,12.5-3.5c1-0.4,1.9-0.8,2.8-1.2C-11.2,427.5-11.2,427.7-11.2,427.8z"/>
	<path class="st0" d="M-115.5,358.4c5.3-4,10.5-8,15.8-12c0.2,0.1,0.1,0.3,0.1,0.4c0.1,0.9,0.1,1.8,0.3,2.6c0.2,1,0.5,2,1,2.9
		c1.1,2,2.7,3.3,4.9,3.8c1.2,0.3,2.4,0.4,3.7,0.4c0.8,0,1.7-0.1,2.5-0.2c0.1,0,0.2,0,0.2,0c0,0.2-0.2,0.3-0.4,0.4
		c-1.4,1.3-2.9,2.7-4.3,4c-0.8,0.7-1.5,1.4-2.3,2.1c-0.3,0.2-0.4,0.5-0.4,0.8c0,0.1,0,0.2,0,0.3c0,19.1,0,38.1,0,57.2
		c0,0.3,0,0.5,0,0.8c0.4,0.3,8.4,3.8,10.2,4.5c3-1.2,6.1-2.4,9.2-3.6c0-0.2,0-0.3,0-0.5c0-0.1,0-0.3,0-0.4c0-18.3,0-36.5,0-54.8
		c0-0.3,0-0.5,0-0.8c-0.2-0.2-0.5-0.3-0.7-0.4c-1-0.5-2-1.1-2.9-1.8c-0.9-0.6-1.7-1.3-2.4-2.2c-0.4-0.5-0.7-1-1-1.6
		c-0.2-0.5-0.4-1.1-0.3-1.7c5-3.9,10.1-7.8,15.1-11.7c0,0,0.1,0,0.1-0.1c0.1,0.1,0.1,0.2,0.1,0.3c0,0.6,0,1.3,0,1.9c0,1,0.2,2,0.5,3
		c0.7,2.2,2.2,3.6,4.3,4.4c1.1,0.4,2.2,0.6,3.3,0.7s2.2,0,3.2,0c0.4,0,0.8-0.1,1.3-0.1c0,0.2-0.1,0.3-0.2,0.4
		c-1.1,1-2.2,1.9-3.2,2.9c-1.3,1.1-2.5,2.3-3.8,3.4c-0.1,0.1-0.1,0.1-0.2,0.2c-0.2,0.1-0.2,0.3-0.2,0.5c0,0.2,0,0.3,0,0.5
		c0,19.1,0,38.2,0,57.2c0,0.3,0,0.5,0,0.8c0.2,0.1,0.3,0.1,0.4,0.2c2.6,0.7,5.2,1.4,7.7,2.1c1.7,0.5,3.4,0.9,5,1.4
		c0.3,0.1,0.5,0.1,0.8,0c1.8-0.9,3.6-1.7,5.5-2.6c0.1,0,0.2-0.1,0.3-0.2c0-0.1,0-0.2,0-0.3c0-0.8,0-1.6,0-2.4c0-1.6,0.1-3.3,0.1-4.9
		c0-0.7,0-1.4,0-2c0-1.5,0.1-3,0.1-4.5s0-3,0-4.5c0-1.9,0.1-3.8,0.1-5.7c0-2.5,0.1-5.1,0.1-7.6s0.1-5,0.1-7.5c0-2.7,0.1-5.4,0.1-8.1
		c0-2.3,0.1-4.6,0.1-6.9c0-0.5,0-1,0-1.6c0-0.2,0-0.3,0-0.5c-0.2-0.1-0.4-0.2-0.6-0.3c-1.6-0.7-3.2-1.5-4.6-2.6
		c-1.2-0.8-2.2-1.8-3-3c-0.3-0.4-0.5-0.7-0.7-1.1c0.1-0.2,0.3-0.3,0.5-0.5c2.2-1.7,4.4-3.3,6.6-5c2.8-2.1,5.6-4.3,8.4-6.4
		c0.1-0.1,0.3-0.2,0.4-0.3c0.2,0.2,0.1,0.4,0.2,0.6c0.1,1,0.2,2,0.5,3c0.3,1.1,0.7,2.2,1.3,3.2c1.2,2,3,3.1,5.3,3.5
		c1.4,0.2,2.8,0.1,4.2-0.2c0.6-0.1,1.2-0.3,1.8-0.4c0.1,0.1,0,0.2-0.1,0.2c-1.2,1.2-2.5,2.4-3.7,3.6c-1.2,1.1-2.3,2.3-3.5,3.4
		c-0.1,0.1-0.2,0.2-0.2,0.4c0,0.1,0,0.3,0,0.4c0,19.2,0,38.3,0,57.5c0,0.2,0,0.5,0,0.7c0.5,0.3,1,0.6,1.5,0.9c0.5,0.3,1,0.6,1.5,0.9
		c0.5,0.3,1,0.6,1.5,0.8c0.5,0.3,1,0.6,1.5,0.9c0.5,0.3,1,0.6,1.6,0.9c-0.2,0-0.3,0-0.3,0c-1.3-0.1-2.5-0.2-3.8-0.2s-2.6,0-3.8,0
		c-1.4,0-2.7,0.1-4.1,0.3c-1.9,0.2-3.9,0.6-5.8,1.1c-2.9,0.8-5.6,1.9-8.1,3.5c-3.4,2.2-6,5-7.9,8.6c-0.9,1.7-1.6,3.5-2.2,5.4
		c0,0.1-0.1,0.2-0.2,0.4c-0.1-0.2-0.2-0.3-0.2-0.5c-1-2.1-2.1-4.1-3.3-6s-2.6-3.6-4.2-5.2c-1.7-1.7-3.6-3-5.8-3.9
		c-1.8-0.7-3.6-1.1-5.5-1.1c-2.5,0-4.9,0.5-7.2,1.5c-2.2,0.8-4.2,2-6.2,3.3c-1.9,1.3-3.7,2.7-5.5,4.1c-0.1,0.1-0.2,0.2-0.4,0.3
		c0,0-0.1,0-0.1,0.1c-0.2-0.1-0.4-0.3-0.5-0.4c-1.7-1.3-3.6-2.4-5.6-3.3c-1.9-0.9-3.9-1.5-6-1.8c-1.9-0.3-3.8-0.3-5.7-0.1
		c-3.1,0.4-6,1.3-8.9,2.6c-0.3,0.1-0.6,0.3-0.9,0.4c-0.1,0-0.2,0.1-0.2,0.1c-0.1-0.2,0-0.3,0-0.4c1.2-2.9,2.9-5.5,5-7.8
		c2.4-2.5,5.2-4.5,8.2-6.2c0.6-0.3,1.3-0.7,1.9-1c0-0.1,0-0.3,0-0.4s0-0.2,0-0.3c0-18.5,0-37.1,0-55.6c0-0.2,0-0.5,0-0.8
		c-0.6-0.3-1.2-0.5-1.7-0.8c-1.2-0.6-2.3-1.2-3.3-2.1c-0.8-0.7-1.6-1.6-2.1-2.5C-115.2,359.3-115.4,358.9-115.5,358.4z"/>
	<path class="st0" d="M-124.8,348.4c-0.1,0.3-0.2,0.5-0.3,0.6c-1.4,3.1-2.6,6.4-3.4,9.7c-0.5,1.9-0.8,3.7-1.1,5.6
		c-0.3,1.8-0.5,3.7-0.6,5.5c-0.1,1.6-0.2,3.2-0.2,4.9c0,1.1,0,2.1,0,3.2c0,2-0.1,3.9-0.1,5.9c0,1.7-0.1,3.4-0.1,5.1
		c0,1-0.1,2.1-0.1,3.1c0,0.2,0,0.4,0,0.6c0.2,0,0.3,0.1,0.4,0.1c1.2,0,2.4,0,3.7-0.1c1.1-0.1,2.2-0.2,3.2-0.4c2-0.3,3.9-0.8,5.9-1.4
		c2.9-0.9,5.7-2,8.5-3.2c0.3-0.1,0.6-0.3,1-0.4c0,0.1,0,0.2,0,0.3c-0.6,2-1.2,4-2.1,5.9c-0.9,2.1-2.2,3.9-3.8,5.5
		c-1.1,1.1-2.3,2.1-3.6,2.9c-2,1.3-4.2,2.4-6.5,3.3c-0.2,0.1-0.4,0.2-0.7,0.2c-1.1,0.1-2.2,0.3-3.3,0.4c-0.7,0.1-1.4,0.2-2.1,0.2
		c-0.2,0-0.4,0.1-0.6,0.1c-0.1,0.4-0.1,0.8-0.1,1.1c0,0.4,0,0.8,0,1.2c0,1.8,0.1,3.6,0.1,5.3c0,0.7,0,1.5,0,2.2c0,1.3,0.1,2.6,0,3.9
		c0,0.6-0.1,1.2-0.1,1.9c-0.1,1.2-0.3,2.3-0.4,3.5c-0.5,3.6-1.5,7.1-3,10.4c-1,2.2-2.3,4.2-3.8,6c-2.1,2.4-4.6,4.4-7.4,5.9
		c-1.4,0.8-2.9,1.4-4.5,1.9c-0.2,0.1-0.3,0.1-0.5,0.1c0.1-0.1,0.1-0.3,0.1-0.4c1.8-4.2,3.2-8.6,4-13.1c0.4-2,0.7-4,0.9-6
		c0.2-1.7,0.4-3.4,0.5-5.1c0.1-1.8,0.2-3.6,0.2-5.3c0.1-3.7,0.1-7.4,0.1-11c0-0.2,0-0.3,0-0.5c0,0,0-0.1-0.1-0.1
		c-0.3,0-0.6,0.1-0.9,0.2c-1.2,0.4-2.3,1-3.3,1.7c-1,0.8-1.9,1.7-2.7,2.7c-0.1,0.2-0.3,0.3-0.4,0.5c-0.2-0.1-0.1-0.2-0.1-0.3
		c0.1-1.5,0.4-2.9,0.8-4.3c0.6-2.1,1.5-4.1,2.8-5.9c0.9-1.2,1.9-2.3,3-3.3c0.2-0.2,0.4-0.3,0.6-0.5c0,0,0,0,0-0.1s0-0.3,0-0.4
		c-0.1-1.3-0.2-2.6-0.3-3.9c0-0.3,0-0.6,0-0.9c-0.1-2.2-0.2-4.3-0.1-6.5c0-1.7,0.1-3.4,0.2-5.2c0.2-3.3,0.6-6.6,1.4-9.8
		c0.7-3.1,1.7-6.1,3-9c1.3-2.8,3-5.4,5.1-7.7c2.3-2.5,4.9-4.4,7.8-5.9c0.8-0.4,1.6-0.7,2.4-1.1
		C-125.2,348.5-125.1,348.5-124.8,348.4z"/>
	<path class="st0" d="M-142.9,462.5c-0.1,0.3-0.2,0.5-0.3,0.6c-0.9,2.2-1.9,4.4-2.8,6.6c-0.1,0.1-0.1,0.3-0.2,0.4
		c-0.1,0.2-0.3,0.2-0.4,0c-0.1-0.2-0.2-0.4-0.2-0.5c-1.3-3.2-2.6-6.4-3.9-9.6c-0.1-0.4-0.3-0.7-0.5-1.1s-0.4-0.7-0.9-0.8
		c-0.2,0-0.2-0.1-0.1-0.3c0.1,0,0.2,0,0.3,0c1.5,0,3.1,0,4.6,0c0.1,0,0.2,0,0.3,0c0.1,0,0.1,0.1,0.1,0.2c-0.3,0.1-0.5,0.1-0.7,0.2
		c-0.3,0.1-0.4,0.3-0.4,0.6c0,0.1,0,0.3,0.1,0.4c0.1,0.4,0.3,0.8,0.4,1.2c0.7,1.7,1.4,3.4,2.1,5.1c0.1,0.2,0.2,0.3,0.2,0.5
		c0.1-0.1,0.1-0.1,0.1-0.2c0.6-1.4,1.2-2.9,1.8-4.3c-0.3-0.8-0.6-1.5-0.9-2.3c-0.1-0.1-0.1-0.2-0.2-0.4c-0.2-0.4-0.6-0.7-1-0.7
		c-0.1,0-0.2,0-0.3-0.1c-0.1,0-0.1-0.2-0.1-0.2c0.5-0.1,3.5-0.1,5.6-0.1c0.1,0,0.2,0,0.3,0c0.1,0.1,0.1,0.2,0,0.3
		c-0.2,0.1-0.4,0.1-0.6,0.1c-0.5,0.1-0.6,0.3-0.5,0.8c0,0.2,0.1,0.4,0.2,0.6c0.7,1.9,1.5,3.9,2.3,5.8c0,0.1,0.1,0.2,0.2,0.4
		c0.1-0.1,0.1-0.2,0.2-0.3c0.7-1.8,1.4-3.6,2.1-5.4c0.1-0.3,0.2-0.5,0.2-0.8c0.1-0.6-0.1-0.9-0.7-1c-0.2,0-0.3-0.1-0.5-0.1
		c0-0.1,0-0.2,0-0.2c0.1,0,0.2,0,0.2,0c0.9,0,1.7,0,2.6,0c0.1,0,0.2,0,0.3,0.1c0,0.1,0,0.2-0.2,0.3c-0.5,0.2-0.7,0.5-0.9,0.9
		c-0.5,1.3-1,2.6-1.5,3.9c-0.9,2.3-1.7,4.5-2.6,6.8c-0.1,0.1-0.1,0.3-0.2,0.4c-0.1,0.1-0.3,0.1-0.4,0s-0.1-0.3-0.2-0.4
		c-0.9-2.2-1.7-4.4-2.6-6.7C-142.7,463-142.8,462.8-142.9,462.5z"/>
	<path class="st0" d="M-105.2,458.2c-0.2,0-0.3,0-0.4,0c-0.2,0-0.3,0-0.5,0.1c-0.4,0.1-0.6,0.4-0.7,0.8c0,0.1,0,0.2,0,0.3
		c0,1.3,0,2.5,0,3.8c0,0.1,0,0.1,0,0.2c0.1,0,0.2,0.1,0.3,0.1c1.3,0,2.5,0,3.8,0c0.1,0,0.1,0,0.3,0c0-0.1,0.1-0.3,0.1-0.4
		c0-1.1,0-2.2,0-3.3c0-0.2,0-0.4-0.1-0.6c0-0.4-0.3-0.7-0.7-0.8c-0.3-0.1-0.6-0.1-0.9-0.1c-0.1,0-0.1-0.1-0.1-0.3c0.1,0,0.3,0,0.4,0
		c1.8,0,3.6,0,5.5,0c0.1,0,0.2,0,0.3,0c0.1,0,0.1,0.1,0.2,0.2c-0.2,0-0.3,0-0.4,0.1c-0.2,0-0.5,0-0.7,0.1c-0.4,0.1-0.6,0.4-0.6,0.8
		c0,0.3-0.1,0.7-0.1,1c0,2.6,0,5.2,0,7.8c0,0.3,0,0.7,0.1,1c0,0.4,0.2,0.6,0.6,0.8c0.2,0.1,0.4,0.1,0.6,0.1c0.1,0,0.3,0,0.4,0
		c0,0,0.1,0.1,0.1,0.2c-0.1,0-0.1,0.1-0.1,0.1c-0.5,0-5.8,0-6.2,0c-0.1-0.1-0.1-0.2,0.1-0.3c0.2,0,0.3,0,0.5,0c0.6-0.1,0.9-0.4,1-1
		c0-0.2,0-0.4,0.1-0.6c0-1.1,0-2.2,0-3.3c0-0.2,0-0.3,0-0.5c-0.1,0-0.2-0.1-0.3-0.1c-1.3,0-2.6,0-3.9,0c-0.1,0-0.1,0-0.2,0.1
		c0,0.1,0,0.3,0,0.4c0,1.1,0,2.3,0,3.4c0,0.2,0,0.4,0,0.6c0.1,0.6,0.4,1,1,1c0.2,0,0.4,0,0.6,0.1c0,0,0.1,0.1,0.1,0.2
		c-0.5,0.1-5.8,0.1-6.4,0c-0.1-0.1-0.1-0.2,0.1-0.3c0.2,0,0.3,0,0.5,0c0.6-0.1,1-0.3,1-1c0-0.2,0-0.4,0-0.6c0-2.7,0-5.4,0-8.1
		c0-0.2,0-0.5,0-0.7c0-0.5-0.3-0.8-0.8-0.9c-0.2-0.1-0.5-0.1-0.7-0.1c-0.1,0-0.1-0.1-0.1-0.1c0-0.1,0.1-0.1,0.1-0.2
		c0.1,0,0.2,0,0.2,0c1.9,0,3.8,0,5.6,0C-105.4,458.2-105.3,458.2-105.2,458.2C-105.2,457.9-105.2,458-105.2,458.2z"/>
	<path class="st0" d="M-42.7,457.7c0.8,0,1.6,0,2.3,0.3c2.3,0.7,3.7,2.3,4.2,4.7c0.4,1.9,0,3.7-1.2,5.2c-1,1.4-2.4,2.2-4.1,2.4
		c-1.2,0.2-2.3,0.1-3.4-0.2c-2.2-0.7-3.6-2.2-4.1-4.5c-0.3-1.3-0.3-2.5,0.1-3.8c0.6-1.8,2.5-3.9,5.2-4.1
		C-43.4,457.7-43.1,457.7-42.7,457.7z M-39.4,464c0-0.8,0-1.6-0.1-2.4c-0.1-0.8-0.4-1.6-0.9-2.3c-0.9-1.4-3-1.5-4.1-0.4
		c-0.6,0.6-0.9,1.2-1.1,2c-0.2,0.6-0.2,1.3-0.3,1.9c-0.1,1.2,0,2.4,0.2,3.5c0.1,0.6,0.3,1.2,0.6,1.8s0.8,1.1,1.5,1.3
		c1.3,0.4,2.6,0.1,3.4-1.2c0.4-0.6,0.6-1.3,0.7-2C-39.5,465.5-39.4,464.7-39.4,464z"/>
	<path class="st0" d="M-66.8,469.3c0-0.1,0-0.2,0-0.2c0-0.9,0-1.8,0-2.7c0-0.7-0.3-1-1-1.1c-0.2,0-0.3,0-0.5-0.1l-0.1-0.1
		c0,0,0-0.1,0.1-0.1s0.2,0,0.2,0c1.8,0,3.6,0,5.3,0c0.1,0,0.2,0,0.3,0c0.1,0.1,0.1,0.2,0,0.3c-0.2,0.1-0.3,0.1-0.5,0.1
		c-0.5,0.1-0.8,0.4-0.8,0.9c0,0.1,0,0.3,0,0.4c0,0.7,0,1.4,0,2c0,0.2,0,0.4,0,0.6c-0.7,0.4-1.4,0.6-2.1,0.7
		c-1.2,0.3-2.4,0.4-3.6,0.3c-1.7-0.1-3.2-0.7-4.5-1.8c-1.5-1.3-2-3-1.9-4.9c0.1-1.5,0.6-2.8,1.7-3.9c1.2-1.3,2.7-2,4.5-2.1
		c0.8,0,1.6-0.1,2.4,0.1c0.5,0.1,0.9,0.3,1.4,0.4c0.2,0.1,0.5,0.2,0.7,0.2c0.4,0.1,0.7,0,0.9-0.4c0.1-0.1,0.1-0.2,0.2-0.3
		c0.1-0.1,0.1-0.1,0.4-0.1c0,1.4,0,2.8,0,4.2c-0.3,0-0.3,0-0.4-0.1c-0.1-0.3-0.2-0.5-0.4-0.8c-0.5-1-1.3-1.8-2.3-2.2
		c-0.9-0.4-1.9-0.5-2.9-0.3c-1,0.3-1.7,1-2.2,1.9c-0.3,0.5-0.4,1.1-0.5,1.7c-0.3,1.6-0.3,3.2,0.1,4.8c0.1,0.3,0.2,0.5,0.3,0.8
		c0.4,0.9,1.1,1.6,2,1.9C-68.9,469.8-67.9,469.7-66.8,469.3z"/>
	<path class="st0" d="M-24.7,465.3c0-0.2,0-0.4,0-0.5c0-1.6,0-3.2,0-4.8c0-0.3-0.1-0.6-0.1-0.9c-0.1-0.5-0.4-0.7-0.8-0.9
		c-0.2-0.1-0.5-0.1-0.7-0.2c0-0.3,0-0.3,0.1-0.3s0.2,0,0.3,0c1,0,2.1,0,3.1,0c0.1,0,0.2,0,0.3,0c0.1,0.2,0.1,0.3-0.1,0.3
		c-0.1,0-0.2,0.1-0.3,0.1c-0.7,0.2-0.9,0.4-1,1.1c-0.1,0.4-0.1,0.8-0.1,1.2c0,3,0,6.1,0,9.1c0,0.2,0,0.4-0.1,0.7
		c-0.1,0-0.2,0-0.3-0.1s-0.2-0.2-0.3-0.3c-2.5-3.1-5.1-6.1-7.6-9.2c-0.1-0.1-0.2-0.3-0.4-0.4c0,0.1-0.1,0.2-0.1,0.2
		c0,0.2,0,0.3,0,0.5c0,2.1,0,4.3,0,6.4c0,0.3,0,0.7,0.1,1c0.1,0.8,0.6,1.1,1.2,1.3c0.2,0,0.3,0,0.5,0c0.1,0,0.2,0.1,0.1,0.2
		l-0.1,0.1c-0.4,0-3.8,0-4.2,0c-0.1-0.1-0.1-0.2,0.1-0.3c0.2-0.1,0.5-0.1,0.7-0.1c0.6-0.1,0.8-0.5,0.9-1.1c0-0.2,0-0.4,0-0.6
		c0-2.7,0-5.5,0-8.2c0-0.3-0.1-0.6-0.3-0.8c-0.3-0.4-0.7-0.7-1.2-0.7c-0.1,0-0.1,0-0.2-0.1c0-0.3,0-0.3,0.1-0.3c0,0,0,0,0.1,0
		c1.4,0,2.7,0,4.1,0c0.1,0.1,0.2,0.3,0.3,0.4c1.7,2.1,3.5,4.3,5.2,6.4C-25.2,464.9-25,465.1-24.7,465.3z"/>
	<path class="st0" d="M-89.9,458.1c0-0.1,0.1-0.2,0.1-0.2c0.1,0,0.2,0,0.3,0c1.2,0,2.4,0,3.7,0c0.1,0,0.2,0,0.3,0
		c0.1,0.2,0.3,0.3,0.4,0.5c1.7,2.1,3.4,4.2,5.1,6.3c0.1,0.2,0.3,0.4,0.5,0.5c0-0.2,0-0.3,0-0.4c0-1.6,0-3.3,0-4.9
		c0-0.2,0-0.5-0.1-0.7c-0.1-0.5-0.4-0.8-0.9-1c-0.2-0.1-0.5-0.1-0.7-0.2c0-0.1,0-0.2,0-0.2c0.5-0.1,3.5-0.1,4,0
		c0.1,0.1,0.1,0.2-0.1,0.3c-0.1,0-0.3,0.1-0.4,0.1c-0.6,0.1-0.9,0.5-1,1c0,0.4-0.1,0.8-0.1,1.2c0,3.1,0,6.1,0,9.2c0,0.2,0,0.4,0,0.7
		c-0.1,0-0.2,0-0.3-0.1c-0.1-0.1-0.2-0.2-0.3-0.3c-2.5-3-5-6.1-7.5-9.1c-0.1-0.1-0.3-0.3-0.4-0.4c-0.2,0-0.2,0.1-0.2,0.2
		c0,0.1,0,0.1,0,0.2c0,2.4,0,4.8,0,7.1c0,0.1,0,0.3,0,0.4c0.1,0.8,0.5,1.2,1.3,1.3c0.2,0,0.3,0,0.5,0.1c0.1,0,0.1,0.1,0.1,0.2
		c-0.5,0.1-3.9,0.1-4.4,0c0-0.1,0.1-0.2,0.1-0.2c0.1,0,0.1,0,0.2,0s0.3,0,0.4-0.1c0.5-0.1,0.9-0.5,1-1c0.1-0.3,0.1-0.7,0.1-1
		c0-2.6,0-5.2,0-7.8v-0.1c0-0.3-0.1-0.5-0.2-0.7C-88.8,458.6-89.2,458.2-89.9,458.1C-89.8,458.2-89.8,458.1-89.9,458.1z"/>
	<path class="st0" d="M-113.7,457.6c0.1,0.6,0.2,3.3,0.1,4c-0.1,0-0.2,0-0.2,0c-0.1,0-0.1-0.1-0.2-0.2c-0.1-0.3-0.2-0.6-0.3-0.9
		c-0.5-1.1-1.3-1.9-2.5-2.2c-0.5-0.1-1.1-0.1-1.6,0c-0.3,0.1-0.6,0.3-0.8,0.6c-0.5,0.6-0.5,1.2,0,1.8c0.3,0.4,0.7,0.7,1.1,0.9
		c0.5,0.3,1.1,0.6,1.7,0.8c0.7,0.4,1.4,0.7,2.1,1.2c0.4,0.3,0.8,0.7,1.1,1.1c0.8,1.2,0.7,2.7-0.1,3.8c-0.6,0.9-1.5,1.4-2.5,1.6
		c-1,0.2-1.9,0.1-2.9-0.2c-0.3-0.1-0.5-0.2-0.8-0.3c-0.5-0.2-1-0.2-1.4,0.4c0,0.1-0.1,0.1-0.2,0.2c-0.1,0-0.1,0-0.2,0
		c-0.1-0.5-0.1-4,0-4.6c0.1,0,0.2,0,0.2,0.1c0.1,0.1,0.1,0.3,0.1,0.4c0.2,0.4,0.3,0.9,0.5,1.3c0.5,0.9,1.2,1.5,2.1,1.9
		c0.7,0.3,1.4,0.4,2.2,0.1c0.4-0.1,0.7-0.3,1-0.7c0.4-0.5,0.5-1.2,0.1-1.8c-0.2-0.4-0.5-0.7-0.9-0.9c-0.4-0.2-0.8-0.5-1.2-0.7
		c-0.6-0.3-1.2-0.6-1.9-1c-0.4-0.3-0.8-0.5-1.2-0.9c-0.6-0.5-1-1.1-1.1-1.8c-0.3-1.1,0-2.2,0.8-3.1c0.8-0.8,1.7-1.2,2.8-1.2
		c0.8,0,1.6,0.1,2.3,0.5c0.2,0.1,0.5,0.2,0.8,0.3s0.5,0,0.6-0.3c0.1-0.1,0.1-0.3,0.1-0.4C-113.9,457.7-113.8,457.7-113.7,457.6z"/>
	<path class="st0" d="M-57.5,458.6c-0.3-0.1-0.7,0-1,0c-0.1,0-0.3,0-0.4,0.1c-0.8,0.1-1.4,0.5-1.7,1.2c-0.1,0.3-0.2,0.6-0.3,0.9
		c-0.1,0.1-0.1,0.3-0.1,0.4c0,0-0.1,0.1-0.2,0.1c0-0.1-0.1-0.1-0.1-0.2c-0.1-0.7,0-2.7,0.1-3.1c0.1,0,0.2,0,0.4,0
		c3.4,0,6.8,0,10.2,0c0.1,0,0.3,0,0.4,0c0,0.1,0.1,0.2,0.1,0.3c0,0.9,0,1.8,0,2.7c0,0.1,0,0.2,0,0.2c0,0.1-0.2,0.1-0.2,0.1
		c-0.1-0.1-0.1-0.2-0.1-0.3c-0.1-0.3-0.2-0.6-0.3-0.9c-0.2-0.5-0.6-0.9-1.1-1.2c-0.1-0.1-0.3-0.1-0.4-0.2c-0.6-0.1-1.2-0.2-1.8-0.1
		c0,0.1-0.1,0.3-0.1,0.4c0,0.4,0,0.9,0,1.3c0,2.4,0,4.7,0,7.1c0,0.4,0,0.9,0.1,1.3c0,0.6,0.3,0.9,0.9,1c0.2,0,0.4,0,0.6,0
		c0.1,0,0.2,0.1,0.1,0.3c0,0-0.1,0-0.2,0c-2,0-4,0-6,0c-0.1,0-0.1,0-0.2-0.1c0.1-0.1,0.1-0.2,0.1-0.2c0.1,0,0.3,0,0.4,0
		c0.2,0,0.4-0.1,0.6-0.1c0.3-0.1,0.5-0.3,0.5-0.6c0-0.2,0.1-0.5,0.1-0.7c0-3,0-6.1,0-9.1C-57.4,458.9-57.4,458.8-57.5,458.6z"/>
	<path class="st0" d="M-128.6,470c0.1-0.1,0.1-0.2,0.1-0.2c0.1,0,0.3,0,0.5,0s0.3-0.1,0.5-0.1c0.3-0.1,0.4-0.3,0.3-0.7
		c0-0.1-0.1-0.2-0.1-0.3c-0.3-0.6-0.5-1.2-0.8-1.8c0-0.1-0.1-0.1-0.1-0.2c-0.5-0.1-1,0-1.4,0c-0.5,0-1,0-1.5,0s-1,0-1.5,0
		c-0.3,0.6-0.6,1.1-0.7,1.7c0,0.1-0.1,0.2-0.1,0.3c0,0.5,0.2,0.8,0.7,1c0.3,0.1,0.5,0.1,0.8,0.1c0.1,0,0.2,0.1,0.1,0.2l-0.1,0.1
		c-0.4,0-3.4,0-3.9,0c-0.1-0.1-0.1-0.2,0-0.3c0,0,0,0,0.1,0c0.7-0.2,1.1-0.6,1.4-1.2c0.2-0.4,0.4-0.8,0.6-1.2c1.4-3,2.8-6.1,4.1-9.1
		c0.1-0.2,0.1-0.4,0.3-0.5c0.2,0,0.2,0.2,0.3,0.3c0.4,0.8,0.8,1.7,1.1,2.5c1.1,2.4,2.1,4.8,3.2,7.2c0.2,0.4,0.4,0.8,0.6,1.2
		c0.3,0.5,0.6,0.8,1.1,0.9c0.1,0,0.2,0.1,0.1,0.3c0,0-0.1,0-0.2,0c-1.8,0-3.7,0-5.5,0C-128.4,470-128.5,470-128.6,470z
		 M-128.6,465.9c0-0.1,0-0.1,0-0.2c-0.5-1.2-1.1-2.4-1.6-3.7c0-0.1-0.1-0.1-0.2-0.2c-0.1,0.1-0.1,0.2-0.2,0.3
		c-0.5,1.2-1.1,2.4-1.6,3.6c0,0,0,0,0,0.1c0,0,0,0,0,0.1h0.1c1,0,2.1,0,3.1,0C-128.7,465.9-128.7,465.9-128.6,465.9z"/>
	<path class="st0" d="M-90.7,458.2c-0.1,0-0.2,0-0.4,0c-0.2,0-0.3,0-0.5,0.1c-0.6,0.1-0.8,0.4-0.9,1c0,0.3,0,0.5,0,0.8
		c0,2.6,0,5.3,0,7.9c0,0.3,0,0.5,0,0.8c0.1,0.6,0.4,1,1,1c0.2,0,0.3,0,0.5,0c0.1,0,0.2,0.1,0.1,0.2l-0.1,0.1c-0.5,0.1-5.8,0-6.3,0
		c-0.1-0.1,0-0.2,0.1-0.3c0.2,0,0.3,0,0.5,0c0.3,0,0.5-0.1,0.7-0.3c0.2-0.2,0.3-0.4,0.3-0.7c0-0.4,0-0.7,0-1.1c0-2.4,0-4.9,0-7.3
		c0-0.3,0-0.7,0-1c0-0.6-0.3-0.9-0.8-1c-0.2-0.1-0.5,0-0.7-0.1c-0.1,0-0.1-0.1-0.1-0.1c0-0.1,0.1-0.1,0.1-0.2c0.1,0,0.2,0,0.3,0
		c1.8,0,3.6,0,5.5,0c0.1,0,0.2,0,0.3,0C-90.7,457.9-90.6,458-90.7,458.2z"/>
	<path class="st0" d="M-88.9,495.2c0.1-0.8,0.4-1.5,0.6-2.3c-0.1-0.1-0.2-0.2-0.3-0.3c-0.5-0.4-1.1-0.8-1.6-1.1
		c0-0.1,0.1-0.1,0.2-0.1c0.5,0,1,0,1.6,0c0.2,0,0.4,0,0.6,0c0.4-0.8,0.5-1.6,0.8-2.4c0.1,0.1,0.1,0.2,0.2,0.3c0.2,0.5,0.3,1,0.5,1.4
		c0.1,0.2,0.1,0.4,0.2,0.6c0.8,0.1,1.6,0,2.4,0.1c-0.6,0.6-1.4,1-1.9,1.5c0.2,0.8,0.5,1.5,0.7,2.3c-0.3-0.1-0.5-0.3-0.7-0.5
		c-0.2-0.1-0.4-0.3-0.6-0.4c-0.2-0.2-0.4-0.3-0.7-0.5c-0.4,0.2-0.7,0.5-1,0.7C-88.3,494.7-88.6,494.9-88.9,495.2z"/>
	<path class="st0" d="M-71.9,492.8c-0.7-0.5-1.3-0.9-1.9-1.4c0.1-0.1,0.3-0.1,0.4-0.1s0.3,0,0.4,0s0.3,0,0.4,0s0.2,0,0.3,0
		c0.1,0,0.3,0,0.4,0s0.3,0,0.4,0c0.3-0.7,0.5-1.5,0.8-2.3c0.4,0.8,0.5,1.6,0.8,2.4c0.8,0,1.6,0,2.3,0c-0.1,0.2-0.2,0.3-0.3,0.4
		c-0.1,0.1-0.2,0.2-0.4,0.3c-0.1,0.1-0.3,0.2-0.4,0.3s-0.3,0.2-0.4,0.3s-0.2,0.2-0.4,0.3c0.1,0.4,0.3,0.8,0.4,1.2s0.3,0.7,0.3,1.1
		c-0.7-0.4-1.3-0.9-2-1.4c-0.1,0.1-0.2,0.1-0.3,0.2c-0.4,0.3-0.9,0.6-1.3,1c-0.1,0.1-0.2,0.1-0.4,0.2
		C-72.4,494.4-72.1,493.6-71.9,492.8z"/>
	<path class="st0" d="M-54.1,493.8c-0.7,0.4-1.3,0.9-1.9,1.4c-0.2-0.1-0.1-0.2,0-0.3c0.2-0.5,0.3-1.1,0.5-1.6c0-0.1,0.1-0.3,0.1-0.5
		c-0.6-0.5-1.3-0.9-1.8-1.4c0-0.1,0.2-0.1,0.2-0.1c0.5,0,1,0,1.5,0c0.2,0,0.4,0,0.6,0c0.3-0.4,0.3-0.8,0.4-1.1
		c0.1-0.4,0.3-0.8,0.4-1.1c0.1,0,0.1,0.1,0.2,0.1c0.2,0.6,0.4,1.1,0.6,1.7c0,0.1,0.1,0.2,0.2,0.4c0.4,0.1,0.8,0,1.2,0s0.8,0,1.2,0
		c-0.2,0.3-0.4,0.4-0.6,0.5c-0.2,0.2-0.4,0.3-0.7,0.5c-0.2,0.1-0.4,0.3-0.6,0.5c0,0.1,0,0.3,0.1,0.4c0.1,0.4,0.3,0.9,0.4,1.3
		c0.1,0.2,0.1,0.4,0.2,0.6c-0.1,0.1-0.2,0-0.3,0c-0.5-0.3-0.9-0.7-1.4-1C-53.9,494-54,493.9-54.1,493.8z"/>
	<path class="st0" d="M-103.4,488.9c0.4,0.8,0.5,1.6,0.9,2.4c0.8,0.1,1.6,0,2.3,0c0,0.2-0.1,0.2-0.1,0.2c-0.4,0.3-0.8,0.6-1.3,0.9
		c-0.1,0.1-0.3,0.2-0.4,0.3c0.2,0.8,0.5,1.5,0.7,2.4c-0.8-0.5-1.4-1-2-1.4c-0.4,0.2-0.7,0.4-1,0.7c-0.3,0.2-0.6,0.5-1,0.7
		c0-0.5,0.2-0.8,0.3-1.2c0.1-0.4,0.2-0.7,0.4-1.1c-0.6-0.5-1.3-0.9-1.9-1.4c0-0.2,0.2-0.1,0.2-0.1c0.5,0,1,0,1.6,0
		c0.2,0,0.3,0,0.5,0C-103.9,490.5-103.7,489.7-103.4,488.9z"/>
	<path class="st0" d="M-117.9,495.2c-0.6-0.5-1.3-0.9-1.9-1.4c-0.4,0.2-0.7,0.5-1,0.7c-0.3,0.2-0.6,0.5-1,0.7c0-0.3,0.1-0.6,0.2-0.8
		c0.1-0.3,0.2-0.5,0.3-0.8c0.1-0.3,0.2-0.5,0.2-0.8c-0.6-0.5-1.3-0.9-1.9-1.5c0.3-0.1,0.5-0.1,0.8-0.1s0.5,0,0.8,0s0.5,0,0.8,0
		c0.4-0.7,0.5-1.5,0.8-2.3c0.2,0.3,0.2,0.6,0.3,0.8c0.1,0.2,0.2,0.5,0.2,0.7c0.1,0.3,0.2,0.5,0.3,0.8c0.4,0.1,0.8,0,1.2,0
		c0.4,0,0.8,0,1.1,0c0.1,0.2,0,0.2-0.1,0.3c-0.4,0.3-0.8,0.5-1.1,0.8c-0.2,0.1-0.3,0.3-0.5,0.4c0,0.1,0,0.3,0.1,0.4
		C-118.2,493.9-118,494.5-117.9,495.2C-117.8,495.1-117.8,495.2-117.9,495.2z"/>
	<path class="st0" d="M-17.6,482.1c-0.2-0.1-0.5,0-0.7,0h-14.1c-0.2,0-0.5,0-0.8-0.1v1.1c0,0,0,0,0,0c0-0.1,0-0.2,0.1-0.2h14.7
		c0.2,0,0.4,0.1,0.7-0.1C-17.6,482.7-17.6,482.4-17.6,482.1z"/>
	<g>
		<path class="st0" d="M-96.7,480.1c-0.2-0.1-0.4-0.1-0.6-0.2c-0.1,0-0.1,0-0.2-0.1v-0.1c0,0,0-0.1,0.1-0.1s0.1,0,0.2,0
			c0.7,0,1.5,0,2.2,0c0.1,0,0.1,0,0.2,0l0.1,0.1v0.1c-0.2,0-0.3,0.1-0.5,0.1c-0.3,0.1-0.3,0.2-0.4,0.4c0,0.5,0,1.1,0,1.6
			c0,0.1,0,0.1,0,0.2c0.5,0.1,2.4,0.1,3,0c0.1-0.3,0-0.7,0-1c0-0.3,0-0.6,0-0.9c0-0.2-0.1-0.3-0.2-0.3c-0.2-0.1-0.4-0.1-0.6-0.2
			l-0.1-0.1c0,0,0-0.1,0.1-0.1s0.1,0,0.2,0c0.7,0,1.5,0,2.2,0h0.1l0.1,0.1c0,0,0,0.1-0.1,0.1s-0.2,0.1-0.3,0.1
			c-0.1,0-0.3,0.1-0.4,0.2c0,0.2-0.1,0.3-0.1,0.5c0,1.5,0,3.1,0,4.5c0.3,0.3,0.7,0.2,0.9,0.4c-0.1,0.2-0.2,0.2-0.3,0.2
			c-0.6,0-1.2,0-1.7,0c-0.2,0-0.3,0-0.5,0l-0.1-0.1c0,0,0-0.1,0.1-0.1c0.2-0.1,0.3-0.1,0.5-0.1s0.3-0.2,0.3-0.4c0-0.7,0.1-1.3,0-2.1
			c-0.5-0.1-1,0-1.5-0.1c-0.5,0-1,0-1.5,0c-0.1,0.4-0.1,1.3,0,2.3c0.1,0.2,0.3,0.2,0.5,0.2c0.1,0,0.2,0.1,0.3,0.1v0.1
			c0,0,0,0.1-0.1,0.1s-0.1,0-0.2,0c-0.7,0-1.4,0-2.1,0c-0.1,0-0.1,0-0.2,0l-0.1-0.1v-0.1c0.1,0,0.1-0.1,0.2-0.1
			c0.2-0.1,0.4-0.1,0.6-0.2c0-0.2,0.1-0.3,0.1-0.4c0-1.5,0-2.9,0-4.4C-96.7,480.4-96.7,480.3-96.7,480.1z"/>
		<path class="st0" d="M-59.8,481.9c0.2,0,0.3,0,0.5,0c0.5,0,0.9,0,1.4,0l0,0c0,0,0,0,0,0.1c-0.1,0.1-0.2,0.1-0.3,0.2
			c-0.2,0.1-0.4,0.2-0.5,0.4c-0.1,0.1-0.1,0.2-0.2,0.2c-0.3,0.5-0.6,1-0.9,1.6c0.2,0.3,0.4,0.5,0.7,0.6s0.5,0.1,0.8,0
			c0.1-0.1,0.3-0.1,0.4-0.2c0.1-0.1,0.2-0.1,0.3,0s0,0.2-0.1,0.2c-0.2,0.2-0.5,0.4-0.7,0.5c-0.4,0.3-0.8,0.3-1.2,0.1
			c-0.2-0.1-0.3-0.2-0.4-0.3c-0.1-0.1-0.3-0.2-0.4-0.3c-0.2,0.1-0.3,0.2-0.5,0.3c-0.5,0.3-1,0.5-1.6,0.5c-1.2-0.1-1.8-1.3-1.2-2.3
			c0.2-0.3,0.4-0.5,0.7-0.7c0.3-0.2,0.5-0.3,0.8-0.5c0-0.1-0.1-0.3-0.1-0.4c-0.1-0.2-0.1-0.4-0.2-0.6c-0.1-0.7,0.1-1.2,0.8-1.6
			c0.3-0.2,0.7-0.3,1.1-0.2c0.6,0.2,0.9,0.7,0.7,1.3c-0.1,0.4-0.4,0.7-0.8,0.9c-0.2,0.1-0.4,0.3-0.6,0.4c0.1,0.5,0.6,1.2,1,1.8
			c0.4-0.3,0.7-1,0.8-1.4c0-0.1,0-0.2-0.1-0.3s-0.1-0.1-0.2-0.1C-59.7,482-59.7,482-59.8,481.9z M-60.7,484.7
			c-0.2-0.3-0.3-0.5-0.5-0.7c-0.1-0.2-0.3-0.4-0.4-0.6c-0.1-0.2-0.2-0.5-0.4-0.7c-0.2,0.1-0.4,0.3-0.6,0.4c-0.2,0.2-0.4,0.5-0.5,0.8
			c-0.2,0.7,0.4,1.3,0.9,1.4C-61.6,485.3-61.2,485.1-60.7,484.7z M-61.4,481.8c0.3-0.1,0.6-0.3,0.8-0.5c0.2-0.3,0.2-0.6,0.2-0.9
			c-0.1-0.3-0.3-0.5-0.6-0.5s-0.6,0.2-0.7,0.5c0,0.1-0.1,0.2-0.1,0.3C-61.7,481.1-61.6,481.5-61.4,481.8z"/>
		<path class="st0" d="M-107,485.7c-0.1-0.1-0.1-0.2-0.2-0.2c-0.5-0.7-1-1.4-1.5-2.1c-0.3-0.4-0.4-0.4-1-0.4c0,0.1,0,0.1,0,0.2
			c0,0.6,0,1.2,0,1.7c0,0.3,0.1,0.3,0.3,0.4c0.2,0.1,0.3,0.1,0.5,0.1l0.1,0.1l-0.1,0.1c-0.3,0-0.5,0-0.8,0c-0.6,0-1.1,0-1.7,0
			l-0.1-0.1c0,0,0-0.1,0.1-0.1c0.2-0.1,0.3-0.1,0.5-0.1c0.2-0.1,0.3-0.2,0.3-0.4c0-0.1,0-0.2,0-0.3c0-1.3,0-2.6,0-3.8
			c0-0.2,0-0.4,0-0.5c-0.2-0.4-0.7-0.2-1-0.5c0.1,0,0.2-0.1,0.3-0.1c0.9,0,1.9,0,2.8,0c0.3,0,0.6,0.1,0.8,0.1
			c0.4,0.1,0.7,0.5,0.8,0.9c0.2,0.8,0,1.5-0.8,1.9c-0.1,0.1-0.3,0.1-0.5,0.2c-0.1,0.1,0,0.2,0.1,0.3c0.4,0.6,0.9,1.1,1.3,1.7
			c0.2,0.3,0.5,0.5,0.8,0.6c0.1,0,0.3,0.1,0.4,0.1l0.1,0.1c-0.1,0-0.1,0.1-0.2,0.1C-106,485.7-106.5,485.7-107,485.7z M-109.7,480.2
			c-0.1,0.5-0.1,1.9,0,2.3c0.4,0.1,0.8,0.1,1.2,0c0.5-0.1,0.8-0.4,0.8-0.9c0-0.1,0-0.3,0-0.4c0-0.5-0.3-0.8-0.8-1
			C-108.8,480-109.2,480.1-109.7,480.2z"/>
		<path class="st0" d="M-129.4,485.6c-0.1,0-0.1,0.1-0.2,0.1c-0.5,0-1,0-1.5,0c-0.1-0.1-0.1-0.2-0.2-0.3c-0.5-0.7-1-1.4-1.5-2.1
			c-0.3-0.4-0.6-0.5-1-0.4c0,0,0,0,0,0.1v0.1c0,0.1,0,0.1,0,0.2c0,0.6,0.1,1.3,0.1,1.9c0.2,0.3,0.7,0.2,0.9,0.5
			c-0.1,0-0.2,0.1-0.3,0.1c-0.6,0-1.2,0-1.7,0c-0.2,0-0.4,0-0.6,0l-0.1-0.1c0,0,0-0.1,0.1-0.1c0.1,0,0.3-0.1,0.4-0.1
			c0.3-0.1,0.4-0.2,0.4-0.5c0-0.4,0-0.9,0-1.3c0-1,0-1.9,0-2.9c0-0.1,0-0.1,0-0.2c0-0.2-0.1-0.3-0.3-0.4c-0.1,0-0.3-0.1-0.4-0.1
			c-0.1,0-0.2-0.1-0.2-0.1c0.1-0.2,0.3-0.2,0.4-0.2c0.8,0,1.5,0,2.3,0c0.3,0,0.5,0,0.8,0c0.8,0.1,1.2,0.4,1.4,1
			c0.2,0.7-0.1,1.4-0.6,1.7c-0.1,0.1-0.3,0.2-0.4,0.2c-0.1,0.1-0.2,0.1-0.3,0.1c-0.1,0.2,0,0.2,0.1,0.3c0.4,0.5,0.8,1,1.2,1.6
			c0.3,0.4,0.6,0.6,1,0.7C-129.6,485.4-129.5,485.5-129.4,485.6C-129.4,485.5-129.4,485.6-129.4,485.6z M-133.7,480.2
			c0,0.4,0,0.8,0,1.2s-0.2,0.8,0,1.2c0.2,0,0.3,0,0.5,0s0.4,0,0.6,0c0.9-0.1,1.3-0.9,1-1.7c-0.1-0.3-0.3-0.5-0.6-0.6
			C-132.7,480-133.2,480.1-133.7,480.2z"/>
		<path class="st0" d="M-112.2,482.5c0,0.6-0.1,1.2-0.4,1.7c-0.4,0.8-1.1,1.3-2,1.5c-0.6,0.1-1.1,0.1-1.7,0
			c-0.9-0.2-1.5-0.7-1.9-1.5c-0.4-0.8-0.4-1.7-0.1-2.6c0.4-1.2,1.2-1.9,2.4-2.1c0.4-0.1,0.8-0.1,1.3,0c0.9,0.1,2,0.8,2.2,2.3
			C-112.2,482.1-112.2,482.3-112.2,482.5z M-113.1,482.7c0-0.1,0-0.2,0-0.3c0-0.6-0.2-1.1-0.5-1.6c-0.3-0.4-0.6-0.7-1.1-0.8
			c-1.3-0.3-2.2,0.4-2.5,1.4c-0.2,0.7-0.2,1.5-0.1,2.2c0,0.2,0.1,0.4,0.2,0.6c0.4,0.8,1.1,1.2,2,1.2c0.8,0,1.4-0.5,1.7-1.2
			C-113.1,483.7-113.1,483.2-113.1,482.7z"/>
		<path class="st0" d="M-90.4,482.8c0-1,0.3-1.8,1-2.4s1.5-0.9,2.5-0.8c0.2,0,0.4,0,0.6,0.1c1,0.3,1.6,0.9,1.9,1.9
			c0.2,0.8,0.2,1.6-0.1,2.3c-0.4,1.1-1.2,1.8-2.3,2c-0.4,0.1-0.8,0.1-1.3,0c-1.2-0.2-1.9-0.9-2.2-2
			C-90.3,483.5-90.3,483.1-90.4,482.8z M-85.2,482.7c0-0.2,0-0.3,0-0.5c0-0.5-0.2-1-0.5-1.4s-0.6-0.7-1.1-0.8
			c-1.2-0.3-2.2,0.3-2.5,1.4c-0.3,0.8-0.3,1.7,0,2.5c0.1,0.2,0.2,0.4,0.3,0.6c0.5,0.7,1.2,1,2,0.9s1.3-0.6,1.6-1.3
			C-85.2,483.7-85.1,483.2-85.2,482.7z"/>
		<path class="st0" d="M-128.3,480.1c-0.3-0.1-0.5-0.1-0.8-0.2l-0.1-0.1c0-0.1,0.1-0.1,0.1-0.1c0.3,0,0.5,0,0.8,0c1,0,2,0,3,0
			c0.3,0,0.5,0,0.8,0.1c0,0.2,0,0.4,0,0.7c0,0.2,0.1,0.5,0,0.7c-0.1-0.1-0.2-0.1-0.2-0.1c-0.1-0.2-0.1-0.4-0.2-0.5
			c-0.1-0.2-0.2-0.3-0.4-0.3c-0.7-0.1-1.4,0-2.2,0c-0.1,0.7,0,1.4-0.1,2.2c0.6,0.1,1.2,0.1,1.8,0c0.1-0.2,0.2-0.5,0.3-0.7h0.1
			c0,0,0.1,0,0.1,0.1c0,0,0,0,0,0.1c0,0.6,0,1.2,0,1.9l-0.1,0.1c0,0-0.1,0-0.1-0.1c-0.1-0.1-0.1-0.3-0.1-0.4c0-0.2-0.2-0.3-0.4-0.3
			c-0.5,0-1,0-1.5,0c-0.1,0.4-0.1,1.8,0,2.5c0.1,0,0.2,0,0.3,0c0.5,0,1,0,1.5,0s0.9-0.2,1.1-0.6c0.1-0.2,0.2-0.3,0.3-0.4
			c0,0,0.1-0.1,0.2-0.1s0.1,0.1,0.1,0.2c-0.1,0.3-0.2,0.6-0.3,0.8c-0.1,0.2-0.1,0.3-0.2,0.5c-0.2,0.1-0.4,0.1-0.6,0.1
			c-1.3,0-2.5,0-3.8,0c-0.1,0-0.3,0-0.4,0c0-0.2,0-0.2,0.1-0.2c0.9-0.2,0.7-0.2,0.7-0.9c0-1.3,0-2.5,0-3.8
			C-128.3,480.6-128.3,480.4-128.3,480.1z"/>
		<path class="st0" d="M-73,485.7c-0.2,0-0.4,0-0.6,0c-1.3,0-2.5,0-3.8,0c-0.1,0-0.2,0-0.3,0l-0.1-0.1c0,0,0-0.1,0.1-0.1
			c0.2-0.1,0.3-0.1,0.5-0.1c0.3-0.1,0.3-0.1,0.3-0.4c0-1.5,0-3,0-4.5c0-0.1,0-0.2,0-0.2c-0.2-0.2-0.4-0.2-0.6-0.3
			c-0.1,0-0.1-0.1-0.2-0.1v-0.1c0,0,0-0.1,0.1-0.1s0.2,0,0.3,0c1.1,0,2.3,0,3.4,0c0.3,0,0.7-0.1,1,0.1c0,0.4,0.1,0.8,0.1,1.2
			l-0.1,0.1c-0.1,0-0.2,0-0.2-0.1c-0.1-0.2-0.1-0.4-0.2-0.5c-0.1-0.2-0.2-0.3-0.5-0.3c-0.7,0-1.3,0-2,0c-0.1,0.5-0.2,1.3-0.1,2.1
			c0.1,0,0.2,0.1,0.3,0.1c0.4,0,0.7,0,1.1,0c0.3,0,0.5-0.1,0.5-0.4c0-0.1,0.1-0.2,0.1-0.3c0,0,0.1-0.1,0.2-0.1
			c0,0.1,0.1,0.2,0.1,0.3c0,0.5,0,1.1,0,1.6v0.1l-0.1,0.1c0,0-0.1,0-0.1-0.1c-0.1-0.1-0.1-0.3-0.1-0.4c-0.1-0.3-0.1-0.4-0.4-0.4
			c-0.5,0-1,0-1.5,0c-0.1,0.8,0,1.6,0,2.4c0.1,0,0.2,0.1,0.4,0.1c0.5,0,1,0,1.6,0c0.5,0,0.8-0.2,1-0.6c0.1-0.2,0.2-0.3,0.3-0.4
			c0,0,0.1-0.1,0.2-0.1c0,0.1,0.1,0.1,0.1,0.1c0,0.2-0.1,0.3-0.1,0.5C-72.8,485.1-72.9,485.4-73,485.7z"/>
		<path class="st0" d="M-40.6,485.2c0-0.4-0.2-0.8-0.5-1.4c-0.4-0.1-1.9-0.1-2.5,0c-0.2,0.4-0.4,0.9-0.5,1.4
			c0.2,0.1,0.4,0.1,0.5,0.2v0.1c0,0,0,0.1-0.1,0.1c-0.2,0-0.5,0-0.7,0c-0.3,0-0.7,0-1,0c0,0-0.1,0-0.1-0.1v-0.1l0.1-0.1
			c0.3-0.1,0.5-0.3,0.6-0.6c0.4-0.8,0.7-1.6,1.1-2.4c0.4-0.8,0.7-1.7,1.1-2.5c0.1-0.1,0.1-0.4,0.3-0.4s0.2,0.2,0.3,0.3
			c0.7,1.6,1.4,3.2,2.1,4.8c0.1,0.3,0.3,0.6,0.7,0.7c0.1,0,0.1,0,0.1,0.1v0.1c0,0,0,0.1-0.1,0.1s-0.1,0-0.2,0c-0.6,0-1.2,0-1.9,0
			h-0.1l-0.1-0.1c0,0,0-0.1,0.1-0.1s0.2-0.1,0.3-0.1C-40.7,485.3-40.7,485.3-40.6,485.2z M-42.3,480.9c-0.3,0.4-0.9,1.9-1,2.4
			c0.2,0.1,0.4,0.1,0.6,0.1c0.5,0,0.9,0,1.4-0.1C-41.6,482.5-41.9,481.7-42.3,480.9z"/>
		<path class="st0" d="M-51,479.9L-51,479.9c0,0.5,0.1,0.9,0,1.2c0,0.1-0.1,0.1-0.1,0.2c-0.1,0-0.2,0-0.2-0.1
			c-0.1-0.1-0.1-0.3-0.1-0.4c-0.2-0.5-0.5-0.7-1-0.7c-0.1,0-0.3,0-0.4,0c-0.4,0-0.8,0.3-0.8,0.7c-0.1,0.4,0,0.8,0.4,1
			c0.3,0.2,0.6,0.3,0.9,0.5c0.4,0.2,0.8,0.4,1.1,0.6c0.7,0.6,0.8,1.6,0.2,2.3c-0.3,0.4-0.7,0.6-1.1,0.7c-0.4,0.1-0.8,0.1-1.2,0
			s-0.8-0.1-1.2-0.3c-0.1-0.5,0-1,0-1.4c0,0,0.1-0.1,0.2-0.1c0,0,0.1,0,0.1,0.1c0.1,0.1,0.1,0.3,0.1,0.4c0.2,1,1.3,1.2,1.9,0.9
			c0.7-0.3,0.8-1.2,0.3-1.7c-0.1-0.2-0.3-0.3-0.5-0.4c-0.3-0.2-0.6-0.3-0.8-0.4s-0.5-0.2-0.7-0.4c-0.9-0.6-0.8-1.7-0.1-2.3
			c0.5-0.4,1.1-0.6,1.7-0.5c0.3,0,0.7,0.1,1,0.2C-51.2,479.8-51.1,479.8-51,479.9z"/>
		<path class="st0" d="M-123,485.5c0-0.5,0-0.9,0-1.4c0-0.1,0.1-0.1,0.1-0.1c0.1,0,0.2,0,0.2,0.1c0.1,0.1,0.1,0.3,0.1,0.4
			c0.3,1,1.5,1.2,2.2,0.6c0.4-0.3,0.4-1,0.1-1.4c-0.1-0.1-0.3-0.3-0.4-0.4c-0.3-0.2-0.6-0.3-0.8-0.4c-0.3-0.2-0.6-0.3-0.9-0.5
			c-0.6-0.4-0.9-1.2-0.3-2c0.2-0.3,0.4-0.5,0.8-0.6c0.5-0.2,0.9-0.3,1.4-0.2c0.4,0.1,0.7,0.1,1.1,0.3c0,0.5,0.1,0.9-0.1,1.4h-0.1
			c-0.2-0.1-0.2-0.2-0.2-0.4c-0.2-0.9-0.9-1-1.6-0.9c-0.4,0.1-0.6,0.3-0.7,0.7s0,0.7,0.4,1c0.3,0.2,0.6,0.3,1,0.5
			c0.3,0.2,0.7,0.3,1,0.5c0.3,0.2,0.5,0.4,0.6,0.7c0.3,0.7,0.1,1.5-0.5,1.9c-0.4,0.4-0.9,0.5-1.4,0.5
			C-121.7,485.9-122.6,485.7-123,485.5z"/>
		<path class="st0" d="M-50,479.7h0.1c1,0,2.1,0,3.1,0c0.2,0,0.5,0,0.7,0.1c0.6,0.2,0.9,0.6,0.9,1.2c0.1,1-0.5,1.8-1.5,2
			c-0.3,0.1-0.6,0.1-1,0c-0.2,0-0.3,0-0.5,0c0,0.1-0.1,0.2-0.1,0.3c0,0.5,0,1,0,1.5c0,0.4,0.1,0.4,0.4,0.5c0.1,0,0.3,0,0.4,0.1
			c0.1,0,0.2,0.1,0.2,0.2c0,0.1-0.1,0.1-0.2,0.1c0,0,0,0-0.1,0c-0.8,0-1.5,0-2.3,0c-0.1,0-0.2,0-0.2,0v-0.1c0.1,0,0.1-0.1,0.2-0.1
			c0.2-0.1,0.4-0.1,0.6-0.2c0-0.2,0.1-0.4,0.1-0.6c0-1.3,0-2.6,0-3.9c0-0.1,0-0.2,0-0.3s-0.1-0.2-0.3-0.3c-0.2,0-0.4-0.1-0.6-0.2
			C-50,479.9-50,479.8-50,479.7z M-48.2,482.6c0.4,0.1,0.8,0.1,1.2,0.1c0.5-0.1,0.9-0.4,1-0.9c0.1-0.7,0-1.4-0.9-1.6
			c-0.4-0.1-0.8-0.1-1.2,0C-48.2,481-48.3,481.7-48.2,482.6z"/>
		<path class="st0" d="M-83.4,479.7c0.2,0,0.3,0,0.4,0c1.5,0,3,0,4.5,0c0.1,0,0.1,0,0.2,0.1c0,0.1,0.1,0.1,0.1,0.2
			c0,0.4,0.1,0.9,0.1,1.3c-0.2,0.1-0.3,0.1-0.3-0.1c-0.1-0.2-0.1-0.4-0.2-0.7c-0.1-0.2-0.2-0.3-0.4-0.3c-0.4,0-0.8-0.1-1.3,0
			c-0.1,0.4,0,0.8-0.1,1.3c0,0.4,0,0.9,0,1.3c0,0.4,0,0.8,0,1.2s-0.1,0.8,0.1,1.3c0.2,0,0.3,0.1,0.5,0.1c0.1,0,0.2,0,0.2,0.1
			c0.1,0,0.1,0.1,0.1,0.2l-0.1,0.1c-0.3,0-0.7,0-1,0c-0.4,0-0.9,0-1.3,0c-0.1,0-0.2-0.1-0.2-0.1c0-0.1,0.1-0.2,0.2-0.2
			s0.3-0.1,0.5-0.1s0.3-0.2,0.3-0.4c0-0.1,0-0.2,0-0.2c0-1.4,0-2.8,0-4.2c0-0.1,0-0.2,0-0.3c-0.1,0-0.2-0.1-0.3-0.1
			c-0.3,0-0.6,0-0.9,0c-0.2,0-0.4,0.1-0.4,0.3c-0.1,0.2-0.1,0.4-0.2,0.6c0,0.1,0,0.1-0.1,0.2c0,0-0.1,0.1-0.2,0l-0.1-0.1v-0.1
			c0-0.4,0.1-0.7,0.1-1.1C-83.5,479.9-83.5,479.8-83.4,479.7z"/>
		<path class="st0" d="M-103.3,480.2c-0.5-0.1-0.9-0.1-1.3,0c-0.2,0-0.3,0.1-0.4,0.3c-0.1,0.2-0.1,0.4-0.2,0.7
			c0,0.2-0.1,0.2-0.3,0.2c-0.1-0.4,0-1,0.1-1.5c0.1,0,0.1,0,0.2-0.1c0.2,0,0.3,0,0.5,0c1.4,0,2.9,0,4.4,0c0.1,0.5,0.1,1,0.1,1.4
			c0,0.1-0.1,0.1-0.1,0.1c-0.1,0-0.1-0.1-0.2-0.1c0-0.1-0.1-0.2-0.1-0.3s-0.1-0.3-0.1-0.4c-0.1-0.2-0.2-0.3-0.4-0.3
			c-0.4,0-0.8,0-1.3,0c-0.2,0.7-0.2,3.8,0,5c0.1,0.1,0.3,0.2,0.5,0.2c0.1,0,0.2,0,0.2,0.1c0.1,0,0.1,0.1,0.1,0.2l-0.1,0.1
			c-0.4,0-0.8,0-1.2,0c-0.4,0-0.8,0-1.2,0c-0.1,0-0.2,0-0.2-0.1s0.1-0.2,0.2-0.2c0.2-0.1,0.4-0.1,0.7-0.2c0.1-0.6,0.1-1.1,0.1-1.7
			c0-0.5,0-1.1,0-1.6C-103.3,481.4-103.3,480.8-103.3,480.2z"/>
		<path class="st0" d="M-72,485.6c0.1-0.1,0.2-0.1,0.3-0.2c0.1,0,0.2,0,0.3-0.1c0.3-0.1,0.3-0.2,0.4-0.5v-0.1c0-1.4,0-2.9,0-4.3
			c0-0.1,0-0.2,0-0.2c-0.2-0.4-0.7-0.1-0.9-0.5v-0.1c0,0,0.1-0.1,0.2-0.1c0.8,0,1.7,0,2.5,0c0,0,0.1,0,0.1,0.1s-0.1,0.2-0.2,0.2
			c-0.3,0.1-0.5,0.1-0.7,0.2c-0.2,0.2-0.2,0.4-0.2,0.6c0,1.4,0,2.8,0,4.2c0,0.1,0,0.2,0.1,0.3c0.1,0,0.2,0.1,0.3,0.1
			c0.5,0,1.1,0,1.6,0c0.4,0,0.7-0.1,0.9-0.5c0.1-0.2,0.2-0.4,0.3-0.5c0.1-0.1,0.2-0.2,0.3-0.1c-0.1,0.5-0.3,1-0.5,1.5
			c-0.2,0.2-0.4,0.1-0.6,0.1c-0.8,0-1.7,0-2.5,0c-0.5,0-1,0-1.5,0C-71.8,485.7-71.9,485.7-72,485.6z"/>
	</g>
	<path class="st0" d="M-141.4,483.1c0,0.1,0.1,0.2,0.1,0.2c0,0,0,0,0,0V482h-0.1c0,0,0,0,0,0c-0.2,0.1-0.4,0-0.7,0h-13.8
		c-0.1,0-0.3,0-0.4,0.1c0,0.3-0.1,0.6,0,0.9h14.2C-141.9,483-141.6,483-141.4,483.1z"/>
</g>
</svg>
