<?xml version="1.0" encoding="utf-8"?>
<!-- Generator: Adobe Illustrator 19.0.0, SVG Export Plug-In . SVG Version: 6.00 Build 0)  -->
<svg version="1.1" id="Layer_1" xmlns="http://www.w3.org/2000/svg" xmlns:xlink="http://www.w3.org/1999/xlink" x="0px" y="0px"
	 viewBox="-197 320.9 200 200" style="enable-background:new -197 320.9 200 200;" xml:space="preserve">
<style type="text/css">
	.st0{fill:#FFFFFF;}
	.st1{fill:#375340;}
</style>
<rect x="3019.2" y="2971.4" class="st0" width="4608" height="3741.8"/>
<path class="st0" d="M-182.9,376.9c0.2,0,0.2-0.2,0.2-0.3c0.1-0.6,0.2-1.1,0.4-1.7c0.7-2.8,1.7-5.4,3.3-7.8c1.4-2.1,3.1-3.9,5.1-5.5
	c1.2-0.9,2.4-1.8,3.7-2.5c1.5-0.9,3.2-1.5,5-1.7c0.9-0.1,1.8-0.2,2.7-0.2c1.5,0,3-0.1,4.5-0.1c1.5-0.1,3.1-0.2,4.6-0.5
	c4.2-0.7,8.3-2.1,12.2-3.8c0.7-0.3,1.4-0.7,2.2-1c0.1,0,0.2-0.1,0.3-0.1s0.2,0,0.2,0.1c0,0.2-0.1,0.3-0.1,0.4
	c-1.2,3.7-3,7.1-5.4,10.1c-1.6,2-3.5,3.8-5.6,5.3c-0.9,0.7-1.8,1.3-2.8,1.8c-1.2,0.6-2.4,1-3.8,1.2c-1.1,0.2-2.3,0.2-3.4,0.2
	c-2,0-4,0-6,0c-4.4,0.1-8.5,1.2-12.3,3.4c-1.5,0.8-2.9,1.7-4.2,2.8c-0.2,0.1-0.3,0.3-0.6,0.3C-182.9,377.2-182.9,377-182.9,376.9z"
	/>
<path class="st0" d="M-11.1,427.8c-0.2,0.2-0.1,0.4-0.2,0.6c-1.2,3.2-2.9,6.2-5.2,8.8c-2.1,2.5-4.6,4.5-7.4,6.1
	c-1.5,0.9-3.1,1.4-4.7,1.6c-1.7,0.3-3.3,0.2-5,0.2c-1.2,0-2.4,0-3.6,0c-1,0-2.1,0.1-3.1,0.1c-3.3,0.3-6.5,1.2-9.5,2.6
	c-1.7,0.8-3.4,1.8-5,2.9c-0.1,0.1-0.2,0.2-0.4,0.2c-0.1-0.2,0-0.3,0-0.5c0.7-3.5,2-6.6,4.1-9.4c1.2-1.5,2.5-2.8,4-4s3.2-2.3,4.9-3.2
	c1.3-0.7,2.7-1.1,4.1-1.3c0.9-0.1,1.7-0.2,2.6-0.2c1.5,0,3-0.1,4.5-0.1c1.5-0.1,3-0.2,4.6-0.4c4.3-0.6,8.4-1.9,12.5-3.5
	c1-0.4,1.9-0.8,2.8-1.2C-11.1,427.5-11.1,427.7-11.1,427.8z"/>
<path class="st0" d="M-115.4,358.4c5.3-4,10.5-8,15.8-12c0.2,0.1,0.1,0.3,0.1,0.4c0.1,0.9,0.1,1.8,0.3,2.6c0.2,1,0.5,2,1,2.9
	c1.1,2,2.7,3.3,4.9,3.8c1.2,0.3,2.4,0.4,3.7,0.4c0.8,0,1.7-0.1,2.5-0.2c0.1,0,0.2,0,0.2,0c0,0.2-0.2,0.3-0.4,0.4
	c-1.4,1.3-2.9,2.7-4.3,4c-0.8,0.7-1.5,1.4-2.3,2.1c-0.3,0.2-0.4,0.5-0.4,0.8c0,0.1,0,0.2,0,0.3c0,19.1,0,38.1,0,57.2
	c0,0.3,0,0.5,0,0.8c0.4,0.3,8.4,3.8,10.2,4.5c3-1.2,6.1-2.4,9.2-3.6c0-0.2,0-0.3,0-0.5c0-0.1,0-0.3,0-0.4c0-18.3,0-36.5,0-54.8
	c0-0.3,0-0.5,0-0.8c-0.2-0.2-0.5-0.3-0.7-0.4c-1-0.5-2-1.1-2.9-1.8c-0.9-0.6-1.7-1.3-2.4-2.2c-0.4-0.5-0.7-1-1-1.6
	c-0.2-0.5-0.4-1.1-0.3-1.7c5-3.9,10.1-7.8,15.1-11.7c0,0,0.1,0,0.1-0.1c0.1,0.1,0.1,0.2,0.1,0.3c0,0.6,0,1.3,0,1.9c0,1,0.2,2,0.5,3
	c0.7,2.2,2.2,3.6,4.3,4.4c1.1,0.4,2.2,0.6,3.3,0.7c1.1,0.1,2.2,0,3.2,0c0.4,0,0.8-0.1,1.3-0.1c0,0.2-0.1,0.3-0.2,0.4
	c-1.1,1-2.2,1.9-3.2,2.9c-1.3,1.1-2.5,2.3-3.8,3.4c-0.1,0.1-0.1,0.1-0.2,0.2c-0.2,0.1-0.2,0.3-0.2,0.5s0,0.3,0,0.5
	c0,19.1,0,38.2,0,57.2c0,0.3,0,0.5,0,0.8c0.2,0.1,0.3,0.1,0.4,0.2c2.6,0.7,5.2,1.4,7.7,2.1c1.7,0.5,3.4,0.9,5,1.4
	c0.3,0.1,0.5,0.1,0.8,0c1.8-0.9,3.6-1.7,5.5-2.6c0.1,0,0.2-0.1,0.3-0.2c0-0.1,0-0.2,0-0.3c0-0.8,0-1.6,0-2.4c0-1.6,0.1-3.3,0.1-4.9
	c0-0.7,0-1.4,0-2c0-1.5,0.1-3,0.1-4.5s0-3,0-4.5c0-1.9,0.1-3.8,0.1-5.7c0-2.5,0.1-5.1,0.1-7.6s0.1-5,0.1-7.5c0-2.7,0.1-5.4,0.1-8.1
	c0-2.3,0.1-4.6,0.1-6.9c0-0.5,0-1,0-1.6c0-0.2,0-0.3,0-0.5c-0.2-0.1-0.4-0.2-0.6-0.3c-1.6-0.7-3.2-1.5-4.6-2.6c-1.2-0.8-2.2-1.8-3-3
	c-0.3-0.4-0.5-0.7-0.7-1.1c0.1-0.2,0.3-0.3,0.5-0.5c2.2-1.7,4.4-3.3,6.6-5c2.8-2.1,5.6-4.3,8.4-6.4c0.1-0.1,0.3-0.2,0.4-0.3
	c0.2,0.2,0.1,0.4,0.2,0.6c0.1,1,0.2,2,0.5,3c0.3,1.1,0.7,2.2,1.3,3.2c1.2,2,3,3.1,5.3,3.5c1.4,0.2,2.8,0.1,4.2-0.2
	c0.6-0.1,1.2-0.3,1.8-0.4c0.1,0.1,0,0.2-0.1,0.2c-1.2,1.2-2.5,2.4-3.7,3.6c-1.2,1.1-2.3,2.3-3.5,3.4c-0.1,0.1-0.2,0.2-0.2,0.4
	c0,0.1,0,0.3,0,0.4c0,19.2,0,38.3,0,57.5c0,0.2,0,0.5,0,0.7c0.5,0.3,1,0.6,1.5,0.9s1,0.6,1.5,0.9s1,0.6,1.5,0.8
	c0.5,0.3,1,0.6,1.5,0.9s1,0.6,1.6,0.9c-0.2,0-0.3,0-0.3,0c-1.3-0.1-2.5-0.2-3.8-0.2s-2.6,0-3.8,0c-1.4,0-2.7,0.1-4.1,0.3
	c-1.9,0.2-3.9,0.6-5.8,1.1c-2.9,0.8-5.6,1.9-8.1,3.5c-3.4,2.2-6,5-7.9,8.6c-0.9,1.7-1.6,3.5-2.2,5.4c0,0.1-0.1,0.2-0.2,0.4
	c-0.1-0.2-0.2-0.3-0.2-0.5c-1-2.1-2.1-4.1-3.3-6s-2.6-3.6-4.2-5.2c-1.7-1.7-3.6-3-5.8-3.9c-1.8-0.7-3.6-1.1-5.5-1.1
	c-2.5,0-4.9,0.5-7.2,1.5c-2.2,0.8-4.2,2-6.2,3.3c-1.9,1.3-3.7,2.7-5.5,4.1c-0.1,0.1-0.2,0.2-0.4,0.3c0,0-0.1,0-0.1,0.1
	c-0.2-0.1-0.4-0.3-0.5-0.4c-1.7-1.3-3.6-2.4-5.6-3.3c-1.9-0.9-3.9-1.5-6-1.8c-1.9-0.3-3.8-0.3-5.7-0.1c-3.1,0.4-6,1.3-8.9,2.6
	c-0.3,0.1-0.6,0.3-0.9,0.4c-0.1,0-0.2,0.1-0.2,0.1c-0.1-0.2,0-0.3,0-0.4c1.2-2.9,2.9-5.5,5-7.8c2.4-2.5,5.2-4.5,8.2-6.2
	c0.6-0.3,1.3-0.7,1.9-1c0-0.1,0-0.3,0-0.4s0-0.2,0-0.3c0-18.5,0-37.1,0-55.6c0-0.2,0-0.5,0-0.8c-0.6-0.3-1.2-0.5-1.7-0.8
	c-1.2-0.6-2.3-1.2-3.3-2.1c-0.8-0.7-1.6-1.6-2.1-2.5C-115.1,359.3-115.3,358.9-115.4,358.4z"/>
<path class="st0" d="M-124.7,348.4c-0.1,0.3-0.2,0.5-0.3,0.6c-1.4,3.1-2.6,6.4-3.4,9.7c-0.5,1.9-0.8,3.7-1.1,5.6
	c-0.3,1.8-0.5,3.7-0.6,5.5c-0.1,1.6-0.2,3.2-0.2,4.9c0,1.1,0,2.1,0,3.2c0,2-0.1,3.9-0.1,5.9c0,1.7-0.1,3.4-0.1,5.1
	c0,1-0.1,2.1-0.1,3.1c0,0.2,0,0.4,0,0.6c0.2,0,0.3,0.1,0.4,0.1c1.2,0,2.4,0,3.7-0.1c1.1-0.1,2.2-0.2,3.2-0.4c2-0.3,3.9-0.8,5.9-1.4
	c2.9-0.9,5.7-2,8.5-3.2c0.3-0.1,0.6-0.3,1-0.4c0,0.1,0,0.2,0,0.3c-0.6,2-1.2,4-2.1,5.9c-0.9,2.1-2.2,3.9-3.8,5.5
	c-1.1,1.1-2.3,2.1-3.6,2.9c-2,1.3-4.2,2.4-6.5,3.3c-0.2,0.1-0.4,0.2-0.7,0.2c-1.1,0.1-2.2,0.3-3.3,0.4c-0.7,0.1-1.4,0.2-2.1,0.2
	c-0.2,0-0.4,0.1-0.6,0.1c-0.1,0.4-0.1,0.8-0.1,1.1c0,0.4,0,0.8,0,1.2c0,1.8,0.1,3.6,0.1,5.3c0,0.7,0,1.5,0,2.2c0,1.3,0.1,2.6,0,3.9
	c0,0.6-0.1,1.2-0.1,1.9c-0.1,1.2-0.3,2.3-0.4,3.5c-0.5,3.6-1.5,7.1-3,10.4c-1,2.2-2.3,4.2-3.8,6c-2.1,2.4-4.6,4.4-7.4,5.9
	c-1.4,0.8-2.9,1.4-4.5,1.9c-0.2,0.1-0.3,0.1-0.5,0.1c0.1-0.1,0.1-0.3,0.1-0.4c1.8-4.2,3.2-8.6,4-13.1c0.4-2,0.7-4,0.9-6
	c0.2-1.7,0.4-3.4,0.5-5.1c0.1-1.8,0.2-3.6,0.2-5.3c0.1-3.7,0.1-7.4,0.1-11c0-0.2,0-0.3,0-0.5c0,0,0-0.1-0.1-0.1
	c-0.3,0-0.6,0.1-0.9,0.2c-1.2,0.4-2.3,1-3.3,1.7c-1,0.8-1.9,1.7-2.7,2.7c-0.1,0.2-0.3,0.3-0.4,0.5c-0.2-0.1-0.1-0.2-0.1-0.3
	c0.1-1.5,0.4-2.9,0.8-4.3c0.6-2.1,1.5-4.1,2.8-5.9c0.9-1.2,1.9-2.3,3-3.3c0.2-0.2,0.4-0.3,0.6-0.5c0,0,0,0,0-0.1s0-0.3,0-0.4
	c-0.1-1.3-0.2-2.6-0.3-3.9c0-0.3,0-0.6,0-0.9c-0.1-2.2-0.2-4.3-0.1-6.5c0-1.7,0.1-3.4,0.2-5.2c0.2-3.3,0.6-6.6,1.4-9.8
	c0.7-3.1,1.7-6.1,3-9c1.3-2.8,3-5.4,5.1-7.7c2.3-2.5,4.9-4.4,7.8-5.9c0.8-0.4,1.6-0.7,2.4-1.1C-125.2,348.5-125,348.5-124.7,348.4z"
	/>
<path class="st0" d="M-142.9,462.5c-0.1,0.3-0.2,0.5-0.3,0.6c-0.9,2.2-1.9,4.4-2.8,6.6c-0.1,0.1-0.1,0.3-0.2,0.4
	c-0.1,0.2-0.3,0.2-0.4,0c-0.1-0.2-0.2-0.4-0.2-0.5c-1.3-3.2-2.6-6.4-3.9-9.6c-0.1-0.4-0.3-0.7-0.5-1.1c-0.2-0.4-0.4-0.7-0.9-0.8
	c-0.2,0-0.2-0.1-0.1-0.3c0.1,0,0.2,0,0.3,0c1.5,0,3.1,0,4.6,0c0.1,0,0.2,0,0.3,0s0.1,0.1,0.1,0.2c-0.3,0.1-0.5,0.1-0.7,0.2
	c-0.3,0.1-0.4,0.3-0.4,0.6c0,0.1,0,0.3,0.1,0.4c0.1,0.4,0.3,0.8,0.4,1.2c0.7,1.7,1.4,3.4,2.1,5.1c0.1,0.2,0.2,0.3,0.2,0.5
	c0.1-0.1,0.1-0.1,0.1-0.2c0.6-1.4,1.2-2.9,1.8-4.3c-0.3-0.8-0.6-1.5-0.9-2.3c-0.1-0.1-0.1-0.2-0.2-0.4c-0.2-0.4-0.6-0.7-1-0.7
	c-0.1,0-0.2,0-0.3-0.1c-0.1,0-0.1-0.2-0.1-0.2c0.5-0.1,3.5-0.1,5.6-0.1c0.1,0,0.2,0,0.3,0c0.1,0.1,0.1,0.2,0,0.3
	c-0.2,0.1-0.4,0.1-0.6,0.1c-0.5,0.1-0.6,0.3-0.5,0.8c0,0.2,0.1,0.4,0.2,0.6c0.7,1.9,1.5,3.9,2.3,5.8c0,0.1,0.1,0.2,0.2,0.4
	c0.1-0.1,0.1-0.2,0.2-0.3c0.7-1.8,1.4-3.6,2.1-5.4c0.1-0.3,0.2-0.5,0.2-0.8c0.1-0.6-0.1-0.9-0.7-1c-0.2,0-0.3-0.1-0.5-0.1
	c0-0.1,0-0.2,0-0.2c0.1,0,0.2,0,0.2,0c0.9,0,1.7,0,2.6,0c0.1,0,0.2,0,0.3,0.1c0,0.1,0,0.2-0.2,0.3c-0.5,0.2-0.7,0.5-0.9,0.9
	c-0.5,1.3-1,2.6-1.5,3.9c-0.9,2.3-1.7,4.5-2.6,6.8c-0.1,0.1-0.1,0.3-0.2,0.4c-0.1,0.1-0.3,0.1-0.4,0s-0.1-0.3-0.2-0.4
	c-0.9-2.2-1.7-4.4-2.6-6.7C-142.6,463-142.8,462.8-142.9,462.5z"/>
<path class="st0" d="M-105.1,458.2c-0.2,0-0.3,0-0.4,0c-0.2,0-0.3,0-0.5,0.1c-0.4,0.1-0.6,0.4-0.7,0.8c0,0.1,0,0.2,0,0.3
	c0,1.3,0,2.5,0,3.8c0,0.1,0,0.1,0,0.2c0.1,0,0.2,0.1,0.3,0.1c1.3,0,2.5,0,3.8,0c0.1,0,0.1,0,0.3,0c0-0.1,0.1-0.3,0.1-0.4
	c0-1.1,0-2.2,0-3.3c0-0.2,0-0.4-0.1-0.6c0-0.4-0.3-0.7-0.7-0.8c-0.3-0.1-0.6-0.1-0.9-0.1c-0.1,0-0.1-0.1-0.1-0.3c0.1,0,0.3,0,0.4,0
	c1.8,0,3.6,0,5.5,0c0.1,0,0.2,0,0.3,0c0.1,0,0.1,0.1,0.2,0.2c-0.2,0-0.3,0-0.4,0.1c-0.2,0-0.5,0-0.7,0.1c-0.4,0.1-0.6,0.4-0.6,0.8
	c0,0.3-0.1,0.7-0.1,1c0,2.6,0,5.2,0,7.8c0,0.3,0,0.7,0.1,1c0,0.4,0.2,0.6,0.6,0.8c0.2,0.1,0.4,0.1,0.6,0.1c0.1,0,0.3,0,0.4,0
	c0,0,0.1,0.1,0.1,0.2c-0.1,0-0.1,0.1-0.1,0.1c-0.5,0-5.8,0-6.2,0c-0.1-0.1-0.1-0.2,0.1-0.3c0.2,0,0.3,0,0.5,0c0.6-0.1,0.9-0.4,1-1
	c0-0.2,0-0.4,0.1-0.6c0-1.1,0-2.2,0-3.3c0-0.2,0-0.3,0-0.5c-0.1,0-0.2-0.1-0.3-0.1c-1.3,0-2.6,0-3.9,0c-0.1,0-0.1,0-0.2,0.1
	c0,0.1,0,0.3,0,0.4c0,1.1,0,2.3,0,3.4c0,0.2,0,0.4,0,0.6c0.1,0.6,0.4,1,1,1c0.2,0,0.4,0,0.6,0.1c0,0,0.1,0.1,0.1,0.2
	c-0.5,0.1-5.8,0.1-6.4,0c-0.1-0.1-0.1-0.2,0.1-0.3c0.2,0,0.3,0,0.5,0c0.6-0.1,1-0.3,1-1c0-0.2,0-0.4,0-0.6c0-2.7,0-5.4,0-8.1
	c0-0.2,0-0.5,0-0.7c0-0.5-0.3-0.8-0.8-0.9c-0.2-0.1-0.5-0.1-0.7-0.1c-0.1,0-0.1-0.1-0.1-0.1c0-0.1,0.1-0.1,0.1-0.2
	c0.1,0,0.2,0,0.2,0c1.9,0,3.8,0,5.6,0C-105.3,458.2-105.2,458.2-105.1,458.2C-105.1,457.9-105.1,458-105.1,458.2z"/>
<path class="st0" d="M-42.6,457.7c0.8,0,1.6,0,2.3,0.3c2.3,0.7,3.7,2.3,4.2,4.7c0.4,1.9,0,3.7-1.2,5.2c-1,1.4-2.4,2.2-4.1,2.4
	c-1.2,0.2-2.3,0.1-3.4-0.2c-2.2-0.7-3.6-2.2-4.1-4.5c-0.3-1.3-0.3-2.5,0.1-3.8c0.6-1.8,2.5-3.9,5.2-4.1
	C-43.3,457.7-43,457.7-42.6,457.7z M-39.3,464c0-0.8,0-1.6-0.1-2.4s-0.4-1.6-0.9-2.3c-0.9-1.4-3-1.5-4.1-0.4c-0.6,0.6-0.9,1.2-1.1,2
	c-0.2,0.6-0.2,1.3-0.3,1.9c-0.1,1.2,0,2.4,0.2,3.5c0.1,0.6,0.3,1.2,0.6,1.8s0.8,1.1,1.5,1.3c1.3,0.4,2.6,0.1,3.4-1.2
	c0.4-0.6,0.6-1.3,0.7-2C-39.4,465.5-39.3,464.7-39.3,464z"/>
<path class="st0" d="M-66.7,469.3c0-0.1,0-0.2,0-0.2c0-0.9,0-1.8,0-2.7c0-0.7-0.3-1-1-1.1c-0.2,0-0.3,0-0.5-0.1l-0.1-0.1
	c0,0,0-0.1,0.1-0.1s0.2,0,0.2,0c1.8,0,3.6,0,5.3,0c0.1,0,0.2,0,0.3,0c0.1,0.1,0.1,0.2,0,0.3c-0.2,0.1-0.3,0.1-0.5,0.1
	c-0.5,0.1-0.8,0.4-0.8,0.9c0,0.1,0,0.3,0,0.4c0,0.7,0,1.4,0,2c0,0.2,0,0.4,0,0.6c-0.7,0.4-1.4,0.6-2.1,0.7c-1.2,0.3-2.4,0.4-3.6,0.3
	c-1.7-0.1-3.2-0.7-4.5-1.8c-1.5-1.3-2-3-1.9-4.9c0.1-1.5,0.6-2.8,1.7-3.9c1.2-1.3,2.7-2,4.5-2.1c0.8,0,1.6-0.1,2.4,0.1
	c0.5,0.1,0.9,0.3,1.4,0.4c0.2,0.1,0.5,0.2,0.7,0.2c0.4,0.1,0.7,0,0.9-0.4c0.1-0.1,0.1-0.2,0.2-0.3c0.1-0.1,0.1-0.1,0.4-0.1
	c0,1.4,0,2.8,0,4.2c-0.3,0-0.3,0-0.4-0.1c-0.1-0.3-0.2-0.5-0.4-0.8c-0.5-1-1.3-1.8-2.3-2.2c-0.9-0.4-1.9-0.5-2.9-0.3
	c-1,0.3-1.7,1-2.2,1.9c-0.3,0.5-0.4,1.1-0.5,1.7c-0.3,1.6-0.3,3.2,0.1,4.8c0.1,0.3,0.2,0.5,0.3,0.8c0.4,0.9,1.1,1.6,2,1.9
	C-68.8,469.8-67.8,469.7-66.7,469.3z"/>
<path class="st0" d="M-24.6,465.3c0-0.2,0-0.4,0-0.5c0-1.6,0-3.2,0-4.8c0-0.3-0.1-0.6-0.1-0.9c-0.1-0.5-0.4-0.7-0.8-0.9
	c-0.2-0.1-0.5-0.1-0.7-0.2c0-0.3,0-0.3,0.1-0.3s0.2,0,0.3,0c1,0,2.1,0,3.1,0c0.1,0,0.2,0,0.3,0c0.1,0.2,0.1,0.3-0.1,0.3
	c-0.1,0-0.2,0.1-0.3,0.1c-0.7,0.2-0.9,0.4-1,1.1c-0.1,0.4-0.1,0.8-0.1,1.2c0,3,0,6.1,0,9.1c0,0.2,0,0.4-0.1,0.7
	c-0.1,0-0.2,0-0.3-0.1s-0.2-0.2-0.3-0.3c-2.5-3.1-5.1-6.1-7.6-9.2c-0.1-0.1-0.2-0.3-0.4-0.4c0,0.1-0.1,0.2-0.1,0.2
	c0,0.2,0,0.3,0,0.5c0,2.1,0,4.3,0,6.4c0,0.3,0,0.7,0.1,1c0.1,0.8,0.6,1.1,1.2,1.3c0.2,0,0.3,0,0.5,0c0.1,0,0.2,0.1,0.1,0.2l-0.1,0.1
	c-0.4,0-3.8,0-4.2,0c-0.1-0.1-0.1-0.2,0.1-0.3c0.2-0.1,0.5-0.1,0.7-0.1c0.6-0.1,0.8-0.5,0.9-1.1c0-0.2,0-0.4,0-0.6
	c0-2.7,0-5.5,0-8.2c0-0.3-0.1-0.6-0.3-0.8c-0.3-0.4-0.7-0.7-1.2-0.7c-0.1,0-0.1,0-0.2-0.1c0-0.3,0-0.3,0.1-0.3c0,0,0,0,0.1,0
	c1.4,0,2.7,0,4.1,0c0.1,0.1,0.2,0.3,0.3,0.4c1.7,2.1,3.5,4.3,5.2,6.4C-25.1,464.9-24.9,465.1-24.6,465.3z"/>
<path class="st0" d="M-89.8,458.1c0-0.1,0.1-0.2,0.1-0.2c0.1,0,0.2,0,0.3,0c1.2,0,2.4,0,3.7,0c0.1,0,0.2,0,0.3,0
	c0.1,0.2,0.3,0.3,0.4,0.5c1.7,2.1,3.4,4.2,5.1,6.3c0.1,0.2,0.3,0.4,0.5,0.5c0-0.2,0-0.3,0-0.4c0-1.6,0-3.3,0-4.9
	c0-0.2,0-0.5-0.1-0.7c-0.1-0.5-0.4-0.8-0.9-1c-0.2-0.1-0.5-0.1-0.7-0.2c0-0.1,0-0.2,0-0.2c0.5-0.1,3.5-0.1,4,0
	c0.1,0.1,0.1,0.2-0.1,0.3c-0.1,0-0.3,0.1-0.4,0.1c-0.6,0.1-0.9,0.5-1,1c0,0.4-0.1,0.8-0.1,1.2c0,3.1,0,6.1,0,9.2c0,0.2,0,0.4,0,0.7
	c-0.1,0-0.2,0-0.3-0.1c-0.1-0.1-0.2-0.2-0.3-0.3c-2.5-3-5-6.1-7.5-9.1c-0.1-0.1-0.3-0.3-0.4-0.4c-0.2,0-0.2,0.1-0.2,0.2s0,0.1,0,0.2
	c0,2.4,0,4.8,0,7.1c0,0.1,0,0.3,0,0.4c0.1,0.8,0.5,1.2,1.3,1.3c0.2,0,0.3,0,0.5,0.1c0.1,0,0.1,0.1,0.1,0.2c-0.5,0.1-3.9,0.1-4.4,0
	c0-0.1,0.1-0.2,0.1-0.2c0.1,0,0.1,0,0.2,0s0.3,0,0.4-0.1c0.5-0.1,0.9-0.5,1-1c0.1-0.3,0.1-0.7,0.1-1c0-2.6,0-5.2,0-7.8v-0.1
	c0-0.3-0.1-0.5-0.2-0.7C-88.7,458.6-89.1,458.2-89.8,458.1C-89.7,458.2-89.7,458.1-89.8,458.1z"/>
<path class="st0" d="M-113.6,457.6c0.1,0.6,0.2,3.3,0.1,4c-0.1,0-0.2,0-0.2,0c-0.1,0-0.1-0.1-0.2-0.2c-0.1-0.3-0.2-0.6-0.3-0.9
	c-0.5-1.1-1.3-1.9-2.5-2.2c-0.5-0.1-1.1-0.1-1.6,0c-0.3,0.1-0.6,0.3-0.8,0.6c-0.5,0.6-0.5,1.2,0,1.8c0.3,0.4,0.7,0.7,1.1,0.9
	c0.5,0.3,1.1,0.6,1.7,0.8c0.7,0.4,1.4,0.7,2.1,1.2c0.4,0.3,0.8,0.7,1.1,1.1c0.8,1.2,0.7,2.7-0.1,3.8c-0.6,0.9-1.5,1.4-2.5,1.6
	s-1.9,0.1-2.9-0.2c-0.3-0.1-0.5-0.2-0.8-0.3c-0.5-0.2-1-0.2-1.4,0.4c0,0.1-0.1,0.1-0.2,0.2c-0.1,0-0.1,0-0.2,0c-0.1-0.5-0.1-4,0-4.6
	c0.1,0,0.2,0,0.2,0.1c0.1,0.1,0.1,0.3,0.1,0.4c0.2,0.4,0.3,0.9,0.5,1.3c0.5,0.9,1.2,1.5,2.1,1.9c0.7,0.3,1.4,0.4,2.2,0.1
	c0.4-0.1,0.7-0.3,1-0.7c0.4-0.5,0.5-1.2,0.1-1.8c-0.2-0.4-0.5-0.7-0.9-0.9c-0.4-0.2-0.8-0.5-1.2-0.7c-0.6-0.3-1.2-0.6-1.9-1
	c-0.4-0.3-0.8-0.5-1.2-0.9c-0.6-0.5-1-1.1-1.1-1.8c-0.3-1.1,0-2.2,0.8-3.1c0.8-0.8,1.7-1.2,2.8-1.2c0.8,0,1.6,0.1,2.3,0.5
	c0.2,0.1,0.5,0.2,0.8,0.3s0.5,0,0.6-0.3c0.1-0.1,0.1-0.3,0.1-0.4C-113.8,457.7-113.7,457.7-113.6,457.6z"/>
<path class="st0" d="M-57.4,458.6c-0.3-0.1-0.7,0-1,0c-0.1,0-0.3,0-0.4,0.1c-0.8,0.1-1.4,0.5-1.7,1.2c-0.1,0.3-0.2,0.6-0.3,0.9
	c-0.1,0.1-0.1,0.3-0.1,0.4c0,0-0.1,0.1-0.2,0.1c0-0.1-0.1-0.1-0.1-0.2c-0.1-0.7,0-2.7,0.1-3.1c0.1,0,0.2,0,0.4,0c3.4,0,6.8,0,10.2,0
	c0.1,0,0.3,0,0.4,0c0,0.1,0.1,0.2,0.1,0.3c0,0.9,0,1.8,0,2.7c0,0.1,0,0.2,0,0.2c0,0.1-0.2,0.1-0.2,0.1c-0.1-0.1-0.1-0.2-0.1-0.3
	c-0.1-0.3-0.2-0.6-0.3-0.9c-0.2-0.5-0.6-0.9-1.1-1.2c-0.1-0.1-0.3-0.1-0.4-0.2c-0.6-0.1-1.2-0.2-1.8-0.1c0,0.1-0.1,0.3-0.1,0.4
	c0,0.4,0,0.9,0,1.3c0,2.4,0,4.7,0,7.1c0,0.4,0,0.9,0.1,1.3c0,0.6,0.3,0.9,0.9,1c0.2,0,0.4,0,0.6,0c0.1,0,0.2,0.1,0.1,0.3
	c0,0-0.1,0-0.2,0c-2,0-4,0-6,0c-0.1,0-0.1,0-0.2-0.1c0.1-0.1,0.1-0.2,0.1-0.2c0.1,0,0.3,0,0.4,0c0.2,0,0.4-0.1,0.6-0.1
	c0.3-0.1,0.5-0.3,0.5-0.6c0-0.2,0.1-0.5,0.1-0.7c0-3,0-6.1,0-9.1C-57.3,458.9-57.3,458.8-57.4,458.6z"/>
<path class="st0" d="M-128.5,470c0.1-0.1,0.1-0.2,0.1-0.2c0.1,0,0.3,0,0.5,0c0.2,0,0.3-0.1,0.5-0.1c0.3-0.1,0.4-0.3,0.3-0.7
	c0-0.1-0.1-0.2-0.1-0.3c-0.3-0.6-0.5-1.2-0.8-1.8c0-0.1-0.1-0.1-0.1-0.2c-0.5-0.1-1,0-1.4,0c-0.5,0-1,0-1.5,0s-1,0-1.5,0
	c-0.3,0.6-0.6,1.1-0.7,1.7c0,0.1-0.1,0.2-0.1,0.3c0,0.5,0.2,0.8,0.7,1c0.3,0.1,0.5,0.1,0.8,0.1c0.1,0,0.2,0.1,0.1,0.2l-0.1,0.1
	c-0.4,0-3.4,0-3.9,0c-0.1-0.1-0.1-0.2,0-0.3c0,0,0,0,0.1,0c0.7-0.2,1.1-0.6,1.4-1.2c0.2-0.4,0.4-0.8,0.6-1.2c1.4-3,2.8-6.1,4.1-9.1
	c0.1-0.2,0.1-0.4,0.3-0.5c0.2,0,0.2,0.2,0.3,0.3c0.4,0.8,0.8,1.7,1.1,2.5c1.1,2.4,2.1,4.8,3.2,7.2c0.2,0.4,0.4,0.8,0.6,1.2
	c0.3,0.5,0.6,0.8,1.1,0.9c0.1,0,0.2,0.1,0.1,0.3c0,0-0.1,0-0.2,0c-1.8,0-3.7,0-5.5,0C-128.4,470-128.4,470-128.5,470z M-128.5,465.9
	c0-0.1,0-0.1,0-0.2c-0.5-1.2-1.1-2.4-1.6-3.7c0-0.1-0.1-0.1-0.2-0.2c-0.1,0.1-0.1,0.2-0.2,0.3c-0.5,1.2-1.1,2.4-1.6,3.6
	c0,0,0,0,0,0.1c0,0,0,0,0,0.1h0.1c1,0,2.1,0,3.1,0C-128.6,465.9-128.6,465.9-128.5,465.9z"/>
<path class="st0" d="M-90.6,458.2c-0.1,0-0.2,0-0.4,0c-0.2,0-0.3,0-0.5,0.1c-0.6,0.1-0.8,0.4-0.9,1c0,0.3,0,0.5,0,0.8
	c0,2.6,0,5.3,0,7.9c0,0.3,0,0.5,0,0.8c0.1,0.6,0.4,1,1,1c0.2,0,0.3,0,0.5,0c0.1,0,0.2,0.1,0.1,0.2l-0.1,0.1c-0.5,0.1-5.8,0-6.3,0
	c-0.1-0.1,0-0.2,0.1-0.3c0.2,0,0.3,0,0.5,0c0.3,0,0.5-0.1,0.7-0.3c0.2-0.2,0.3-0.4,0.3-0.7c0-0.4,0-0.7,0-1.1c0-2.4,0-4.9,0-7.3
	c0-0.3,0-0.7,0-1c0-0.6-0.3-0.9-0.8-1c-0.2-0.1-0.5,0-0.7-0.1c-0.1,0-0.1-0.1-0.1-0.1c0-0.1,0.1-0.1,0.1-0.2c0.1,0,0.2,0,0.3,0
	c1.8,0,3.6,0,5.5,0c0.1,0,0.2,0,0.3,0C-90.6,457.9-90.5,458-90.6,458.2z"/>
<path class="st1" d="M-88.8,495.2c0.1-0.8,0.4-1.5,0.6-2.3c-0.1-0.1-0.2-0.2-0.3-0.3c-0.5-0.4-1.1-0.8-1.6-1.1
	c0-0.1,0.1-0.1,0.2-0.1c0.5,0,1,0,1.6,0c0.2,0,0.4,0,0.6,0c0.4-0.8,0.5-1.6,0.8-2.4c0.1,0.1,0.1,0.2,0.2,0.3c0.2,0.5,0.3,1,0.5,1.4
	c0.1,0.2,0.1,0.4,0.2,0.6c0.8,0.1,1.6,0,2.4,0.1c-0.6,0.6-1.4,1-1.9,1.5c0.2,0.8,0.5,1.5,0.7,2.3c-0.3-0.1-0.5-0.3-0.7-0.5
	c-0.2-0.1-0.4-0.3-0.6-0.4c-0.2-0.2-0.4-0.3-0.7-0.5c-0.4,0.2-0.7,0.5-1,0.7C-88.2,494.7-88.5,494.9-88.8,495.2z"/>
<path class="st1" d="M-71.8,492.8c-0.7-0.5-1.3-0.9-1.9-1.4c0.1-0.1,0.3-0.1,0.4-0.1s0.3,0,0.4,0s0.3,0,0.4,0s0.2,0,0.3,0
	c0.1,0,0.3,0,0.4,0s0.3,0,0.4,0c0.3-0.7,0.5-1.5,0.8-2.3c0.4,0.8,0.5,1.6,0.8,2.4c0.8,0,1.6,0,2.3,0c-0.1,0.2-0.2,0.3-0.3,0.4
	c-0.1,0.1-0.2,0.2-0.4,0.3c-0.1,0.1-0.3,0.2-0.4,0.3s-0.3,0.2-0.4,0.3s-0.2,0.2-0.4,0.3c0.1,0.4,0.3,0.8,0.4,1.2s0.3,0.7,0.3,1.1
	c-0.7-0.4-1.3-0.9-2-1.4c-0.1,0.1-0.2,0.1-0.3,0.2c-0.4,0.3-0.9,0.6-1.3,1c-0.1,0.1-0.2,0.1-0.4,0.2
	C-72.3,494.4-72,493.6-71.8,492.8z"/>
<path class="st1" d="M-54,493.8c-0.7,0.4-1.3,0.9-1.9,1.4c-0.2-0.1-0.1-0.2,0-0.3c0.2-0.5,0.3-1.1,0.5-1.6c0-0.1,0.1-0.3,0.1-0.5
	c-0.6-0.5-1.3-0.9-1.8-1.4c0-0.1,0.2-0.1,0.2-0.1c0.5,0,1,0,1.5,0c0.2,0,0.4,0,0.6,0c0.3-0.4,0.3-0.8,0.4-1.1
	c0.1-0.4,0.3-0.8,0.4-1.1c0.1,0,0.1,0.1,0.2,0.1c0.2,0.6,0.4,1.1,0.6,1.7c0,0.1,0.1,0.2,0.2,0.4c0.4,0.1,0.8,0,1.2,0s0.8,0,1.2,0
	c-0.2,0.3-0.4,0.4-0.6,0.5c-0.2,0.2-0.4,0.3-0.7,0.5c-0.2,0.1-0.4,0.3-0.6,0.5c0,0.1,0,0.3,0.1,0.4c0.1,0.4,0.3,0.9,0.4,1.3
	c0.1,0.2,0.1,0.4,0.2,0.6c-0.1,0.1-0.2,0-0.3,0c-0.5-0.3-0.9-0.7-1.4-1C-53.8,494-53.9,493.9-54,493.8z"/>
<path class="st1" d="M-103.3,488.9c0.4,0.8,0.5,1.6,0.9,2.4c0.8,0.1,1.6,0,2.3,0c0,0.2-0.1,0.2-0.1,0.2c-0.4,0.3-0.8,0.6-1.3,0.9
	c-0.1,0.1-0.3,0.2-0.4,0.3c0.2,0.8,0.5,1.5,0.7,2.4c-0.8-0.5-1.4-1-2-1.4c-0.4,0.2-0.7,0.4-1,0.7c-0.3,0.2-0.6,0.5-1,0.7
	c0-0.5,0.2-0.8,0.3-1.2c0.1-0.4,0.2-0.7,0.4-1.1c-0.6-0.5-1.3-0.9-1.9-1.4c0-0.2,0.2-0.1,0.2-0.1c0.5,0,1,0,1.6,0c0.2,0,0.3,0,0.5,0
	C-103.8,490.5-103.6,489.7-103.3,488.9z"/>
<path class="st1" d="M-117.8,495.2c-0.6-0.5-1.3-0.9-1.9-1.4c-0.4,0.2-0.7,0.5-1,0.7s-0.6,0.5-1,0.7c0-0.3,0.1-0.6,0.2-0.8
	c0.1-0.3,0.2-0.5,0.3-0.8c0.1-0.3,0.2-0.5,0.2-0.8c-0.6-0.5-1.3-0.9-1.9-1.5c0.3-0.1,0.5-0.1,0.8-0.1s0.5,0,0.8,0s0.5,0,0.8,0
	c0.4-0.7,0.5-1.5,0.8-2.3c0.2,0.3,0.2,0.6,0.3,0.8c0.1,0.2,0.2,0.5,0.2,0.7c0.1,0.3,0.2,0.5,0.3,0.8c0.4,0.1,0.8,0,1.2,0
	c0.4,0,0.8,0,1.1,0c0.1,0.2,0,0.2-0.1,0.3c-0.4,0.3-0.8,0.5-1.1,0.8c-0.2,0.1-0.3,0.3-0.5,0.4c0,0.1,0,0.3,0.1,0.4
	C-118.1,493.9-117.9,494.5-117.8,495.2C-117.7,495.1-117.7,495.2-117.8,495.2z"/>
<g>
	<path class="st1" d="M-17.6,482.1c-0.2-0.1-0.5,0-0.7,0c-4.7,0-9.4,0-14.1,0c-0.2,0-0.5,0-0.8-0.1c0-0.2,0-0.5,0-0.7
		c0-1.1,0-2.2,0-3.3c0-0.1,0-0.2,0-0.3v10.2c0-0.2,0-0.5,0-0.7c0-1.3,0-2.5,0-3.8c0-0.2,0-0.4,0.1-0.5c0.2,0,0.4,0,0.6,0
		c2.2,0,4.5,0,6.7,0c2.5,0,5,0,7.4,0c0.2,0,0.4,0.1,0.7-0.1C-17.6,482.7-17.5,482.4-17.6,482.1z"/>
	<path class="st1" d="M-141.3,488c0.3,0.1,0.6,0,0.9,0c35.4,0,70.8,0,106.2,0c0.2,0,0.4,0,0.6,0c0.1,0,0.2,0,0.4-0.1L-141.3,488
		L-141.3,488z"/>
	<path class="st1" d="M-33.2,477.5c-0.3-0.1-0.6,0-0.9,0c-35.4,0-70.8,0-106.2,0c-0.2,0-0.4,0-0.6,0c-0.1,0-0.2,0-0.4,0.1
		L-33.2,477.5L-33.2,477.5z"/>
	<path class="st1" d="M-141.3,478.2c0,1.1,0,2.1,0,3.2c0,0.2,0,0.4-0.1,0.6c-0.2,0.1-0.4,0-0.7,0c-4,0-8,0-12,0c-0.6,0-1.2,0-1.8,0
		c-0.1,0-0.3,0-0.4,0.1c0,0.3-0.1,0.6,0,0.9c0.1,0,0.2,0,0.3,0c0.3,0,0.5,0,0.8,0c4.4,0,8.7,0,13.1,0c0.2,0,0.5,0,0.7,0.1
		c0.1,0.2,0.1,0.4,0.1,0.6c0,1.2,0,2.4,0,3.7c0,0.2,0,0.3,0,0.5v-10.3C-141.3,477.8-141.3,478-141.3,478.2z"/>
	<polygon class="st1" points="-33.1,477.6 -33.2,477.6 -141.3,477.6 -141.3,487.9 -141.3,488 -141.3,488 -33.1,488 -33.1,477.8 	"/>
</g>
<g>
	<path class="st0" d="M-96.6,480.1c-0.2-0.1-0.4-0.1-0.6-0.2c-0.1,0-0.1,0-0.2-0.1v-0.1c0,0,0-0.1,0.1-0.1s0.1,0,0.2,0
		c0.7,0,1.5,0,2.2,0c0.1,0,0.1,0,0.2,0l0.1,0.1v0.1c-0.2,0-0.3,0.1-0.5,0.1c-0.3,0.1-0.3,0.2-0.4,0.4c0,0.5,0,1.1,0,1.6
		c0,0.1,0,0.1,0,0.2c0.5,0.1,2.4,0.1,3,0c0.1-0.3,0-0.7,0-1s0-0.6,0-0.9c0-0.2-0.1-0.3-0.2-0.3c-0.2-0.1-0.4-0.1-0.6-0.2l-0.1-0.1
		c0,0,0-0.1,0.1-0.1s0.1,0,0.2,0c0.7,0,1.5,0,2.2,0h0.1l0.1,0.1c0,0,0,0.1-0.1,0.1s-0.2,0.1-0.3,0.1c-0.1,0-0.3,0.1-0.4,0.2
		c0,0.2-0.1,0.3-0.1,0.5c0,1.5,0,3.1,0,4.5c0.3,0.3,0.7,0.2,0.9,0.4c-0.1,0.2-0.2,0.2-0.3,0.2c-0.6,0-1.2,0-1.7,0
		c-0.2,0-0.3,0-0.5,0l-0.1-0.1c0,0,0-0.1,0.1-0.1c0.2-0.1,0.3-0.1,0.5-0.1s0.3-0.2,0.3-0.4c0-0.7,0.1-1.3,0-2.1
		c-0.5-0.1-1,0-1.5-0.1c-0.5,0-1,0-1.5,0c-0.1,0.4-0.1,1.3,0,2.3c0.1,0.2,0.3,0.2,0.5,0.2c0.1,0,0.2,0.1,0.3,0.1v0.1
		c0,0,0,0.1-0.1,0.1s-0.1,0-0.2,0c-0.7,0-1.4,0-2.1,0c-0.1,0-0.1,0-0.2,0l-0.1-0.1v-0.1c0.1,0,0.1-0.1,0.2-0.1
		c0.2-0.1,0.4-0.1,0.6-0.2c0-0.2,0.1-0.3,0.1-0.4c0-1.5,0-2.9,0-4.4C-96.6,480.4-96.6,480.3-96.6,480.1z"/>
	<path class="st0" d="M-59.7,481.9c0.2,0,0.3,0,0.5,0c0.5,0,0.9,0,1.4,0l0,0c0,0,0,0,0,0.1c-0.1,0.1-0.2,0.1-0.3,0.2
		c-0.2,0.1-0.4,0.2-0.5,0.4c-0.1,0.1-0.1,0.2-0.2,0.2c-0.3,0.5-0.6,1-0.9,1.6c0.2,0.3,0.4,0.5,0.7,0.6s0.5,0.1,0.8,0
		c0.1-0.1,0.3-0.1,0.4-0.2c0.1-0.1,0.2-0.1,0.3,0s0,0.2-0.1,0.2c-0.2,0.2-0.5,0.4-0.7,0.5c-0.4,0.3-0.8,0.3-1.2,0.1
		c-0.2-0.1-0.3-0.2-0.4-0.3c-0.1-0.1-0.3-0.2-0.4-0.3c-0.2,0.1-0.3,0.2-0.5,0.3c-0.5,0.3-1,0.5-1.6,0.5c-1.2-0.1-1.8-1.3-1.2-2.3
		c0.2-0.3,0.4-0.5,0.7-0.7c0.3-0.2,0.5-0.3,0.8-0.5c0-0.1-0.1-0.3-0.1-0.4c-0.1-0.2-0.1-0.4-0.2-0.6c-0.1-0.7,0.1-1.2,0.8-1.6
		c0.3-0.2,0.7-0.3,1.1-0.2c0.6,0.2,0.9,0.7,0.7,1.3c-0.1,0.4-0.4,0.7-0.8,0.9c-0.2,0.1-0.4,0.3-0.6,0.4c0.1,0.5,0.6,1.2,1,1.8
		c0.4-0.3,0.7-1,0.8-1.4c0-0.1,0-0.2-0.1-0.3s-0.1-0.1-0.2-0.1C-59.6,482-59.6,482-59.7,481.9z M-60.6,484.7
		c-0.2-0.3-0.3-0.5-0.5-0.7c-0.1-0.2-0.3-0.4-0.4-0.6s-0.2-0.5-0.4-0.7c-0.2,0.1-0.4,0.3-0.6,0.4c-0.2,0.2-0.4,0.5-0.5,0.8
		c-0.2,0.7,0.4,1.3,0.9,1.4C-61.5,485.3-61.1,485.1-60.6,484.7z M-61.3,481.8c0.3-0.1,0.6-0.3,0.8-0.5c0.2-0.3,0.2-0.6,0.2-0.9
		c-0.1-0.3-0.3-0.5-0.6-0.5s-0.6,0.2-0.7,0.5c0,0.1-0.1,0.2-0.1,0.3C-61.6,481.1-61.5,481.5-61.3,481.8z"/>
	<path class="st0" d="M-106.9,485.7c-0.1-0.1-0.1-0.2-0.2-0.2c-0.5-0.7-1-1.4-1.5-2.1c-0.3-0.4-0.4-0.4-1-0.4c0,0.1,0,0.1,0,0.2
		c0,0.6,0,1.2,0,1.7c0,0.3,0.1,0.3,0.3,0.4c0.2,0.1,0.3,0.1,0.5,0.1l0.1,0.1l-0.1,0.1c-0.3,0-0.5,0-0.8,0c-0.6,0-1.1,0-1.7,0
		l-0.1-0.1c0,0,0-0.1,0.1-0.1c0.2-0.1,0.3-0.1,0.5-0.1c0.2-0.1,0.3-0.2,0.3-0.4c0-0.1,0-0.2,0-0.3c0-1.3,0-2.6,0-3.8
		c0-0.2,0-0.4,0-0.5c-0.2-0.4-0.7-0.2-1-0.5c0.1,0,0.2-0.1,0.3-0.1c0.9,0,1.9,0,2.8,0c0.3,0,0.6,0.1,0.8,0.1
		c0.4,0.1,0.7,0.5,0.8,0.9c0.2,0.8,0,1.5-0.8,1.9c-0.1,0.1-0.3,0.1-0.5,0.2c-0.1,0.1,0,0.2,0.1,0.3c0.4,0.6,0.9,1.1,1.3,1.7
		c0.2,0.3,0.5,0.5,0.8,0.6c0.1,0,0.3,0.1,0.4,0.1l0.1,0.1c-0.1,0-0.1,0.1-0.2,0.1C-105.9,485.7-106.4,485.7-106.9,485.7z
		 M-109.6,480.2c-0.1,0.5-0.1,1.9,0,2.3c0.4,0.1,0.8,0.1,1.2,0c0.5-0.1,0.8-0.4,0.8-0.9c0-0.1,0-0.3,0-0.4c0-0.5-0.3-0.8-0.8-1
		C-108.7,480-109.1,480.1-109.6,480.2z"/>
	<path class="st0" d="M-129.4,485.6c-0.1,0-0.1,0.1-0.2,0.1c-0.5,0-1,0-1.5,0c-0.1-0.1-0.1-0.2-0.2-0.3c-0.5-0.7-1-1.4-1.5-2.1
		c-0.3-0.4-0.6-0.5-1-0.4c0,0,0,0,0,0.1v0.1c0,0.1,0,0.1,0,0.2c0,0.6,0.1,1.3,0.1,1.9c0.2,0.3,0.7,0.2,0.9,0.5
		c-0.1,0-0.2,0.1-0.3,0.1c-0.6,0-1.2,0-1.7,0c-0.2,0-0.4,0-0.6,0l-0.1-0.1c0,0,0-0.1,0.1-0.1s0.3-0.1,0.4-0.1
		c0.3-0.1,0.4-0.2,0.4-0.5c0-0.4,0-0.9,0-1.3c0-1,0-1.9,0-2.9c0-0.1,0-0.1,0-0.2c0-0.2-0.1-0.3-0.3-0.4c-0.1,0-0.3-0.1-0.4-0.1
		c-0.1,0-0.2-0.1-0.2-0.1c0.1-0.2,0.3-0.2,0.4-0.2c0.8,0,1.5,0,2.3,0c0.3,0,0.5,0,0.8,0c0.8,0.1,1.2,0.4,1.4,1
		c0.2,0.7-0.1,1.4-0.6,1.7c-0.1,0.1-0.3,0.2-0.4,0.2c-0.1,0.1-0.2,0.1-0.3,0.1c-0.1,0.2,0,0.2,0.1,0.3c0.4,0.5,0.8,1,1.2,1.6
		c0.3,0.4,0.6,0.6,1,0.7C-129.5,485.4-129.4,485.5-129.4,485.6C-129.4,485.5-129.4,485.6-129.4,485.6z M-133.6,480.2
		c0,0.4,0,0.8,0,1.2s-0.2,0.8,0,1.2c0.2,0,0.3,0,0.5,0c0.2,0,0.4,0,0.6,0c0.9-0.1,1.3-0.9,1-1.7c-0.1-0.3-0.3-0.5-0.6-0.6
		C-132.6,480-133.1,480.1-133.6,480.2z"/>
	<path class="st0" d="M-112.1,482.5c0,0.6-0.1,1.2-0.4,1.7c-0.4,0.8-1.1,1.3-2,1.5c-0.6,0.1-1.1,0.1-1.7,0c-0.9-0.2-1.5-0.7-1.9-1.5
		s-0.4-1.7-0.1-2.6c0.4-1.2,1.2-1.9,2.4-2.1c0.4-0.1,0.8-0.1,1.3,0c0.9,0.1,2,0.8,2.2,2.3C-112.1,482.1-112.1,482.3-112.1,482.5z
		 M-113,482.7c0-0.1,0-0.2,0-0.3c0-0.6-0.2-1.1-0.5-1.6c-0.3-0.4-0.6-0.7-1.1-0.8c-1.3-0.3-2.2,0.4-2.5,1.4
		c-0.2,0.7-0.2,1.5-0.1,2.2c0,0.2,0.1,0.4,0.2,0.6c0.4,0.8,1.1,1.2,2,1.2c0.8,0,1.4-0.5,1.7-1.2C-113,483.7-113,483.2-113,482.7z"/>
	<path class="st0" d="M-90.3,482.8c0-1,0.3-1.8,1-2.4s1.5-0.9,2.5-0.8c0.2,0,0.4,0,0.6,0.1c1,0.3,1.6,0.9,1.9,1.9
		c0.2,0.8,0.2,1.6-0.1,2.3c-0.4,1.1-1.2,1.8-2.3,2c-0.4,0.1-0.8,0.1-1.3,0c-1.2-0.2-1.9-0.9-2.2-2
		C-90.2,483.5-90.2,483.1-90.3,482.8z M-85.1,482.7c0-0.2,0-0.3,0-0.5c0-0.5-0.2-1-0.5-1.4s-0.6-0.7-1.1-0.8
		c-1.2-0.3-2.2,0.3-2.5,1.4c-0.3,0.8-0.3,1.7,0,2.5c0.1,0.2,0.2,0.4,0.3,0.6c0.5,0.7,1.2,1,2,0.9s1.3-0.6,1.6-1.3
		C-85.1,483.7-85,483.2-85.1,482.7z"/>
	<path class="st0" d="M-128.3,480.1c-0.3-0.1-0.5-0.1-0.8-0.2l-0.1-0.1c0-0.1,0.1-0.1,0.1-0.1c0.3,0,0.5,0,0.8,0c1,0,2,0,3,0
		c0.3,0,0.5,0,0.8,0.1c0,0.2,0,0.4,0,0.7c0,0.2,0.1,0.5,0,0.7c-0.1-0.1-0.2-0.1-0.2-0.1c-0.1-0.2-0.1-0.4-0.2-0.5
		c-0.1-0.2-0.2-0.3-0.4-0.3c-0.7-0.1-1.4,0-2.2,0c-0.1,0.7,0,1.4-0.1,2.2c0.6,0.1,1.2,0.1,1.8,0c0.1-0.2,0.2-0.5,0.3-0.7h0.1
		c0,0,0.1,0,0.1,0.1c0,0,0,0,0,0.1c0,0.6,0,1.2,0,1.9l-0.1,0.1c0,0-0.1,0-0.1-0.1c-0.1-0.1-0.1-0.3-0.1-0.4c0-0.2-0.2-0.3-0.4-0.3
		c-0.5,0-1,0-1.5,0c-0.1,0.4-0.1,1.8,0,2.5c0.1,0,0.2,0,0.3,0c0.5,0,1,0,1.5,0s0.9-0.2,1.1-0.6c0.1-0.2,0.2-0.3,0.3-0.4
		c0,0,0.1-0.1,0.2-0.1c0.1,0,0.1,0.1,0.1,0.2c-0.1,0.3-0.2,0.6-0.3,0.8c-0.1,0.2-0.1,0.3-0.2,0.5c-0.2,0.1-0.4,0.1-0.6,0.1
		c-1.3,0-2.5,0-3.8,0c-0.1,0-0.3,0-0.4,0c0-0.2,0-0.2,0.1-0.2c0.9-0.2,0.7-0.2,0.7-0.9c0-1.3,0-2.5,0-3.8
		C-128.3,480.6-128.3,480.4-128.3,480.1z"/>
	<path class="st0" d="M-72.9,485.7c-0.2,0-0.4,0-0.6,0c-1.3,0-2.5,0-3.8,0c-0.1,0-0.2,0-0.3,0l-0.1-0.1c0,0,0-0.1,0.1-0.1
		c0.2-0.1,0.3-0.1,0.5-0.1c0.3-0.1,0.3-0.1,0.3-0.4c0-1.5,0-3,0-4.5c0-0.1,0-0.2,0-0.2c-0.2-0.2-0.4-0.2-0.6-0.3
		c-0.1,0-0.1-0.1-0.2-0.1v-0.1c0,0,0-0.1,0.1-0.1s0.2,0,0.3,0c1.1,0,2.3,0,3.4,0c0.3,0,0.7-0.1,1,0.1c0,0.4,0.1,0.8,0.1,1.2
		l-0.1,0.1c-0.1,0-0.2,0-0.2-0.1c-0.1-0.2-0.1-0.4-0.2-0.5c-0.1-0.2-0.2-0.3-0.5-0.3c-0.7,0-1.3,0-2,0c-0.1,0.5-0.2,1.3-0.1,2.1
		c0.1,0,0.2,0.1,0.3,0.1c0.4,0,0.7,0,1.1,0c0.3,0,0.5-0.1,0.5-0.4c0-0.1,0.1-0.2,0.1-0.3c0,0,0.1-0.1,0.2-0.1c0,0.1,0.1,0.2,0.1,0.3
		c0,0.5,0,1.1,0,1.6v0.1l-0.1,0.1c0,0-0.1,0-0.1-0.1c-0.1-0.1-0.1-0.3-0.1-0.4c-0.1-0.3-0.1-0.4-0.4-0.4c-0.5,0-1,0-1.5,0
		c-0.1,0.8,0,1.6,0,2.4c0.1,0,0.2,0.1,0.4,0.1c0.5,0,1,0,1.6,0c0.5,0,0.8-0.2,1-0.6c0.1-0.2,0.2-0.3,0.3-0.4c0,0,0.1-0.1,0.2-0.1
		c0,0.1,0.1,0.1,0.1,0.1c0,0.2-0.1,0.3-0.1,0.5C-72.7,485.1-72.8,485.4-72.9,485.7z"/>
	<path class="st0" d="M-40.5,485.2c0-0.4-0.2-0.8-0.5-1.4c-0.4-0.1-1.9-0.1-2.5,0c-0.2,0.4-0.4,0.9-0.5,1.4c0.2,0.1,0.4,0.1,0.5,0.2
		v0.1c0,0,0,0.1-0.1,0.1c-0.2,0-0.5,0-0.7,0c-0.3,0-0.7,0-1,0c0,0-0.1,0-0.1-0.1v-0.1l0.1-0.1c0.3-0.1,0.5-0.3,0.6-0.6
		c0.4-0.8,0.7-1.6,1.1-2.4c0.4-0.8,0.7-1.7,1.1-2.5c0.1-0.1,0.1-0.4,0.3-0.4s0.2,0.2,0.3,0.3c0.7,1.6,1.4,3.2,2.1,4.8
		c0.1,0.3,0.3,0.6,0.7,0.7c0.1,0,0.1,0,0.1,0.1v0.1c0,0,0,0.1-0.1,0.1s-0.1,0-0.2,0c-0.6,0-1.2,0-1.9,0h-0.1l-0.1-0.1
		c0,0,0-0.1,0.1-0.1s0.2-0.1,0.3-0.1C-40.6,485.3-40.6,485.3-40.5,485.2z M-42.2,480.9c-0.3,0.4-0.9,1.9-1,2.4
		c0.2,0.1,0.4,0.1,0.6,0.1c0.5,0,0.9,0,1.4-0.1C-41.5,482.5-41.8,481.7-42.2,480.9z"/>
	<path class="st0" d="M-50.9,479.9L-50.9,479.9c0,0.5,0.1,0.9,0,1.2c0,0.1-0.1,0.1-0.1,0.2c-0.1,0-0.2,0-0.2-0.1
		c-0.1-0.1-0.1-0.3-0.1-0.4c-0.2-0.5-0.5-0.7-1-0.7c-0.1,0-0.3,0-0.4,0c-0.4,0-0.8,0.3-0.8,0.7c-0.1,0.4,0,0.8,0.4,1
		c0.3,0.2,0.6,0.3,0.9,0.5c0.4,0.2,0.8,0.4,1.1,0.6c0.7,0.6,0.8,1.6,0.2,2.3c-0.3,0.4-0.7,0.6-1.1,0.7c-0.4,0.1-0.8,0.1-1.2,0
		s-0.8-0.1-1.2-0.3c-0.1-0.5,0-1,0-1.4c0,0,0.1-0.1,0.2-0.1c0,0,0.1,0,0.1,0.1c0.1,0.1,0.1,0.3,0.1,0.4c0.2,1,1.3,1.2,1.9,0.9
		c0.7-0.3,0.8-1.2,0.3-1.7c-0.1-0.2-0.3-0.3-0.5-0.4c-0.3-0.2-0.6-0.3-0.8-0.4s-0.5-0.2-0.7-0.4c-0.9-0.6-0.8-1.7-0.1-2.3
		c0.5-0.4,1.1-0.6,1.7-0.5c0.3,0,0.7,0.1,1,0.2C-51.1,479.8-51,479.8-50.9,479.9z"/>
	<path class="st0" d="M-122.9,485.5c0-0.5,0-0.9,0-1.4c0-0.1,0.1-0.1,0.1-0.1c0.1,0,0.2,0,0.2,0.1c0.1,0.1,0.1,0.3,0.1,0.4
		c0.3,1,1.5,1.2,2.2,0.6c0.4-0.3,0.4-1,0.1-1.4c-0.1-0.1-0.3-0.3-0.4-0.4c-0.3-0.2-0.6-0.3-0.8-0.4c-0.3-0.2-0.6-0.3-0.9-0.5
		c-0.6-0.4-0.9-1.2-0.3-2c0.2-0.3,0.4-0.5,0.8-0.6c0.5-0.2,0.9-0.3,1.4-0.2c0.4,0.1,0.7,0.1,1.1,0.3c0,0.5,0.1,0.9-0.1,1.4h-0.1
		c-0.2-0.1-0.2-0.2-0.2-0.4c-0.2-0.9-0.9-1-1.6-0.9c-0.4,0.1-0.6,0.3-0.7,0.7s0,0.7,0.4,1c0.3,0.2,0.6,0.3,1,0.5
		c0.3,0.2,0.7,0.3,1,0.5s0.5,0.4,0.6,0.7c0.3,0.7,0.1,1.5-0.5,1.9c-0.4,0.4-0.9,0.5-1.4,0.5C-121.6,485.9-122.5,485.7-122.9,485.5z"
		/>
	<path class="st0" d="M-49.9,479.7L-49.9,479.7c1.1,0,2.2,0,3.2,0c0.2,0,0.5,0,0.7,0.1c0.6,0.2,0.9,0.6,0.9,1.2c0.1,1-0.5,1.8-1.5,2
		c-0.3,0.1-0.6,0.1-1,0c-0.2,0-0.3,0-0.5,0c0,0.1-0.1,0.2-0.1,0.3c0,0.5,0,1,0,1.5c0,0.4,0.1,0.4,0.4,0.5c0.1,0,0.3,0,0.4,0.1
		c0.1,0,0.2,0.1,0.2,0.2s-0.1,0.1-0.2,0.1c0,0,0,0-0.1,0c-0.8,0-1.5,0-2.3,0c-0.1,0-0.2,0-0.2,0v-0.1c0.1,0,0.1-0.1,0.2-0.1
		c0.2-0.1,0.4-0.1,0.6-0.2c0-0.2,0.1-0.4,0.1-0.6c0-1.3,0-2.6,0-3.9c0-0.1,0-0.2,0-0.3s-0.1-0.2-0.3-0.3c-0.2,0-0.4-0.1-0.6-0.2
		C-49.9,479.9-49.9,479.8-49.9,479.7z M-48.1,482.6c0.4,0.1,0.8,0.1,1.2,0.1c0.5-0.1,0.9-0.4,1-0.9c0.1-0.7,0-1.4-0.9-1.6
		c-0.4-0.1-0.8-0.1-1.2,0C-48.1,481-48.2,481.7-48.1,482.6z"/>
	<path class="st0" d="M-83.3,479.7c0.2,0,0.3,0,0.4,0c1.5,0,3,0,4.5,0c0.1,0,0.1,0,0.2,0.1c0,0.1,0.1,0.1,0.1,0.2
		c0,0.4,0.1,0.9,0.1,1.3c-0.2,0.1-0.3,0.1-0.3-0.1c-0.1-0.2-0.1-0.4-0.2-0.7c-0.1-0.2-0.2-0.3-0.4-0.3c-0.4,0-0.8-0.1-1.3,0
		c-0.1,0.4,0,0.8-0.1,1.3c0,0.4,0,0.9,0,1.3s0,0.8,0,1.2s-0.1,0.8,0.1,1.3c0.2,0,0.3,0.1,0.5,0.1c0.1,0,0.2,0,0.2,0.1
		c0.1,0,0.1,0.1,0.1,0.2l-0.1,0.1c-0.3,0-0.7,0-1,0c-0.4,0-0.9,0-1.3,0c-0.1,0-0.2-0.1-0.2-0.1c0-0.1,0.1-0.2,0.2-0.2
		s0.3-0.1,0.5-0.1s0.3-0.2,0.3-0.4c0-0.1,0-0.2,0-0.2c0-1.4,0-2.8,0-4.2c0-0.1,0-0.2,0-0.3c-0.1,0-0.2-0.1-0.3-0.1
		c-0.3,0-0.6,0-0.9,0c-0.2,0-0.4,0.1-0.4,0.3c-0.1,0.2-0.1,0.4-0.2,0.6c0,0.1,0,0.1-0.1,0.2c0,0-0.1,0.1-0.2,0l-0.1-0.1v-0.1
		c0-0.4,0.1-0.7,0.1-1.1C-83.4,479.9-83.4,479.8-83.3,479.7z"/>
	<path class="st0" d="M-103.2,480.2c-0.5-0.1-0.9-0.1-1.3,0c-0.2,0-0.3,0.1-0.4,0.3c-0.1,0.2-0.1,0.4-0.2,0.7c0,0.2-0.1,0.2-0.3,0.2
		c-0.1-0.4,0-1,0.1-1.5c0.1,0,0.1,0,0.2-0.1c0.2,0,0.3,0,0.5,0c1.4,0,2.9,0,4.4,0c0.1,0.5,0.1,1,0.1,1.4c0,0.1-0.1,0.1-0.1,0.1
		c-0.1,0-0.1-0.1-0.2-0.1c0-0.1-0.1-0.2-0.1-0.3s-0.1-0.3-0.1-0.4c-0.1-0.2-0.2-0.3-0.4-0.3c-0.4,0-0.8,0-1.3,0
		c-0.2,0.7-0.2,3.8,0,5c0.1,0.1,0.3,0.2,0.5,0.2c0.1,0,0.2,0,0.2,0.1c0.1,0,0.1,0.1,0.1,0.2l-0.1,0.1c-0.4,0-0.8,0-1.2,0
		c-0.4,0-0.8,0-1.2,0c-0.1,0-0.2,0-0.2-0.1s0.1-0.2,0.2-0.2c0.2-0.1,0.4-0.1,0.7-0.2c0.1-0.6,0.1-1.1,0.1-1.7c0-0.5,0-1.1,0-1.6
		C-103.2,481.4-103.2,480.8-103.2,480.2z"/>
	<path class="st0" d="M-71.9,485.6c0.1-0.1,0.2-0.1,0.3-0.2c0.1,0,0.2,0,0.3-0.1c0.3-0.1,0.3-0.2,0.4-0.5v-0.1c0-1.4,0-2.9,0-4.3
		c0-0.1,0-0.2,0-0.2c-0.2-0.4-0.7-0.1-0.9-0.5v-0.1c0,0,0.1-0.1,0.2-0.1c0.8,0,1.7,0,2.5,0c0,0,0.1,0,0.1,0.1s-0.1,0.2-0.2,0.2
		c-0.3,0.1-0.5,0.1-0.7,0.2c-0.2,0.2-0.2,0.4-0.2,0.6c0,1.4,0,2.8,0,4.2c0,0.1,0,0.2,0.1,0.3c0.1,0,0.2,0.1,0.3,0.1
		c0.5,0,1.1,0,1.6,0c0.4,0,0.7-0.1,0.9-0.5c0.1-0.2,0.2-0.4,0.3-0.5c0.1-0.1,0.2-0.2,0.3-0.1c-0.1,0.5-0.3,1-0.5,1.5
		c-0.2,0.2-0.4,0.1-0.6,0.1c-0.8,0-1.7,0-2.5,0c-0.5,0-1,0-1.5,0C-71.7,485.7-71.8,485.7-71.9,485.6z"/>
</g>
</svg>
