<?xml version="1.0" encoding="utf-8"?>
<!-- Generator: Adobe Illustrator 26.3.1, SVG Export Plug-In . SVG Version: 6.00 Build 0)  -->
<svg version="1.1" id="Layer_1" xmlns="http://www.w3.org/2000/svg" xmlns:xlink="http://www.w3.org/1999/xlink" x="0px" y="0px"
	 viewBox="0 0 50 50" style="enable-background:new 0 0 50 50;" xml:space="preserve">
<style type="text/css">
	.st0{fill:#FFFFFF;}
</style>
<path class="st0" d="M4.4,42.8h41.3c1.6,0,2.8-1.3,2.8-2.8s-1.3-2.8-2.8-2.8H4.4c-1.6,0-2.8,1.3-2.8,2.8S2.8,42.8,4.4,42.8z
	 M4.4,38.5h41.3c0.8,0,1.4,0.6,1.4,1.4c0,0.8-0.6,1.4-1.4,1.4H4.4c-0.8,0-1.4-0.6-1.4-1.4C2.9,39.2,3.6,38.5,4.4,38.5z"/>
<path class="st0" d="M2.9,33.5v1.2c0,0.6,0.5,1.1,1.1,1.1h42c0.6,0,1.1-0.5,1.1-1.1v-1.2c0-11.9-9.5-21.7-21.3-22V8.6h1.4
	c0.4,0,0.7-0.3,0.7-0.7c0-0.4-0.3-0.7-0.7-0.7h-4.3c-0.4,0-0.7,0.3-0.7,0.7c0,0.4,0.3,0.7,0.7,0.7h1.4v2.8
	C12.5,11.8,2.9,21.6,2.9,33.5z M45.6,33.5v0.8H4.4v-0.8c0-11.3,9.1-20.5,20.4-20.6c0.1,0,0.1,0,0.2,0s0.1,0,0.2,0
	C36.5,13,45.6,22.2,45.6,33.5L45.6,33.5z"/>
<path class="st0" d="M23.6,16.5c-9,0-16.4,6.7-16.4,14.9c0,0.4,0.3,0.7,0.7,0.7c0.4,0,0.7-0.3,0.7-0.7c0-7.5,6.7-13.5,14.9-13.5
	c0.4,0,0.7-0.3,0.7-0.7C24.3,16.8,24,16.5,23.6,16.5z"/>
</svg>
