<?xml version="1.0" encoding="utf-8"?>
<!-- Generator: Adobe Illustrator 26.3.1, SVG Export Plug-In . SVG Version: 6.00 Build 0)  -->
<svg version="1.1" id="Layer_1" xmlns="http://www.w3.org/2000/svg" xmlns:xlink="http://www.w3.org/1999/xlink" x="0px" y="0px"
	 viewBox="0 0 50 50" style="enable-background:new 0 0 50 50;" xml:space="preserve">
<style type="text/css">
	.st0{fill:none;stroke:#FFFFFF;stroke-width:1.5;stroke-miterlimit:10;}
</style>
<path class="st0" d="M35.5,42.3c-1.4,0-3-0.3-4.8-0.9C17.9,36.9,9.3,29,6.5,19.1c-1.6-5.6,0.2-8.7,2-10.4s3.8-2.1,4.6-2.1
	c0.2,0,0.4,0,0.6,0.1c0,0,0,0,0,0c1,0.4,2.5,2.6,3.5,4.4c1,1.8,2.1,4.3,1.9,5.3c0,0,0,0.1,0,0.1c-0.3,0.7-0.9,1.4-1.6,2.1
	c-0.9,0.9-1.8,1.9-1.8,2.9c0,0.1,0.2,1,3.2,4c2.1,2.1,4.3,4.1,6.3,5.5c1.5,1.1,3.6,2.3,4.7,2c1.1-0.3,1.6-1.2,2.2-2.2
	c0.6-0.9,1.2-1.9,2.3-2.1c2-0.4,7.5,1.9,9.3,3.9c0.3,0.3,0.4,0.7,0.4,1.1c-0.2,1.6-1.2,5.5-4.3,7.4C38.4,42,37,42.3,35.5,42.3
	L35.5,42.3z"/>
</svg>
