<?xml version="1.0" encoding="utf-8"?>
<!-- Generator: Adobe Illustrator 26.3.1, SVG Export Plug-In . SVG Version: 6.00 Build 0)  -->
<svg version="1.1" id="Layer_1" xmlns="http://www.w3.org/2000/svg" xmlns:xlink="http://www.w3.org/1999/xlink" x="0px" y="0px"
	 viewBox="0 0 50 50" style="enable-background:new 0 0 50 50;" xml:space="preserve">
<style type="text/css">
	.st0{fill:#FFFFFF;}
</style>
<path class="st0" d="M25,47.5c-4.8,0-9.3-1.5-13.1-4.3l-6.6,2.6c-0.3,0.1-0.5,0-0.7-0.1s-0.3-0.5-0.2-0.7L6.7,38
	C4,34.2,2.5,29.7,2.5,25c0-3.2,0.6-6.2,1.9-9.1c1.2-2.8,3-5.2,5.2-7.3c0.3-0.3,0.7-0.2,1,0s0.2,0.7,0,1c-4.3,4-6.7,9.6-6.7,15.4
	c0,4.4,1.3,8.6,3.9,12.2L8,37.5c0.1,0.2,0.2,0.4,0.1,0.6l-2,5.9l5.6-2.2c0.2-0.1,0.5-0.1,0.7,0.1l0.3,0.2c3.6,2.6,7.9,4,12.3,4
	c4.8,0,9.6-1.7,13.3-4.8c0.3-0.2,0.7-0.2,1,0.1c0.2,0.3,0.2,0.7-0.1,1C35.2,45.7,30.2,47.5,25,47.5L25,47.5z M40.3,41.1
	c-0.2,0-0.4-0.1-0.5-0.2c-0.3-0.3-0.3-0.7,0-1c4-4,6.2-9.3,6.2-14.9c0-11.6-9.4-21.1-21.1-21.1c-2.8,0-5.5,0.5-8.1,1.6
	c-0.4,0.2-0.8,0-0.9-0.4c-0.2-0.4,0-0.8,0.4-0.9C19.1,3.1,22,2.5,25,2.5c12.4,0,22.5,10.1,22.5,22.5c0,6-2.4,11.7-6.6,15.9
	C40.7,41.1,40.5,41.1,40.3,41.1L40.3,41.1z M32.5,37.8c-1,0-2.2-0.2-3.4-0.7c-9.2-3.2-15.3-8.9-17.3-15.9c-1.1-4,0.2-6.2,1.4-7.4
	s2.7-1.5,3.3-1.5c0.2,0,0.3,0,0.4,0.1c0,0,0,0,0,0c0.7,0.3,1.8,1.9,2.5,3.2c0.7,1.3,1.5,3.1,1.4,3.8c0,0,0,0.1,0,0.1
	c-0.2,0.5-0.7,1-1.2,1.5c-0.6,0.7-1.3,1.3-1.3,2.1c0,0.1,0.1,0.7,2.3,2.8c1.5,1.5,3.1,2.9,4.5,3.9c1.1,0.8,2.6,1.7,3.3,1.4
	c0.8-0.2,1.2-0.9,1.6-1.5c0.4-0.7,0.8-1.4,1.6-1.5c1.4-0.3,5.3,1.4,6.6,2.8c0.2,0.2,0.3,0.5,0.3,0.8c-0.2,1.1-0.8,4-3.1,5.3
	C34.5,37.5,33.6,37.8,32.5,37.8L32.5,37.8z M16.4,13.7c-0.4,0-1.4,0.3-2.3,1.1c-1.4,1.3-1.7,3.4-1,6c1.8,6.6,7.7,11.9,16.4,15
	c2.2,0.8,3.9,0.8,5.2,0c1.7-1,2.2-3.1,2.4-4.1c-1.2-1.1-4.5-2.3-5.3-2.2c-0.2,0-0.5,0.6-0.7,0.9c-0.5,0.8-1.1,1.8-2.4,2.2
	c-0.7,0.2-1.9,0.2-4.5-1.7c-1.4-1-3.1-2.5-4.7-4.1c-2.4-2.4-2.6-3.2-2.6-3.7c-0.1-1.3,0.9-2.3,1.7-3.1c0.3-0.3,0.7-0.7,0.8-0.9
	c-0.1-0.3-0.3-1.2-1.2-2.8C17.3,14.6,16.6,13.9,16.4,13.7L16.4,13.7z M12.7,7.7c-0.2,0-0.4-0.1-0.6-0.3c-0.2-0.3-0.1-0.8,0.2-1
	c0.5-0.3,1-0.6,1.5-0.9c0.3-0.2,0.8-0.1,0.9,0.3s0.1,0.8-0.3,0.9C14,7,13.5,7.3,13.1,7.6C13,7.7,12.8,7.7,12.7,7.7L12.7,7.7z"/>
</svg>
