<?xml version="1.0" encoding="utf-8"?>
<!-- Generator: Adobe Illustrator 27.0.0, SVG Export Plug-In . SVG Version: 6.00 Build 0)  -->
<svg version="1.1" id="Layer_1" xmlns="http://www.w3.org/2000/svg" xmlns:xlink="http://www.w3.org/1999/xlink" x="0px" y="0px"
	 viewBox="0 0 160 106.7" style="enable-background:new 0 0 160 106.7;" xml:space="preserve">
<style type="text/css">
	.st0{fill:#FFFFFF;}
</style>
<g>
	<g>
		<path class="st0" d="M122.6,36l-0.4-1.5c-0.2-1-0.5-2-0.8-3l-0.4-1.5c-0.1-0.5-0.3-1-0.4-1.5l-0.5-1.5c-0.2-0.5-0.3-1-0.5-1.5
			l-0.3-0.8l-1.7-0.8l-3-1.4l-3-1.4c-0.5-0.2-1-0.4-1.5-0.7l-1.5-0.6c-0.4-0.2-0.7-0.3-1.1-0.4c-0.7-1-1.4-2-2.1-3l-1.3-1.9
			c-0.4-0.6-0.9-1.2-1.3-1.9l-0.6-0.8L79.9,0.6l-4.1,2.3l-2.6,1.9c-0.9,0.6-1.7,1.2-2.6,1.9l-2.6,1.9l-1.3,1c0,0,0,0,0,0l-3.9,0.7
			c-0.5,0.1-1,0.2-1.4,0.3L60,10.8l-2.9,0.6l-2.4,0.5l-1.2,1.3C53,13.7,52.5,14.4,52,15l-1.6,1.8c-0.5,0.6-1.1,1.2-1.6,1.8l-0.6,0.7
			c-0.4,0.1-0.7,0.1-1.1,0.2l-1.9,0.3c-0.6,0.1-1.2,0.2-1.9,0.3l-1.9,0.4L41.1,21l-2.2,1.9c-0.7,0.6-1.5,1.3-2.2,1.9
			c-0.7,0.7-1.4,1.3-2.2,2l-2.1,2l-2.1,2c-0.7,0.7-1.4,1.4-2.1,2.1c-0.7,0.7-1.4,1.4-2,2.2l-1,1.1c-0.3,0.4-1.7,1.8-2,2.1V40
			l11.1-8.2c1.6-1,3.2,1.3,4.8,0.3l4.7-3.1l7.3-0.4l0.2,0l0.2-0.2l6.7-6.6l11.3-1.6l0.2,0L70,20l5.2-3.7c1.6-1.2,3.2-2.3,4.8-3.5
			l18,7.6l5.8,6.8l0.1,0.1l0.2,0l6.3-1.6c2,0.6,12.5,14.2,12.5,14.2v-2.4C122.8,37,122.7,36.5,122.6,36z M66.9,16.9l-7.7-0.6l-7,4.4
			l5.9-6.8l8.2,0l10.9-6L66.9,16.9z M104.7,23.4l-1.5-3.1l-3.5-6l6,7l5.5,1.8L104.7,23.4z"/>
	</g>
	<g>
		<g>
			<g>
				<path class="st0" d="M5.7,91.3H4.8v-2.5H1.6v2.5H0.8v-5.7h0.8v2.5h3.2v-2.5h0.8V91.3z"/>
			</g>
			<g>
				<path class="st0" d="M13.2,88.4c0,1.6-1.3,2.9-3.1,2.9c-1.8,0-3-1.3-3-2.9c0-1.5,1.1-2.9,3-2.9C12.1,85.5,13.2,86.9,13.2,88.4z
					 M8,88.5c0,1.3,1,2.1,2.2,2.1c0.6,0,1.3-0.3,1.7-0.7c0.4-0.4,0.6-1,0.6-1.5c0-0.9-0.7-2.1-2.2-2.1C8.6,86.3,8,87.5,8,88.5z"/>
			</g>
			<g>
				<path class="st0" d="M18.6,86.3h-2v5h-0.8v-5h-2v-0.7h4.8V86.3z"/>
			</g>
			<g>
				<path class="st0" d="M23,86.3h-2.4v1.7H23v0.7h-2.3v1.8h2.5v0.7h-3.3v-5.7H23V86.3z"/>
			</g>
			<g>
				<path class="st0" d="M25.4,90.5H28v0.7h-3.4v-5.7h0.8V90.5z"/>
			</g>
			<g>
				<path class="st0" d="M32.7,87.4c0.6,0,1,0.5,1,1c0,0.6-0.5,1-1,1c-0.6,0-1-0.5-1-1C31.6,87.9,32.1,87.4,32.7,87.4z"/>
			</g>
			<g>
				<path class="st0" d="M42.8,86.9c-0.6-0.3-1.3-0.6-2-0.6c-1.4,0-2.3,1-2.3,2.2c0,1.1,0.8,2.1,2.3,2.1c0.7,0,1.4-0.2,2-0.6v0.9
					c-0.7,0.4-1.3,0.5-2.1,0.5c-2.1,0-3.1-1.6-3.1-2.9c0-1.6,1.3-2.9,3.1-2.9c0.9,0,1.6,0.3,2,0.5V86.9z"/>
			</g>
			<g>
				<path class="st0" d="M50.1,88.4c0,1.6-1.3,2.9-3.1,2.9c-1.8,0-3-1.3-3-2.9c0-1.5,1.1-2.9,3-2.9C48.9,85.5,50.1,86.9,50.1,88.4z
					 M44.8,88.5c0,1.3,1,2.1,2.2,2.1c0.6,0,1.3-0.3,1.7-0.7c0.4-0.4,0.6-1,0.6-1.5c0-0.9-0.7-2.1-2.2-2.1
					C45.4,86.3,44.8,87.5,44.8,88.5z"/>
			</g>
			<g>
				<path class="st0" d="M56.8,91.3h-0.7l-3.8-4.4v4.4h-0.8v-5.7h0.7L56,90v-4.4h0.8V91.3z"/>
			</g>
			<g>
				<path class="st0" d="M60.5,91.3h-0.2l-2.5-5.7h0.8l1.7,4l1.7-4h0.8L60.5,91.3z"/>
			</g>
			<g>
				<path class="st0" d="M67.3,86.3h-2.4v1.7h2.3v0.7h-2.3v1.8h2.5v0.7H64v-5.7h3.2V86.3z"/>
			</g>
			<g>
				<path class="st0" d="M74.1,91.3h-0.7l-3.8-4.4v4.4h-0.8v-5.7h0.7l3.8,4.4v-4.4h0.8V91.3z"/>
			</g>
			<g>
				<path class="st0" d="M80,86.3h-2v5h-0.8v-5h-2v-0.7H80V86.3z"/>
			</g>
			<g>
				<path class="st0" d="M82,91.3h-0.8v-5.7H82V91.3z"/>
			</g>
			<g>
				<path class="st0" d="M89.6,88.4c0,1.6-1.3,2.9-3.1,2.9c-1.8,0-3-1.3-3-2.9c0-1.5,1.1-2.9,3-2.9C88.4,85.5,89.6,86.9,89.6,88.4z
					 M84.3,88.5c0,1.3,1,2.1,2.2,2.1c0.6,0,1.3-0.3,1.7-0.7c0.4-0.4,0.6-1,0.6-1.5c0-0.9-0.7-2.1-2.2-2.1
					C85,86.3,84.3,87.5,84.3,88.5z"/>
			</g>
			<g>
				<path class="st0" d="M96.4,91.3h-0.7l-3.8-4.4v4.4h-0.8v-5.7h0.7l3.8,4.4v-4.4h0.8V91.3z"/>
			</g>
			<g>
				<path class="st0" d="M105.6,86.9c-0.6-0.3-1.3-0.6-2-0.6c-1.4,0-2.3,1-2.3,2.2c0,1.1,0.8,2.1,2.3,2.1c0.7,0,1.4-0.2,2-0.6v0.9
					c-0.7,0.4-1.3,0.5-2.1,0.5c-2.1,0-3.1-1.6-3.1-2.9c0-1.6,1.3-2.9,3.1-2.9c0.9,0,1.6,0.3,2,0.5V86.9z"/>
			</g>
			<g>
				<path class="st0" d="M110.4,86.3H108v1.7h2.3v0.7H108v1.8h2.5v0.7h-3.3v-5.7h3.2V86.3z"/>
			</g>
			<g>
				<path class="st0" d="M117.2,91.3h-0.7l-3.8-4.4v4.4H112v-5.7h0.7l3.8,4.4v-4.4h0.8V91.3z"/>
			</g>
			<g>
				<path class="st0" d="M123.1,86.3h-2v5h-0.8v-5h-2v-0.7h4.8V86.3z"/>
			</g>
			<g>
				<path class="st0" d="M127.5,86.3h-2.4v1.7h2.3v0.7h-2.3v1.8h2.5v0.7h-3.3v-5.7h3.2V86.3z"/>
			</g>
			<g>
				<path class="st0" d="M130.5,85.6c0.3,0,0.6,0,1,0.2c0.6,0.3,0.9,0.8,0.9,1.4c0,0.7-0.3,1.2-1,1.4c0.5,0.3,0.8,0.9,1.3,1.6
					c0.2,0.4,0.4,0.6,0.8,1.1h-1c-0.2-0.3-1-1.5-1.2-1.8c-0.6-0.7-0.8-0.7-1.2-0.7h-0.2v2.5h-0.8v-5.7H130.5z M129.9,86.3v1.8h0.3
					c0.1,0,0.6,0,0.8-0.1c0.4-0.2,0.5-0.5,0.5-0.8c0-0.3-0.2-0.6-0.4-0.8c-0.2-0.1-0.5-0.1-1-0.1H129.9z"/>
			</g>
			<g>
				<path class="st0" d="M141.8,91.3h-1l-0.7-0.8c-0.4,0.3-0.4,0.3-0.5,0.4c-0.3,0.2-0.9,0.5-1.3,0.5c-0.7,0-1.4-0.5-1.4-1.3
					c0-0.6,0.3-1.1,1.3-1.7c-0.2-0.2-0.6-0.7-0.6-1.3c0-0.6,0.4-1.3,1.4-1.3c1,0,1.4,0.7,1.4,1.3c0,0.8-0.7,1.3-1.1,1.5l0.8,0.9
					c0.1-0.1,0.3-0.4,0.6-0.9h0.8c-0.3,0.7-0.7,1.2-0.9,1.5L141.8,91.3z M139.6,89.9l-0.9-1.1l-0.4,0.3c-0.4,0.2-0.6,0.5-0.6,0.9
					c0,0.3,0.3,0.6,0.7,0.6c0.4,0,0.8-0.2,1-0.5L139.6,89.9z M139.7,87c0-0.3-0.3-0.6-0.6-0.6c-0.4,0-0.6,0.2-0.6,0.5
					c0,0.5,0.5,0.9,0.5,1C139.4,87.6,139.7,87.3,139.7,87z"/>
			</g>
			<g>
				<path class="st0" d="M148.4,86.8c-0.5-0.5-1-0.6-1.3-0.6c-0.6,0-0.9,0.3-0.9,0.7c0,0.5,0.3,0.7,1.4,1.3c0.2,0.1,0.5,0.3,0.7,0.6
					c0.2,0.2,0.3,0.5,0.3,0.9c0,0.9-0.6,1.6-1.7,1.6c-0.6,0-1.1-0.2-1.5-0.5v-1c0.2,0.2,0.7,0.8,1.5,0.8c0.4,0,0.9-0.3,0.9-0.8
					c0-0.5-0.5-0.8-0.8-1c-0.9-0.5-1.2-0.7-1.4-1c-0.2-0.2-0.3-0.5-0.3-0.9c0-0.9,0.7-1.5,1.7-1.5c0.5,0,0.9,0.1,1.3,0.4V86.8z"/>
			</g>
			<g>
				<path class="st0" d="M151.5,85.6c0.7,0,1.2,0,1.7,0.5c0.2,0.3,0.4,0.6,0.4,1.1c0,0.3-0.1,0.7-0.5,1.2c-0.4,0.3-0.8,0.5-1.7,0.5
					h-0.6v2.5H150v-5.7H151.5z M150.8,86.3v1.8h0.7c0.3,0,0.7,0,0.9-0.2c0.2-0.1,0.4-0.4,0.4-0.8c0-0.2-0.1-0.5-0.2-0.6
					c-0.3-0.2-0.5-0.2-1.1-0.2H150.8z"/>
			</g>
			<g>
				<path class="st0" d="M159.2,91.3h-0.8l-0.8-1.7h-2.4l-0.7,1.7h-0.8l2.4-5.7h0.6L159.2,91.3z M157.3,88.9l-0.9-2.1l-0.9,2.1
					H157.3z"/>
			</g>
		</g>
		<g>
			<g>
				<path class="st0" d="M9.4,74.3c0,1,0.1,1.7,0.4,1.9c0.3,0.3,1.1,0.4,2.5,0.4v3.8H0.8v-3.8c1.4,0,2.3-0.1,2.5-0.4
					c0.3-0.3,0.4-0.9,0.4-1.9V52.8c0-1-0.1-1.7-0.4-1.9c-0.3-0.3-1.1-0.4-2.5-0.4v-3.8h11.6v3.8c-1.4,0-2.2,0.1-2.5,0.4
					c-0.3,0.3-0.4,0.9-0.4,1.9V74.3z M24.1,74.4c0.6,1,1.1,1.6,1.5,1.8c0.4,0.2,1.2,0.4,2.2,0.4v3.8h-6.8L10.8,64.2v-1.8l10.3-15.8
					h6.4v3.8c-1.1,0-1.8,0.1-2.1,0.3C25,51,24.5,51.6,24,52.5l-7.3,10.7L24.1,74.4z"/>
			</g>
			<g>
				<path class="st0" d="M48.6,74.3c0,1,0.1,1.7,0.4,1.9c0.2,0.3,1,0.4,2.2,0.4v3.8h-7.7l-0.2-3.1l-2.7,2.3
					c-1.2,0.8-2.6,1.2-4.3,1.2c-1.9,0-3.5-0.6-4.7-1.7c-1.2-1.1-1.8-2.5-1.8-4.3c0-3.5,2.2-5.7,6.5-6.5l6.9-1.5v-2.3
					c0-2.9-1.5-4.3-4.5-4.3c-2.3,0-4.7,0.5-7,1.4l-0.3-0.2l1.4-3.8c2.5-0.7,4.8-1.1,7.1-1.1c2.6,0,4.7,0.6,6.3,1.7
					c1.6,1.2,2.4,2.8,2.4,4.8V74.3z M38.4,70.8c-1.1,0.3-1.8,0.7-2.3,1.1c-0.5,0.4-0.7,1.1-0.7,2c0,0.9,0.3,1.7,0.9,2.2
					c0.6,0.5,1.3,0.8,2.2,0.8c1.7,0,3.3-0.8,4.8-2.3v-5.2L38.4,70.8z"/>
			</g>
			<g>
				<path class="st0" d="M63.6,57.9c1.2-0.9,2.6-1.4,4-1.4c0.8,0,1.7,0.1,2.6,0.4l-1.7,4.7c-0.7-0.2-1.3-0.3-2.1-0.3
					c-1.9,0-3.5,0.8-5,2.3v10.6c0,1,0.2,1.7,0.5,1.9c0.4,0.3,1.4,0.4,3.2,0.4v3.8H53.4v-3.8c1.2,0,2-0.1,2.3-0.4
					c0.3-0.3,0.4-0.9,0.4-1.9V63.1c0-1-0.1-1.6-0.4-1.9c-0.3-0.3-1-0.4-2.3-0.4V57h7.7l0.2,4.1h0.1L63.6,57.9z"/>
			</g>
			<g>
				<path class="st0" d="M79.8,74.3c0,1,0.1,1.6,0.4,1.9c0.3,0.3,1,0.4,2.3,0.4v3.8H71.8v-3.8c1.2,0,2-0.1,2.2-0.4
					c0.2-0.3,0.4-0.9,0.4-1.9V63.1c0-1-0.1-1.7-0.4-1.9c-0.2-0.3-1-0.4-2.2-0.4V57h8V74.3z M74.5,48.7c0.6-0.5,1.3-0.8,2.2-0.8
					c0.9,0,1.6,0.3,2.2,0.8c0.6,0.5,0.9,1.2,0.9,2c0,0.8-0.3,1.5-0.9,2c-0.6,0.5-1.3,0.8-2.2,0.8c-0.9,0-1.7-0.3-2.2-0.8
					c-0.6-0.5-0.8-1.2-0.8-2C73.6,50,73.9,49.3,74.5,48.7z"/>
			</g>
			<g>
				<path class="st0" d="M106.5,74.3c0,1,0.1,1.7,0.4,1.9c0.2,0.3,1,0.4,2.2,0.4v3.8h-7.9V64.3c0-2.3-1.1-3.5-3.4-3.5
					c-1.6,0-3.3,0.6-5.1,1.8v11.7c0,1,0.1,1.6,0.4,1.9c0.3,0.3,1,0.4,2.3,0.4v3.8H84.7v-3.8c1.2,0,2-0.1,2.3-0.4
					c0.3-0.3,0.4-0.9,0.4-1.9V63.1c0-1-0.1-1.6-0.4-1.9c-0.3-0.3-1-0.4-2.3-0.4V57h7.7l0.2,3.1h0.1l2.3-2.3c1.6-0.9,3.2-1.3,4.9-1.3
					c2,0,3.6,0.6,4.8,1.7c1.2,1.2,1.8,2.8,1.8,5V74.3z"/>
			</g>
			<g>
				<path class="st0" d="M133.2,74.3c0,1,0.1,1.7,0.4,1.9c0.2,0.3,1,0.4,2.2,0.4v3.8h-8V64.3c0-2.3-1.1-3.5-3.4-3.5
					c-1.6,0-3.3,0.6-5.1,1.8v11.7c0,1,0.1,1.6,0.4,1.9c0.3,0.3,1,0.4,2.3,0.4v3.8h-10.6v-3.8c1.2,0,2-0.1,2.3-0.4
					c0.3-0.3,0.4-0.9,0.4-1.9V63.1c0-1-0.1-1.6-0.4-1.9c-0.3-0.3-1-0.4-2.3-0.4V57h7.7l0.2,3.1h0.1l2.3-2.3c1.6-0.9,3.2-1.3,4.9-1.3
					c2,0,3.6,0.6,4.8,1.7c1.2,1.2,1.8,2.8,1.8,5V74.3z"/>
			</g>
			<g>
				<path class="st0" d="M156.6,74.3c0,1,0.1,1.7,0.4,1.9c0.2,0.3,1,0.4,2.2,0.4v3.8h-7.7l-0.2-3.1l-2.7,2.3
					c-1.2,0.8-2.6,1.2-4.3,1.2c-1.9,0-3.5-0.6-4.7-1.7c-1.2-1.1-1.8-2.5-1.8-4.3c0-3.5,2.2-5.7,6.5-6.5l6.9-1.5v-2.3
					c0-2.9-1.5-4.3-4.5-4.3c-2.3,0-4.7,0.5-7,1.4l-0.3-0.2l1.4-3.8c2.5-0.7,4.8-1.1,7.1-1.1c2.6,0,4.7,0.6,6.3,1.7
					c1.6,1.2,2.4,2.8,2.4,4.8V74.3z M146.3,70.8c-1.1,0.3-1.8,0.7-2.3,1.1c-0.5,0.4-0.7,1.1-0.7,2c0,0.9,0.3,1.7,0.9,2.2
					c0.6,0.5,1.3,0.8,2.2,0.8c1.7,0,3.3-0.8,4.8-2.3v-5.2L146.3,70.8z"/>
			</g>
		</g>
	</g>
	<g>
		<g>
			<path class="st0" d="M53.7,103.3c0,0.6,0,1.5-0.7,2.1c-0.6,0.5-1.3,0.7-2,0.7c-0.9,0-1.9-0.3-2.4-1.1c-0.3-0.6-0.3-1.3-0.3-1.7
				v-3.6h0.9v3.6c0,0.8,0.1,1.1,0.4,1.5c0.3,0.3,0.7,0.5,1.4,0.5c1,0,1.5-0.5,1.6-0.8c0.1-0.2,0.2-0.6,0.2-1.2v-3.6h0.9V103.3z"/>
		</g>
		<g>
			<path class="st0" d="M61.6,105.2h2.8v0.8h-3.7v-6.3h0.9V105.2z"/>
		</g>
		<g>
			<path class="st0" d="M75.8,103.3c0,0.6,0,1.5-0.7,2.1c-0.6,0.5-1.3,0.7-2,0.7c-0.9,0-1.9-0.3-2.4-1.1c-0.3-0.6-0.3-1.3-0.3-1.7
				v-3.6h0.9v3.6c0,0.8,0.1,1.1,0.4,1.5c0.3,0.3,0.7,0.5,1.4,0.5c1,0,1.5-0.5,1.6-0.8c0.1-0.2,0.2-0.6,0.2-1.2v-3.6h0.9V103.3z"/>
		</g>
		<g>
			<path class="st0" d="M84.8,99.7c0.6,0,1.6,0,2.4,0.6c0.7,0.5,1.2,1.4,1.2,2.5c0,1.6-1.1,2.4-1.5,2.7c-0.8,0.5-1.6,0.5-2.3,0.5h-2
				v-6.3H84.8z M83.6,100.5v4.7h1.2c0.5,0,1.2,0,1.7-0.4c0.6-0.4,1-1.2,1-2c0-0.8-0.3-1.6-1.3-2.1c-0.5-0.2-0.9-0.2-1.5-0.2H83.6z"
				/>
		</g>
		<g>
			<path class="st0" d="M100.3,106h-0.9l-0.8-1.8h-2.7l-0.8,1.8h-0.9l2.7-6.3h0.6L100.3,106z M98.1,103.3l-1-2.3l-0.9,2.3H98.1z"/>
		</g>
		<g>
			<path class="st0" d="M111.6,105.6c-0.5,0.2-1.3,0.5-2.3,0.5c-2.4,0-3.4-1.7-3.4-3.2c0-1.7,1.2-3.3,3.4-3.3c0.9,0,1.5,0.2,2.2,0.5
				v0.9c-1-0.6-1.9-0.7-2.2-0.7c-1.3,0-2.4,0.9-2.4,2.4c0,1.4,1,2.4,2.5,2.4c0.5,0,0.8-0.1,1.4-0.3v-1.3h-1.2v-0.8h2.1V105.6z
				 M108.3,98c0.1,0.3,0.3,0.6,0.8,0.6c0.6,0,0.7-0.3,0.8-0.6h0.7c-0.2,1-0.9,1.3-1.5,1.3c-0.5,0-1.4-0.4-1.5-1.3H108.3z"/>
		</g>
	</g>
	<g>
		<rect x="0.8" y="102.5" class="st0" width="44" height="0.5"/>
	</g>
	<g>
		<rect x="115.2" y="102.5" class="st0" width="44" height="0.5"/>
	</g>
</g>
</svg>
