<svg id="svg" version="1.1" xmlns="http://www.w3.org/2000/svg" xmlns:xlink="http://www.w3.org/1999/xlink" width="400" height="265.02010338885697" viewBox="0, 0, 400,265.02010338885697"><g id="svgg"><path id="path0" d="M0.000 119.059 L 0.000 123.952 1.125 124.058 C 1.744 124.116,2.610 124.165,3.049 124.165 C 4.487 124.168,5.967 124.643,6.460 125.261 C 7.367 126.398,7.328 124.972,7.328 156.833 C 7.328 187.586,7.350 186.445,6.735 188.185 C 6.478 188.911,3.623 189.667,1.137 189.667 L 0.000 189.667 0.000 194.500 L 0.000 199.333 14.583 199.333 L 29.167 199.333 29.167 194.500 L 29.167 189.667 28.042 189.664 C 23.912 189.653,22.571 188.962,22.060 186.583 C 21.772 185.241,21.731 128.771,22.017 127.236 C 22.442 124.962,23.482 124.177,26.083 124.167 C 26.542 124.166,27.423 124.116,28.042 124.058 L 29.167 123.952 29.167 119.059 L 29.167 114.167 14.583 114.167 L 0.000 114.167 0.000 119.059 M50.167 115.848 C 49.571 116.764,49.008 117.641,48.917 117.796 C 48.825 117.951,48.442 118.529,48.066 119.080 C 47.689 119.632,46.192 121.921,44.739 124.167 C 43.285 126.412,42.048 128.287,41.990 128.333 C 41.931 128.379,41.853 128.492,41.817 128.583 C 41.780 128.675,41.008 129.875,40.100 131.250 C 38.416 133.803,36.918 136.083,33.147 141.833 C 31.975 143.621,30.948 145.163,30.864 145.260 C 30.780 145.358,30.614 145.620,30.495 145.844 C 30.375 146.067,29.128 147.988,27.722 150.112 L 25.167 153.974 25.167 156.324 C 25.167 158.949,25.003 158.457,26.805 161.250 C 27.219 161.892,27.891 162.942,28.300 163.583 C 29.813 165.962,30.228 166.606,30.856 167.554 C 31.210 168.088,31.500 168.594,31.500 168.679 C 31.500 168.764,31.575 168.833,31.667 168.833 C 31.758 168.833,31.833 168.909,31.833 169.003 C 31.833 169.203,33.027 171.059,33.208 171.139 C 33.277 171.169,33.333 171.264,33.333 171.349 C 33.333 171.539,34.868 173.895,35.042 173.972 C 35.110 174.003,35.167 174.096,35.167 174.179 C 35.167 174.309,37.414 177.941,37.789 178.417 C 37.861 178.508,38.589 179.633,39.405 180.917 C 40.222 182.200,41.179 183.700,41.533 184.250 C 42.239 185.349,42.202 185.291,43.189 186.833 C 43.571 187.429,44.196 188.404,44.579 189.000 C 44.962 189.596,45.605 190.608,46.009 191.250 C 46.413 191.892,46.789 192.454,46.846 192.500 C 46.903 192.546,47.049 192.771,47.169 193.000 C 47.289 193.229,48.247 194.748,49.296 196.375 L 51.204 199.333 59.935 199.333 L 68.667 199.333 68.667 194.500 L 68.667 189.667 67.708 189.666 C 65.539 189.666,63.164 189.003,62.165 188.120 C 61.268 187.327,57.001 181.386,56.518 180.258 C 56.480 180.170,56.383 180.020,56.301 179.924 C 56.220 179.828,54.919 177.875,53.410 175.583 C 51.901 173.292,50.590 171.304,50.496 171.167 C 50.355 170.959,43.198 160.126,42.678 159.333 C 42.588 159.196,42.020 158.349,41.414 157.452 L 40.314 155.820 40.690 155.202 C 40.897 154.862,41.113 154.546,41.171 154.500 C 41.229 154.454,41.642 153.854,42.088 153.167 C 42.534 152.479,42.961 151.842,43.036 151.750 C 43.345 151.377,54.324 135.329,54.514 134.974 C 54.627 134.763,54.808 134.502,54.916 134.394 C 55.024 134.286,55.366 133.797,55.676 133.307 C 55.986 132.817,56.285 132.379,56.341 132.333 C 56.398 132.287,56.807 131.688,57.250 131.000 C 57.693 130.313,58.101 129.712,58.155 129.667 C 58.210 129.621,58.553 129.136,58.919 128.589 C 61.083 125.348,62.650 124.199,64.934 124.174 C 65.310 124.170,66.080 124.118,66.645 124.059 L 67.672 123.952 67.627 119.101 L 67.583 114.250 59.417 114.216 L 51.250 114.182 50.167 115.848 M189.750 117.442 C 183.032 118.533,181.399 128.008,187.416 130.986 C 193.196 133.846,199.424 130.480,199.414 124.500 C 199.405 119.696,195.124 116.569,189.750 117.442 M94.333 139.190 C 91.548 139.439,89.242 139.776,86.917 140.274 C 86.275 140.411,85.375 140.604,84.917 140.702 C 84.458 140.801,83.596 141.013,83.000 141.174 C 82.404 141.334,81.724 141.509,81.489 141.562 C 80.979 141.676,80.894 141.839,79.832 144.750 C 79.632 145.300,79.406 145.900,79.332 146.083 C 79.257 146.267,78.922 147.167,78.586 148.083 C 78.250 149.000,77.832 150.113,77.657 150.557 C 77.325 151.401,77.330 151.419,78.029 151.968 C 78.224 152.120,78.399 152.137,78.612 152.023 C 79.614 151.487,84.221 150.026,86.500 149.522 C 89.728 148.807,92.419 148.500,95.437 148.502 C 102.496 148.507,105.858 150.777,106.986 156.300 C 107.086 156.786,107.167 158.940,107.167 161.088 L 107.167 164.994 106.792 165.071 C 106.585 165.113,106.004 165.239,105.500 165.350 C 104.996 165.462,104.566 165.546,104.545 165.537 C 104.524 165.529,104.261 165.596,103.961 165.686 C 103.662 165.777,103.079 165.913,102.667 165.990 C 101.627 166.183,98.817 166.775,97.417 167.096 C 96.775 167.243,95.950 167.432,95.583 167.516 C 95.217 167.600,94.579 167.735,94.167 167.816 C 91.982 168.244,89.952 168.677,89.857 168.735 C 89.798 168.771,89.450 168.848,89.083 168.906 C 86.926 169.247,82.734 170.792,80.672 172.008 C 79.128 172.917,76.000 175.707,76.000 176.174 C 76.000 176.249,75.906 176.412,75.792 176.537 C 74.725 177.700,73.776 180.340,73.382 183.240 C 72.947 186.443,73.479 189.675,74.920 192.583 C 76.343 195.455,79.388 198.137,82.583 199.334 C 82.767 199.402,83.114 199.537,83.354 199.633 C 88.615 201.730,97.513 200.339,101.417 196.811 C 101.941 196.337,102.378 195.962,103.028 195.432 C 103.242 195.258,103.720 194.845,104.090 194.516 C 105.313 193.428,106.708 192.252,106.935 192.119 C 107.250 191.934,107.383 192.764,107.583 196.167 C 107.628 196.946,107.709 197.977,107.761 198.458 L 107.857 199.333 117.679 199.333 L 127.500 199.333 127.500 194.500 L 127.500 189.667 126.410 189.667 C 125.810 189.667,124.744 189.548,124.041 189.403 C 120.671 188.706,120.833 189.725,120.833 169.299 C 120.833 152.960,120.825 152.733,120.193 150.583 C 118.608 145.193,113.346 141.178,105.779 139.586 C 103.286 139.062,97.860 138.874,94.333 139.190 M166.583 139.109 C 166.400 139.148,165.684 139.289,164.993 139.422 C 163.441 139.719,160.931 140.773,159.536 141.712 C 158.565 142.365,155.667 146.064,155.667 146.649 C 155.667 146.735,155.609 146.831,155.539 146.861 C 155.469 146.892,154.888 147.704,154.248 148.667 L 153.083 150.417 152.972 149.250 C 152.910 148.608,152.777 146.433,152.676 144.417 C 152.575 142.400,152.451 140.619,152.401 140.458 C 152.317 140.185,151.698 140.167,142.489 140.167 L 132.667 140.167 132.667 145.083 L 132.667 150.000 133.995 150.000 C 137.168 150.000,138.733 150.756,139.131 152.483 C 139.473 153.966,139.417 186.078,139.070 187.272 C 138.804 188.185,138.263 188.900,137.714 189.062 C 136.705 189.358,134.689 189.667,133.757 189.667 L 132.667 189.667 132.667 194.500 L 132.667 199.333 147.583 199.333 L 162.500 199.333 162.500 194.500 L 162.500 189.667 161.037 189.667 C 160.233 189.667,158.939 189.588,158.162 189.492 C 152.632 188.809,153.000 190.101,153.000 171.394 L 153.000 157.155 153.958 156.264 C 156.524 153.879,159.185 152.432,162.377 151.686 C 164.110 151.281,169.165 151.522,170.518 152.075 C 170.710 152.153,170.835 152.052,170.959 151.717 C 171.055 151.460,171.285 150.837,171.470 150.333 C 171.656 149.829,172.001 148.916,172.237 148.305 C 172.473 147.693,172.667 147.087,172.667 146.958 C 172.667 146.828,172.717 146.671,172.780 146.609 C 172.842 146.547,173.057 146.028,173.258 145.457 C 173.459 144.885,173.863 143.779,174.156 143.000 C 175.023 140.693,175.187 140.168,175.090 140.010 C 174.744 139.450,168.226 138.760,166.583 139.109 M247.083 139.186 C 241.415 140.009,238.476 141.441,234.734 145.203 L 231.917 148.035 231.711 145.559 C 231.597 144.197,231.459 142.427,231.404 141.625 L 231.303 140.167 221.402 140.167 L 211.500 140.167 211.500 145.083 L 211.500 150.000 212.875 149.998 C 215.923 149.993,217.525 150.753,218.014 152.436 C 218.371 153.667,218.365 186.061,218.007 187.167 C 217.425 188.968,215.898 189.666,212.542 189.666 L 211.500 189.667 211.500 194.500 L 211.500 199.333 225.000 199.333 L 238.500 199.333 238.500 194.500 L 238.500 189.667 237.542 189.666 C 236.298 189.666,233.994 189.258,233.346 188.923 C 231.880 188.165,231.852 187.821,231.842 169.873 L 231.833 154.496 232.708 153.940 C 240.917 148.728,249.704 148.700,252.221 153.878 C 253.197 155.887,253.167 155.099,253.167 178.177 L 253.167 199.333 263.333 199.333 L 273.500 199.333 273.500 194.500 L 273.500 189.667 272.375 189.658 C 270.042 189.640,268.151 189.093,267.620 188.282 C 266.869 187.137,266.833 186.280,266.833 169.451 C 266.833 159.258,266.772 153.202,266.661 152.569 C 266.107 149.397,265.043 146.527,264.052 145.530 C 263.932 145.409,263.833 145.255,263.833 145.189 C 263.833 144.757,260.917 142.173,259.495 141.343 C 256.219 139.434,251.281 138.576,247.083 139.186 M314.417 139.180 C 307.987 140.278,306.080 141.207,302.067 145.197 L 299.051 148.195 298.937 146.389 C 298.784 143.988,298.528 140.261,298.513 140.208 C 298.506 140.185,294.075 140.167,288.667 140.167 L 278.833 140.167 278.833 145.062 L 278.833 149.957 280.625 150.044 C 283.507 150.184,284.651 150.706,285.173 152.117 C 285.543 153.117,285.587 185.667,285.220 187.061 C 284.735 188.907,283.155 189.666,279.792 189.666 L 278.833 189.667 278.833 194.500 L 278.833 199.333 292.333 199.333 L 305.833 199.333 305.833 194.525 L 305.833 189.717 304.208 189.611 C 301.686 189.448,300.262 188.969,299.815 188.133 C 299.098 186.792,299.101 186.867,299.043 170.308 L 298.987 154.533 300.202 153.801 C 309.257 148.345,318.090 148.831,319.901 154.885 C 320.479 156.818,320.500 157.653,320.500 178.531 L 320.500 199.333 330.667 199.333 L 340.833 199.333 340.833 194.500 L 340.833 189.667 339.792 189.666 C 338.478 189.666,336.178 189.267,335.515 188.925 C 334.172 188.230,334.180 188.335,334.171 170.333 C 334.164 154.374,334.108 152.680,333.519 150.500 C 332.551 146.922,330.853 144.314,328.250 142.407 C 327.883 142.138,327.546 141.870,327.500 141.811 C 326.152 140.077,318.350 138.507,314.417 139.180 M366.667 139.183 C 362.023 139.639,360.900 139.829,355.917 141.008 C 353.057 141.684,353.108 141.658,352.794 142.607 C 352.647 143.052,352.329 143.942,352.088 144.583 C 351.846 145.225,351.313 146.688,350.901 147.833 C 350.490 148.979,350.044 150.163,349.910 150.464 C 349.168 152.131,350.026 152.407,352.583 151.323 C 353.912 150.760,358.544 149.500,360.417 149.193 C 364.270 148.560,364.898 148.500,367.654 148.502 C 372.269 148.505,374.600 149.234,376.670 151.321 C 378.890 153.560,379.319 155.102,379.327 160.872 L 379.333 164.994 378.875 165.088 C 378.623 165.139,378.154 165.250,377.833 165.333 C 377.512 165.416,377.025 165.524,376.750 165.573 C 376.475 165.622,375.725 165.776,375.083 165.917 C 374.442 166.057,373.167 166.328,372.250 166.520 C 370.553 166.875,370.303 166.931,368.250 167.407 C 367.608 167.556,366.746 167.742,366.333 167.820 C 361.312 168.774,357.560 169.780,355.375 170.758 C 355.077 170.891,354.552 171.126,354.208 171.280 C 353.550 171.574,351.432 172.886,351.076 173.221 C 350.961 173.328,350.586 173.642,350.242 173.917 C 344.937 178.161,343.881 188.333,348.131 194.250 C 352.929 200.929,364.170 202.716,371.917 198.031 C 372.676 197.572,376.082 194.806,376.667 194.173 C 376.712 194.124,377.200 193.709,377.750 193.251 C 378.300 192.793,378.900 192.282,379.083 192.114 C 379.461 191.770,379.417 191.499,379.854 196.875 L 380.054 199.333 389.861 199.333 L 399.667 199.333 399.667 194.500 L 399.667 189.667 398.685 189.667 C 397.486 189.667,395.109 189.232,394.453 188.892 C 393.200 188.245,393.262 189.144,393.148 170.000 C 393.039 151.886,393.073 152.645,392.264 150.250 C 391.811 148.908,391.014 147.432,390.088 146.217 C 389.301 145.184,388.895 144.803,386.926 143.250 C 382.855 140.038,374.682 138.398,366.667 139.183 M179.167 145.083 L 179.167 150.000 180.591 150.000 C 182.146 150.000,184.011 150.385,184.667 150.841 C 185.776 151.613,185.740 151.034,185.797 168.743 C 185.865 189.789,186.023 188.769,182.610 189.418 C 181.892 189.555,180.823 189.667,180.235 189.667 L 179.167 189.667 179.167 194.500 L 179.167 199.333 192.750 199.333 L 206.333 199.333 206.333 194.500 L 206.333 189.667 205.292 189.666 C 203.898 189.666,201.583 189.246,200.956 188.880 C 199.488 188.022,199.516 188.524,199.507 162.542 L 199.500 140.167 189.333 140.167 L 179.167 140.167 179.167 145.083 M107.167 178.271 L 107.167 184.708 106.318 185.479 C 97.945 193.089,87.598 191.530,87.634 182.665 C 87.650 178.766,89.363 176.940,94.500 175.347 C 95.582 175.012,98.575 174.151,99.833 173.813 C 100.521 173.628,101.308 173.414,101.583 173.337 C 101.858 173.260,102.646 173.041,103.333 172.850 C 104.021 172.660,105.033 172.360,105.583 172.184 C 107.342 171.621,107.167 170.945,107.167 178.271 M379.333 178.269 L 379.333 184.705 378.625 185.368 C 377.869 186.075,376.622 187.089,376.003 187.500 C 375.795 187.637,375.541 187.825,375.438 187.917 C 374.690 188.582,371.770 189.738,369.917 190.103 C 363.503 191.366,358.741 187.172,359.851 181.236 C 360.439 178.089,362.477 176.516,367.917 175.009 C 368.925 174.729,370.012 174.414,370.333 174.307 C 370.654 174.201,371.142 174.055,371.417 173.983 C 371.692 173.911,372.179 173.778,372.500 173.688 C 372.821 173.597,373.646 173.374,374.333 173.192 C 375.021 173.010,376.296 172.637,377.167 172.362 C 378.037 172.088,378.881 171.857,379.042 171.848 C 379.315 171.834,379.333 172.245,379.333 178.269 M267.333 243.559 C 267.333 246.085,271.337 247.124,273.343 245.118 C 274.193 244.268,274.350 242.667,273.583 242.667 C 273.354 242.667,273.167 242.760,273.166 242.875 C 273.165 244.614,268.690 244.776,268.257 243.053 C 268.036 242.171,267.333 242.556,267.333 243.559 M269.083 247.266 C 262.714 248.194,259.533 255.325,262.914 261.095 C 265.521 265.543,272.801 266.453,276.531 262.797 L 277.333 262.010 277.333 263.422 L 277.333 264.833 278.333 264.833 L 279.333 264.833 279.333 260.081 L 279.333 255.328 274.958 255.372 L 270.583 255.417 270.534 256.458 L 270.484 257.500 273.912 257.500 L 277.340 257.500 277.230 257.958 C 275.854 263.733,267.252 264.789,264.729 259.493 C 264.061 258.089,264.000 257.814,264.000 256.184 C 264.000 251.290,268.046 248.296,272.955 249.558 C 274.412 249.932,276.667 251.542,276.667 252.208 C 276.667 252.277,277.229 252.333,277.917 252.333 C 278.755 252.333,279.167 252.270,279.167 252.140 C 279.167 251.426,277.237 249.320,275.649 248.302 C 274.433 247.523,271.020 246.984,269.083 247.266 M119.397 247.574 C 119.093 248.368,119.448 258.937,119.814 259.978 C 122.385 267.285,133.600 266.594,135.152 259.033 C 135.261 258.504,135.333 255.987,135.333 252.742 L 135.333 247.333 134.167 247.333 L 133.000 247.333 132.998 252.708 C 132.996 258.566,132.912 259.274,132.067 260.559 C 130.274 263.285,125.847 263.727,123.364 261.428 C 121.841 260.018,121.680 259.173,121.673 252.542 L 121.667 247.333 120.578 247.333 C 119.783 247.333,119.465 247.398,119.397 247.574 M149.833 256.083 L 149.833 264.833 156.000 264.833 L 162.167 264.833 162.167 263.833 L 162.167 262.833 157.167 262.833 L 152.167 262.833 152.167 255.083 L 152.167 247.333 151.000 247.333 L 149.833 247.333 149.833 256.083 M174.169 253.292 C 174.172 260.348,174.279 260.885,176.053 262.710 C 179.549 266.307,186.161 265.720,188.741 261.583 C 189.834 259.829,189.992 258.660,189.997 252.292 L 190.000 247.333 188.750 247.333 L 187.500 247.333 187.500 253.162 L 187.500 258.991 187.065 259.909 C 185.511 263.192,180.579 263.929,177.865 261.284 C 176.429 259.884,176.335 259.365,176.334 252.792 L 176.333 247.333 175.250 247.333 L 174.167 247.333 174.169 253.292 M204.500 256.083 L 204.500 264.833 208.894 264.833 C 215.390 264.833,217.018 264.314,219.196 261.547 C 221.716 258.345,221.291 252.503,218.333 249.692 C 216.228 247.691,214.857 247.347,208.958 247.339 L 204.500 247.333 204.500 256.083 M239.396 248.292 C 239.159 248.819,238.851 249.512,238.714 249.833 C 238.576 250.154,238.254 250.867,237.998 251.417 C 237.743 251.967,237.367 252.792,237.164 253.250 C 236.960 253.708,236.574 254.571,236.305 255.167 C 236.036 255.762,235.749 256.400,235.667 256.583 C 235.586 256.767,235.177 257.648,234.760 258.541 C 234.342 259.434,234.000 260.208,234.000 260.259 C 234.000 260.311,233.710 260.967,233.355 261.718 C 232.619 263.274,232.245 264.121,232.106 264.542 C 232.020 264.803,232.148 264.833,233.327 264.833 C 234.547 264.833,234.653 264.806,234.762 264.458 C 234.876 264.092,235.208 263.334,236.185 261.197 C 236.450 260.617,236.667 260.074,236.667 259.988 C 236.667 259.897,238.501 259.833,241.163 259.833 L 245.658 259.833 246.018 260.625 C 246.871 262.504,247.301 263.461,247.590 264.125 L 247.897 264.833 249.201 264.833 L 250.504 264.833 250.270 264.292 C 249.937 263.523,249.362 262.235,248.875 261.167 C 248.307 259.919,247.540 258.226,247.220 257.509 C 247.074 257.183,246.747 256.467,246.492 255.917 C 246.238 255.367,245.865 254.542,245.663 254.083 C 245.461 253.625,245.123 252.875,244.913 252.417 C 244.703 251.958,244.366 251.208,244.163 250.750 C 243.961 250.292,243.609 249.504,243.380 249.000 C 243.151 248.496,242.898 247.915,242.819 247.708 C 242.685 247.360,242.574 247.333,241.252 247.333 L 239.829 247.333 239.396 248.292 M214.117 249.690 C 215.471 250.242,215.810 250.455,216.608 251.253 C 217.390 252.035,217.686 252.521,218.310 254.050 C 218.861 255.400,218.391 258.594,217.439 259.968 C 215.843 262.271,214.360 262.833,209.886 262.833 L 206.833 262.833 206.833 256.167 L 206.833 249.500 210.242 249.500 C 212.411 249.500,213.821 249.569,214.117 249.690 M241.994 251.583 C 243.141 254.121,243.388 254.680,243.933 255.958 C 244.080 256.302,244.341 256.865,244.514 257.208 L 244.828 257.833 241.256 257.833 L 237.684 257.833 237.935 257.232 C 238.073 256.902,238.255 256.508,238.339 256.357 C 238.466 256.130,239.781 253.156,240.950 250.451 L 241.224 249.819 241.421 250.284 C 241.529 250.540,241.787 251.125,241.994 251.583 M0.667 255.833 L 0.667 257.000 55.167 257.000 L 109.667 257.000 109.667 255.833 L 109.667 254.667 55.167 254.667 L 0.667 254.667 0.667 255.833 M291.000 255.750 L 291.000 256.833 345.500 256.833 L 400.000 256.833 400.000 255.750 L 400.000 254.667 345.500 254.667 L 291.000 254.667 291.000 255.750 " stroke="none" fill="#744c1c" fill-rule="evenodd"></path><path id="path1" d="M202.083 0.226 C 201.900 0.332,200.980 0.869,200.039 1.418 C 199.098 1.967,198.048 2.567,197.706 2.750 C 197.363 2.933,197.058 3.140,197.028 3.208 C 196.997 3.277,196.906 3.333,196.824 3.333 C 196.743 3.333,196.105 3.671,195.408 4.083 C 194.710 4.496,194.112 4.833,194.078 4.833 C 193.973 4.833,191.920 6.051,191.833 6.165 C 191.787 6.226,191.289 6.586,190.726 6.965 C 190.163 7.344,189.600 7.754,189.476 7.875 C 189.352 7.997,188.950 8.277,188.583 8.497 C 188.217 8.718,187.879 8.945,187.833 9.002 C 187.787 9.059,186.963 9.658,186.000 10.333 C 185.037 11.009,184.213 11.611,184.167 11.672 C 184.121 11.733,183.809 11.963,183.474 12.183 C 182.560 12.783,180.095 14.541,180.000 14.661 C 179.954 14.719,179.654 14.946,179.333 15.167 C 179.012 15.387,178.487 15.776,178.167 16.031 C 177.846 16.285,176.908 16.986,176.083 17.588 C 175.258 18.189,174.471 18.773,174.333 18.885 C 174.196 18.997,173.785 19.313,173.420 19.586 C 173.055 19.860,172.643 20.172,172.503 20.281 C 169.165 22.883,169.051 22.936,165.667 23.483 C 164.979 23.594,164.042 23.754,163.583 23.838 C 163.125 23.921,162.225 24.074,161.583 24.177 C 160.942 24.281,159.929 24.464,159.333 24.585 C 158.737 24.706,157.837 24.881,157.333 24.976 C 156.073 25.211,154.563 25.503,153.667 25.684 C 150.419 26.340,149.427 26.539,148.333 26.754 C 146.843 27.046,145.674 27.270,144.375 27.512 C 143.848 27.610,142.967 27.789,142.417 27.911 C 140.587 28.315,139.757 28.482,139.047 28.588 C 138.517 28.668,138.213 28.845,137.814 29.305 C 137.522 29.642,136.553 30.704,135.659 31.667 C 134.766 32.629,133.821 33.679,133.559 33.999 C 133.297 34.319,132.933 34.731,132.749 34.915 C 132.564 35.099,132.039 35.700,131.582 36.250 C 131.124 36.800,130.600 37.408,130.417 37.602 C 130.233 37.795,129.783 38.317,129.417 38.761 C 129.050 39.206,128.375 39.988,127.917 40.500 C 127.458 41.012,126.708 41.865,126.250 42.396 C 125.792 42.927,125.341 43.449,125.248 43.556 C 125.155 43.663,124.705 44.199,124.248 44.748 C 123.791 45.296,123.245 45.934,123.034 46.164 C 122.824 46.395,122.411 46.900,122.118 47.287 C 121.760 47.757,121.453 47.991,121.191 47.995 C 120.975 47.998,120.375 48.103,119.857 48.229 C 119.340 48.356,118.354 48.549,117.667 48.660 C 116.979 48.771,116.079 48.925,115.667 49.002 C 114.903 49.144,113.661 49.360,111.792 49.676 C 111.219 49.773,110.458 49.929,110.101 50.023 C 109.745 50.117,109.107 50.255,108.685 50.328 C 104.469 51.065,104.444 51.074,102.833 52.506 C 102.146 53.118,101.405 53.760,101.187 53.934 C 100.970 54.108,100.632 54.400,100.437 54.583 C 100.243 54.767,99.633 55.292,99.083 55.750 C 98.533 56.208,98.008 56.668,97.917 56.772 C 97.825 56.876,97.225 57.396,96.583 57.929 C 95.942 58.462,95.304 59.015,95.167 59.158 C 95.029 59.301,94.279 59.980,93.500 60.667 C 92.721 61.355,91.896 62.106,91.667 62.338 C 91.438 62.569,90.614 63.315,89.836 63.996 C 89.058 64.677,88.189 65.462,87.903 65.742 C 87.617 66.021,86.531 67.037,85.490 68.000 C 81.859 71.355,80.383 72.790,74.170 79.013 C 67.801 85.391,66.848 86.376,65.083 88.404 C 64.533 89.036,63.853 89.784,63.570 90.068 C 63.288 90.351,62.238 91.481,61.237 92.578 C 60.236 93.675,58.985 95.014,58.458 95.554 L 57.500 96.535 57.500 98.859 L 57.500 101.183 58.292 100.644 C 58.727 100.348,59.121 100.058,59.167 100.001 C 59.212 99.944,59.775 99.526,60.417 99.074 C 61.058 98.621,61.696 98.160,61.833 98.048 C 62.080 97.848,65.382 95.409,66.143 94.865 C 66.360 94.710,66.636 94.490,66.757 94.375 C 66.877 94.260,67.018 94.167,67.070 94.167 C 67.121 94.167,67.295 94.057,67.456 93.924 C 67.618 93.791,68.425 93.188,69.250 92.584 C 70.075 91.981,71.050 91.261,71.417 90.985 C 71.783 90.708,72.571 90.132,73.167 89.703 C 73.762 89.275,74.287 88.880,74.333 88.826 C 74.379 88.772,74.792 88.474,75.250 88.164 C 75.708 87.853,76.169 87.521,76.273 87.425 C 76.378 87.329,76.674 87.100,76.931 86.917 C 77.189 86.733,77.704 86.357,78.075 86.080 C 78.446 85.803,79.313 85.172,80.000 84.678 C 80.688 84.183,81.287 83.732,81.333 83.674 C 81.379 83.617,82.054 83.129,82.833 82.591 C 83.612 82.052,84.287 81.558,84.333 81.494 C 84.379 81.429,85.038 80.954,85.798 80.438 C 87.497 79.284,88.680 79.165,90.859 79.929 C 91.532 80.165,92.233 80.401,92.417 80.453 C 92.600 80.505,92.827 80.607,92.921 80.680 C 93.411 81.059,94.862 81.379,96.083 81.379 C 97.544 81.378,97.885 81.263,99.417 80.257 C 99.967 79.896,101.167 79.109,102.083 78.508 C 103.000 77.908,103.775 77.360,103.806 77.292 C 103.836 77.223,103.929 77.167,104.011 77.167 C 104.093 77.167,105.006 76.616,106.039 75.943 C 111.184 72.592,110.724 72.833,111.964 72.835 C 112.580 72.835,114.208 72.758,115.583 72.663 C 121.790 72.234,125.393 71.998,127.167 71.905 C 128.221 71.850,129.362 71.755,129.702 71.694 C 130.242 71.597,131.418 70.498,139.001 63.000 C 144.388 57.673,147.853 54.369,148.133 54.291 C 148.558 54.173,149.232 54.076,152.410 53.676 C 153.139 53.584,154.114 53.435,154.576 53.346 C 155.038 53.256,156.092 53.102,156.917 53.002 C 157.742 52.902,158.867 52.754,159.417 52.672 C 159.967 52.590,161.092 52.438,161.917 52.334 C 162.742 52.230,164.054 52.043,164.833 51.918 C 165.612 51.793,166.887 51.607,167.667 51.504 C 168.446 51.402,169.533 51.251,170.083 51.170 C 170.633 51.089,171.758 50.938,172.583 50.835 C 173.408 50.732,174.490 50.577,174.986 50.490 C 175.483 50.404,176.135 50.333,176.436 50.333 C 176.934 50.333,178.702 49.291,179.476 48.541 C 179.600 48.420,180.163 48.010,180.726 47.628 C 181.289 47.247,181.849 46.837,181.970 46.717 C 182.091 46.598,182.246 46.500,182.314 46.500 C 182.382 46.500,182.583 46.368,182.760 46.206 C 182.938 46.044,183.608 45.541,184.250 45.089 C 184.892 44.637,185.442 44.207,185.472 44.134 C 185.503 44.060,185.602 44.000,185.692 44.000 C 185.783 44.000,185.962 43.906,186.089 43.792 C 186.486 43.436,186.707 43.273,188.167 42.260 C 188.946 41.720,189.621 41.231,189.667 41.175 C 189.713 41.118,190.275 40.703,190.917 40.253 C 191.558 39.802,192.108 39.374,192.139 39.300 C 192.169 39.227,192.266 39.167,192.354 39.167 C 192.442 39.167,192.605 39.088,192.715 38.992 C 192.826 38.896,193.329 38.517,193.833 38.150 C 194.338 37.782,194.862 37.390,195.000 37.279 C 195.137 37.167,195.775 36.705,196.417 36.252 C 197.058 35.799,197.846 35.221,198.167 34.968 C 198.487 34.714,199.425 34.014,200.250 33.412 C 201.075 32.811,201.876 32.214,202.031 32.087 C 202.948 31.330,203.064 31.306,203.848 31.709 C 204.252 31.917,204.921 32.212,205.333 32.365 C 205.746 32.518,206.796 32.951,207.667 33.328 C 209.875 34.282,209.954 34.316,210.375 34.479 C 210.581 34.559,211.177 34.821,211.698 35.062 C 212.219 35.303,212.689 35.500,212.741 35.500 C 212.832 35.500,213.306 35.707,215.281 36.606 C 215.757 36.823,216.248 37.000,216.373 37.000 C 216.498 37.000,216.671 37.063,216.758 37.140 C 216.845 37.217,217.179 37.380,217.500 37.503 C 217.821 37.625,218.571 37.945,219.167 38.214 C 219.762 38.482,221.000 39.001,221.917 39.366 C 222.833 39.731,223.658 40.086,223.750 40.155 C 223.842 40.225,224.613 40.556,225.464 40.892 C 226.315 41.229,227.365 41.662,227.797 41.855 C 229.114 42.442,229.548 42.627,230.438 42.976 C 230.907 43.161,231.657 43.474,232.104 43.673 C 232.933 44.041,233.490 44.276,234.083 44.509 C 234.267 44.581,234.843 44.833,235.365 45.070 C 235.886 45.306,236.356 45.500,236.408 45.500 C 236.461 45.500,236.859 45.657,237.293 45.850 C 237.728 46.042,238.271 46.276,238.500 46.369 C 238.729 46.463,239.049 46.606,239.210 46.688 C 239.371 46.771,240.083 47.068,240.793 47.350 C 241.503 47.632,242.496 48.051,243.000 48.282 C 243.504 48.513,244.667 49.000,245.583 49.366 C 246.500 49.731,247.325 50.087,247.417 50.158 C 247.508 50.229,247.939 50.419,248.373 50.582 C 248.914 50.784,249.358 51.119,249.784 51.647 C 250.125 52.070,250.522 52.529,250.665 52.667 C 250.808 52.804,251.298 53.366,251.754 53.915 C 252.210 54.465,252.858 55.215,253.195 55.582 C 253.531 55.949,254.019 56.517,254.278 56.843 C 254.538 57.169,254.938 57.629,255.167 57.866 C 255.577 58.289,256.596 59.480,257.250 60.299 C 257.433 60.529,257.733 60.874,257.917 61.067 C 258.100 61.260,259.150 62.468,260.250 63.750 C 261.350 65.033,262.457 66.308,262.711 66.583 C 262.964 66.858,263.451 67.437,263.794 67.868 C 264.465 68.714,264.956 68.853,266.072 68.509 C 266.353 68.422,267.221 68.192,268.000 67.998 C 269.790 67.551,270.559 67.348,271.500 67.074 C 271.912 66.955,273.637 66.513,275.333 66.094 C 277.029 65.675,278.904 65.183,279.500 65.000 C 281.628 64.350,281.890 64.506,286.500 69.184 C 289.091 71.813,290.492 73.318,291.603 74.665 C 291.867 74.985,292.234 75.398,292.418 75.582 C 292.602 75.766,293.126 76.367,293.581 76.917 C 294.037 77.467,294.450 77.954,294.500 78.000 C 294.600 78.092,296.105 79.889,296.500 80.388 C 296.637 80.562,296.826 80.789,296.919 80.894 C 297.011 80.998,297.461 81.533,297.919 82.083 C 298.376 82.633,298.787 83.121,298.833 83.167 C 298.879 83.212,299.214 83.625,299.578 84.083 C 299.941 84.542,300.279 84.954,300.328 85.000 C 300.377 85.046,300.714 85.458,301.078 85.917 C 301.441 86.375,301.779 86.787,301.829 86.833 C 301.878 86.879,302.117 87.179,302.359 87.500 C 302.601 87.821,302.938 88.233,303.108 88.417 C 303.278 88.600,303.639 89.050,303.911 89.417 C 304.182 89.783,304.482 90.165,304.577 90.265 C 304.672 90.365,304.938 90.699,305.167 91.007 C 305.396 91.315,305.696 91.685,305.833 91.830 C 306.071 92.082,307.045 93.316,308.048 94.638 C 308.303 94.975,308.603 95.362,308.715 95.500 C 308.827 95.638,309.293 96.234,309.751 96.827 C 310.686 98.037,311.153 98.610,311.458 98.927 C 311.573 99.046,311.667 99.185,311.667 99.236 C 311.667 99.343,312.017 99.783,312.791 100.646 L 313.332 101.250 313.333 98.035 C 313.333 94.499,313.096 92.826,312.156 89.738 C 312.070 89.457,312.000 89.066,312.000 88.871 C 312.000 88.676,311.932 88.343,311.849 88.133 C 311.766 87.922,311.608 87.300,311.498 86.750 C 311.388 86.200,311.222 85.525,311.130 85.250 C 311.038 84.975,310.903 84.487,310.829 84.167 C 310.755 83.846,310.458 82.683,310.168 81.583 C 309.879 80.483,309.585 79.358,309.514 79.083 C 309.444 78.808,309.299 78.321,309.193 78.000 C 309.086 77.679,308.772 76.592,308.494 75.583 C 308.027 73.886,307.324 71.487,307.006 70.500 C 306.932 70.271,306.778 69.746,306.663 69.333 C 306.548 68.921,306.212 67.833,305.917 66.917 C 305.621 66.000,305.212 64.688,305.008 64.000 C 304.238 61.405,304.721 61.877,301.083 60.163 C 299.026 59.193,297.626 58.528,294.286 56.931 C 293.023 56.328,291.962 55.833,291.930 55.833 C 291.898 55.833,291.131 55.490,290.227 55.071 C 289.323 54.652,288.321 54.194,288.000 54.052 C 287.679 53.911,286.929 53.570,286.333 53.295 C 285.737 53.020,284.950 52.661,284.583 52.499 C 284.217 52.336,283.504 52.015,283.000 51.784 C 281.403 51.055,280.506 50.667,280.419 50.667 C 280.373 50.667,279.791 50.418,279.126 50.115 C 278.461 49.811,277.654 49.461,277.333 49.338 C 277.012 49.214,276.679 49.050,276.592 48.973 C 276.505 48.896,276.336 48.833,276.217 48.833 C 275.437 48.833,274.001 47.892,273.432 47.007 C 273.105 46.499,272.781 46.008,272.711 45.917 C 272.641 45.825,272.292 45.305,271.936 44.761 C 271.580 44.217,271.224 43.692,271.144 43.594 C 271.064 43.497,270.646 42.892,270.216 42.250 C 269.786 41.608,269.373 41.008,269.298 40.917 C 268.853 40.369,268.091 39.299,266.917 37.572 C 266.183 36.494,265.452 35.474,265.292 35.306 C 265.131 35.137,265.000 34.959,265.000 34.910 C 265.000 34.797,264.348 33.874,263.958 33.433 C 263.798 33.252,263.667 33.048,263.667 32.980 C 263.667 32.913,263.569 32.758,263.449 32.637 C 263.330 32.516,262.925 31.967,262.551 31.417 C 262.177 30.867,261.705 30.229,261.504 30.000 C 261.302 29.771,261.025 29.394,260.888 29.162 C 260.612 28.697,203.316 -0.015,202.726 0.016 C 202.556 0.025,202.267 0.120,202.083 0.226 M194.056 20.301 C 193.863 20.422,191.998 22.058,191.074 22.917 C 190.778 23.192,190.359 23.559,190.143 23.734 C 189.666 24.118,187.616 25.877,187.500 26.001 C 187.454 26.050,186.857 26.576,186.173 27.170 C 185.489 27.764,184.770 28.400,184.576 28.583 C 184.381 28.767,183.780 29.292,183.240 29.750 C 182.699 30.208,181.840 30.958,181.330 31.417 C 180.820 31.875,179.967 32.625,179.435 33.083 C 178.902 33.542,178.306 34.067,178.108 34.250 C 177.911 34.433,177.302 34.958,176.755 35.417 C 176.207 35.875,175.607 36.400,175.421 36.584 C 175.235 36.768,174.558 37.367,173.917 37.915 C 173.275 38.462,172.637 39.025,172.500 39.165 C 172.362 39.306,171.762 39.826,171.167 40.321 C 170.571 40.817,169.949 41.372,169.784 41.556 C 169.487 41.886,169.455 41.887,166.367 41.607 C 162.895 41.294,160.373 41.097,156.417 40.832 C 154.950 40.733,153.016 40.581,152.119 40.493 C 151.222 40.405,150.322 40.333,150.119 40.333 C 149.808 40.333,146.686 42.120,146.049 42.662 C 145.938 42.756,145.805 42.833,145.753 42.833 C 145.606 42.833,144.257 43.735,144.194 43.875 C 144.164 43.944,144.069 44.000,143.983 44.000 C 143.790 44.000,142.438 44.869,142.361 45.042 C 142.331 45.110,142.246 45.167,142.174 45.167 C 142.031 45.167,139.469 46.669,139.333 46.832 C 139.287 46.888,138.875 47.145,138.417 47.403 C 137.958 47.662,137.208 48.117,136.750 48.415 C 132.785 50.986,132.364 51.180,133.667 49.836 C 133.712 49.789,134.125 49.300,134.583 48.750 C 135.042 48.200,135.567 47.591,135.750 47.397 C 135.933 47.203,136.321 46.753,136.611 46.397 C 136.900 46.041,137.277 45.600,137.447 45.417 C 137.618 45.233,138.207 44.558,138.756 43.917 C 139.306 43.275,139.951 42.525,140.190 42.250 C 141.177 41.115,142.131 40.006,142.917 39.078 C 143.375 38.538,144.162 37.634,144.667 37.071 C 145.171 36.508,145.883 35.665,146.250 35.197 L 146.917 34.347 157.528 34.340 L 168.139 34.333 169.238 33.750 C 170.711 32.969,171.068 32.767,171.167 32.659 C 171.213 32.609,171.662 32.359,172.167 32.105 C 173.360 31.502,174.395 30.938,174.500 30.833 C 174.580 30.753,175.424 30.294,177.000 29.474 C 177.412 29.259,177.775 29.027,177.806 28.958 C 177.836 28.890,177.923 28.833,177.999 28.833 C 178.075 28.833,178.650 28.544,179.277 28.191 C 180.709 27.385,182.602 26.339,184.750 25.168 C 185.300 24.868,185.825 24.567,185.917 24.499 C 186.008 24.431,186.608 24.099,187.250 23.760 C 187.892 23.422,188.649 23.008,188.932 22.841 C 189.216 22.673,189.966 22.259,190.599 21.921 C 191.232 21.582,192.274 21.017,192.915 20.664 C 193.856 20.146,194.760 19.858,194.056 20.301 M256.833 39.248 C 257.521 40.057,258.287 40.951,258.536 41.235 C 259.256 42.056,259.664 42.543,260.139 43.151 C 260.384 43.463,260.733 43.877,260.917 44.071 C 261.100 44.265,261.623 44.872,262.080 45.420 C 262.536 45.968,262.952 46.454,263.004 46.500 C 263.090 46.577,264.765 48.561,266.167 50.249 C 268.643 53.229,268.720 53.293,270.500 53.822 C 270.912 53.944,271.662 54.178,272.167 54.341 C 272.671 54.503,274.208 54.990,275.583 55.422 C 282.749 57.676,282.621 57.587,278.917 57.733 C 277.725 57.780,275.137 57.914,273.167 58.031 C 271.196 58.148,268.875 58.246,268.009 58.247 L 266.434 58.250 266.141 57.667 C 265.980 57.346,265.081 55.508,264.144 53.583 C 263.206 51.658,262.190 49.688,261.886 49.205 C 261.582 48.722,261.333 48.298,261.333 48.264 C 261.333 48.229,261.044 47.724,260.691 47.142 C 260.338 46.560,259.765 45.558,259.418 44.917 C 259.070 44.275,258.703 43.637,258.601 43.500 C 258.500 43.362,258.310 43.063,258.180 42.833 C 258.049 42.604,257.468 41.606,256.888 40.615 C 256.308 39.625,255.833 38.743,255.833 38.657 C 255.833 38.571,255.758 38.500,255.667 38.500 C 255.575 38.500,255.500 38.393,255.500 38.262 C 255.500 38.131,255.406 37.922,255.292 37.797 C 255.177 37.672,254.985 37.386,254.865 37.160 C 254.600 36.661,254.952 37.034,256.833 39.248 M358.833 208.667 L 358.833 210.000 360.250 210.000 L 361.667 210.000 361.667 208.667 L 361.667 207.333 360.250 207.333 L 358.833 207.333 358.833 208.667 M39.500 211.824 C 33.182 212.967,29.815 220.156,32.666 226.416 C 32.869 226.861,33.140 227.330,33.268 227.458 C 33.395 227.586,33.500 227.752,33.500 227.826 C 33.500 228.318,36.735 231.000,37.328 231.000 C 37.425 231.000,37.635 231.068,37.794 231.150 C 40.224 232.414,45.585 231.778,47.692 229.977 C 47.999 229.715,48.303 229.501,48.368 229.500 C 48.595 229.500,50.301 227.242,50.635 226.500 C 51.349 224.912,51.667 223.460,51.667 221.783 C 51.667 215.102,46.185 210.615,39.500 211.824 M66.167 221.750 L 66.167 231.667 67.417 231.667 L 68.667 231.667 68.667 227.917 L 68.667 224.167 71.996 224.167 L 75.325 224.167 75.590 224.679 C 75.736 224.961,76.338 225.938,76.928 226.850 C 77.517 227.762,78.000 228.554,78.000 228.609 C 78.000 228.665,78.262 229.076,78.583 229.522 C 78.904 229.969,79.167 230.409,79.167 230.500 C 79.167 230.592,79.223 230.667,79.293 230.667 C 79.362 230.667,79.518 230.892,79.640 231.167 L 79.861 231.667 81.365 231.667 C 82.500 231.667,82.849 231.616,82.788 231.458 C 82.723 231.292,81.623 229.586,80.343 227.667 C 80.251 227.529,79.763 226.779,79.258 226.000 C 78.754 225.221,78.227 224.437,78.087 224.258 C 77.796 223.884,77.762 223.667,77.995 223.667 C 78.243 223.667,80.076 222.782,80.139 222.632 C 80.169 222.559,80.267 222.500,80.355 222.500 C 80.443 222.500,80.688 222.327,80.899 222.116 C 82.902 220.113,82.825 215.783,80.749 213.750 C 78.962 212.001,78.148 211.833,71.426 211.833 L 66.167 211.833 66.167 221.750 M97.167 221.750 L 97.167 231.667 98.333 231.667 L 99.500 231.667 99.500 223.750 C 99.500 219.396,99.556 215.834,99.625 215.834 C 99.694 215.835,99.938 216.111,100.167 216.447 C 100.396 216.784,100.665 217.141,100.765 217.241 C 100.865 217.341,101.240 217.804,101.598 218.269 C 103.417 220.628,103.921 221.264,104.093 221.417 C 104.197 221.508,104.460 221.846,104.678 222.167 C 104.896 222.487,105.247 222.938,105.458 223.167 C 105.670 223.396,106.009 223.827,106.213 224.124 C 106.696 224.829,106.862 224.808,107.523 223.958 C 107.827 223.569,108.118 223.213,108.170 223.167 C 108.223 223.121,108.446 222.821,108.667 222.500 C 108.887 222.179,109.112 221.879,109.167 221.833 C 109.223 221.787,109.489 221.451,109.759 221.087 C 110.336 220.307,110.452 220.158,111.250 219.167 C 111.582 218.754,111.944 218.304,112.055 218.167 C 112.165 218.029,112.479 217.617,112.753 217.250 C 113.938 215.662,113.833 215.029,113.833 223.802 L 113.833 231.667 115.083 231.667 L 116.333 231.667 116.333 221.750 L 116.333 211.833 114.956 211.833 C 113.723 211.833,113.550 211.872,113.298 212.208 C 113.143 212.415,112.715 212.996,112.347 213.500 C 111.978 214.004,111.599 214.507,111.505 214.618 C 111.411 214.729,111.333 214.897,111.333 214.993 C 111.333 215.089,111.277 215.167,111.208 215.168 C 111.140 215.168,110.896 215.444,110.667 215.781 C 110.438 216.117,110.172 216.473,110.076 216.571 C 109.981 216.670,109.533 217.275,109.082 217.917 C 108.631 218.558,108.221 219.121,108.171 219.167 C 108.122 219.213,107.861 219.550,107.591 219.917 C 106.791 221.005,106.805 221.008,105.745 219.587 C 105.473 219.222,105.162 218.809,105.054 218.670 C 104.946 218.531,103.935 217.179,102.807 215.667 C 101.680 214.154,100.661 212.817,100.544 212.695 C 100.427 212.574,100.254 212.330,100.160 212.154 C 100.011 211.876,99.799 211.833,98.577 211.833 L 97.167 211.833 97.167 221.750 M137.371 213.542 C 136.787 214.997,135.825 217.278,135.137 218.833 C 135.036 219.063,134.857 219.475,134.739 219.750 C 134.621 220.025,134.369 220.605,134.179 221.040 C 133.989 221.474,133.833 221.869,133.833 221.917 C 133.833 222.015,133.220 223.431,132.985 223.875 C 132.900 224.035,132.525 224.935,132.151 225.875 C 131.776 226.814,131.414 227.658,131.345 227.750 C 131.277 227.842,130.972 228.554,130.668 229.333 C 130.364 230.112,130.052 230.821,129.974 230.908 C 129.490 231.451,129.818 231.667,131.127 231.667 L 132.421 231.667 132.794 230.875 C 132.998 230.440,133.527 229.183,133.969 228.083 L 134.772 226.083 139.556 226.083 L 144.340 226.083 144.857 227.250 C 145.142 227.892,145.432 228.567,145.504 228.750 C 145.575 228.933,145.747 229.346,145.886 229.667 C 146.025 229.987,146.266 230.569,146.421 230.958 L 146.703 231.667 148.018 231.667 C 149.666 231.667,149.652 231.804,148.307 228.833 C 147.696 227.486,147.587 227.229,147.319 226.500 C 147.201 226.179,146.856 225.373,146.552 224.708 C 146.248 224.043,146.000 223.461,146.000 223.414 C 146.000 223.368,145.841 222.974,145.647 222.540 C 144.780 220.598,144.625 220.238,144.153 219.050 C 143.878 218.357,143.427 217.293,143.151 216.687 C 142.572 215.413,142.486 215.212,142.040 214.083 C 141.859 213.625,141.571 212.931,141.399 212.542 L 141.088 211.833 139.572 211.833 L 138.055 211.833 137.371 213.542 M162.833 221.750 L 162.833 231.667 164.000 231.667 L 165.167 231.667 165.167 223.463 C 165.167 215.706,165.182 215.282,165.449 215.671 C 165.604 215.898,165.776 216.121,165.832 216.167 C 165.887 216.213,166.376 216.887,166.917 217.667 C 167.458 218.446,167.946 219.121,168.002 219.167 C 168.058 219.213,168.474 219.775,168.926 220.417 C 169.701 221.514,170.706 222.889,171.851 224.417 C 172.126 224.783,172.702 225.571,173.130 226.167 C 173.559 226.762,173.954 227.287,174.009 227.333 C 174.064 227.379,174.413 227.867,174.786 228.417 C 175.158 228.967,175.603 229.577,175.773 229.773 C 175.944 229.969,176.326 230.475,176.622 230.898 L 177.160 231.667 178.580 231.667 L 180.000 231.667 180.000 221.750 L 180.000 211.833 178.750 211.833 L 177.500 211.833 177.500 219.843 C 177.500 225.349,177.446 227.819,177.327 227.746 C 177.231 227.687,176.967 227.344,176.740 226.984 C 176.304 226.293,175.940 225.817,175.458 225.308 C 175.298 225.139,175.167 224.962,175.167 224.915 C 175.167 224.811,173.351 222.337,173.048 222.029 C 172.929 221.907,172.749 221.654,172.649 221.466 C 172.486 221.162,171.652 220.006,171.110 219.333 C 170.999 219.196,170.538 218.558,170.085 217.917 C 169.632 217.275,169.214 216.713,169.155 216.667 C 169.051 216.584,167.513 214.477,166.285 212.731 L 165.653 211.833 164.243 211.833 L 162.833 211.833 162.833 221.750 M213.167 221.750 L 213.167 231.667 220.417 231.667 L 227.667 231.667 227.667 230.417 L 227.667 229.167 221.583 229.167 L 215.500 229.167 215.500 226.000 L 215.500 222.833 221.000 222.833 L 226.500 222.833 226.500 221.667 L 226.500 220.500 221.000 220.500 L 215.500 220.500 215.500 217.333 L 215.500 214.167 221.583 214.167 L 227.667 214.167 227.667 213.000 L 227.667 211.833 220.417 211.833 L 213.167 211.833 213.167 221.750 M239.999 211.958 C 239.998 212.127,240.941 214.540,241.435 215.630 C 241.654 216.113,241.833 216.568,241.833 216.640 C 241.833 216.712,241.983 217.081,242.167 217.461 C 242.350 217.840,242.500 218.230,242.500 218.328 C 242.500 218.425,242.564 218.635,242.642 218.794 C 242.720 218.953,242.900 219.346,243.041 219.667 C 243.182 219.987,243.418 220.524,243.565 220.859 C 243.713 221.193,243.833 221.519,243.833 221.583 C 243.833 221.647,243.936 221.936,244.061 222.225 C 244.187 222.514,244.499 223.275,244.756 223.917 C 245.012 224.558,245.350 225.383,245.505 225.750 C 245.661 226.117,245.999 226.942,246.255 227.583 C 246.512 228.225,246.853 229.050,247.012 229.417 C 247.171 229.783,247.431 230.440,247.590 230.875 L 247.879 231.667 249.253 231.667 L 250.628 231.667 250.998 230.708 C 251.201 230.181,251.467 229.525,251.588 229.250 C 252.045 228.214,252.314 227.561,252.585 226.833 C 252.900 225.988,252.976 225.805,253.574 224.453 C 253.808 223.924,254.000 223.416,254.000 223.326 C 254.000 223.165,254.090 222.954,254.474 222.211 C 254.580 222.006,254.667 221.764,254.667 221.674 C 254.667 221.584,254.858 221.076,255.093 220.547 C 255.702 219.170,255.671 219.245,257.151 215.555 C 258.788 211.475,258.782 211.833,257.208 211.835 C 255.852 211.836,255.500 212.076,255.500 213.000 C 255.500 213.147,255.437 213.338,255.359 213.425 C 255.213 213.590,255.090 213.891,253.080 219.000 C 251.871 222.073,251.840 222.151,251.585 222.750 C 251.319 223.376,249.575 227.799,249.417 228.250 C 249.306 228.567,249.293 228.564,249.147 228.185 C 248.993 227.785,248.667 227.018,248.255 226.083 C 248.133 225.808,247.797 224.946,247.508 224.167 C 247.218 223.387,246.873 222.538,246.741 222.278 C 246.608 222.019,246.500 221.737,246.500 221.651 C 246.500 221.566,246.360 221.178,246.188 220.790 C 246.017 220.401,245.537 219.221,245.122 218.167 C 244.708 217.112,243.973 215.256,243.490 214.042 L 242.612 211.833 241.306 211.833 C 240.588 211.833,240.000 211.890,239.999 211.958 M272.000 221.750 L 272.000 231.667 278.500 231.667 L 285.000 231.667 285.000 230.417 L 285.000 229.167 279.750 229.167 L 274.500 229.167 274.500 220.500 L 274.500 211.833 273.250 211.833 L 272.000 211.833 272.000 221.750 M299.000 221.750 L 299.000 231.667 306.250 231.667 L 313.500 231.667 313.500 230.417 L 313.500 229.167 307.417 229.167 L 301.333 229.167 301.333 226.000 L 301.333 222.833 306.750 222.833 L 312.167 222.833 312.167 221.667 L 312.167 220.500 306.750 220.500 L 301.333 220.500 301.333 217.333 L 301.333 214.167 307.417 214.167 L 313.500 214.167 313.500 213.000 L 313.500 211.833 306.250 211.833 L 299.000 211.833 299.000 221.750 M328.000 221.750 L 328.000 231.667 329.250 231.667 L 330.500 231.667 330.500 227.917 L 330.500 224.167 333.799 224.167 L 337.098 224.167 337.591 224.997 C 337.862 225.453,338.140 225.828,338.208 225.830 C 338.277 225.832,338.333 225.903,338.333 225.989 C 338.333 226.146,339.331 227.845,339.514 228.000 C 339.568 228.046,339.828 228.458,340.092 228.917 C 340.355 229.375,340.630 229.775,340.702 229.806 C 340.774 229.836,340.833 229.942,340.833 230.040 C 340.833 230.138,341.021 230.464,341.250 230.765 C 341.479 231.065,341.667 231.391,341.667 231.489 C 341.667 231.601,342.191 231.667,343.083 231.667 C 344.825 231.667,344.831 231.308,343.122 229.083 C 343.052 228.992,342.565 228.242,342.041 227.417 C 341.517 226.592,341.031 225.842,340.961 225.750 C 340.135 224.671,339.593 223.667,339.835 223.667 C 340.510 223.667,342.576 222.385,343.162 221.602 C 344.779 219.446,344.526 215.769,342.624 213.773 C 340.980 212.048,340.010 211.847,333.292 211.839 L 328.000 211.833 328.000 221.750 M359.000 221.750 L 359.000 231.667 360.250 231.667 L 361.500 231.667 361.500 221.750 L 361.500 211.833 360.250 211.833 L 359.000 211.833 359.000 221.750 M43.624 214.237 C 47.151 215.176,49.167 217.908,49.167 221.750 C 49.167 231.328,35.811 232.392,34.157 222.945 C 33.865 221.277,34.555 217.984,35.333 217.333 C 35.388 217.287,35.604 217.005,35.813 216.706 C 36.022 216.407,36.543 215.902,36.971 215.584 C 37.400 215.265,37.825 214.944,37.917 214.870 C 38.008 214.796,38.533 214.601,39.083 214.437 C 39.633 214.272,40.158 214.113,40.250 214.082 C 40.698 213.932,42.850 214.031,43.624 214.237 M77.417 214.500 C 79.077 215.282,79.833 216.397,79.833 218.061 C 79.833 221.027,78.250 221.827,72.375 221.831 L 68.667 221.833 68.667 217.985 L 68.667 214.137 72.792 214.201 C 75.890 214.248,77.041 214.323,77.417 214.500 M339.378 214.555 C 342.145 215.810,342.640 219.369,340.264 220.923 C 339.042 221.723,338.318 221.833,334.298 221.833 L 330.500 221.833 330.500 217.985 L 330.500 214.137 334.625 214.204 C 338.058 214.259,338.855 214.318,339.378 214.555 M140.494 216.778 C 140.702 217.313,141.016 218.074,141.192 218.470 C 141.369 218.866,141.741 219.766,142.020 220.470 C 142.610 221.959,142.967 222.800,143.181 223.206 C 143.265 223.365,143.333 223.534,143.333 223.581 C 143.333 223.628,141.647 223.667,139.586 223.667 L 135.838 223.667 136.165 222.838 C 136.345 222.382,136.562 221.876,136.648 221.713 C 136.734 221.550,136.965 221.004,137.161 220.500 C 137.569 219.451,137.647 219.267,138.237 217.969 C 138.473 217.447,138.667 216.918,138.667 216.794 C 138.667 216.669,138.732 216.495,138.811 216.408 C 138.891 216.321,139.088 215.896,139.249 215.464 L 139.541 214.677 139.829 215.242 C 139.988 215.552,140.287 216.244,140.494 216.778 " stroke="none" fill="#046444" fill-rule="evenodd"></path><path id="path2" d="" stroke="none" fill="#785830" fill-rule="evenodd"></path><path id="path3" d="" stroke="none" fill="#785830" fill-rule="evenodd"></path><path id="path4" d="" stroke="none" fill="#785830" fill-rule="evenodd"></path></g></svg>