<?xml version="1.0" encoding="utf-8"?>
<!-- Generator: Adobe Illustrator 27.0.0, SVG Export Plug-In . SVG Version: 6.00 Build 0)  -->
<svg version="1.1" id="Layer_1" xmlns="http://www.w3.org/2000/svg" xmlns:xlink="http://www.w3.org/1999/xlink" x="0px" y="0px"
	 viewBox="0 0 160 106.7" style="enable-background:new 0 0 160 106.7;" xml:space="preserve">
<style type="text/css">
	.st0{fill:#FFFFFF;}
</style>
<g>
	<g>
		<path class="st0" d="M9,73.8c0,1,0.1,1.7,0.4,1.9c0.3,0.3,1.1,0.4,2.5,0.4v3.8H0.4v-3.8c1.4,0,2.3-0.1,2.6-0.4
			c0.3-0.3,0.4-0.9,0.4-1.9V52.3c0-1-0.1-1.7-0.4-1.9c-0.3-0.3-1.2-0.4-2.6-0.4v-3.8H12v3.8c-1.4,0-2.3,0.1-2.5,0.4
			C9.2,50.6,9,51.2,9,52.3V73.8z M23.9,74c0.6,1,1.1,1.6,1.6,1.8c0.4,0.2,1.2,0.4,2.3,0.4v3.8h-6.9L10.4,63.7v-1.8l10.4-15.8h6.4
			v3.8c-1.1,0-1.8,0.1-2.1,0.3c-0.4,0.2-0.8,0.8-1.4,1.6l-7.3,10.7L23.9,74z"/>
		<path class="st0" d="M48.5,73.8c0,1,0.1,1.7,0.4,1.9c0.3,0.3,1,0.4,2.3,0.4v3.8h-7.8l-0.2-3.1l-2.7,2.3c-1.2,0.8-2.6,1.2-4.3,1.2
			c-1.9,0-3.5-0.6-4.7-1.7c-1.2-1.1-1.8-2.6-1.8-4.3c0-3.5,2.2-5.7,6.6-6.6l7-1.5V64c0-2.9-1.5-4.3-4.5-4.3c-2.3,0-4.7,0.5-7,1.5
			l-0.3-0.2l1.4-3.8c2.5-0.7,4.9-1.1,7.1-1.1c2.6,0,4.7,0.6,6.3,1.7c1.6,1.2,2.4,2.8,2.4,4.8V73.8z M38.1,70.3
			c-1.1,0.3-1.8,0.7-2.3,1.1c-0.5,0.4-0.7,1.1-0.7,2c0,0.9,0.3,1.7,0.9,2.2c0.6,0.5,1.3,0.8,2.3,0.8c1.7,0,3.3-0.8,4.8-2.3v-5.2
			L38.1,70.3z"/>
		<path class="st0" d="M63.5,57.4c1.2-0.9,2.6-1.4,4-1.4c0.8,0,1.7,0.1,2.6,0.4l-1.7,4.7c-0.7-0.2-1.3-0.3-2.1-0.3
			c-1.9,0-3.6,0.8-5,2.3v10.7c0,1,0.2,1.7,0.5,1.9c0.4,0.3,1.4,0.4,3.2,0.4v3.8H53.3v-3.8c1.3,0,2-0.1,2.3-0.4
			c0.3-0.3,0.4-0.9,0.4-1.9V62.6c0-1-0.1-1.6-0.4-1.9c-0.3-0.3-1-0.4-2.3-0.4v-3.8H61l0.2,4.1h0.1L63.5,57.4z"/>
		<path class="st0" d="M79.8,73.8c0,1,0.1,1.6,0.4,1.9c0.3,0.3,1,0.4,2.3,0.4v3.8H71.8v-3.8c1.3,0,2-0.1,2.3-0.4
			c0.3-0.3,0.4-0.9,0.4-1.9V62.6c0-1-0.1-1.7-0.4-1.9c-0.3-0.3-1-0.4-2.3-0.4v-3.8h8V73.8z M74.4,48.2c0.6-0.5,1.3-0.8,2.3-0.8
			c0.9,0,1.7,0.3,2.2,0.8c0.6,0.5,0.9,1.2,0.9,2c0,0.8-0.3,1.5-0.9,2c-0.6,0.5-1.3,0.8-2.2,0.8c-0.9,0-1.7-0.3-2.3-0.8
			s-0.8-1.2-0.8-2C73.6,49.4,73.8,48.7,74.4,48.2z"/>
		<path class="st0" d="M106.6,73.8c0,1,0.1,1.7,0.4,1.9c0.3,0.3,1,0.4,2.3,0.4v3.8h-8V63.8c0-2.3-1.1-3.5-3.4-3.5
			c-1.6,0-3.3,0.6-5.2,1.8v11.7c0,1,0.1,1.6,0.4,1.9c0.3,0.3,1,0.4,2.3,0.4v3.8H84.7v-3.8c1.3,0,2-0.1,2.3-0.4
			c0.3-0.3,0.4-0.9,0.4-1.9V62.6c0-1-0.1-1.6-0.4-1.9c-0.3-0.3-1-0.4-2.3-0.4v-3.8h7.8l0.2,3.1h0.1l2.3-2.3c1.6-0.9,3.3-1.3,4.9-1.3
			c2,0,3.6,0.6,4.8,1.7c1.2,1.2,1.9,2.8,1.9,5V73.8z"/>
		<path class="st0" d="M133.4,73.8c0,1,0.1,1.7,0.4,1.9c0.3,0.3,1,0.4,2.3,0.4v3.8h-8V63.8c0-2.3-1.1-3.5-3.4-3.5
			c-1.6,0-3.3,0.6-5.2,1.8v11.7c0,1,0.1,1.6,0.4,1.9c0.3,0.3,1,0.4,2.3,0.4v3.8h-10.7v-3.8c1.3,0,2-0.1,2.3-0.4
			c0.3-0.3,0.4-0.9,0.4-1.9V62.6c0-1-0.1-1.6-0.4-1.9c-0.3-0.3-1-0.4-2.3-0.4v-3.8h7.8l0.2,3.1h0.1l2.3-2.3c1.6-0.9,3.3-1.3,4.9-1.3
			c2,0,3.6,0.6,4.8,1.7c1.2,1.2,1.9,2.8,1.9,5V73.8z"/>
		<path class="st0" d="M156.9,73.8c0,1,0.1,1.7,0.4,1.9c0.3,0.3,1,0.4,2.3,0.4v3.8h-7.8l-0.2-3.1l-2.7,2.3c-1.2,0.8-2.6,1.2-4.3,1.2
			c-1.9,0-3.5-0.6-4.7-1.7c-1.2-1.1-1.8-2.6-1.8-4.3c0-3.5,2.2-5.7,6.6-6.6l7-1.5V64c0-2.9-1.5-4.3-4.5-4.3c-2.3,0-4.7,0.5-7,1.5
			l-0.3-0.2l1.4-3.8c2.5-0.7,4.9-1.1,7.1-1.1c2.6,0,4.7,0.6,6.3,1.7c1.6,1.2,2.4,2.8,2.4,4.8V73.8z M146.5,70.3
			c-1.1,0.3-1.8,0.7-2.3,1.1c-0.5,0.4-0.7,1.1-0.7,2c0,0.9,0.3,1.7,0.9,2.2c0.6,0.5,1.3,0.8,2.3,0.8c1.7,0,3.3-0.8,4.8-2.3v-5.2
			L146.5,70.3z"/>
	</g>
	<path class="st0" d="M124.7,36.7l-0.4-1.6c-0.2-1.1-0.5-2.1-0.8-3.1l-0.4-1.5c-0.1-0.5-0.3-1-0.4-1.5l-0.5-1.5
		c-0.2-0.5-0.3-1-0.5-1.5l-0.3-0.8l-1.7-0.8l-3-1.5l-3.1-1.4c-0.5-0.2-1-0.5-1.5-0.7l-1.5-0.7c-0.4-0.2-0.7-0.3-1.1-0.5
		c-0.7-1-1.4-2.1-2.1-3.1l-1.3-1.9c-0.5-0.6-0.9-1.3-1.4-1.9l-0.6-0.8l-23-11.5L76.9,3l-2.6,1.9c-0.9,0.6-1.8,1.3-2.6,1.9l-2.6,1.9
		l-1.3,1c0,0,0,0,0,0l-3.9,0.7c-0.5,0.1-1,0.2-1.5,0.3L60.8,11l-2.9,0.6L55.5,12l-1.3,1.4c-0.6,0.6-1.1,1.2-1.6,1.9L51,17.1
		c-0.5,0.6-1.1,1.2-1.6,1.9l-0.6,0.7c-0.4,0.1-0.8,0.1-1.1,0.2l-1.9,0.3c-0.6,0.1-1.3,0.2-1.9,0.4L42,21l-0.5,0.4l-2.2,1.9
		c-0.8,0.6-1.5,1.3-2.2,2c-0.7,0.7-1.5,1.3-2.2,2l-2.2,2l-2.1,2.1c-0.7,0.7-1.4,1.4-2.1,2.1c-0.7,0.7-1.4,1.4-2.1,2.2l-1,1.1
		c-0.3,0.4-1.7,1.8-2,2.2v1.7l11.4-8.4c1.7-1.1,3.3,1.3,5,0.3l4.8-3.1l7.5-0.5l0.2,0l0.2-0.2l6.9-6.8l11.5-1.6l0.2,0l0.2-0.1
		l5.3-3.8c1.6-1.2,3.3-2.4,4.9-3.6l18.4,7.8l6,6.9l0.1,0.1l0.2,0.1l6.4-1.7c2.1,0.6,12.8,14.5,12.8,14.5v-2.5
		C125,37.8,124.9,37.2,124.7,36.7z M67.9,17.3L60,16.7l-7.2,4.5l6-7l8.4,0L78.4,8L67.9,17.3z M106.5,23.9l-1.6-3.2l-3.6-6.2l6.1,7.2
		l5.6,1.8L106.5,23.9z"/>
	<g>
		<path class="st0" d="M17,92.9c-0.6,0-1.1-0.1-1.6-0.3c-0.5-0.2-0.9-0.5-1.3-0.9c-0.3-0.4-0.6-0.8-0.8-1.3c-0.2-0.5-0.3-1-0.3-1.5
			c0-0.6,0.1-1.1,0.3-1.6c0.2-0.5,0.5-0.9,0.8-1.3c0.3-0.4,0.8-0.7,1.3-0.9c0.5-0.2,1-0.3,1.6-0.3c0.6,0,1.1,0.1,1.6,0.3
			c0.5,0.2,0.9,0.5,1.3,0.9c0.3,0.4,0.6,0.8,0.8,1.3c0.2,0.5,0.3,1,0.3,1.6c0,0.5-0.1,1.1-0.3,1.5c-0.2,0.5-0.5,0.9-0.8,1.3
			c-0.3,0.4-0.8,0.7-1.3,0.9C18.1,92.8,17.5,92.9,17,92.9z M17,92c0.6,0,1.2-0.1,1.6-0.4c0.5-0.3,0.8-0.7,1.1-1.1s0.4-1,0.4-1.6
			c0-0.6-0.1-1.1-0.4-1.6c-0.2-0.5-0.6-0.8-1.1-1.1c-0.5-0.3-1-0.4-1.6-0.4c-0.6,0-1.2,0.1-1.6,0.4c-0.5,0.3-0.8,0.7-1.1,1.1
			c-0.2,0.5-0.4,1-0.4,1.6c0,0.6,0.1,1.1,0.4,1.6c0.2,0.5,0.6,0.8,1.1,1.1C15.8,91.9,16.3,92,17,92z"/>
		<path class="st0" d="M26.8,92.8V85h3.7c0.8,0,1.4,0.2,1.9,0.7c0.5,0.4,0.7,1,0.7,1.8c0,0.5-0.1,0.9-0.3,1.2
			c-0.2,0.3-0.4,0.5-0.7,0.7c-0.3,0.2-0.6,0.3-0.9,0.3l2,3.1h-1l-1.9-3h-2.7v3H26.8z M27.7,88.9h2.7c0.3,0,0.6,0,0.9-0.1
			c0.3-0.1,0.5-0.2,0.7-0.5c0.2-0.2,0.3-0.5,0.3-0.9c0-0.5-0.2-0.9-0.5-1.2c-0.3-0.3-0.8-0.4-1.3-0.4h-2.7V88.9z"/>
		<path class="st0" d="M39.1,92.8V85h1l2.8,3.7l2.7-3.7h1v7.8h-0.9v-6.4L42.9,90L40,86.3v6.4H39.1z"/>
		<path class="st0" d="M52.1,92.8l3.3-7.8h1.1l3.3,7.8h-1l-1-2.3H54l-1,2.3H52.1z M54.4,89.7h3.2L56,85.9L54.4,89.7z"/>
		<path class="st0" d="M65.3,92.8V85h1l4.8,6.5V85H72v7.8h-1l-4.8-6.6v6.6H65.3z"/>
		<path class="st0" d="M85.3,92.8V85H91v0.8h-4.8v2.6h4.3v0.9h-4.3v2.6H91v0.8H85.3z"/>
		<path class="st0" d="M99.1,92.8L96,85h1l2.7,6.8l2.7-6.8h1l-3.1,7.8H99.1z"/>
		<path class="st0" d="M108.7,92.8V85h0.9v6.9h4.2v0.8H108.7z"/>
		<path class="st0" d="M119.4,92.8V85h5.7v0.8h-4.8v2.6h4.3v0.9h-4.3v2.6h4.8v0.8H119.4z"/>
		<path class="st0" d="M131,92.8V85h3.7c0.8,0,1.4,0.2,1.9,0.7c0.5,0.4,0.7,1,0.7,1.8c0,0.5-0.1,0.9-0.3,1.2
			c-0.2,0.3-0.4,0.5-0.7,0.7c-0.3,0.2-0.6,0.3-0.9,0.3l2,3.1h-1l-1.9-3h-2.7v3H131z M131.9,88.9h2.7c0.3,0,0.6,0,0.9-0.1
			c0.3-0.1,0.5-0.2,0.7-0.5c0.2-0.2,0.3-0.5,0.3-0.9c0-0.5-0.2-0.9-0.5-1.2c-0.3-0.3-0.8-0.4-1.3-0.4h-2.7V88.9z"/>
		<path class="st0" d="M143.3,84.2v-1h1v1H143.3z M143.4,92.8V85h0.9v7.8H143.4z"/>
	</g>
	<g>
		<path class="st0" d="M51.1,106.1c-0.6,0-1.1-0.1-1.6-0.4c-0.5-0.3-0.8-0.6-1.1-1.1c-0.3-0.5-0.4-1-0.4-1.6v-3.9h0.8v3.9
			c0,0.5,0.1,1,0.3,1.3c0.2,0.3,0.5,0.6,0.9,0.7c0.3,0.2,0.7,0.2,1.1,0.2c0.4,0,0.8-0.1,1.1-0.2c0.3-0.2,0.6-0.4,0.9-0.7
			c0.2-0.3,0.3-0.8,0.3-1.3v-3.9h0.8v3.9c0,0.6-0.1,1.1-0.4,1.6c-0.3,0.5-0.6,0.8-1.1,1.1C52.2,106,51.7,106.1,51.1,106.1z"/>
		<path class="st0" d="M60.1,106v-6.9h0.8v6.1h4v0.7H60.1z"/>
		<path class="st0" d="M72.8,106.1c-0.6,0-1.1-0.1-1.6-0.4c-0.5-0.3-0.8-0.6-1.1-1.1c-0.3-0.5-0.4-1-0.4-1.6v-3.9h0.8v3.9
			c0,0.5,0.1,1,0.3,1.3c0.2,0.3,0.5,0.6,0.9,0.7c0.3,0.2,0.7,0.2,1.1,0.2c0.4,0,0.8-0.1,1.1-0.2c0.3-0.2,0.6-0.4,0.9-0.7
			c0.2-0.3,0.3-0.8,0.3-1.3v-3.9h0.8v3.9c0,0.6-0.1,1.1-0.4,1.6c-0.3,0.5-0.6,0.8-1.1,1.1C74,106,73.4,106.1,72.8,106.1z"/>
		<path class="st0" d="M81.8,106v-6.9h3.1c0.4,0,0.9,0.1,1.3,0.2c0.4,0.2,0.8,0.4,1.1,0.7c0.3,0.3,0.6,0.7,0.8,1.1
			c0.2,0.4,0.3,0.9,0.3,1.4s-0.1,1-0.3,1.4s-0.4,0.8-0.8,1.1c-0.3,0.3-0.7,0.5-1.1,0.7c-0.4,0.2-0.8,0.2-1.3,0.2H81.8z M82.7,105.3
			h2.2c0.5,0,1-0.1,1.4-0.4c0.4-0.2,0.7-0.6,0.9-1c0.2-0.4,0.3-0.9,0.3-1.3c0-0.5-0.1-0.9-0.3-1.4c-0.2-0.4-0.5-0.7-0.9-1
			c-0.4-0.2-0.8-0.4-1.4-0.4h-2.2V105.3z"/>
		<path class="st0" d="M92.8,106l3.1-6.9h1l3.1,6.9h-0.9l-0.9-2h-3.6l-0.9,2H92.8z M94.9,103.3h3l-1.5-3.4L94.9,103.3z"/>
		<path class="st0" d="M108.2,106.1c-0.7,0-1.4-0.2-1.9-0.5c-0.5-0.3-0.9-0.7-1.2-1.3c-0.3-0.5-0.4-1.1-0.4-1.8s0.1-1.2,0.4-1.8
			c0.3-0.5,0.7-1,1.3-1.3c0.5-0.3,1.2-0.5,1.9-0.5c0.8,0,1.5,0.2,2,0.5c0.6,0.4,1,0.8,1.3,1.4h-0.9c-0.2-0.4-0.5-0.7-0.9-0.9
			c-0.4-0.2-0.9-0.3-1.4-0.3c-0.6,0-1.1,0.1-1.5,0.4c-0.4,0.2-0.8,0.6-1,1c-0.2,0.4-0.3,0.9-0.3,1.4c0,0.5,0.1,1,0.3,1.4
			c0.2,0.4,0.5,0.8,1,1c0.4,0.2,0.9,0.4,1.5,0.4c0.4,0,0.9-0.1,1.3-0.3c0.4-0.2,0.7-0.4,1-0.8c0.2-0.3,0.4-0.7,0.4-1.2h-2.7v-0.7
			h3.4v3.7h-0.8v-1.2c-0.2,0.2-0.4,0.4-0.6,0.6c-0.2,0.2-0.5,0.4-0.9,0.5C109,106,108.6,106.1,108.2,106.1z M108.2,98.5
			c-0.4,0-0.7-0.1-0.9-0.3c-0.3-0.2-0.4-0.4-0.4-0.7c0-0.1,0-0.1,0-0.2c0,0,0-0.1,0-0.1h0.2c0,0.2,0.1,0.4,0.3,0.5
			c0.2,0.1,0.4,0.2,0.7,0.2c0.3,0,0.5-0.1,0.7-0.2c0.2-0.1,0.3-0.3,0.3-0.5h0.2c0,0.1,0.1,0.2,0.1,0.3c0,0.3-0.1,0.5-0.4,0.7
			C108.8,98.5,108.5,98.5,108.2,98.5z"/>
	</g>
	<rect x="0.7" y="102" class="st0" width="43.3" height="0.9"/>
	<rect x="116.3" y="102" class="st0" width="43.3" height="0.9"/>
</g>
</svg>
